<svg viewBox="0 0 22 24" fill="none" xmlns="http://www.w3.org/2000/svg"><mask id="a" style="mask-type:alpha" maskUnits="userSpaceOnUse" x="0" y="12" width="22" height="12"><path fill-rule="evenodd" clip-rule="evenodd" d="M8.112 12h5.816c2.216 0 4.234.936 5.698 2.441A8.415 8.415 0 0 1 22 20.34V24H0v-3.661c0-2.319.91-4.392 2.374-5.898C3.838 12.936 5.856 12 8.112 12Zm5.816 1.872H8.112c-1.741 0-3.324.733-4.472 1.87a6.727 6.727 0 0 0-1.82 4.597v1.83h18.4v-1.83a6.58 6.58 0 0 0-1.86-4.596c-1.148-1.138-2.69-1.871-4.432-1.871Z" fill="#fff"/></mask><g mask="url(#a)"><mask id="b" style="mask-type:alpha" maskUnits="userSpaceOnUse" x="-820" y="-55" width="1253" height="5053"><path d="M-819.492 4997.74H432.662V-54.345H-819.492V4997.74Z" fill="#000"/></mask><g mask="url(#b)"><path d="M-4.583 7.217h31.166v21.566H-4.583V7.218Z" fill="#000"/></g></g><mask id="c" style="mask-type:alpha" maskUnits="userSpaceOnUse" x="5" y="0" width="12" height="12"><path fill-rule="evenodd" clip-rule="evenodd" d="M10.98 0c1.679 0 3.194.655 4.259 1.761C16.346 2.827 17 4.341 17 5.98c0 1.679-.654 3.194-1.761 4.26-1.065 1.105-2.58 1.76-4.26 1.76-1.638 0-3.154-.655-4.218-1.76C5.655 9.173 5 7.658 5 5.98c0-1.64.655-3.153 1.761-4.219C7.825.655 9.341 0 10.979 0Zm2.948 3.072c-.737-.779-1.801-1.229-2.949-1.229-1.146 0-2.17.45-2.908 1.23-.778.736-1.228 1.76-1.228 2.907 0 1.188.45 2.211 1.228 2.948.738.779 1.762 1.23 2.909 1.23 1.147 0 2.211-.451 2.948-1.23a4.138 4.138 0 0 0 1.23-2.948c0-1.147-.492-2.17-1.23-2.908Z" fill="#fff"/></mask><g mask="url(#c)"><mask id="d" style="mask-type:alpha" maskUnits="userSpaceOnUse" x="-849" y="-54" width="1297" height="5087"><path d="M-848.672 5032.88H447.447V-53.94H-848.672v5086.82Z" fill="#000"/></mask><g mask="url(#d)"><path d="M.255-4.816h21.488v21.633H.255V-4.816Z" fill="#000"/></g></g></svg>