<svg xmlns="http://www.w3.org/2000/svg" viewBox="0 0 20 22"><path d="M19.1 18.2c0-1.8-.8-3.7-2.1-4.9-1.3-1.3-3.1-2-5-2H7.1c-1.9 0-3.6.7-5 2C.8 14.6 0 16.4 0 18.2v3.2h19.1v-3.2zm-12-4.9H12c1.3 0 2.6.5 3.6 1.4.9.9 1.5 2.2 1.5 3.5v1.2h-15v-1.2c0-1.3.5-2.6 1.5-3.5.9-.9 2.2-1.4 3.5-1.4zM9.5 10.1c.1 0 .1 0 0 0 1.4 0 2.7-.5 3.7-1.5 1-.9 1.5-2.2 1.5-3.6 0-1.3-.5-2.6-1.5-3.6C12.3.5 11 0 9.6 0h-.1C8.2 0 6.9.5 6 1.5 5 2.4 4.4 3.7 4.4 5c0 1.4.5 2.7 1.5 3.6 1 1 2.3 1.5 3.6 1.5zM6.4 5c0-.8.3-1.6.9-2.2.6-.5 1.4-.8 2.2-.8.8 0 1.6.3 2.2.9l.2.1c.6.6.9 1.3.8 2.1 0 .8-.3 1.6-.9 2.1-.6.6-1.4.9-2.2.9-.8 0-1.6-.3-2.2-.9-.6-.5-1-1.3-1-2.2z"/></svg>
