<svg xmlns="http://www.w3.org/2000/svg" viewBox="0 0 22.67 33.66"><path d="M10.8 28.1a3.14 3.14 0 01-.68.07 3.67 3.67 0 01-3.59-3 .835.835 0 10-1.64.31 5.33 5.33 0 005.23 4.33 5.52 5.52 0 001-.09.82.82 0 00.66-1 .83.83 0 00-1-.67zM6.6 18.78c0-1.87.52-3.36 2.42-3.36s2.39 1.49 2.39 3.36-.51 3.36-2.41 3.36-2.4-1.5-2.4-3.36zm3.64 0c0-1.26-.26-2.29-1.22-2.29s-1.25 1-1.25 2.29S8 21.06 9 21.06s1.24-1.03 1.24-2.28z"/><path d="M21.83 21.84H21v.23a9.91 9.91 0 01-9.69 9.91v.84-.84a9.91 9.91 0 01-9.69-9.91v-.23a14.19 14.19 0 011.21-4.72C5.17 11.38 10 3.83 11.53 1.54l-.7-.45.69.46-.21-.14v.26l.21-.12-.21-.14-.13.22h.13v-.22l-.13.22.41-.68-.6.58.16.17.61-.57-.69.47c1 1.51 3.54 5.37 5.78 9.48a57.61 57.61 0 012.93 6.08A14 14 0 0121 21.84h1.67a15.79 15.79 0 00-1.34-5.34C18.93 10.51 14 2.95 12.44.62V.56l-.25-.22-.08-.09L12 .19a1.36 1.36 0 00-.69-.19 1.42 1.42 0 00-1.17.62c-1 1.55-3.53 5.43-5.8 9.61a62.1 62.1 0 00-3 6.26A15.56 15.56 0 000 21.84h.83H0v.27a11.59 11.59 0 0011.31 11.56 11.59 11.59 0 0011.36-11.58v-.27h-.84z"/><path d="M13.52 15.95a.75.75 0 11-.75.75.75.75 0 01.75-.75M16.64 19.34a.75.75 0 11-.75.75.76.76 0 01.75-.75M15.57 16.15l-2.33 4.41a.624.624 0 101.1.59l2.33-4.42a.61.61 0 00-.26-.84.63.63 0 00-.84.26"/></svg>
