<svg xmlns="http://www.w3.org/2000/svg" viewBox="0 0 21 24" fill="none"><g clip-path="url(#a)" fill="#000"><path fill-rule="evenodd" clip-rule="evenodd" d="M19.627 4.934c.305 0 .556.237.57.536l.8 16.509c.028.56-.129 1.02-.466 1.37-.422.437-1.084.651-2.023.651H2.495c-.94 0-1.602-.214-2.027-.654-.334-.347-.491-.809-.465-1.37L.799 5.47a.566.566 0 0 1 .571-.536h18.257ZM1.918 6.062l-.77 15.97c-.018.364.108.494.15.539.135.138.452.304 1.2.304H18.51c.748 0 1.065-.163 1.2-.304.042-.042.168-.175.15-.536l-.773-15.97H1.918v-.003ZM10.501 0c2.51 0 4.55 2.024 4.55 4.513h-1.142c0-1.866-1.53-3.386-3.408-3.386s-3.408 1.52-3.408 3.386H5.951C5.951 2.023 7.992 0 10.501 0Z"/><path d="m20.198 5.47-.5.024.5-.024Zm.799 16.509-.5.024v.001l.5-.025Zm-.466 1.37.36.347-.36-.347ZM.468 23.346l-.36.347.36-.347Zm-.465-1.37-.5-.024v.001l.5.023ZM.799 5.47l.5.024-.5-.024Zm1.119.592h.5l-1-.024.5.024Zm-.77 15.97-.5-.024v.001l.5.023Zm.15.539-.362.344.004.004.359-.348Zm18.411 0-.351-.356-.006.006-.005.005.362.345Zm.152-.536.5-.023-.5.023Zm-.774-15.97.5-.025-.023-.475h-.477v.5Zm-17.169 0h-.5v.5h.5v-.5Zm13.133-1.552v.5h.5v-.5h-.5Zm-1.142 0h-.5v.5h.5v-.5Zm-6.816 0v.5h.5v-.5h-.5Zm-1.142 0h-.5v.5h.5v-.5Zm13.676.921c.045 0 .07.034.071.06l.999-.048a1.068 1.068 0 0 0-1.07-1.012v1Zm.071.06.8 16.51.998-.05-.8-16.508-.998.048Zm.8 16.51c.022.446-.1.763-.327.998l.72.694c.448-.464.64-1.066.605-1.742l-.999.05Zm-.326.997c-.288.298-.79.499-1.664.499v1c1.003 0 1.826-.228 2.383-.804l-.719-.695Zm-1.664.499H2.495v1h16.013v-1Zm-16.013 0c-.875 0-1.376-.2-1.668-.502l-.718.696c.559.578 1.382.806 2.386.806v-1ZM.828 23c-.223-.232-.346-.552-.326-1.001l-.999-.046c-.03.674.16 1.278.605 1.74l.72-.694Zm-.326-1 .796-16.506L.3 5.446l-.797 16.506 1 .048ZM1.3 5.493c0-.026.024-.059.071-.059v-1C.806 4.434.327 4.87.3 5.446l.999.047Zm.071-.059h18.257v-1H1.37v1Zm.049.604-.771 15.97.999.049.77-15.971-.998-.048ZM.648 22.009a1.39 1.39 0 0 0 .09.604.95.95 0 0 0 .198.302l.725-.688-.002-.002.003.005a.43.43 0 0 1-.015-.174l-1-.047Zm.292.91c.272.28.754.456 1.557.456v-1c-.692 0-.844-.157-.84-.152l-.717.696Zm1.557.456h16.014v-1H2.497v1Zm16.014 0c.798 0 1.286-.17 1.56-.46l-.724-.689c.007-.007-.14.15-.837.15v1Zm1.55-.448a.927.927 0 0 0 .208-.313c.067-.162.103-.36.091-.602l-.999.047a.426.426 0 0 1-.015.172l.004-.006.008-.01.703.712Zm.3-.916-.774-15.97-1 .048.774 15.97 1-.048ZM19.086 5.565H1.918v1h17.17v-1Zm-16.669.5v-.003h-1v.003h1ZM10.501.5c2.237 0 4.05 1.804 4.05 4.013h1c0-2.77-2.269-5.013-5.05-5.013v1Zm4.55 3.513h-1.142v1h1.142v-1Zm-.642.5c0-2.146-1.757-3.886-3.908-3.886v1c1.605 0 2.908 1.3 2.908 2.886h1ZM10.501.627c-2.151 0-3.908 1.74-3.908 3.886h1c0-1.587 1.303-2.886 2.908-2.886v-1ZM7.093 4.013H5.951v1h1.142v-1Zm-.642.5C6.451 2.303 8.264.5 10.501.5v-1c-2.781 0-5.05 2.244-5.05 5.013h1ZM10.501-.5v1-1Z"/></g><defs><clipPath id="a"><path fill="#fff" d="M0 0h21v24H0z"/></clipPath></defs></svg>