<svg viewBox="0 0 22 25" xmlns="http://www.w3.org/2000/svg"><path d="m11.001 0 .219.005c2.606.11 4.711 2.191 4.826 4.784l.003.145h4.078l.12.007c.472.053.86.412.937.885l.013.12.8 16.508c.03.609-.122 1.157-.479 1.599l-.127.144-.133.127c-.506.442-1.197.642-2.022.672l-.228.004H2.995l-.229-.004c-.825-.03-1.516-.23-2.024-.675l-.134-.128-.126-.143c-.316-.391-.47-.87-.481-1.397l.002-.2L.8 5.945c.025-.535.44-.949.95-1.005l.12-.006h4.082C5.994 2.201 8.246 0 11.002 0Zm8.109 7.064H2.894l-.748 15.492v.064l.003.048.013.062.063.034.1.036c.105.032.27.064.525.073l.147.002H19.01c.268 0 .455-.023.583-.05l.126-.036a.735.735 0 0 0 .045-.017l.074-.039.009-.007.01-.05a.538.538 0 0 0 .005-.05l-.001-.067-.751-15.495Zm-8.109-4.937-.17.005a2.903 2.903 0 0 0-2.733 2.705l-.003.097h5.813c-.04-1.494-1.236-2.715-2.736-2.802l-.17-.005Z"/></svg>
