<svg xmlns="http://www.w3.org/2000/svg" width="36" height="36" viewBox="0 0 36 36" fill="none">
<path d="M14.6853 15.2852C13.1588 15.2852 11.917 14.0434 11.917 12.5169C11.917 10.9905 13.1588 9.74866 14.6853 9.74866C16.2117 9.74866 17.4536 10.9905 17.4536 12.5169C17.4536 14.0434 16.2117 15.2852 14.6853 15.2852ZM14.6853 11.5942C14.1765 11.5942 13.7625 12.0081 13.7625 12.5169C13.7625 13.0257 14.1765 13.4397 14.6853 13.4397C15.1941 13.4397 15.608 13.0257 15.608 12.5169C15.608 12.0081 15.1941 11.5942 14.6853 11.5942Z" fill="#4E4E4E"/>
<path d="M21.5526 22.1525C20.0262 22.1525 18.7843 20.9107 18.7843 19.3842C18.7843 17.8578 20.0262 16.616 21.5526 16.616C23.079 16.616 24.3209 17.8578 24.3209 19.3842C24.3209 20.9107 23.079 22.1525 21.5526 22.1525ZM21.5526 18.4615C21.0438 18.4615 20.6298 18.8754 20.6298 19.3842C20.6298 19.8931 21.0438 20.307 21.5526 20.307C22.0614 20.307 22.4753 19.8931 22.4753 19.3842C22.4753 18.8754 22.0615 18.4615 21.5526 18.4615Z" fill="#4E4E4E"/>
<path d="M21.716 11.0484L23.0209 12.3534L14.522 20.8523L13.217 19.5474L21.716 11.0484Z" fill="#4E4E4E"/>
<path d="M30.2379 33H6V3.16536L8.69403 4.21983L10.6545 3L12.5204 4.16089L14.3861 3L16.2519 4.16089L18.1178 3L19.9839 4.16096L21.85 3.00006L23.716 4.16096L25.5822 3.00006L27.5431 4.21977L30.2379 3.16548V33ZM7.84552 31.1545H28.3923V5.86936L27.3541 6.27555L25.5823 5.17347L23.7161 6.33443L21.85 5.17353L19.9839 6.33443L18.1179 5.17353L16.252 6.33449L14.3862 5.17359L12.5207 6.33449L10.6547 5.17353L8.8832 6.27562L7.84552 5.86948V31.1545Z" fill="#4E4E4E"/>
<path d="M24.6317 25.7307H22.171V27.5763H24.6317V25.7307Z" fill="#4E4E4E"/>
<path d="M20.3254 25.7307H11.6063V27.5763H20.3254V25.7307Z" fill="#4E4E4E"/>
</svg>