<svg xmlns="http://www.w3.org/2000/svg" width="28" height="28" fill="none"><path fill="#D62E55" d="M10.797 11.466a2.587 2.587 0 0 1-2.584-2.583 2.587 2.587 0 0 1 2.584-2.584 2.587 2.587 0 0 1 2.583 2.584 2.587 2.587 0 0 1-2.583 2.583Zm0-3.445a.862.862 0 0 0 0 1.723.862.862 0 0 0 0-1.723ZM17.205 17.875a2.587 2.587 0 0 1-2.584-2.583 2.587 2.587 0 0 1 2.584-2.584 2.587 2.587 0 0 1 2.584 2.584 2.587 2.587 0 0 1-2.584 2.583Zm0-3.444a.862.862 0 0 0 0 1.722.862.862 0 0 0 0-1.722ZM17.358 7.512l1.218 1.218-7.932 7.932-1.218-1.218 7.932-7.932Z"/><path fill="#D62E55" d="M25.311 28H2.69V.154l2.515.985L7.034 0l1.741 1.083L10.517 0l1.74 1.083L14 0l1.742 1.084L17.483 0l1.741 1.084L20.966 0l1.83 1.138 2.515-.984V28Zm-20.9-1.723H23.59V2.678l-.97.38-1.653-1.03-1.742 1.084-1.741-1.083-1.742 1.083L14 2.03l-1.741 1.083-1.741-1.083-1.742 1.083L7.034 2.03 5.38 3.057l-.968-.379v23.6Z"/><path fill="#D62E55" d="M20.08 21.215h-2.297v1.723h2.297v-1.723ZM16.06 21.215H7.922v1.723h8.138v-1.723Z"/></svg>