<svg width="13" height="16" fill="none" xmlns="http://www.w3.org/2000/svg"><path d="M9.52 4.457v-.001a1.293 1.293 0 0 0-1.287-1.288H1.538c-.71 0-1.288.578-1.288 1.289v9.605c0 .71.577 1.288 1.288 1.288h6.695c.71 0 1.288-.577 1.288-1.288V4.457Zm-1.098 9.602a.192.192 0 0 1-.192.192H1.535a.192.192 0 0 1-.192-.192V4.457c0-.106.087-.192.192-.192H8.23c.106 0 .192.086.192.192v9.602Z" fill="#fff" stroke="#fff" stroke-width=".3"/><path d="M10.792.65H4.098c-.711 0-1.288.577-1.288 1.288 0 .304.244.548.548.548a.546.546 0 0 0 .548-.548c0-.106.086-.192.192-.192h6.694c.106 0 .192.086.192.192v9.605a.192.192 0 0 1-.192.192.546.546 0 0 0-.548.548c0 .304.244.548.548.548.711 0 1.289-.577 1.289-1.288V1.938c0-.71-.578-1.288-1.289-1.288Z" fill="#fff" stroke="#fff" stroke-width=".3"/></svg>
