<svg xmlns="http://www.w3.org/2000/svg" width="40" height="20" viewBox="0 0 40 20" fill="none">
<g clip-path="url(#clip0_2529_7262)">
<path d="M4.24005 3.88H12.448C12.5541 3.88 12.6559 3.83786 12.7309 3.76284C12.8059 3.68783 12.848 3.58609 12.848 3.48C12.848 3.37391 12.8059 3.27217 12.7309 3.19716C12.6559 3.12214 12.5541 3.08 12.448 3.08H4.24005C4.13396 3.08 4.03222 3.12214 3.95721 3.19716C3.88219 3.27217 3.84005 3.37391 3.84005 3.48C3.84005 3.58609 3.88219 3.68783 3.95721 3.76284C4.03222 3.83786 4.13396 3.88 4.24005 3.88ZM8.74405 3.48V1.312L8.80005 1.12L8.92005 0.952002L9.09605 0.840001C9.16019 0.816194 9.22769 0.802694 9.29605 0.800001H28.44C28.5855 0.797832 28.7261 0.852345 28.8321 0.952002C28.8812 0.99847 28.9206 1.05421 28.9481 1.116C28.9755 1.17779 28.9905 1.2444 28.9921 1.312V15.832C28.9905 15.8996 28.9755 15.9662 28.9481 16.028C28.9206 16.0898 28.8812 16.1455 28.8321 16.192C28.7261 16.2917 28.5855 16.3462 28.44 16.344C28.334 16.344 28.2322 16.3861 28.1572 16.4612C28.0822 16.5362 28.04 16.6379 28.04 16.744C28.04 16.8501 28.0822 16.9518 28.1572 17.0268C28.2322 17.1019 28.334 17.144 28.44 17.144C28.787 17.1532 29.1244 17.0303 29.384 16.8C29.5126 16.6803 29.6152 16.5355 29.6854 16.3744C29.7556 16.2134 29.7919 16.0397 29.7921 15.864V1.312C29.7921 1.13631 29.7559 0.962498 29.6857 0.801441C29.6155 0.640385 29.5128 0.495551 29.384 0.376001C29.1293 0.134118 28.7913 -0.000512239 28.44 1.46469e-06H9.29605C9.1263 0.00201021 8.95829 0.0345277 8.80005 0.0960015C8.63877 0.159508 8.49188 0.254719 8.36805 0.376001C8.23392 0.494341 8.12507 0.638559 8.04805 0.800001C7.98138 0.962574 7.94609 1.1363 7.94405 1.312V3.48C7.94405 3.58609 7.98619 3.68783 8.06121 3.76284C8.13622 3.83786 8.23796 3.88 8.34405 3.88C8.45014 3.88 8.55188 3.83786 8.62689 3.76284C8.70191 3.68783 8.74405 3.58609 8.74405 3.48ZM28.44 16.344H19.84C19.734 16.344 19.6322 16.3861 19.5572 16.4612C19.4822 16.5362 19.44 16.6379 19.44 16.744C19.44 16.8501 19.4822 16.9518 19.5572 17.0268C19.6322 17.1019 19.734 17.144 19.84 17.144H28.44C28.5461 17.144 28.6479 17.1019 28.7229 17.0268C28.7979 16.9518 28.84 16.8501 28.84 16.744C28.84 16.6379 28.7979 16.5362 28.7229 16.4612C28.6479 16.3861 28.5461 16.344 28.44 16.344ZM28.44 17.144H31.472C31.5781 17.144 31.6799 17.1019 31.7549 17.0268C31.8299 16.9518 31.872 16.8501 31.872 16.744C31.872 16.6379 31.8299 16.5362 31.7549 16.4612C31.6799 16.3861 31.5781 16.344 31.472 16.344H28.44C28.334 16.344 28.2322 16.3861 28.1572 16.4612C28.0822 16.5362 28.04 16.6379 28.04 16.744C28.04 16.8501 28.0822 16.9518 28.1572 17.0268C28.2322 17.1019 28.334 17.144 28.44 17.144ZM13.392 16.344H12.144C11.056 16.344 10.264 16.416 9.74405 16.416C9.53934 16.4245 9.3345 16.4029 9.13605 16.352C9.0678 16.337 9.00614 16.3005 8.96005 16.248C8.85866 16.1107 8.8002 15.9465 8.79205 15.776C8.73904 15.3676 8.71764 14.9557 8.72805 14.544V12.544C8.7262 12.4391 8.68479 12.3388 8.61209 12.2631C8.5394 12.1874 8.4408 12.142 8.33605 12.136C8.28285 12.1349 8.22998 12.1445 8.18052 12.1641C8.13106 12.1837 8.08602 12.213 8.04802 12.2503C8.01003 12.2875 7.97984 12.332 7.95924 12.3811C7.93864 12.4301 7.92804 12.4828 7.92805 12.536V14.544C7.92965 14.9448 7.95365 15.3456 8.00005 15.744C8.02485 15.9712 8.07845 16.1944 8.16005 16.408C8.21937 16.5541 8.30827 16.6864 8.42116 16.7966C8.53405 16.9067 8.66849 16.9923 8.81605 17.048C9.12005 17.1496 9.44005 17.196 9.76005 17.184C10.352 17.184 11.112 17.112 12.16 17.112H13.368C13.4206 17.1146 13.4731 17.1069 13.5226 17.0892C13.5722 17.0715 13.6177 17.0443 13.6567 17.009C13.6958 16.9737 13.7274 16.9311 13.7499 16.8836C13.7725 16.836 13.7854 16.7845 13.788 16.732C13.7907 16.6795 13.7829 16.6269 13.7653 16.5774C13.7476 16.5279 13.7203 16.4823 13.685 16.4433C13.6497 16.4043 13.6071 16.3726 13.5596 16.3501C13.5121 16.3276 13.4606 16.3146 13.408 16.312L13.392 16.344ZM10.52 12.104H2.74405C2.63796 12.104 2.53622 12.1461 2.46121 12.2212C2.38619 12.2962 2.34405 12.3979 2.34405 12.504C2.34405 12.6101 2.38619 12.7118 2.46121 12.7868C2.53622 12.8619 2.63796 12.904 2.74405 12.904H10.52C10.6261 12.904 10.7279 12.8619 10.8029 12.7868C10.8779 12.7118 10.92 12.6101 10.92 12.504C10.92 12.3979 10.8779 12.2962 10.8029 12.2212C10.7279 12.1461 10.6261 12.104 10.52 12.104ZM16.72 9.168H6.04805C5.9426 9.17005 5.84205 9.21285 5.76747 9.28743C5.6929 9.362 5.6501 9.46256 5.64805 9.568C5.64805 9.67409 5.69019 9.77583 5.76521 9.85084C5.84022 9.92586 5.94196 9.968 6.04805 9.968H16.72C16.8261 9.968 16.9279 9.92586 17.0029 9.85084C17.0779 9.77583 17.12 9.67409 17.12 9.568C17.12 9.46192 17.0779 9.36017 17.0029 9.28516C16.9279 9.21014 16.8261 9.168 16.72 9.168ZM5.20805 6.088H1.20005C1.14752 6.088 1.09551 6.09835 1.04698 6.11845C0.998445 6.13855 0.95435 6.16802 0.917206 6.20516C0.880063 6.2423 0.850599 6.2864 0.830497 6.33493C0.810395 6.38346 0.800049 6.43547 0.800049 6.488C0.800049 6.54053 0.810395 6.59255 0.830497 6.64108C0.850599 6.68961 0.880063 6.7337 0.917206 6.77084C0.95435 6.80799 0.998445 6.83745 1.04698 6.85755C1.09551 6.87766 1.14752 6.888 1.20005 6.888H5.20005C5.30614 6.888 5.40788 6.84586 5.48289 6.77084C5.55791 6.69583 5.60005 6.59409 5.60005 6.488C5.60005 6.38191 5.55791 6.28017 5.48289 6.20516C5.40788 6.13014 5.30614 6.088 5.20005 6.088H5.20805ZM7.94405 5.536V9.536C7.94405 9.64209 7.98619 9.74383 8.06121 9.81884C8.13622 9.89386 8.23796 9.936 8.34405 9.936C8.45014 9.936 8.55188 9.89386 8.62689 9.81884C8.70191 9.74383 8.74405 9.64209 8.74405 9.536V5.536C8.74405 5.42991 8.70191 5.32817 8.62689 5.25316C8.55188 5.17814 8.45014 5.136 8.34405 5.136C8.23796 5.136 8.13622 5.17814 8.06121 5.25316C7.98619 5.32817 7.94405 5.42991 7.94405 5.536ZM29.392 5.936H33.9761C34.1985 5.9336 34.416 5.992 34.608 6.104C34.8 6.2048 34.9617 6.3568 35.072 6.544L35.416 6.336L35.048 6.504C35.1761 6.784 35.4401 7.208 35.7761 7.76C36.2801 8.56 36.952 9.64 37.488 10.592C37.7601 11.064 37.9921 11.52 38.16 11.888C38.284 12.1392 38.3657 12.4096 38.4001 12.688V16C38.4015 16.0426 38.392 16.0848 38.3724 16.1227C38.3527 16.1605 38.3237 16.1927 38.2881 16.216C38.1712 16.2902 38.0343 16.3265 37.896 16.32H37.7761C37.672 16.3071 37.567 16.3356 37.4837 16.3994C37.4004 16.4632 37.3455 16.5571 37.3309 16.661C37.3162 16.7648 37.3429 16.8703 37.4052 16.9546C37.4675 17.039 37.5605 17.0955 37.6641 17.112C37.7409 17.12 37.8192 17.12 37.896 17.112C38.2001 17.1176 38.4984 17.032 38.752 16.864C38.8905 16.7665 39.0035 16.6371 39.0815 16.4867C39.1595 16.3363 39.2001 16.1694 39.2001 16V12.8H38.8L39.1921 12.872V12.704C39.1805 12.4626 39.1292 12.2247 39.0401 12C38.5565 10.8625 37.9729 9.77022 37.296 8.736C36.944 8.168 36.6 7.624 36.328 7.136C36.056 6.648 35.84 6.336 35.768 6.168C35.5826 5.86124 35.3207 5.60783 35.008 5.43256C34.6953 5.25728 34.3425 5.16612 33.9841 5.168H29.392C29.286 5.168 29.1842 5.21014 29.1092 5.28516C29.0342 5.36017 28.9921 5.46192 28.9921 5.568C28.9921 5.67409 29.0342 5.77583 29.1092 5.85084C29.1842 5.92586 29.286 5.968 29.392 5.968V5.936ZM13.68 16.744H13.28C13.2764 17.2103 13.3748 17.6717 13.5683 18.0959C13.7617 18.5202 14.0456 18.897 14.4 19.2C15.0633 19.723 15.8834 20.0074 16.728 20.0074C17.5727 20.0074 18.3928 19.723 19.056 19.2C19.5801 18.7492 19.9441 18.1409 20.0936 17.466C20.2431 16.7911 20.1702 16.086 19.8856 15.456C19.6933 15.0339 19.41 14.6597 19.056 14.36C18.3928 13.837 17.5727 13.5526 16.728 13.5526C15.8834 13.5526 15.0633 13.837 14.4 14.36C14.0492 14.6621 13.7681 15.0367 13.5761 15.4579C13.3842 15.8792 13.2859 16.3371 13.288 16.8H14.088C14.0796 16.4524 14.1467 16.1071 14.2849 15.788C14.423 15.469 14.6288 15.1837 14.888 14.952C15.4091 14.5524 16.0474 14.3358 16.704 14.3358C17.3607 14.3358 17.999 14.5524 18.52 14.952C18.7793 15.1837 18.9851 15.469 19.1232 15.788C19.2614 16.1071 19.3285 16.4524 19.32 16.8C19.3312 17.1468 19.2652 17.4917 19.1269 17.8099C18.9885 18.1281 18.7813 18.4116 18.52 18.64C18.0013 19.0448 17.3621 19.2647 16.704 19.2647C16.046 19.2647 15.4068 19.0448 14.888 18.64C14.6268 18.4116 14.4196 18.1281 14.2812 17.8099C14.1429 17.4917 14.0769 17.1468 14.088 16.8L13.68 16.744ZM31.512 16.744H31.112C31.1157 17.2002 31.2168 17.6503 31.4086 18.0642C31.6004 18.4781 31.8784 18.8463 32.224 19.144C32.8886 19.6676 33.71 19.9523 34.556 19.9523C35.4021 19.9523 36.2235 19.6676 36.8881 19.144C37.2337 18.8463 37.5118 18.4782 37.7036 18.0642C37.8953 17.6503 37.9964 17.2002 38 16.744C38.0022 16.2811 37.9039 15.8232 37.7119 15.4019C37.52 14.9807 37.2389 14.6061 36.8881 14.304C36.2235 13.7804 35.4021 13.4957 34.556 13.4957C33.71 13.4957 32.8886 13.7804 32.224 14.304C31.8732 14.6061 31.5921 14.9807 31.4002 15.4019C31.2082 15.8232 31.1099 16.2811 31.112 16.744H31.912C31.9002 16.396 31.9658 16.0496 32.1042 15.73C32.2425 15.4104 32.4502 15.1256 32.712 14.896C33.232 14.4938 33.8707 14.2756 34.528 14.2756C35.1854 14.2756 35.8241 14.4938 36.3441 14.896C36.6023 15.1268 36.8075 15.4108 36.9456 15.7284C37.0836 16.046 37.1514 16.3897 37.1441 16.736C37.1545 17.0827 37.0882 17.4274 36.9499 17.7455C36.8116 18.0636 36.6047 18.3472 36.3441 18.576C35.8265 18.9802 35.1887 19.1997 34.5321 19.1997C33.8754 19.1997 33.2376 18.9802 32.7201 18.576C32.4593 18.3473 32.2523 18.0637 32.114 17.7456C31.9757 17.4275 31.9095 17.0827 31.92 16.736L31.512 16.744Z" fill="black"/>
</g>
<defs>
<clipPath id="clip0_2529_7262">
<rect width="38.5" height="20" fill="white" transform="translate(0.75)"/>
</clipPath>
</defs>
</svg>