<svg role="presentation" viewBox="0 0 48 25" xmlns="http://www.w3.org/2000/svg"><path d="M4.3 4.85h10.26a.5.5 0 0 0 0-1H4.3a.5.5 0 1 0 0 1Zm5.63-.5V1.64L10 1.4l.15-.21.22-.14a.81.81 0 0 1 .25-.05h23.93a.7.7 0 0 1 .49.19.64.64 0 0 1 .2.45v18.15a.64.64 0 0 1-.2.45.7.7 0 0 1-.49.19.5.5 0 0 0 0 1 1.71 1.71 0 0 0 1.18-.43 1.6 1.6 0 0 0 .51-1.17V1.64a1.596 1.596 0 0 0-.51-1.17A1.71 1.71 0 0 0 34.55 0H10.62a1.77 1.77 0 0 0-.62.12 1.62 1.62 0 0 0-.54.35 1.66 1.66 0 0 0-.4.53 1.74 1.74 0 0 0-.13.64v2.71a.5.5 0 0 0 1 0Zm24.62 16.08H23.8a.5.5 0 0 0 0 1h10.75a.5.5 0 0 0 0-1Zm0 1h3.79a.5.5 0 0 0 0-1h-3.79a.5.5 0 0 0 0 1Zm-18.81-1h-1.56c-1.36 0-2.35.09-3 .09a2.62 2.62 0 0 1-.76-.08.41.41 0 0 1-.22-.13 1.08 1.08 0 0 1-.21-.59 10 10 0 0 1-.08-1.54v-2.5a.52.52 0 0 0-.49-.51.5.5 0 0 0-.51.5v2.51c.002.501.032 1.002.09 1.5.031.284.098.563.2.83a1.43 1.43 0 0 0 .82.8c.38.127.78.185 1.18.17.74 0 1.69-.09 3-.09h1.51a.5.5 0 0 0 .05-1l-.02.04Zm-3.59-5.3H2.43a.5.5 0 0 0 0 1h9.72a.5.5 0 0 0 0-1Zm7.75-3.67H6.56a.51.51 0 0 0-.5.5.5.5 0 0 0 .5.5H19.9a.5.5 0 0 0 0-1ZM5.51 7.61H.5a.5.5 0 1 0 0 1h5a.5.5 0 1 0 0-1h.01Zm3.42-.69v5a.5.5 0 0 0 1 0v-5a.5.5 0 0 0-1 0Zm26.81.5h5.73c.278-.003.55.07.79.21.24.126.442.316.58.55l.43-.26-.46.21c.16.35.49.88.91 1.57.63 1 1.47 2.35 2.14 3.54.34.59.63 1.16.84 1.62.155.314.257.652.3 1V20a.31.31 0 0 1-.14.27.84.84 0 0 1-.49.13h-.15a.5.5 0 0 0-.14.99c.096.01.194.01.29 0 .38.007.753-.1 1.07-.31A1.32 1.32 0 0 0 48 20v-4h-.5l.49.09v-.21a2.741 2.741 0 0 0-.19-.88 26.09 26.09 0 0 0-2.18-4.08c-.44-.71-.87-1.39-1.21-2-.34-.61-.61-1-.7-1.21a2.59 2.59 0 0 0-2.23-1.25h-5.74a.5.5 0 0 0 0 1v-.04ZM16.1 20.93h-.5A3.998 3.998 0 0 0 17 24a4.7 4.7 0 0 0 5.82 0 4.001 4.001 0 0 0 1.037-4.68 3.93 3.93 0 0 0-1.037-1.37 4.7 4.7 0 0 0-5.82 0A4 4 0 0 0 15.61 21h1a3 3 0 0 1 1-2.31 3.73 3.73 0 0 1 4.54 0 3 3 0 0 1 1 2.31 2.93 2.93 0 0 1-1 2.3 3.69 3.69 0 0 1-4.54 0 2.93 2.93 0 0 1-1-2.3l-.51-.07Zm22.29 0h-.5a4.002 4.002 0 0 0 1.39 3 4.71 4.71 0 0 0 5.83 0 4.001 4.001 0 0 0 1.39-3 4 4 0 0 0-1.39-3.05 4.71 4.71 0 0 0-5.83 0 4 4 0 0 0-1.39 3.05h1a2.939 2.939 0 0 1 1-2.31 3.71 3.71 0 0 1 4.54 0 3 3 0 0 1 1 2.3 2.942 2.942 0 0 1-1 2.3 3.68 3.68 0 0 1-4.53 0 2.94 2.94 0 0 1-1-2.3l-.51.01Z"/></svg>
