<svg xmlns="http://www.w3.org/2000/svg" viewBox="0 0 62 35"><path d="M54.2 34.8c-2.6 0-5.2-1.7-5.6-4.9H31.3c-.4 3.2-3 4.9-5.6 4.9-2.6 0-5.2-1.7-5.6-4.9-1.8-.1-3.1 0-4.2 0-1.7.1-2.8.1-3.5-.6-.9-.9-.9-2.4-.8-6.5v-.2H3.5c-.4 0-.8-.3-.8-.8s.3-.8.8-.8h12.4c.4 0 .8.3.8.8s-.3.8-.8.8h-2.7v.3c-.1 3.1-.1 5 .4 5.4.3.3 1.2.2 2.4.2 1.1 0 2.5-.1 4.3 0 .4-3.2 3-4.9 5.6-4.9 2.6 0 5.2 1.7 5.6 4.9h13.1c.2 0 .4-.1.5-.2.1-.2.2-.4.2-.6v-25c0-.2-.1-.4-.2-.6-.1-.1-.3-.2-.5-.2H13.9c-.1 0-.2 0-.3.1-.1 0-.2.1-.3.2-.1.1-.1.2-.2.3 0 .1-.1.2-.1.3v3h5.8c.4 0 .8.3.8.8s-.2.4-.7.4H5.8c-.4 0-.7-.3-.7-.7s.3-.8.8-.8h5.8v-3c0-.3.1-.6.2-.9.1-.3.3-.5.5-.8.2-.2.5-.4.7-.5.3-.1.6-.2.9-.2h30.5c.6 0 1.2.2 1.6.7.4.4.7 1 .7 1.6v6.5h6.6c.6 0 1.2.2 1.7.5s.9.8 1.2 1.3c.2.5.9 1.6 1.6 2.9 2.4 4.1 4.1 7.2 3.9 8.6v5.5c0 .6-.2 1.1-.6 1.5-.3.3-.8.5-1.3.5-.5 3.4-3.1 5.1-5.7 5.1zm-4.1-5.7c.1 2.9 2.1 4.2 4.1 4.2 1.9 0 4.1-1.3 4.1-4.2 0-2.8-2.2-4.1-4.1-4.1-2-.1-4 1.2-4.1 4.1zm-28.4 0c.1 2.9 2.1 4.2 4.1 4.2 1.9 0 4.1-1.3 4.1-4.2 0-2.8-2.2-4.1-4.1-4.1-2-.1-4.1 1.2-4.1 4.1zm25-18.5v16.9c0 .3-.1.6-.1.8h2.1c.4-3.2 3-4.9 5.6-4.9 2.5 0 5.2 1.7 5.6 4.9.1 0 .2-.1.3-.1.1-.1.1-.1.1-.3V22.2c.2-1-2.5-5.5-3.7-7.7-.8-1.4-1.4-2.4-1.6-3-.1-.2-.4-.5-.7-.7-.3-.2-.6-.3-.9-.3h-6.7zm-20.9 6.9h-17c-.4 0-.8-.3-.8-.8s.3-.7.7-.7h2.9V9.8c0-.4.3-.8.8-.8s.8.3.8.8V16h12.6c.4 0 .8.3.8.8s-.4.7-.8.7zM7.4 12.2H1c-.4 0-.8-.3-.8-.8s.3-.8.8-.8h6.4c.4 0 .8.3.8.8s-.4.8-.8.8z" /></svg>
