<svg role="presentation" xmlns="http://www.w3.org/2000/svg" viewBox="0 0 130 26"><path d="M0 25.2h24.4V.8H0v24.4zm12.2-7.8l3.6-1 1.5 4.9-5.1-3.9zM10.1 11l2-6.3 2 6.3h6.4l-5.2 3.9-3.2 2.4L7 21.2l2-6.3L3.9 11h6.2zm16.3 14.2h24.4V.8H26.4v24.4zm12.2-7.8l3.6-1 1.5 4.9-5.1-3.9zM36.5 11l2-6.3 2 6.3h6.4l-5.4 3.9-3.2 2.4-5.1 3.9 2-6.3-5.1-3.9h6.4zm16.3 14.2h24.4V.8H52.8v24.4zM65 17.4l3.6-1 1.5 4.9-5.1-3.9zM63 11l2-6.3 2 6.3h6.3L68 14.9l-3.2 2.4-5.1 3.9 2-6.3-5.1-3.9H63zm16.2 14.2h24.4V.8H79.2v24.4zm12.2-7.8l3.6-1 1.5 4.9-5.1-3.9zM89.3 11l2-6.3 2 6.3h6.4l-5.4 3.9-3.2 2.4-5.1 3.9 2-6.3-5.1-3.9h6.4zM105.6.8v24.4H130V.8h-24.4zm12.2 16.6l3.6-1 1.5 4.9-5.1-3.9zm2.9-2.5l-3.2 2.4-5.1 3.9 2-6.3-5.1-3.9h6.4l2-6.3 2 6.3h6.4l-5.4 3.9z"/></svg>
