<?xml version="1.0" encoding="utf-8"?>
<!-- Generator: Adobe Illustrator 27.5.0, SVG Export Plug-In . SVG Version: 6.00 Build 0)  -->
<svg version="1.1" id="Layer_1" xmlns="http://www.w3.org/2000/svg" xmlns:xlink="http://www.w3.org/1999/xlink" x="0px" y="0px"
	 viewBox="0 0 32 32" style="enable-background:new 0 0 32 32;" xml:space="preserve">
<style type="text/css">
	.st0{fill:#231F20;}
</style>
<g>
	<g>
		<path class="st0" d="M12.44,6.35v0.47V6.35L12.44,6.35z"/>
	</g>
	<g>
		<path class="st0" d="M27.47,18.04c-0.22-2.16-1.06-4.24-2.46-5.93c-1.44-1.74-3.44-2.91-5.58-3.59c-0.21-0.07-0.28-0.15-0.28-0.37
			c0.01-1.78,0.01-3.57,0.01-5.35c0-0.14,0-0.28-0.02-0.42c-0.06-0.59-0.56-1.08-1.15-1.09c-1.46-0.01-2.92-0.01-4.37,0
			c-0.56,0-1.1,0.44-1.14,0.99c-0.05,0.68-0.02,1.36-0.02,2.05v0.03l-0.02,1.99l0,0.47v1.06c0,0.57,0,0.56-0.55,0.74
			C6.2,10.43,3.2,15.89,4.22,21.47c0.66,3.59,2.47,6.56,5.1,9.05c0.12,0.12,0.34,0.2,0.51,0.2c3.85,0.01,7.7,0.01,11.55,0
			c0.17,0,0.39-0.08,0.51-0.2c0.01-0.01,0.02-0.02,0.04-0.03c2.51-2.51,4.73-5.68,5.41-9.22C27.54,20.2,27.58,19.11,27.47,18.04z
			 M13.27,4.62L13.27,4.62c0.01-0.63,0.01-1.25,0.01-1.87c0-0.54,0.09-0.63,0.64-0.63c1.26,0,2.51,0,3.77,0
			c0.53,0,0.64,0.11,0.64,0.64v5.12c0,0.18-0.16,0.32-0.34,0.3c-1.46-0.23-2.9-0.23-4.37,0c-0.18,0.03-0.34-0.11-0.34-0.3V4.62z
			 M26.63,20.83c-0.12,0.86-0.34,1.71-0.65,2.52c-0.32,0.82-0.77,1.57-1.21,2.32c-0.86,1.45-1.92,2.78-3.14,3.94
			c-0.02,0.02-0.05,0.04-0.07,0.07c-0.12,0.11-0.31,0.19-0.47,0.19c-1.82,0.01-3.65,0.01-5.47,0.01c-1.82,0-3.65,0-5.47-0.01
			c-0.15,0-0.34-0.07-0.45-0.18c-2.43-2.38-4.1-5.19-4.67-8.57c-0.84-4.97,1.8-9.98,7.03-11.67c3.61-1.16,7.1-0.79,10.27,1.38
			c2.65,1.81,4.05,4.4,4.36,7.58c0.03,0.35,0.05,0.68,0.04,1.02C26.73,19.9,26.69,20.36,26.63,20.83z"/>
	</g>
	<g>
		<path class="st0" d="M21.31,4.34c-0.04-0.07-0.07-0.14-0.11-0.22c-0.07-0.15-0.01-0.33,0.13-0.4c1.5-0.75,2.99-1.5,4.5-2.25
			c0.15-0.07,0.33-0.02,0.4,0.13c0.04,0.07,0.07,0.14,0.11,0.22c0.08,0.15,0.02,0.33-0.13,0.4c-1.5,0.75-2.99,1.49-4.51,2.25
			C21.57,4.54,21.39,4.48,21.31,4.34z"/>
	</g>
	<g>
		<path class="st0" d="M21.21,6.02c0.04-0.07,0.07-0.14,0.11-0.22c0.07-0.15,0.25-0.21,0.4-0.13c1.51,0.75,3,1.5,4.51,2.25
			c0.15,0.07,0.21,0.25,0.13,0.4c-0.04,0.07-0.07,0.14-0.11,0.22c-0.07,0.15-0.25,0.21-0.4,0.13c-1.51-0.75-2.99-1.5-4.51-2.25
			C21.19,6.35,21.13,6.17,21.21,6.02z"/>
	</g>
	<g>
		<path class="st0" d="M22.97,5.17V4.96c0-0.17,0.13-0.3,0.3-0.3h4.41c0.17,0,0.3,0.13,0.3,0.3v0.21c0,0.17-0.13,0.3-0.3,0.3h-4.41
			C23.1,5.47,22.97,5.33,22.97,5.17z"/>
	</g>
	<g>
		<path class="st0" d="M16.21,3.71V3.9c0,0.17-0.13,0.3-0.3,0.3h-0.22c-0.17,0-0.3-0.13-0.3-0.3V3.71c0-0.17,0.13-0.3,0.3-0.3h0.22
			C16.08,3.41,16.21,3.54,16.21,3.71z"/>
	</g>
	<g>
		<path class="st0" d="M25.46,18.77c-0.04-0.57-0.26-0.69-0.8-0.5c-0.74,0.27-1.49,0.52-2.25,0.71c-0.25,0.06-0.5,0.1-0.76,0.13
			c-0.11,0.01-0.22,0.02-0.32,0.03c-0.72,0.06-2.41-0.17-2.51-0.19c0,0,0,0,0,0c-1.04-0.25-1.97-0.68-2.85-1.25
			c-3-1.94-6.12-1.95-9.32-0.57c-0.15,0.06-0.29,0.26-0.33,0.42c-0.25,1.16-0.25,2.33-0.03,3.5c0.55,2.85,1.92,5.27,3.9,7.35
			c0.12,0.12,0.35,0.2,0.54,0.2c3.26,0.01,6.52,0.01,9.78,0.01c0.24,0,0.42-0.08,0.59-0.25c0.39-0.4,0.75-0.81,1.1-1.24
			c0.42-0.51,0.8-1.04,1.16-1.6c0-0.01,0.01-0.01,0.01-0.02c0.23-0.35,0.44-0.72,0.64-1.09c0.24-0.45,0.46-0.9,0.66-1.36
			c0.08-0.2,0.16-0.4,0.23-0.6C25.32,21.3,25.54,20.07,25.46,18.77z M23.96,22.54c-0.45,1.15-1.05,2.2-1.76,3.19
			c-0.49,0.67-1.02,1.31-1.6,1.93c-0.07,0.07-0.21,0.11-0.32,0.11c-3.11,0.01-6.22,0.01-9.33,0c-0.12,0-0.28-0.07-0.36-0.16
			c-1.46-1.57-2.53-3.38-3.17-5.43C7,20.86,6.86,19.51,7.06,18.14c0.02-0.12,0.11-0.3,0.22-0.34c2.19-0.89,4.42-1.09,6.65-0.18
			c0.82,0.33,1.56,0.84,2.34,1.27c0.82,0.45,1.68,0.78,2.62,0.95c0,0,0.01,0,0.01,0c0.01,0,0.01,0,0.02,0
			c0.04,0.01,0.11,0.01,0.19,0.02c0.5,0.05,1.6,0.14,1.74,0.15c0.01,0,0.02,0,0.03,0c0.36-0.01,0.71-0.04,1.06-0.09
			c0.77-0.1,1.53-0.29,2.28-0.56c0.2-0.07,0.41,0.08,0.4,0.29c-0.02,0.63-0.12,1.21-0.29,1.79c-0.07,0.23-0.14,0.47-0.22,0.69
			C24.06,22.28,24.01,22.41,23.96,22.54z"/>
	</g>
	<g>
		<path class="st0" d="M19.11,19.87C19.1,19.87,19.1,19.88,19.11,19.87c-0.07,0-0.14-0.01-0.2-0.03
			C18.95,19.85,19.02,19.86,19.11,19.87z"/>
	</g>
</g>
</svg>
