<svg xmlns="http://www.w3.org/2000/svg" viewBox="0 0 16.15 32.1"><path d="M.72 19.559a.668.668 0 00-.617.612c-.014.178-.32 4.381 1.613 6.3A4.84 4.84 0 004.781 28c.075 0 .15.007.224.007a3.551 3.551 0 002.437-.974v4.348a.671.671 0 001.342 0V27.05a3.545 3.545 0 002.362.906c.075 0 .149 0 .224-.007a4.839 4.839 0 003.065-1.529c1.935-1.922 1.628-6.124 1.614-6.3a.668.668 0 00-.617-.612c-.045 0-.351-.025-.813-.025 1.73-2 1.443-5.932 1.43-6.1a.669.669 0 00-.617-.613c-.049 0-.394-.029-.911-.025 1.839-1.959 1.542-6.038 1.528-6.214a.668.668 0 00-.617-.612 12.888 12.888 0 00-4.256.431V.717a.671.671 0 00-1.341 0v6.222a3.983 3.983 0 00-.742.574q-.16.159-.3.323V1.799a.671.671 0 00-1.342 0v6.178q-.177-.208-.379-.41a3.938 3.938 0 00-.653-.517V.717a.671.671 0 00-1.342 0v5.717a12.768 12.768 0 00-4.358-.47.668.668 0 00-.617.612c-.014.175-.311 4.256 1.527 6.214-.516 0-.863.021-.911.025a.668.668 0 00-.617.613c-.014.172-.3 4.108 1.429 6.1-.454.005-.765.027-.81.031zm1.946-.769c-1.055-1.049-1.26-3.356-1.247-4.669 1.319-.012 3.643.192 4.7 1.24 1.336 1.327 1.522 2.856.474 3.9a2.2 2.2 0 01-1.724.67 3.534 3.534 0 01-2.2-1.142zM1.418 7.271c1.319-.012 3.643.191 4.7 1.239 1.336 1.328 1.522 2.856.474 3.9a2.2 2.2 0 01-1.724.671 3.536 3.536 0 01-2.2-1.142c-1.057-1.05-1.262-3.359-1.25-4.669zm7.47 3.371a3.5 3.5 0 011.149-2.186c1.028-1.021 3.258-1.24 4.589-1.24h.106c.012 1.311-.192 3.618-1.248 4.669a3.533 3.533 0 01-2.2 1.142 2.166 2.166 0 01-1.508-.477l1.356-1.347a.663.663 0 000-.943.674.674 0 00-.949 0l-1.2 1.19a2.121 2.121 0 01-.1-.807zm4.6 8.093a3.532 3.532 0 01-2.2 1.141 2.151 2.151 0 01-1.335-.353l1.183-1.173a.663.663 0 000-.943.674.674 0 00-.949 0l-1.111 1.105a2.116 2.116 0 01-.184-1.019 3.493 3.493 0 011.149-2.185c1.028-1.021 3.258-1.24 4.589-1.24h.106c.014 1.311-.19 3.618-1.245 4.666zm0 6.743c-1.178 1.17-2.515 1.452-3.533.788l1.182-1.174a.663.663 0 000-.943.674.674 0 00-.949 0L9.076 25.25a2.884 2.884 0 01.962-3.2 3.935 3.935 0 011.714-.887 4.006 4.006 0 00.544-.131 12.051 12.051 0 012.337-.22h.106c.009 1.308-.195 3.616-1.25 4.664zm-4.4-4.37q-.16.159-.3.323v-1.123a3.694 3.694 0 00.678.477 3.788 3.788 0 00-.374.322zm0-6.743a5.564 5.564 0 00-.3.322v-1.231a3.71 3.71 0 00.765.521 3.79 3.79 0 00-.461.384zm-1.646-.923v1.388q-.177-.208-.379-.41a3.793 3.793 0 00-.461-.388 3.715 3.715 0 00.84-.591zm0 6.852v1.279q-.177-.208-.379-.41a3.745 3.745 0 00-.374-.324 3.725 3.725 0 00.753-.545zm-3.589.791a3.959 3.959 0 00.549.132 3.939 3.939 0 011.714.888 3.5 3.5 0 011.15 2.186 2.287 2.287 0 01-.675 1.713 2.319 2.319 0 01-1.724.67 3.533 3.533 0 01-2.2-1.142c-1.055-1.048-1.26-3.356-1.247-4.669a12.094 12.094 0 012.436.219z" stroke="#000" stroke-width=".1" /></svg>
