<svg xmlns="http://www.w3.org/2000/svg" width="30" height="29" viewBox="0 0 30 29" fill="none">
<g clip-path="url(#clip0_3675_5115)">
<path fill-rule="evenodd" clip-rule="evenodd" d="M29.9432 9.66578C29.8737 9.53028 29.7487 9.42878 29.5982 9.38568C29.2577 9.28926 21.2021 7.02051 16.5279 9.24443C13.7956 10.5461 12.7069 12.3241 12.2742 13.5891C11.7749 15.0202 11.8645 16.5812 12.5246 17.9506C12.5572 18.0143 12.5912 18.0765 12.6248 18.1391C12.0851 18.9143 11.616 19.7329 11.2226 20.5858C11.1966 20.0018 11.1553 19.4264 11.0989 18.8594C10.8833 16.58 10.3599 14.3373 9.542 12.1881C9.3477 11.6877 9.1367 11.2006 8.90902 10.7269C9.64947 10.0634 10.1391 9.1813 10.3007 8.21997C10.5073 6.73166 10.066 5.2273 9.08129 4.06284C6.87786 1.16784 1.02927 0.0556361 0.781884 0.00983857C0.627666 -0.0188002 0.468022 0.0157186 0.341342 0.1051C0.214663 0.194481 0.132401 0.330649 0.114339 0.480842C0.0852924 0.721887 -0.573728 6.42464 1.6307 9.32012C2.47921 10.5629 3.80698 11.4291 5.32043 11.7272C5.54751 11.7619 5.77708 11.7794 6.007 11.7793C6.68416 11.7786 7.35221 11.6289 7.96004 11.3416C8.13999 11.7272 8.31442 12.1369 8.48335 12.5704C9.26694 14.631 9.76811 16.7811 9.97418 18.9664C10.1339 20.5974 10.1674 22.2375 10.0743 23.8732C9.99521 24.4638 9.71378 27.1727 9.71378 27.4576C9.71378 27.4624 9.71378 27.4673 9.71378 27.4721C9.71378 27.4769 9.71378 27.4933 9.71378 27.5039C9.71378 27.5145 9.71378 27.5193 9.71378 27.5266C9.71378 27.5338 9.71679 27.5468 9.71878 27.5569C9.72078 27.5671 9.72228 27.5733 9.72429 27.5806C9.7263 27.5878 9.7288 27.5984 9.7318 27.6076C9.73481 27.6167 9.73731 27.6249 9.74032 27.6331C9.74333 27.6413 9.74582 27.649 9.74934 27.6567C9.75284 27.6644 9.75684 27.6746 9.76085 27.6832C9.76486 27.6919 9.76786 27.6977 9.77137 27.7045L9.78589 27.73L9.79841 27.7503L9.81494 27.7734L9.83046 27.7932L9.84798 27.8139C9.85399 27.8206 9.86 27.8269 9.86601 27.8332L9.88454 27.851L9.90557 27.8693L9.9251 27.8848L9.94864 27.9016L9.96917 27.9151C9.97769 27.9204 9.9857 27.9253 9.99421 27.9296C10.0027 27.9339 10.0092 27.9383 10.0173 27.9417L10.0418 27.9532L10.0688 27.9639L10.0924 27.9725L10.1229 27.9812L10.146 27.9865C10.1565 27.9889 10.1675 27.9908 10.1785 27.9928L10.1935 27.9952H10.2005C10.2238 27.9981 10.2472 27.9997 10.2706 28C10.2892 28 10.3082 28 10.3262 27.9976H10.3362C10.3508 27.9976 10.3653 27.9937 10.3793 27.9913L10.3973 27.9875L10.4304 27.9793L10.4519 27.9725L10.48 27.9629L10.5025 27.9532L10.5271 27.9417L10.5486 27.9301L10.5721 27.9161L10.5921 27.9036L10.6157 27.8862L10.6327 27.8732C10.6417 27.8664 10.6498 27.8587 10.6573 27.851L10.6708 27.8394C10.6813 27.8293 10.6908 27.8187 10.7003 27.8081L10.7058 27.8028C10.7281 27.7765 10.7479 27.7482 10.7649 27.7184C10.7675 27.7141 10.7698 27.7095 10.7719 27.7049C10.7774 27.6948 10.783 27.6842 10.788 27.6736C10.793 27.663 10.7935 27.6601 10.796 27.6534C10.7985 27.6466 10.803 27.6355 10.8065 27.6264C10.81 27.6172 10.8115 27.61 10.8135 27.6022C10.8155 27.5945 10.8185 27.5854 10.8205 27.5767C10.8225 27.568 10.824 27.5593 10.8255 27.5511C10.827 27.5429 10.828 27.5401 10.829 27.5347C10.9943 26.4124 11.1111 25.3087 11.1796 24.2237C11.3644 23.3637 11.6242 22.5203 11.9563 21.7023C12.3217 20.7996 12.7753 19.9323 13.3109 19.112C14.0274 19.9278 14.9628 20.5387 16.0151 20.8779C16.6755 21.0871 17.3666 21.1921 18.0618 21.1889C19.4818 21.1588 20.8756 20.8143 22.1351 20.1823C26.8109 17.9583 29.8351 10.4212 29.9613 10.1011C30.0186 9.95992 30.0121 9.8021 29.9433 9.66576L29.9432 9.66578ZM8.37869 9.70049C8.20475 9.38488 8.02414 9.07826 7.83684 8.78065C7.221 7.78399 6.4939 6.8551 5.66847 6.01051C5.17111 5.50283 4.62463 5.04195 4.03643 4.63412C3.78226 4.46039 3.42992 4.51791 3.24946 4.76259C3.069 5.00728 3.12875 5.34648 3.38292 5.52021C3.90544 5.88392 4.39163 6.29371 4.83518 6.74426C5.89006 7.82119 6.77806 9.03898 7.47177 10.36C6.86101 10.6506 6.17164 10.7517 5.4987 10.6493C4.32819 10.4066 3.30022 9.73821 2.62924 8.78353C2.5997 8.7469 2.57065 8.71025 2.5416 8.67265C0.984181 6.62711 1.08083 2.70668 1.18399 1.20591C2.52207 1.52072 5.72004 2.40682 7.52635 4.01365C7.76378 4.22213 7.97994 4.45201 8.17185 4.70016C8.96665 5.63494 9.33317 6.84032 9.18744 8.04014C9.08459 8.65532 8.80456 9.23039 8.37917 9.70001L8.37869 9.70049ZM21.6388 19.2051C19.7278 20.1138 17.9075 20.3351 16.3751 19.8438C15.4187 19.5349 14.5839 18.9508 13.9834 18.1705L13.9944 18.1565C14.3346 17.7156 14.7001 17.2932 15.0891 16.8915C15.3809 16.591 15.6837 16.3046 15.9975 16.0324L19.5811 17.2921C19.643 17.3141 19.7084 17.3254 19.7744 17.3254C20.0484 17.3257 20.2831 17.1365 20.3309 16.8767C20.3786 16.617 20.2257 16.3617 19.9682 16.2715L19.6352 16.1544L17.0066 15.2297C17.1652 15.1149 17.3261 15.0034 17.4894 14.8951C18.1213 14.4737 18.7869 14.1012 19.48 13.781L22.6749 15.0605C22.9628 15.1758 23.2933 15.0445 23.4131 14.7674C23.5328 14.4902 23.3965 14.172 23.1086 14.0567L22.7581 13.916L20.9553 13.1928C21.1733 13.1189 21.3934 13.05 21.6158 12.986C23.0437 12.5764 24.5261 12.3697 26.0161 12.3723C26.328 12.3723 26.5807 12.1289 26.5807 11.8287C26.5807 11.5285 26.328 11.2852 26.0161 11.2852C25.9605 11.2852 25.905 11.2852 25.8489 11.2852C22.0518 11.2945 18.3834 12.6112 15.5068 14.9973L15.5038 14.9997C15.0707 15.36 14.6579 15.7424 14.2674 16.1452C13.9602 16.4621 13.6674 16.7902 13.389 17.1296C13.2357 16.7369 13.1404 16.3253 13.1061 15.907C13.0484 15.2367 13.1308 14.562 13.3484 13.9227C13.8717 12.3921 15.1447 11.1092 17.0302 10.2106C18.524 9.58817 20.1434 9.29514 21.77 9.35292C23.7804 9.3837 25.782 9.61718 27.7418 10.0496C28.1119 10.1286 28.4284 10.2024 28.6758 10.2626C27.886 12.0392 25.2234 17.5014 21.6388 19.2051L21.6388 19.2051Z" fill="#4E4E4E" stroke="#4E4E4E" stroke-width="0.8"/>
</g>
<defs>
<clipPath id="clip0_3675_5115">
<rect width="30" height="28.2353" fill="white"/>
</clipPath>
</defs>
</svg>