<svg xmlns="http://www.w3.org/2000/svg" viewBox="0 0 20 20"><path d="M10 1.9c2.6 0 2.9 0 4 .1 1 0 1.5.2 1.8.3.5.2.8.4 1.1.7.3.3.6.7.7 1.1.2.4.4 1 .4 1.9 0 1 .1 1.3.1 4s0 2.9-.1 4c0 1-.2 1.5-.3 1.8-.2.5-.4.8-.7 1.1-.3.3-.7.6-1.1.7-.4.2-1 .4-1.9.4-1 0-1.3.1-4 .1s-2.9 0-4-.1c-1 0-1.5-.2-1.8-.3-.5-.2-.8-.4-1.1-.7s-.6-.7-.7-1.1c-.2-.4-.4-1-.4-1.9 0-1-.1-1.3-.1-4s0-2.9.1-4c0-1 .2-1.5.3-1.8.2-.5.4-.8.7-1.1s.7-.6 1.1-.7c.4-.2 1-.4 1.9-.4 1.1-.1 1.4-.1 4-.1m0-1.7c-2.7 0-3 0-4.1.1-1 0-1.8.2-2.4.5-.6.1-1.1.5-1.7 1S.9 2.9.7 3.6C.4 4.2.3 4.9.2 5.9c0 1-.1 1.4-.1 4.1s0 3 .1 4.1c0 1 .2 1.8.5 2.4.2.6.6 1.2 1.1 1.7s1.1.9 1.7 1.1c.6.2 1.3.4 2.4.5 1.1 0 1.4.1 4.1.1s3 0 4.1-.1c1 0 1.8-.2 2.4-.5.6-.2 1.2-.6 1.7-1.1s.9-1.1 1.1-1.7c.2-.6.4-1.3.5-2.4 0-1.1.1-1.4.1-4.1s0-3-.1-4.1c0-1-.2-1.8-.5-2.4-.2-.6-.6-1.2-1.1-1.7S17.1.9 16.5.7c-.6-.2-1.3-.4-2.4-.5H10z"/><path d="M10 4.9c-2.8 0-5.1 2.3-5.1 5.1s2.3 5.1 5.1 5.1 5.1-2.3 5.1-5.1-2.3-5.1-5.1-5.1zm0 8.4c-1.8 0-3.3-1.5-3.3-3.3S8.2 6.7 10 6.7s3.3 1.5 3.3 3.3-1.5 3.3-3.3 3.3z"/><circle cx="15.3" cy="4.7" r="1.2"/></svg>
