<svg xmlns="http://www.w3.org/2000/svg" viewBox="0 0 30 30"><path d="M8.527 15a1.421 1.421 0 00-1.421-1.421H1.421a1.421 1.421 0 100 2.842h5.685A1.421 1.421 0 008.527 15zm20.052-1.421h-2.842a1.421 1.421 0 100 2.842h2.842a1.421 1.421 0 000-2.842zM15.714 8.527a1.421 1.421 0 001.421-1.421V1.421a1.421 1.421 0 00-2.842 0v5.685a1.421 1.421 0 001.421 1.421zm.001 12.946a1.421 1.421 0 00-1.421 1.421v5.685a1.421 1.421 0 002.842 0v-5.685a1.421 1.421 0 00-1.421-1.421zM6.589 4.579a1.421 1.421 0 00-2.01 2.01l4.02 4.02a1.421 1.421 0 102.01-2.01zm16.234 14.812a1.421 1.421 0 10-2.01 2.01l4.02 4.02a1.421 1.421 0 102.01-2.01zm-14.225.001l-4.02 4.02a1.421 1.421 0 002.01 2.01l4.02-4.02a1.421 1.421 0 10-2.01-2.01z"/></svg>
