<svg xmlns="http://www.w3.org/2000/svg" viewBox="0 0 26.5 33.54"><path d="M13 26.05h-.2a1.08 1.08 0 01-1.06-.88.75.75 0 10-1.47.28 2.57 2.57 0 002.53 2.1 2.61 2.61 0 00.48-.05.74.74 0 00.6-.87.75.75 0 00-.88-.6z"/><path d="M17.52 25.11h-.75a3.52 3.52 0 11-7 0 4.73 4.73 0 01.46-1.67 38.88 38.88 0 013.48-6l-.43-.29v.52a.52.52 0 00.43-.23l-.43-.29-.29.43a.5.5 0 00.29.09v-.52l-.29.43.42-.62-.53.53.06.06.53-.53-.61.42c.4.59 1.41 2.08 2.31 3.66a22.87 22.87 0 011.17 2.31 5.22 5.22 0 01.46 1.67h1.5a6.3 6.3 0 00-.58-2.24 39.47 39.47 0 00-3.63-6.25v-.06l-.11-.1-.05-.05a1 1 0 00-1.37.25c-.42.61-1.45 2.13-2.38 3.77a23.05 23.05 0 00-1.25 2.48 6.07 6.07 0 00-.57 2.24 5 5 0 1010 0z"/><path d="M25.75 6.31H25v21A4.79 4.79 0 0120.21 32H6.29a4.79 4.79 0 01-4.79-4.73V12.73l.61-.61 6.43-6.39 4.23-4.19h7.44A4.79 4.79 0 0125 6.31h1.5A6.28 6.28 0 0020.21 0h-8.06L7.49 4.67l-6.44 6.39-1 1v15.21H0a6.28 6.28 0 006.29 6.26h13.92a6.29 6.29 0 006.29-6.26V6.3h-.75z"/><path d="M21.58 7.76h-.75v3.56A1.79 1.79 0 0119 13.1h-8.08a1.79 1.79 0 01-1.79-1.78v-.22h-.75l.53.53L14.57 6H19a1.79 1.79 0 011.79 1.78h1.5A3.28 3.28 0 0019 4.48h-5l-6.37 6.31v.53a3.28 3.28 0 003.29 3.28H19a3.28 3.28 0 003.29-3.28V7.76h-.75zM2.17 6.5l.53.53 4.17-4.18.96.96-3.65 3.64L2.7 5.97l-.53.53.53.53-.53-.53-.53.53 2.54 2.54 5.77-5.76L6.87.73 1.1 6.5l.54.53.53-.53z"/><path d="M1.44 4.2l.53.53 2.61-2.61.45.45-2.08 2.08-.98-.98-.53.53.53.53-.53-.53-.53.53 2.04 2.04 4.2-4.2L4.58 0 .38 4.2l.53.53.53-.53z"/></svg>
