<svg xmlns="http://www.w3.org/2000/svg" viewBox="0 0 60 47"><path fill="#00635b" d="M32.1 34.3v-2c.2.1.4.3.4.6s.3.6.7.6.6-.3.6-.7c-.1-.9-.8-1.6-1.6-1.8v-.5c0-.3-.3-.6-.6-.6s-.6.3-.6.6v.5c-1.1.2-1.8 1.2-1.7 2.2.1 1 .8 1.8 1.7 2v2.1c-.4-.2-.6-.6-.7-1-.1-.3-.4-.5-.7-.5-.3.1-.6.4-.5.7.2 1 .9 1.8 1.9 2v.8c0 .3.3.6.6.6s.6-.3.6-.6v-.8c.6-.1 1.1-.4 1.4-.9.5-.6.7-1.5.4-2.2-.4-.5-1.1-1-1.9-1.1zm-1.7-1c-.1-.4.2-.8.5-1V34c-.3-.1-.5-.4-.5-.7zm2.2 3.8c-.1.2-.3.3-.4.4v-1.9c.3.1.5.3.7.5 0 .4-.1.7-.3 1z"/><path fill="#00635b" d="M60 44.8c0-.4-.3-.6-.6-.6-1.6 0-3.3-.5-4.6-1.4-1.5-1-3.3-1.6-5.2-1.6-1.9 0-3.7.5-5.2 1.6-1.3 1-3 1.5-4.6 1.4-.8 0-1.6-.1-2.3-.3l-.9-.3-1.1-.6-.4-.2c2.8-1.4 4.8-4.2 4.8-7.5.1-3.5-2-6.6-5.1-7.9l2.7-7.6.8.2c4.9 1.5 9.9 2.6 14.9 3.3h.2c.3 0 .5-.2.6-.4 2.7-8.3-1.3-17.2-9.2-20.7l-.2-.2c-.1 0-.1-.1-.2-.1l-.8-.3.3-.8c.1-.3-.1-.7-.4-.8-.3-.1-.7.1-.8.4l-.2.7-.9-.1H41C32.4-.8 23.9 4.1 21 12.3c-.1.3 0 .6.3.8 4.5 2.4 9.2 4.4 14 6.1l.8.3-2.6 7.5c-.3-.1-.5-.1-.8-.2.2-.2.3-.6.3-.9v-2c0-.8-.6-1.4-1.4-1.4H14c-.8 0-1.4.6-1.4 1.4v2.2h-.4c-.8 0-1.4.6-1.4 1.4v2c0 .8.6 1.4 1.4 1.4h1.5v2.6h-.9c-.8 0-1.4.6-1.4 1.4v2c0 .8.6 1.4 1.4 1.4h.3v2.5h-.3c-.5 0-.9.3-1.2.6-.4-.1-.8-.1-1.2-.1-1.9 0-3.7.5-5.2 1.6-1.3 1-3 1.5-4.6 1.4-.4 0-.6.3-.6.7 0 .4.3.6.6.6 1.9 0 3.7-.5 5.2-1.6 2.8-1.9 6.4-1.9 9.2 0 1.5 1 3.3 1.6 5.2 1.6 1.8 0 3.7-.5 5.2-1.6 1.3-1 3-1.5 4.6-1.4 1.6 0 3.3.5 4.6 1.4 1.5 1 3.3 1.6 5.2 1.5 1.9 0 3.7-.5 5.2-1.6 2.8-1.9 6.4-1.9 9.2 0 1.5 1.1 3.3 1.6 5.2 1.6.3-.1.6-.3.6-.7zm-14.5-39l-.4-2.1L46.9 5c5.2 3.6 7.6 10.1 6.2 16.2l-.1.3-.5.5-.4-.1c-1.8-.3-3.8-.6-6.1-1.1l-.8-.2.2-.8c.6-2.4.9-4.9.9-7.3-.1-2.3-.3-4.5-.8-6.7zm-16 9.7l-.8-.4c-1.8-.8-3.6-1.7-5.5-2.6l-.7-.4.3-.7c2.6-5.8 8.3-9.6 14.7-9.6h2.2L38 3.3c-3.5 3.1-6.4 7-8.3 11.3l-.2.9zm2.1.8l-.8-.3.4-.8c2.2-5 5.6-9.3 10-12.6l.3-.3 1.2.3 1.1.4.1.4c1.5 5.2 1.6 10.7.4 15.9l-.3 1-.9-.3c-2-.5-3.9-1-5.8-1.7-1.7-.5-3.5-1.1-5.7-2zM38.8 35c.1 3.3-2 6.1-5 7.1-1.2-.6-2.5-.9-3.8-.9-.8 0-1.5.1-2.2.3-2.2-1.3-3.7-3.6-3.7-6.4 0-3.3 2.1-6 5.1-7 .1 0 .2-.1.3-.1.1 0 .2-.1.3-.1.2 0 .3-.1.5-.1.3-.1.7-.1 1-.1h.1c4 0 7.3 3.2 7.4 7.3zm-25-9.2v-2c0-.1.1-.3.3-.3h17.7c.1 0 .3.1.3.3v2c0 .1-.1.3-.3.3H14c-.1 0-.2-.1-.2-.3zM12 29.5v-2c0-.1.1-.3.3-.3h16c-1.3.5-2.5 1.4-3.4 2.5H12.3c-.2 0-.3-.1-.3-.2zm2.9 3.6v-2c0-.1.1-.2.2-.3h9c-.4.8-.8 1.6-1 2.5h-8c-.1 0-.2-.1-.2-.2zm-2.3 3.6v-2c0-.1.1-.3.3-.3H23v.6c0 .7.1 1.3.2 1.9H12.9c-.2.1-.3 0-.3-.2zm1.7 3.7v-2c0-.1.1-.2.2-.2h9c.4.9.9 1.8 1.5 2.5H14.5c-.1-.1-.2-.2-.2-.3zm.2 1.4h11.7l.2.2c-.5.2-1.1.5-1.5.8-1.3 1-2.9 1.4-4.6 1.4-1.7 0-3.3-.5-4.6-1.4-.6-.4-1.3-.7-2-1h.8z"/></svg>
