<svg viewBox="0 0 46 43" xmlns="http://www.w3.org/2000/svg"><path d="M30.27.176c-.175.135-.228.244-.228.496 0 .462.3.672.958.672 1.943 0 4.387.646 6.268 1.646 3.463 1.856 5.837 5.039 6.637 8.894.237 1.142.21 3.57-.044 4.711-1.037 4.586-4.325 8.172-8.843 9.65-1.846.597-4.211.832-5.934.58l-.29-.042.633-.428c.343-.236.677-.513.73-.63.123-.26 0-.588-.317-.815-.334-.235-.475-.168-2.022.882-1.353.915-1.573 1.159-1.415 1.554.044.109.51.772 1.029 1.46 1.002 1.336 1.16 1.454 1.635 1.26.237-.092.448-.386.448-.63 0-.058-.185-.369-.405-.671-.22-.31-.386-.571-.369-.588.018-.008.466.008.994.059 2.4.193 5.212-.345 7.542-1.445 1.512-.714 2.54-1.428 3.85-2.679 2.197-2.108 3.48-4.367 4.087-7.214 1.17-5.543-1.318-11.33-6.24-14.48a15.7 15.7 0 0 0-6.69-2.334c-1.248-.135-1.74-.11-2.013.092h-.001z"/><path d="M29.303 4.787c-1.995.302-3.99 1.26-5.415 2.604-3.41 3.216-3.946 8.138-1.31 12.01.484.705 1.979 2.133 2.717 2.595 1.714 1.058 3.41 1.545 5.45 1.545 2.62 0 4.844-.84 6.716-2.545 3.621-3.284 4.158-8.44 1.283-12.337-1.362-1.84-3.41-3.158-5.749-3.712-.826-.194-2.865-.278-3.692-.16zm2.875 1.386c3.27.546 5.863 2.839 6.76 5.996.272.95.272 2.864 0 3.906a8.127 8.127 0 0 1-2.277 3.813c-3.288 3.115-8.57 3.115-11.84-.009-2.163-2.066-2.98-4.947-2.216-7.81 1.072-4.023 5.283-6.61 9.573-5.896zM14.088 27.043c-1.108.277-2.418.773-3.92 1.478l-1.469.689-.43-.395c-.247-.227-.572-.428-.783-.495-.501-.143-5.01-.143-5.52 0-.484.134-1.213.831-1.354 1.293-.15.495-.15 10.154 0 10.65.14.461.87 1.158 1.354 1.293.58.16 5.072.143 5.59-.034.73-.235 1.301-.966 1.407-1.797.026-.193.079-.21 1.433-.437.773-.126 1.82-.243 2.33-.252l.922-.025.66.336c.36.185 1.15.672 1.757 1.075 3.385 2.293 4.72 2.822 6.242 2.486 1.292-.286 5.801-2.335 10.24-4.661 3.033-1.588 7.499-4.032 7.859-4.309 1.02-.772 1.151-2.351.281-3.3-.518-.563-1.08-.765-1.977-.723-.66.026-1.1.16-5.697 1.688-2.742.907-5.01 1.655-5.054 1.655-.035 0-.15-.176-.238-.403-.342-.773-.835-1.117-3.568-2.47-4.94-2.435-7.718-3.518-9.002-3.502-.246 0-.72.068-1.063.16zm2.479 1.478c1.968.639 8.816 3.838 9.502 4.435.686.587.598 1.545-.185 2.1-.184.134-.378.176-.747.176-.483-.009-.58-.05-2.874-1.327-1.864-1.042-2.418-1.31-2.594-1.277-.29.059-.615.42-.615.672 0 .11.088.294.202.403.264.277 4.475 2.578 5.072 2.772 1.257.411 2.805-.244 3.35-1.411.105-.236.237-.37.36-.404.114-.016 2.496-.797 5.292-1.73 5.16-1.713 5.555-1.814 6.056-1.595.528.226.65 1.066.22 1.47-.334.319-7.296 4.064-10.953 5.904-3.287 1.654-6.012 2.796-6.918 2.922-.844.11-2.145-.487-4.456-2.04-1.565-1.05-2.312-1.487-2.963-1.73-.694-.261-1.987-.244-3.815.05-.765.117-1.424.218-1.468.218-.061 0-.079-1.352-.07-3.762l.026-3.755 1.705-.814c1.61-.773 2.655-1.184 3.657-1.462.59-.16 1.372-.092 2.216.185zm-9.248 1.252.22.201v9.927l-.22.202-.21.21H2.343l-.211-.21-.22-.202v-9.927l.22-.201.21-.21h4.767l.211.21h-.001z"/><path d="M3.539 37.834a.642.642 0 0 0-.22.462c0 .16.08.336.22.462a.7.7 0 0 0 .483.21c.616 0 .923-.722.484-1.134a.7.7 0 0 0-.484-.21.7.7 0 0 0-.483.21z"/><path d="M30.752 8.865c-1.683.269-3.075 1.187-3.92 2.59a3.254 3.254 0 0 0-.242.453l-.034.104-.742.012c-.81.012-.883.032-1.11.289-.141.156-.141.533 0 .69.218.24.32.276.906.288l.544.016v1.267l-.544.016c-.587.012-.688.048-.907.288-.14.157-.14.533 0 .69.228.256.301.276 1.111.288l.742.012.034.104c.049.169.432.782.69 1.103.48.601 1.333 1.238 2.1 1.555a5.755 5.755 0 0 0 3.832.197c.446-.137 1.115-.45 1.26-.586.466-.433.015-1.118-.683-1.042a1.759 1.759 0 0 0-.47.164 3.882 3.882 0 0 1-4.968-1.306l-.126-.189 1.421-.012c1.349-.012 1.431-.016 1.557-.096.257-.156.335-.285.335-.537 0-.253-.078-.38-.335-.537-.126-.08-.203-.084-1.794-.096l-1.664-.012-.034-.209a3.174 3.174 0 0 1 0-.858l.034-.208 2.052-.012c1.984-.012 2.052-.016 2.182-.096.258-.157.335-.285.335-.538 0-.252-.077-.38-.335-.537-.126-.08-.203-.084-1.945-.096l-1.809-.012.126-.188a3.882 3.882 0 0 1 4.967-1.307c.156.08.369.152.47.164.7.076 1.15-.609.685-1.042-.243-.228-1.17-.593-1.844-.73-.446-.088-1.445-.112-1.877-.044z" stroke="null"/></svg>