<svg viewBox="0 0 46 43" xmlns="http://www.w3.org/2000/svg"><path d="M30.27.176c-.175.135-.228.244-.228.496 0 .462.3.672.958.672 1.943 0 4.387.646 6.268 1.646 3.463 1.856 5.837 5.039 6.637 8.894.237 1.142.21 3.57-.044 4.711-1.037 4.586-4.325 8.172-8.843 9.65-1.846.597-4.211.832-5.934.58l-.29-.042.633-.428c.343-.236.677-.513.73-.63.123-.26 0-.588-.317-.815-.334-.235-.475-.168-2.022.882-1.353.915-1.573 1.159-1.415 1.554.044.109.51.772 1.029 1.46 1.002 1.336 1.16 1.454 1.635 1.26.237-.092.448-.386.448-.63 0-.058-.185-.369-.405-.671-.22-.31-.386-.571-.369-.588.018-.008.466.008.994.059 2.4.193 5.212-.345 7.542-1.445 1.512-.714 2.54-1.428 3.85-2.679 2.197-2.108 3.48-4.367 4.087-7.214 1.17-5.543-1.318-11.33-6.24-14.48a15.7 15.7 0 0 0-6.69-2.334c-1.248-.135-1.74-.11-2.013.092h-.001z"/><path d="M29.303 4.787c-1.995.302-3.99 1.26-5.415 2.604-3.41 3.216-3.946 8.138-1.31 12.01.484.705 1.979 2.133 2.717 2.595 1.714 1.058 3.41 1.545 5.45 1.545 2.62 0 4.844-.84 6.716-2.545 3.621-3.284 4.158-8.44 1.283-12.337-1.362-1.84-3.41-3.158-5.749-3.712-.826-.194-2.865-.278-3.692-.16zm2.875 1.386c3.27.546 5.863 2.839 6.76 5.996.272.95.272 2.864 0 3.906a8.127 8.127 0 0 1-2.277 3.813c-3.288 3.115-8.57 3.115-11.84-.009-2.163-2.066-2.98-4.947-2.216-7.81 1.072-4.023 5.283-6.61 9.573-5.896zM14.088 27.043c-1.108.277-2.418.773-3.92 1.478l-1.469.689-.43-.395c-.247-.227-.572-.428-.783-.495-.501-.143-5.01-.143-5.52 0-.484.134-1.213.831-1.354 1.293-.15.495-.15 10.154 0 10.65.14.461.87 1.158 1.354 1.293.58.16 5.072.143 5.59-.034.73-.235 1.301-.966 1.407-1.797.026-.193.079-.21 1.433-.437.773-.126 1.82-.243 2.33-.252l.922-.025.66.336c.36.185 1.15.672 1.757 1.075 3.385 2.293 4.72 2.822 6.242 2.486 1.292-.286 5.801-2.335 10.24-4.661 3.033-1.588 7.499-4.032 7.859-4.309 1.02-.772 1.151-2.351.281-3.3-.518-.563-1.08-.765-1.977-.723-.66.026-1.1.16-5.697 1.688-2.742.907-5.01 1.655-5.054 1.655-.035 0-.15-.176-.238-.403-.342-.773-.835-1.117-3.568-2.47-4.94-2.435-7.718-3.518-9.002-3.502-.246 0-.72.068-1.063.16zm2.479 1.478c1.968.639 8.816 3.838 9.502 4.435.686.587.598 1.545-.185 2.1-.184.134-.378.176-.747.176-.483-.009-.58-.05-2.874-1.327-1.864-1.042-2.418-1.31-2.594-1.277-.29.059-.615.42-.615.672 0 .11.088.294.202.403.264.277 4.475 2.578 5.072 2.772 1.257.411 2.805-.244 3.35-1.411.105-.236.237-.37.36-.404.114-.016 2.496-.797 5.292-1.73 5.16-1.713 5.555-1.814 6.056-1.595.528.226.65 1.066.22 1.47-.334.319-7.296 4.064-10.953 5.904-3.287 1.654-6.012 2.796-6.918 2.922-.844.11-2.145-.487-4.456-2.04-1.565-1.05-2.312-1.487-2.963-1.73-.694-.261-1.987-.244-3.815.05-.765.117-1.424.218-1.468.218-.061 0-.079-1.352-.07-3.762l.026-3.755 1.705-.814c1.61-.773 2.655-1.184 3.657-1.462.59-.16 1.372-.092 2.216.185zm-9.248 1.252.22.201v9.927l-.22.202-.21.21H2.343l-.211-.21-.22-.202v-9.927l.22-.201.21-.21h4.767l.211.21h-.001z"/><path d="M3.539 37.834a.642.642 0 0 0-.22.462c0 .16.08.336.22.462a.7.7 0 0 0 .483.21c.616 0 .923-.722.484-1.134a.7.7 0 0 0-.484-.21.7.7 0 0 0-.483.21z"/><path stroke="null" d="M30.405 8.825c-1.099.253-1.88 1.012-2.175 2.125-.213.807-.07 1.799.365 2.494l.096.156-.31.02c-.24.017-.339.04-.416.105-.361.293-.32.887.077 1.096.14.077.225.085.782.085h.622l.251.421c.136.233.247.438.247.458 0 .024-.42.414-.929.872-1.168 1.044-1.227 1.104-1.278 1.32a.66.66 0 0 0 .265.704c.114.076.206.08 2.856.08 1.953 0 2.763-.012 2.819-.044a.675.675 0 0 0 .335-.703.876.876 0 0 0-.324-.47c-.055-.036-.568-.052-1.89-.068l-1.814-.02.608-.542c.896-.796.922-.896.461-1.667l-.195-.321.77-.02c.884-.025.962-.049 1.11-.362.143-.305.073-.606-.193-.82-.095-.08-.162-.083-1.286-.104l-1.182-.02-.303-.522c-.17-.289-.339-.634-.383-.775-.133-.417-.1-.92.081-1.313.34-.719 1.12-1.068 1.846-.823.325.108.594.337.818.69.222.346.428.49.653.462.328-.044.575-.385.53-.723-.025-.188-.22-.542-.468-.843-.317-.393-.932-.779-1.426-.891-.247-.057-.84-.077-1.02-.037z"/></svg>