<svg width="24" height="24" viewBox="-2.5 -2 24 24" fill="none" xmlns="http://www.w3.org/2000/svg"><path d="M8.44 5.923c.686 0 1.344.27 1.83.75a2.551 2.551 0 0 1 0 3.625 2.601 2.601 0 0 1-3.66.002 2.552 2.552 0 0 1-.76-1.811c0-.68.274-1.333.759-1.814a2.603 2.603 0 0 1 1.83-.752Zm0-1.34a3.96 3.96 0 0 0-2.787 1.143 3.885 3.885 0 0 0-1.155 2.76c0 1.035.415 2.028 1.154 2.76a3.96 3.96 0 0 0 2.786 1.144 3.96 3.96 0 0 0 2.787-1.142 3.885 3.885 0 0 0 1.155-2.76c0-1.035-.414-2.028-1.153-2.761a3.96 3.96 0 0 0-2.788-1.144Zm.676-1.959V.67c0-.24-.13-.46-.339-.58a.682.682 0 0 0-.676 0 .669.669 0 0 0-.338.58v1.954c0 .24.129.46.338.58.21.12.467.12.676 0 .21-.12.339-.34.339-.58Zm4.004 2.184 1.396-1.38a.67.67 0 0 0-.302-1.13.686.686 0 0 0-.66.172L12.16 3.85a.668.668 0 0 0 .473 1.16.679.679 0 0 0 .483-.213l.005.011ZM17 8.435a.667.667 0 0 0-.198-.473.68.68 0 0 0-.478-.197h-1.962a.678.678 0 0 0-.586.335.665.665 0 0 0 0 .67c.121.208.344.335.586.335h1.962a.68.68 0 0 0 .478-.196.666.666 0 0 0 .198-.474Zm-2.458 6.128a.667.667 0 0 0 0-.947l-1.395-1.382a.683.683 0 0 0-1.135.307.668.668 0 0 0 .179.649l1.395 1.382a.68.68 0 0 0 .956 0v-.009ZM9.176 16.33v-1.954a.67.67 0 0 0-.338-.58.682.682 0 0 0-.676 0 .67.67 0 0 0-.338.58v1.954c0 .24.129.46.338.58.209.12.467.12.676 0a.67.67 0 0 0 .338-.58ZM4.841 4.775a.667.667 0 0 0 0-.947L3.445 2.445a.68.68 0 0 0-1.112.31.666.666 0 0 0 .156.637l1.396 1.383a.68.68 0 0 0 .956 0ZM3.314 8.402a.667.667 0 0 0-.198-.474.68.68 0 0 0-.478-.196H.676a.678.678 0 0 0-.585.335.665.665 0 0 0 0 .67c.12.207.344.335.585.335h1.962a.68.68 0 0 0 .478-.197.667.667 0 0 0 .198-.473Zm.102 6.128 1.395-1.383a.666.666 0 0 0-.312-1.101.681.681 0 0 0-.644.155l-1.397 1.382a.666.666 0 0 0 .304 1.121.68.68 0 0 0 .654-.174Z" fill="#000" transform="scale(1.15)"/></svg>
