<svg width="13" height="16" fill="none" xmlns="http://www.w3.org/2000/svg"><path d="M11.777 7.649C10.772 5.62 9.823 3.704 11.521.57c.108-.2.01-.438-.22-.533-.231-.094-.505-.007-.614.192-1.873 3.459-.797 5.632.244 7.735l.132.268c-.788.528-2.476.967-4.563.967-2.09 0-3.776-.44-4.563-.968l.132-.267c1.04-2.103 2.116-4.276.243-7.735C2.204.03 1.93-.056 1.7.038c-.23.095-.328.333-.22.533 1.697 3.133.748 5.049-.256 7.078-1.09 2.2-2.215 4.475.276 8.154.085.127.24.197.397.197a.51.51 0 0 0 .233-.055c.22-.112.292-.357.164-.548C.879 13.31.74 11.747 1.09 10.353c2.66.647 4.575 2.9 4.95 3.37V15.6c0 .22.206.4.46.4s.46-.18.46-.4v-1.878c.389-.487 2.297-2.727 4.95-3.37.35 1.395.211 2.957-1.203 5.045-.128.19-.056.436.164.548a.51.51 0 0 0 .233.055c.158 0 .312-.07.398-.197 2.49-3.68 1.364-5.954.275-8.154ZM6.5 12.912c-.766-.877-2.626-2.716-5.166-3.33.075-.198.158-.394.245-.59C2.639 9.61 4.407 10 6.5 10c2.09 0 3.861-.389 4.923-1.003.086.193.168.388.242.585-2.54.614-4.4 2.453-5.165 3.33Z M7 6.5a.5.5 0 1 1-1 0 .5.5 0 0 1 1 0Z" fill="#151515"/></svg>