<svg width="24" height="24" fill="none" xmlns="http://www.w3.org/2000/svg"><path d="m17.782 8.19-.5.025.5-.024Zm.466 9.631-.5.024v.002l.5-.026Zm-.271.8.36.347-.36-.348Zm-11.704-.002-.36.346v.001l.36-.348Zm-.271-.8-.5-.024v.002l.5.022Zm.464-9.628.5.024-.5-.024Zm.653.345h.5l-1-.024.5.024Zm-.45 9.316-.5-.024.5.024Zm.089.314-.363.345.004.004.359-.349Zm10.74 0-.352-.355-.006.005-.005.006.362.344Zm.087-.312.5-.024-.5.024Zm-.45-9.316.499-.025-.024-.475h-.476v.5Zm-10.016 0h-.5v.5h.5v-.5Zm7.66-.906v.5h.5v-.5h-.5Zm-.665 0h-.5v.5h.5v-.5Zm-3.976 0v.5h.5v-.5h-.5Zm-.666 0h-.5v.5h.5v-.5Zm7.977.746a.169.169 0 0 1-.167-.163l1-.048a.831.831 0 0 0-.833-.789v1Zm-.167-.163.467 9.63.998-.048-.466-9.63-.999.048Zm.467 9.631c.01.212-.046.338-.132.427l.72.694c.307-.319.433-.729.41-1.171l-.998.05Zm-.132.427c-.112.116-.337.227-.82.227v1c.611 0 1.158-.138 1.54-.532l-.72-.695Zm-.82.227H7.454v1h9.341v-1Zm-9.342 0c-.483 0-.709-.111-.823-.23l-.718.696c.382.395.929.534 1.541.534v-1Zm-.822-.228c-.083-.087-.142-.215-.132-.43l-.999-.045c-.02.439.105.85.41 1.168l.721-.693Zm-.132-.428.465-9.63-1-.047-.464 9.628.999.048Zm.465-9.63a.17.17 0 0 1-.167.164v-1a.83.83 0 0 0-.832.79l.999.046Zm-.167.164h10.65v-1H6.799v1Zm-.18.134-.45 9.316 1 .048.45-9.316-1-.048Zm-.45 9.317c-.007.167.017.314.07.441a.764.764 0 0 0 .156.24l.725-.688.017.02c.01.016.02.031.025.046.013.03.005.033.007-.012l-1-.047Zm.23.686c.216.223.566.329 1.058.329v-1c-.381 0-.4-.088-.34-.026l-.718.697Zm1.058.329h9.34v-1h-9.34v1Zm9.34 0c.488 0 .843-.103 1.062-.333l-.724-.69c.032-.033.046-.027 0-.013a1.19 1.19 0 0 1-.337.036v1Zm1.052-.322a.75.75 0 0 0 .167-.25c.053-.128.077-.275.069-.442l-1 .048c.003.043-.005.04.008.01a.22.22 0 0 1 .043-.067l.007-.007.003-.003.703.711Zm.236-.692-.451-9.317-1 .049.452 9.316.999-.048Zm-.95-9.792H7.118v1h10.015v-1Zm-9.516.5v-.002h-1v.002h1ZM12.126 5.5c1.191 0 2.154.96 2.154 2.132h1c0-1.731-1.418-3.132-3.154-3.132v1Zm2.654 1.632h-.666v1h.666v-1Zm-.166.5a2.484 2.484 0 0 0-2.488-2.474v1c.822 0 1.488.665 1.488 1.474h1Zm-2.488-2.474a2.484 2.484 0 0 0-2.488 2.474h1c0-.809.665-1.474 1.488-1.474v-1Zm-1.988 1.974h-.666v1h.666v-1Zm-.166.5c0-1.171.962-2.132 2.154-2.132v-1c-1.736 0-3.154 1.4-3.154 3.132h1ZM12.126 4.5v1-1Z" fill="#000"/></svg>