<svg width="24" height="24" viewBox="-3.5 -1 24 24" fill="none" xmlns="http://www.w3.org/2000/svg"><path d="M6.966 1A5.973 5.973 0 0 0 1 6.966v9.13c0 .498.406.904.904.904h2.629c.15 0 .271-.122.271-.271v-1.373l.085.056.26.175c.102.07.202.144.302.217.435.322.884.654 1.515.654.632 0 1.08-.332 1.515-.654.1-.073.2-.148.303-.217l.26-.175.1-.066v1.383c0 .147.117.267.263.27l2.621.001a.905.905 0 0 0 .904-.904v-9.13A5.973 5.973 0 0 0 6.966 1Zm1.776 13.962-.262.176a9.936 9.936 0 0 0-.321.23c-.38.282-.74.547-1.193.547-.453 0-.812-.265-1.192-.547a9.947 9.947 0 0 0-.321-.23l-.263-.176c-.424-.284-.862-.577-1.23-.926-1.23-1.168-1.333-2.986-1.333-4.599a3.26 3.26 0 0 1 1.234-2.55c.697-.546 1.49-.978 1.885-1.179 1.45 3.18 4.633 3.844 5.558 3.972-.012 1.55-.163 3.247-1.331 4.356-.368.349-.807.642-1.23.926Zm3.648 1.134c0 .2-.162.362-.362.362H9.685V14.97c.23-.166.453-.343.661-.54 1.32-1.253 1.502-3.14 1.502-4.992a.272.272 0 0 0-.256-.271c-.04-.003-3.965-.267-5.46-3.93a.272.272 0 0 0-.364-.144c-.05.023-1.222.568-2.24 1.367a3.755 3.755 0 0 0-1.443 2.978c0 1.852.182 3.739 1.501 4.991.213.202.442.383.676.552v1.477H1.904a.362.362 0 0 1-.362-.362v-9.13a5.43 5.43 0 0 1 5.424-5.424 5.43 5.43 0 0 1 5.424 5.424v9.13Z" fill="#151515" transform="scale(1.2)"/><path fill-rule="evenodd" clip-rule="evenodd" d="M1.904 17.1C1.35 17.1.9 16.65.9 16.096v-9.13A6.073 6.073 0 0 1 6.966.9a6.073 6.073 0 0 1 6.066 6.066v9.13c0 .553-.45 1.004-1.004 1.004H9.307v-.016a.371.371 0 0 1-.264-.355v-1.196l-.203.136c-.095.065-.189.134-.284.204l-.016.012-.007.005c-.429.318-.902.668-1.567.668-.665 0-1.138-.35-1.567-.668l-.007-.005-.015-.011a8.942 8.942 0 0 0-.285-.204l-.188-.127v1.186a.371.371 0 0 1-.279.36v.011h-2.72Zm2.643-.1H1.905A.905.905 0 0 1 1 16.096v-9.13A5.973 5.973 0 0 1 6.966 1a5.973 5.973 0 0 1 5.966 5.966v9.13a.905.905 0 0 1-.904.904H9.407a.271.271 0 0 1-.264-.271v-1.383l-.1.066-.259.175a9.234 9.234 0 0 0-.287.205l-.016.012c-.434.322-.883.654-1.515.654-.631 0-1.08-.332-1.515-.654l-.015-.011c-.095-.07-.19-.14-.288-.206l-.26-.175-.084-.056v1.373a.271.271 0 0 1-.257.27Zm4.14-2.122c.425-.284.856-.572 1.217-.915 1.113-1.057 1.282-2.67 1.3-4.197C10.18 9.61 7.147 8.9 5.698 5.845c-.415.215-1.137.62-1.776 1.12a3.16 3.16 0 0 0-1.196 2.472c0 1.618.107 3.392 1.302 4.526.36.343.791.631 1.217.915l.262.177c.111.075.22.155.325.233.386.285.719.527 1.133.527.414 0 .747-.242 1.133-.527.106-.078.214-.158.325-.233l.263-.177Zm-3.03-9.124A12.09 12.09 0 0 0 3.86 6.886a3.26 3.26 0 0 0-1.234 2.551c0 1.613.103 3.431 1.333 4.599.368.349.806.642 1.23.926l.263.176c.108.074.215.152.32.23.381.282.74.547 1.193.547.453 0 .812-.265 1.193-.547.106-.078.212-.156.32-.23l.263-.176c.424-.284.863-.577 1.23-.926 1.17-1.11 1.32-2.806 1.332-4.356-.916-.127-4.047-.78-5.516-3.881a7.028 7.028 0 0 1-.042-.09l-.09.045Zm-2.07 8.675c-1.32-1.252-1.502-3.14-1.502-4.991 0-1.175.525-2.26 1.442-2.978 1.019-.799 2.191-1.344 2.24-1.367a.27.27 0 0 1 .366.144c1.494 3.663 5.42 3.927 5.459 3.93a.272.272 0 0 1 .256.27c0 1.853-.182 3.74-1.502 4.992a6.551 6.551 0 0 1-.66.541v1.488h2.342c.2 0 .362-.163.362-.362v-9.13a5.43 5.43 0 0 0-5.424-5.424 5.43 5.43 0 0 0-5.424 5.424v9.13c0 .2.163.362.362.362h2.358V14.98a6.613 6.613 0 0 1-.676-.552Zm.575.603a6.589 6.589 0 0 1-.644-.53c-1.354-1.285-1.533-3.213-1.533-5.064 0-1.206.54-2.32 1.48-3.057 1.029-.806 2.21-1.355 2.261-1.379a.37.37 0 0 1 .5.197C6.96 7 8.291 7.966 9.447 8.483a7.41 7.41 0 0 0 1.505.486 6.193 6.193 0 0 0 .632.097h.012c.196.012.35.175.35.372 0 1.85-.179 3.779-1.532 5.064-.2.19-.413.36-.63.52v1.336h2.243a.262.262 0 0 0 .262-.262v-9.13a5.33 5.33 0 0 0-5.324-5.324 5.33 5.33 0 0 0-5.324 5.324v9.13c0 .144.118.262.262.262h2.258v-1.326Z" fill="#151515" transform="scale(1.2)"/></svg>
