<svg width="24" height="24" fill="none" xmlns="http://www.w3.org/2000/svg"><path d="M20.01 4h-1.25a.937.937 0 0 0-.937.937v1.25c0 .517.42.937.937.937h1.25c.517 0 .937-.42.937-.937v-1.25A.937.937 0 0 0 20.01 4ZM13.098 4h-1.25a.937.937 0 0 0-.936.937v1.25c0 .517.42.937.937.937h1.25c.517 0 .937-.42.937-.937v-1.25A.937.937 0 0 0 13.098 4ZM6.187 4h-1.25A.937.937 0 0 0 4 4.937v1.25c0 .517.42.937.937.937h1.25c.517 0 .937-.42.937-.937v-1.25A.937.937 0 0 0 6.187 4ZM20.01 16.876h-1.25a.937.937 0 0 0-.937.937v1.25c0 .517.42.937.937.937h1.25c.517 0 .937-.42.937-.937v-1.25a.937.937 0 0 0-.937-.937ZM13.098 16.876h-1.25a.937.937 0 0 0-.936.937v1.25c0 .517.42.937.937.937h1.25c.517 0 .937-.42.937-.937v-1.25a.937.937 0 0 0-.938-.937ZM6.187 16.876h-1.25a.937.937 0 0 0-.937.937v1.25c0 .517.42.937.937.937h1.25c.517 0 .937-.42.937-.937v-1.25a.937.937 0 0 0-.937-.937ZM20.01 10.438h-1.25a.937.937 0 0 0-.937.937v1.25c0 .517.42.937.937.937h1.25c.517 0 .937-.42.937-.937v-1.25a.937.937 0 0 0-.937-.937ZM13.098 10.438h-1.25a.937.937 0 0 0-.936.937v1.25c0 .517.42.937.937.937h1.25c.517 0 .937-.42.937-.937v-1.25a.937.937 0 0 0-.938-.937ZM6.187 10.438h-1.25a.937.937 0 0 0-.937.937v1.25c0 .517.42.937.937.937h1.25c.517 0 .937-.42.937-.937v-1.25a.937.937 0 0 0-.937-.937Z" fill="#000"/></svg>