<svg width="24" height="24" fill="none" xmlns="http://www.w3.org/2000/svg"><mask id="a" style="mask-type:alpha" maskUnits="userSpaceOnUse" x="4" y="11" width="14" height="8"><path fill-rule="evenodd" clip-rule="evenodd" d="M9.195 11.5h3.635c1.385 0 2.646.585 3.561 1.526a5.26 5.26 0 0 1 1.484 3.686V19H4.125v-2.288a5.26 5.26 0 0 1 1.484-3.686A4.975 4.975 0 0 1 9.195 11.5Zm3.635 1.17H9.195A3.978 3.978 0 0 0 6.4 13.84a4.204 4.204 0 0 0-1.137 2.872v1.144h11.5v-1.144A4.112 4.112 0 0 0 15.6 13.84c-.717-.71-1.682-1.17-2.77-1.17Z" fill="#fff"/></mask><g mask="url(#a)"><mask id="b" style="mask-type:alpha" maskUnits="userSpaceOnUse" x="-509" y="-30" width="784" height="3158"><path d="M-508.058 3127.59h782.597V-29.966h-782.597V3127.59Z" fill="#000"/></mask><g mask="url(#b)"><path d="M1.26 8.51h19.48v13.48H1.26V8.51Z" fill="#000"/></g></g><mask id="c" style="mask-type:alpha" maskUnits="userSpaceOnUse" x="7" y="4" width="8" height="8"><path fill-rule="evenodd" clip-rule="evenodd" d="M10.987 4c1.05 0 1.997.41 2.662 1.1a3.65 3.65 0 0 1 1.101 2.637c0 1.05-.41 1.997-1.1 2.662-.666.692-1.613 1.101-2.663 1.101a3.65 3.65 0 0 1-2.636-1.1C7.659 9.733 7.25 8.787 7.25 7.736c0-1.024.41-1.97 1.1-2.636A3.65 3.65 0 0 1 10.988 4Zm1.843 1.92a2.527 2.527 0 0 0-1.843-.768 2.47 2.47 0 0 0-1.817.768 2.47 2.47 0 0 0-.768 1.817c0 .743.281 1.383.768 1.843.46.487 1.1.768 1.817.768.717 0 1.383-.281 1.843-.768.461-.46.768-1.1.768-1.843 0-.717-.307-1.356-.768-1.817Z" fill="#fff"/></mask><g mask="url(#c)"><mask id="d" style="mask-type:alpha" maskUnits="userSpaceOnUse" x="-527" y="-30" width="811" height="3180"><path d="M-526.295 3149.55H283.78V-29.713h-810.075V3149.55Z" fill="#000"/></mask><g mask="url(#d)"><path d="M4.284.99h13.43v13.52H4.285V.99Z" fill="#000"/></g></g></svg>