<svg xmlns="http://www.w3.org/2000/svg" viewBox="0 0 433.75 431.09"><path d="M433.49 193.08c-.76-3.39-18.9-80.79-99.57-99.6a128.71 128.71 0 00-60.65 0q3.84-3.44 7.58-6.53c30.41-25.19 67.7-44 68.07-44.22a10.79 10.79 0 00.24-19.19A134 134 0 00309 11c-29.1-4.28-55.32 2.45-75.83 19.45a87.38 87.38 0 00-27 38.38 123.67 123.67 0 00-40.77-46.31c-66.08-45.63-133-8.1-135.83-6.48A10.79 10.79 0 0031 35.43c.49.2 49.81 19.8 91.79 48.79 9.7 6.7 19.83 14.48 30.25 23.23-24.58-4.13-48.92-1.11-72.55 9C4.05 149.34.14 228.72 0 232.09A10.85 10.85 0 005.73 242a11 11 0 002.62 1 10.8 10.8 0 008.83-1.82c1.86-1.35 46-33.33 93.78-53.86a454 454 0 0151.09-18.08 35.07 35.07 0 0047.74 42.4c1.9 23 1.94 42.06 1.32 71.79-.62 30-5.65 57.63-11 86.91q-1.21 6.66-2.42 13.41c-2.68 14.51-5.2 26.28-7.08 34.87a10 10 0 009 12.36l27.73.07h.56a9.92 9.92 0 009.77-8.21c.41-2.3.84-4.73 1.06-6.12.87-5.22 1.34-10.34 1.83-15.76.33-3.62.67-7.37 1.15-11.26 4.14-33.18 5.51-66.53 4.29-104.95-1.14-36-5.59-60.51-10.89-87.64a33.73 33.73 0 0039.16-33.33c0-.91 0-1.83-.11-2.75 15.22 2 29.41 4.49 42.25 7.48 50.63 11.81 99.68 35.55 101.76 36.56a10.8 10.8 0 0015.31-12zm-258.27-56.93a34.63 34.63 0 00-2.83 7.78 502.73 502.73 0 00-69.94 23.57c-30.34 13-58.79 30.14-76.49 41.6 6.56-22.61 22.84-55.48 63.1-72.76a106.67 106.67 0 0167.72-6.13 120.09 120.09 0 0118.44 5.94zm22-18c-14.82-14.34-37.22-34.49-62.1-51.68-25.76-17.79-53.83-32-72.1-40.59 21.59-6 56.09-9.13 90.18 14.42 32.56 22.48 42.64 54 45.16 77.6-.36.1-.74.18-1.11.28zm-5 33.82a14.31 14.31 0 1114.32 14.32A14.33 14.33 0 01192.21 152zm-10.62 24.66a35.06 35.06 0 0024.94 10.45h.74l.06.49a14.09 14.09 0 01-11.74 6.27 14.34 14.34 0 01-14.32-14.31 13.68 13.68 0 01.31-2.87zM315.26 34.34c1 .23 2 .48 2.95.73-14.66 8.6-33.61 20.8-51.13 35.32s-33.31 31.2-44.6 44.16c-1.67-19.22.78-47.82 24.49-67.48 22.3-18.48 49.45-17.07 68.29-12.73zm-61.18 129.48a13.58 13.58 0 01-13.57 13.56A13.23 13.23 0 01233 175a34.82 34.82 0 008.16-17.27c4 .28 8 .61 11.91 1a13 13 0 011.01 5.09zM403.8 175c-19.36-8.15-50.26-19.95-82.48-27.47-30.78-7.18-62.13-10.31-83.66-11.68-.24-.45-.48-.9-.74-1.34 20.16-14.8 51.82-29.4 92.1-20 42.45 9.88 64.29 39.38 74.78 60.49z"/></svg>
