<svg xmlns="http://www.w3.org/2000/svg" width="18" height="18" fill="currentColor"><g transform="scale(.15)" clip-path="url(#palmTreeV2)"><path fill="currentColor" d="M68.69 119.177s7.618-22.555-3.57-70.584L101.323 85.9s7.405-27.36-23.77-41.854l42.43.629s-12.549-24.764-46.657-13.494l30.324-29.037S73.032-3.418 60.975 27.166c0 0-11.845-32.938-42.185-26.296L48.64 30.471S21.329 15.751 0 41.596l43.708 1.402s-30.504 8.287-27.981 40.758l38.94-35.873s.607 36.727-9.976 71.31c11.795 1.838 24.032 0 24.032 0l-.032-.016Z"/></g><defs><clipPath id="palmTreeV2"><path fill="#fff" d="M0 0h120v120H0z"/></clipPath></defs></svg>
