<svg role="presentation" xmlns="http://www.w3.org/2000/svg" viewBox="0 0 30 30"><path d="M30 3.214v23.572A3.215 3.215 0 0126.786 30H10.339a17.158 17.158 0 001.835-3.971c.2-.77 1.025-3.911 1.025-3.911a4.4 4.4 0 003.77 1.888c4.962 0 8.531-4.56 8.531-10.225 0-5.431-4.433-9.5-10.138-9.5C8.263 4.286 4.5 9.05 4.5 14.237c0 2.411 1.286 5.411 3.335 6.368.315.147.475.08.549-.221.054-.228.335-1.346.455-1.862a.485.485 0 00-.114-.469A6.41 6.41 0 017.5 14.304a7.118 7.118 0 017.426-7.138A6.493 6.493 0 0121.8 13.85c0 4.446-2.243 7.527-5.17 7.527a2.392 2.392 0 01-2.437-2.973c.462-1.955 1.359-4.065 1.359-5.478 0-3.549-5.056-3.06-5.056 1.674a6.009 6.009 0 00.489 2.444C8.879 25.942 8.565 26.056 9 29.95l.147.054H3.214A3.215 3.215 0 010 26.786V3.214A3.215 3.215 0 013.214 0h23.572A3.215 3.215 0 0130 3.214z"/></svg>
