<svg viewBox="0 0 17 16" fill="none" xmlns="http://www.w3.org/2000/svg"><path d="m13.35 3.758-.687 2.561a.75.75 0 0 1-.918.53l-2.562-.686a.75.75 0 1 1 .388-1.449l.843.226-1.59-2.753a.375.375 0 0 0-.649 0L6.624 4.875a.75.75 0 1 1-1.3-.75l1.552-2.688a1.875 1.875 0 0 1 3.248 0l1.567 2.715.21-.782a.75.75 0 0 1 1.448.388ZM15.537 12.687a1.855 1.855 0 0 1-1.624.938h-3.071l.595.594a.75.75 0 1 1-1.061 1.06L8.5 13.406a.75.75 0 0 1 0-1.06l1.875-1.876a.75.75 0 0 1 1.06 1.06l-.594.596h3.07a.375.375 0 0 0 .325-.563l-1.551-2.687a.749.749 0 1 1 1.299-.75l1.552 2.687a1.857 1.857 0 0 1 0 1.875ZM7 12.875a.751.751 0 0 1-.75.75H3.087a1.875 1.875 0 0 1-1.624-2.813l1.57-2.718-.714.192a.75.75 0 0 1-.388-1.45l2.561-.685a.75.75 0 0 1 .919.53l.686 2.561a.75.75 0 1 1-1.449.388l-.244-.91-1.642 2.842a.375.375 0 0 0 .325.563H6.25a.751.751 0 0 1 .75.75Z" fill="#F4436C"/></svg>