<svg fill="none" xmlns="http://www.w3.org/2000/svg" viewBox="0 0 14 16">
  <path d="M.89 7.45A6.05 6.05 0 0 1 3.07 6.1c-.6 1.44-.46 3.16.44 5.24.06.14.21.22.37.2a.34.34 0 0 0 .27-.3c.2-2.73.59-4.49 1.9-5.22a9.62 9.62 0 0 1 .22 4.88l-.27 1.43c-.22 1.17-.43 2.27-.8 3.22-.04.1-.02.22.04.3.06.1.16.15.27.15h1.95c.16 0 .3-.11.33-.27.53-2.56.76-4.4.75-5.98-.01-1.04-.16-2.09-.46-3.14.85.9 1.63 2.26 2.33 4.08a.33.33 0 0 0 .6.03 6.9 6.9 0 0 0 .58-1.5 3.6 3.6 0 0 0-1.06-3.41 6 6 0 0 0-1.6-1.07 5.9 5.9 0 0 1 4.17 1.72c.1.11.28.13.4.05a.33.33 0 0 0 .15-.39 5.64 5.64 0 0 0-1.93-3c-1.22-.77-2.54-.79-3.92-.05C7.88 1.56 7.13.58 5.49.02a.34.34 0 0 0-.37.1.33.33 0 0 0-.02.4c.49.76.74 1.4.8 2.13-.22-.12-.44-.21-.7-.32l-.08-.03a3.53 3.53 0 0 0-3.23.32C1.44 2.9 1 3.28.55 3.76a.33.33 0 0 0-.04.4c.08.13.24.2.38.15.97-.3 2.06-.36 2.94-.2C2.3 4.4 1.12 5.4.36 7.06a.34.34 0 0 0 .1.4c.13.1.3.1.43-.01Z" fill="#000"/>
</svg>