<svg xmlns="http://www.w3.org/2000/svg" width="40" height="40" viewBox="0 0 40 40" fill="none">
<g clip-path="url(#clip0_3784_6787)">
<path d="M12.9361 14.143C10.3569 17.458 10.4021 23.3469 13.6985 26.2661C17.4411 29.5784 22.7085 29.5439 26.0208 26.4972C29.9919 22.8422 29.7635 16.7594 26.2519 13.3142C22.7218 9.85046 16.4132 9.66984 12.9361 14.143Z" fill="#FCC11A"/>
<path d="M17.0785 13.0061C16.0585 12.5545 14.9429 13.7844 14.4568 14.6237C13.9707 15.4658 13.5191 17.1153 14.5551 17.5376C15.591 17.9573 16.3347 17.2455 17.0812 16.0156C17.8222 14.7858 18.2446 13.5241 17.0785 13.0061Z" fill="#FEE269"/>
<path d="M19.7346 8.38423C19.4876 8.84641 19.5699 9.20235 20.0613 9.31923C20.5528 9.4361 23.6101 9.93282 23.8677 9.94876C24.2423 9.97266 24.3804 9.6911 24.3352 9.36438C24.2874 9.03766 23.541 4.46094 23.472 4.04126C23.4029 3.62157 22.9593 3.20188 22.537 3.76235C22.1146 4.32282 19.9206 8.03626 19.7346 8.38423Z" fill="#FFA722"/>
<path d="M27.6505 11.5611C27.1697 11.7098 27.183 12.0047 27.4406 12.3792C27.6983 12.7537 29.4727 15.4605 29.6347 15.649C29.7994 15.835 30.0783 15.8828 30.3121 15.6012C30.5458 15.3223 33.4624 11.2317 33.6749 10.9767C34.0255 10.557 33.8156 10.1134 33.2791 10.2515C32.87 10.3605 27.9533 11.4681 27.6505 11.5611Z" fill="#FFA722"/>
<path d="M31.3158 19.4316C30.9705 19.235 30.5216 19.2908 30.4047 19.7344C30.2879 20.178 29.7752 23.4 29.7274 23.6816C29.6796 23.9631 29.8921 24.242 30.24 24.173C30.588 24.1039 35.4065 23.3894 35.7279 23.3097C36.2883 23.1689 36.4743 22.6084 35.8925 22.1888C35.5154 21.9152 31.6425 19.6175 31.3158 19.4316Z" fill="#FFA722"/>
<path d="M27.4614 27.0656C27.8333 26.8664 28.1626 27.0178 28.2556 27.4402C28.3486 27.8599 29.3765 32.1577 29.5412 32.9519C29.6236 33.3503 29.1667 33.677 28.7948 33.4433C28.4203 33.2095 24.3615 30.3806 24.1012 30.1495C23.7267 29.8228 23.987 29.4828 24.1703 29.3102C24.5422 28.9569 27.1108 27.2542 27.4614 27.0656Z" fill="#FFA722"/>
<path d="M16.1598 29.4244C15.6897 29.3792 15.5516 29.7989 15.6233 30.1708C15.6923 30.5453 16.3936 35.2814 16.4414 35.6347C16.5105 36.1473 17.0497 36.3598 17.3977 35.8445C17.7456 35.3292 20.1469 31.4883 20.3408 31.127C20.6914 30.4736 20.4338 30.3328 20.0831 30.1708C19.7352 30.0087 16.6513 29.4722 16.1598 29.4244Z" fill="#FFA722"/>
<path d="M9.43654 23.9844C9.76326 23.4478 10.1829 23.5886 10.4884 24.1013C10.6956 24.4519 12.4487 26.8106 12.6134 27.0656C12.7781 27.3233 12.8472 27.812 12.3345 27.9289C11.8165 28.0484 7.63826 29.1455 6.98482 29.2623C6.33138 29.3792 5.95685 28.8666 6.37654 28.3061C6.62092 27.9767 9.2506 24.2898 9.43654 23.9844Z" fill="#FFA722"/>
<path d="M8.54897 19.9203C9.14663 20.186 9.42819 20.0903 9.55304 19.6627C9.71772 19.1022 10.2065 16.5336 10.2304 15.9492C10.2463 15.5694 10.0896 15.2028 9.50522 15.2958C8.92085 15.3888 4.71866 15.9758 4.1821 16.1617C3.55788 16.3795 3.60304 17.0649 4.01741 17.2827C4.50882 17.5403 8.12663 19.7344 8.54897 19.9203Z" fill="#FFA722"/>
<path d="M15.8104 10.1134C16.1477 9.84515 16.0442 9.45999 15.7413 9.25015C15.4385 9.0403 11.6879 6.32827 11.2124 5.9564C10.7927 5.62968 10.2774 5.74655 10.4182 6.49296C10.5192 7.02952 11.7145 11.7258 11.7968 12.0498C11.8898 12.4244 12.1713 12.6103 12.4981 12.3766C12.8195 12.1455 15.4598 10.395 15.8104 10.1134Z" fill="#FFA722"/>
</g>
<defs>
<clipPath id="clip0_3784_6787">
<rect width="34" height="34" fill="white" transform="translate(3 3)"/>
</clipPath>
</defs>
</svg>