<svg xmlns="http://www.w3.org/2000/svg" width="26" height="25" viewBox="0 0 26 25" fill="none">
  <path d="M9.86572 9.93708L9.8648 9.93819C9.41982 10.4765 9.1074 11.3744 9.15451 12.3633C9.20091 13.3374 9.57321 14.0583 10.0517 14.4576L9.86572 9.93708ZM9.86572 9.93708C11.3013 8.19889 14.1323 8.15247 15.7362 9.63369L15.7363 9.6338M9.86572 9.93708L15.7363 9.6338M15.7363 9.6338C17.1826 10.9693 17.2492 13.2637 15.6297 14.6666M15.7363 9.6338L15.6297 14.6666M15.6297 14.6666C14.2816 15.8329 11.8843 15.9835 10.0524 14.4582L15.6297 14.6666Z" fill="#FCC11A" stroke="#FF9900" stroke-width="6.25"/>
  <path d="M8.64404 8.30051L9.36774 8.74581L9.00335 9.70147C8.81111 9.54623 8.60946 9.33069 8.44251 9.0377C8.41521 8.98978 8.39018 8.94215 8.36725 8.89494C8.44318 8.67345 8.54265 8.46581 8.64404 8.30051ZM8.64404 8.30051L9.36818 8.74467L9.45084 8.52787L8.77951 8.09805C8.72935 8.16753 8.68397 8.23561 8.64404 8.30051ZM10.6938 9.32366L9.96447 8.85673L9.88028 9.05878L10.5834 9.49007C10.6202 9.43619 10.657 9.38068 10.6938 9.32366ZM10.6938 9.32366C10.8461 9.08575 10.9812 8.84621 11.0809 8.61544C10.9124 8.30857 10.6759 8.03801 10.3928 7.8288L9.96557 8.85409L10.6938 9.32366ZM9.00472 9.70257L9.37105 8.74785L9.87732 9.05936L9.48635 9.99457C9.35897 9.94132 9.18607 9.84878 9.00472 9.70257ZM9.48977 9.996L9.87949 9.06069L10.5816 9.49272C10.404 9.75237 10.2253 9.97409 10.0389 10.1452C9.86233 10.1212 9.67714 10.0741 9.48977 9.996ZM9.41704 7.4213C9.16975 7.61688 8.95072 7.86187 8.78384 8.09206L9.45259 8.52329L9.83416 7.52256C9.72534 7.48106 9.58391 7.44186 9.41704 7.4213ZM9.4563 8.52569L9.84031 7.52491C10.0377 7.60065 10.2231 7.70353 10.392 7.82824L9.96365 8.85285L9.4563 8.52569ZM9.37149 8.7467L9.45455 8.53025L9.96255 8.8555L9.87812 9.05745L9.37149 8.7467Z" fill="#FEE269" stroke="#FF9900" stroke-width="6.25"/>
  <mask id="path-3-inside-1_3788_5145" fill="white">
    <path d="M12.7659 3.71388C12.573 4.05363 12.6373 4.31527 13.0211 4.40119C13.4049 4.4871 15.7928 4.85223 15.994 4.86395C16.2866 4.88152 16.3944 4.67455 16.3592 4.43438C16.3218 4.19421 15.7389 0.829904 15.6849 0.521396C15.631 0.212887 15.2845 -0.095622 14.9546 0.316374C14.6248 0.72837 12.9111 3.45809 12.7659 3.71388Z"/>
  </mask>
  <path d="M12.7659 3.71388C12.573 4.05363 12.6373 4.31527 13.0211 4.40119C13.4049 4.4871 15.7928 4.85223 15.994 4.86395C16.2866 4.88152 16.3944 4.67455 16.3592 4.43438C16.3218 4.19421 15.7389 0.829904 15.6849 0.521396C15.631 0.212887 15.2845 -0.095622 14.9546 0.316374C14.6248 0.72837 12.9111 3.45809 12.7659 3.71388Z" fill="#FFA722"/>
  <path d="M12.7659 3.71388L18.2007 6.80023L18.201 6.79966L12.7659 3.71388ZM15.994 4.86395L16.3688 -1.37481L16.3573 -1.37549L15.994 4.86395ZM16.3592 4.43438L22.5428 3.52631L22.539 3.5002L22.535 3.47412L16.3592 4.43438ZM7.33113 0.627522C6.8922 1.40043 5.87377 3.53275 6.75392 6.14697C7.766 9.15302 10.3341 10.2044 11.6558 10.5002L14.3864 -1.69788C15.3243 -1.48792 17.6683 -0.610335 18.6005 2.15847C19.4008 4.53545 18.4467 6.36707 18.2007 6.80023L7.33113 0.627522ZM11.6558 10.5002C12.1062 10.6011 13.0649 10.7511 13.6221 10.8372C14.057 10.9043 15.1432 11.075 15.6308 11.1034L16.3573 -1.37549C16.4749 -1.36864 16.563 -1.35991 16.5872 -1.35751C16.6229 -1.35395 16.6477 -1.35109 16.6555 -1.35018C16.671 -1.34837 16.6696 -1.3484 16.6431 -1.3519C16.5925 -1.35859 16.5084 -1.37026 16.3905 -1.38725C16.1584 -1.42071 15.8505 -1.46687 15.5299 -1.51638C15.2091 -1.56592 14.8917 -1.61633 14.6396 -1.65806C14.5126 -1.67907 14.4142 -1.6959 14.346 -1.70804C14.2455 -1.72592 14.2867 -1.72019 14.3864 -1.69788L11.6558 10.5002ZM15.6192 11.1027C17.3924 11.2092 19.7372 10.5984 21.3161 8.47363C22.6844 6.63221 22.7096 4.66185 22.5428 3.52631L10.1755 5.34245C10.044 4.44708 10.0328 2.70029 11.283 1.01801C12.7436 -0.947596 14.8882 -1.46375 16.3688 -1.3748L15.6192 11.1027ZM22.535 3.47412C22.4858 3.15817 21.8874 -0.292453 21.8415 -0.555037L9.52831 1.59783C9.55401 1.74484 9.71217 2.65684 9.86949 3.5675C9.94793 4.02153 10.0255 4.47155 10.0857 4.82212C10.1527 5.21268 10.1838 5.39752 10.1834 5.39464L22.535 3.47412ZM21.8415 -0.555037C21.5469 -2.24026 20.4602 -4.37344 18.1138 -5.49255C16.7639 -6.13634 15.0834 -6.36484 13.3851 -5.84938C11.7788 -5.36185 10.7085 -4.38024 10.0758 -3.58991L19.8335 4.22266C19.3657 4.80699 18.4624 5.67266 17.0155 6.1118C15.4767 6.57888 13.948 6.36954 12.7327 5.78994C10.6555 4.79921 9.76901 2.97455 9.52831 1.59783L21.8415 -0.555037ZM10.0758 -3.58991C9.64044 -3.0462 8.89205 -1.86883 8.51941 -1.28375C8.07152 -0.580502 7.50119 0.327983 7.3308 0.628097L18.201 6.79966C18.1554 6.87994 18.1376 6.90644 18.2132 6.78339C18.2643 6.70024 18.3361 6.5844 18.4245 6.44274C18.6008 6.16042 18.8288 5.79827 19.0627 5.43115C19.2983 5.06114 19.5291 4.70295 19.7137 4.42249C19.8069 4.28101 19.8768 4.17696 19.9233 4.10924C20.0007 3.99656 19.9496 4.07765 19.8335 4.22266L10.0758 -3.58991Z" fill="#FF9900" mask="url(#path-3-inside-1_3788_5145)"/>
  <path d="M18.9482 6.04916C18.5727 6.1585 18.5831 6.37524 18.7843 6.65056C18.9856 6.92587 20.3714 8.91556 20.498 9.05419C20.6266 9.19087 20.8444 9.22602 21.027 9.01904C21.2096 8.81402 23.4875 5.80704 23.6535 5.61959C23.9273 5.31108 23.7634 4.985 23.3444 5.08653C23.0249 5.16659 19.1847 5.98082 18.9482 6.04916Z" fill="#FFA722"/>
  <path d="M21.811 11.8347C21.5413 11.6902 21.1907 11.7312 21.0994 12.0573C21.0081 12.3834 20.6077 14.7519 20.5703 14.9588C20.533 15.1658 20.699 15.3708 20.9707 15.3201C21.2425 15.2693 25.0059 14.7441 25.2569 14.6855C25.6947 14.582 25.8399 14.17 25.3856 13.8615C25.091 13.6604 22.0662 11.9714 21.811 11.8347Z" fill="#FFA722"/>
  <path d="M18.8005 17.4464C19.0909 17.3 19.3482 17.4113 19.4208 17.7218C19.4934 18.0303 20.2963 21.1896 20.4249 21.7734C20.4892 22.0663 20.1324 22.3064 19.842 22.1346C19.5494 21.9628 16.3794 19.8833 16.1761 19.7134C15.8836 19.4732 16.0869 19.2233 16.23 19.0964C16.5205 18.8367 18.5266 17.5851 18.8005 17.4464Z" fill="#FFA722"/>
  <path d="M9.97339 19.1803C9.60619 19.1471 9.4983 19.4556 9.55432 19.729C9.60826 20.0043 10.156 23.4858 10.1933 23.7455C10.2472 24.1223 10.6684 24.2785 10.9402 23.8997C11.2119 23.5209 13.0874 20.6975 13.2389 20.4319C13.5127 19.9516 13.3115 19.8481 13.0376 19.729C12.7658 19.6099 10.3572 19.2155 9.97339 19.1803Z" fill="#FFA722"/>
  <path d="M4.72182 15.1814C4.977 14.787 5.30479 14.8905 5.54338 15.2673C5.7052 15.5251 7.07445 17.259 7.20308 17.4464C7.3317 17.6358 7.38564 17.9951 6.98524 18.081C6.58069 18.1689 3.3173 18.9753 2.80694 19.0612C2.29658 19.1471 2.00406 18.7703 2.33185 18.3583C2.52272 18.1162 4.5766 15.406 4.72182 15.1814Z" fill="#FFA722"/>
  <path d="M4.0302 12.194C4.497 12.3892 4.71691 12.3189 4.81441 12.0046C4.94304 11.5926 5.32477 9.70443 5.34344 9.27486C5.35589 8.99564 5.23349 8.72618 4.77707 8.79452C4.32065 8.86286 1.03859 9.29438 0.619518 9.43106C0.131981 9.59117 0.16725 10.0949 0.490892 10.2551C0.874698 10.4445 3.70034 12.0573 4.0302 12.194Z" fill="#FFA722"/>
  <path d="M9.70222 4.98503C9.96569 4.78782 9.88478 4.50469 9.64828 4.35044C9.41177 4.19619 6.4824 2.20259 6.11104 1.92923C5.78325 1.68906 5.38077 1.77498 5.49073 2.32365C5.56956 2.71808 6.50314 6.17025 6.56746 6.40847C6.64007 6.68378 6.85998 6.82046 7.11516 6.64864C7.36619 6.47876 9.42837 5.19201 9.70222 4.98503Z" fill="#FFA722"/>
</svg>