<svg xmlns="http://www.w3.org/2000/svg" width="36" height="36" viewBox="0 0 36 36" fill="none">
<g clip-path="url(#clip0_3794_5131)">
<g clip-path="url(#clip1_3794_5131)">
<path d="M10.937 12.143C8.35783 15.458 8.40299 21.3469 11.6994 24.2661C15.442 27.5784 20.7094 27.5439 24.0217 24.4972C27.9928 20.8422 27.7644 14.7594 24.2528 11.3142C20.7227 7.85046 14.4141 7.66984 10.937 12.143Z" fill="#FCC11A"/>
<path d="M15.0781 11.0061C14.0581 10.5545 12.9425 11.7844 12.4564 12.6237C11.9703 13.4658 11.5188 15.1153 12.5547 15.5376C13.5906 15.9573 14.3344 15.2455 15.0808 14.0156C15.8219 12.7858 16.2442 11.5241 15.0781 11.0061Z" fill="#FEE269"/>
<path d="M17.7344 6.38423C17.4873 6.84641 17.5697 7.20235 18.0611 7.31923C18.5525 7.4361 21.6098 7.93282 21.8675 7.94876C22.242 7.97266 22.3802 7.6911 22.335 7.36438C22.2872 7.03766 21.5408 2.46094 21.4717 2.04126C21.4027 1.62157 20.9591 1.20188 20.5367 1.76235C20.1144 2.32282 17.9203 6.03626 17.7344 6.38423Z" fill="#FFA722"/>
<path d="M25.65 9.56108C25.1692 9.70983 25.1825 10.0047 25.4402 10.3792C25.6978 10.7537 27.4722 13.4605 27.6342 13.649C27.7989 13.835 28.0778 13.8828 28.3116 13.6012C28.5453 13.3223 31.4619 9.23171 31.6744 8.97671C32.025 8.55702 31.8152 8.11342 31.2786 8.25155C30.8695 8.36045 25.9528 9.46811 25.65 9.56108Z" fill="#FFA722"/>
<path d="M29.3156 17.4316C28.9703 17.235 28.5214 17.2908 28.4045 17.7344C28.2877 18.178 27.775 21.4 27.7272 21.6816C27.6794 21.9631 27.8919 22.242 28.2399 22.173C28.5878 22.1039 33.4063 21.3894 33.7277 21.3097C34.2881 21.1689 34.4741 20.6084 33.8924 20.1888C33.5152 19.9152 29.6424 17.6175 29.3156 17.4316Z" fill="#FFA722"/>
<path d="M25.4614 25.0656C25.8333 24.8664 26.1626 25.0178 26.2556 25.4402C26.3486 25.8599 27.3765 30.1577 27.5412 30.9519C27.6236 31.3503 27.1667 31.677 26.7948 31.4433C26.4203 31.2095 22.3615 28.3806 22.1012 28.1495C21.7267 27.8228 21.987 27.4828 22.1703 27.3102C22.5422 26.9569 25.1108 25.2542 25.4614 25.0656Z" fill="#FFA722"/>
<path d="M14.1591 27.4244C13.6889 27.3792 13.5508 27.7989 13.6225 28.1708C13.6916 28.5453 14.3928 33.2814 14.4406 33.6347C14.5097 34.1473 15.0489 34.3598 15.3969 33.8445C15.7448 33.3292 18.1461 29.4883 18.34 29.127C18.6906 28.4736 18.433 28.3328 18.0823 28.1708C17.7344 28.0087 14.6505 27.4722 14.1591 27.4244Z" fill="#FFA722"/>
<path d="M7.43611 21.9844C7.76283 21.4478 8.18252 21.5886 8.48799 22.1013C8.69518 22.4519 10.4483 24.8106 10.613 25.0656C10.7777 25.3233 10.8467 25.812 10.3341 25.9289C9.81611 26.0484 5.63783 27.1455 4.98439 27.2623C4.33096 27.3792 3.95643 26.8666 4.37611 26.3061C4.62049 25.9767 7.25018 22.2898 7.43611 21.9844Z" fill="#FFA722"/>
<path d="M6.54891 17.9203C7.14657 18.186 7.42813 18.0903 7.55298 17.6627C7.71766 17.1022 8.20641 14.5336 8.23032 13.9492C8.24626 13.5694 8.08954 13.2028 7.50516 13.2958C6.92079 13.3888 2.7186 13.9758 2.18204 14.1617C1.55782 14.3795 1.60297 15.0649 2.01735 15.2827C2.50876 15.5403 6.12657 17.7344 6.54891 17.9203Z" fill="#FFA722"/>
<path d="M13.8111 8.11343C14.1484 7.84515 14.0448 7.45999 13.742 7.25015C13.4392 7.0403 9.68857 4.32827 9.2131 3.9564C8.79342 3.62968 8.2781 3.74655 8.41888 4.49296C8.51982 5.02952 9.71513 9.72577 9.79748 10.0498C9.89045 10.4244 10.172 10.6103 10.4987 10.3766C10.8201 10.1455 13.4604 8.39499 13.8111 8.11343Z" fill="#FFA722"/>
</g>
</g>
<defs>
<clipPath id="clip0_3794_5131">
<rect width="30" height="28.2353" fill="white" transform="translate(3 4)"/>
</clipPath>
<clipPath id="clip1_3794_5131">
<rect width="34" height="34" fill="white" transform="translate(1 1)"/>
</clipPath>
</defs>
</svg>