<svg xmlns="http://www.w3.org/2000/svg" width="17" height="16" fill="none"><g clip-path="url(#a)"><path fill="#F4436C" d="M8.5 0c-4.411 0-8 3.589-8 8s3.589 8 8 8 8-3.589 8-8-3.589-8-8-8Zm0 12.667a.667.667 0 1 1 0-1.334.667.667 0 0 1 0 1.334Zm1.055-4.239a.67.67 0 0 0-.388.606v.3a.666.666 0 1 1-1.334 0v-.3c0-.778.458-1.491 1.164-1.817.679-.313 1.17-1.143 1.17-1.55C10.167 4.748 9.419 4 8.5 4c-.92 0-1.667.748-1.667 1.667a.667.667 0 1 1-1.333 0c0-1.654 1.346-3 3-3s3 1.346 3 3c0 .9-.781 2.224-1.945 2.761Z"/></g><defs><clipPath id="a"><path fill="#fff" d="M.5 0h16v16H.5z"/></clipPath></defs></svg>