<svg xmlns="http://www.w3.org/2000/svg" width="77" height="57" fill="none" class="swell-checkout-tip__svg" viewBox="0 0 284 211"><g clip-path="url(#a)"><path fill="#072570" d="M100.62 75.55c-6.1 1.45-7.6.02-7.78-2.25-.32-3.62 3.94-3.38 4.42-5.68 1.57-7.84 2.23-20.56 1.55-28.27-.32-3.63-4.65-.75-4.96-4.31-.31-3.56 3.5-5.33 6.45-5.9 6.79-1.35 13.6-3.11 20.36-4.85 8.16-2.08 13.76.23 14.38 7.29.57 6.48-5.68 10.87-5.6 11.84.17 1.81 7.45-.12 8.28 9.33.42 4.79-1.95 14.41-15.47 17.63l-21.63 5.15v.02Zm12.88-33.21c0 1.52-.24 2.77 1.64 2.32 4.29-1.02 4.44-6.28 4.17-9.39-.23-2.59-1.1-3.84-3.9-3.17-2.08.49-1.71.74-1.8 2.81l-.1 7.43h-.01Zm.2 21.9c.12 1.3 1.12.93 2.26.66 4.75-1.13 4.86-6.12 4.56-9.61-.3-3.43-1.44-4.75-5.12-3.87-2.34.56-1.85.71-1.85 3.08l.17 9.74h-.01Zm60.96-37.65c.07 3.95-.62 10.06-.54 17.19.02 1.05-.06 3.19.43 4.13.34.71.8.54 1.54.43 1.02-.11 1.73.18 1.82 1.22.37 4.21-9.08 10.29-12.76 11.17-5.96 1.42-3.56-4.77-5.71-4.26-1.74.41-4.51 7.02-11.41 8.66-6.16 1.47-9.17-3.17-9.36-8.48-.49-11.78 6.06-24.45 16.29-27.81 4.65-1.57 6.8 1.09 8.74.63.74-.18 1.88-1.18 2.45-1.64 1.8-1.35 3.47-2.54 5.54-3.04 1.88-.45 2.94-.04 2.96 1.81l.01-.01Zm-12.99 10.1c-.07-.84-.46-2.07-1.52-1.75-3.53 1.1-7.17 11.82-6.74 15.95.09.97.43 2.61 1.76 2.16 3.53-1.1 6.91-13.15 6.49-16.35l.01-.01Zm33.93 4.15c.07.78.27 2.25 1.34 2 .67-.16 1.32-.51 1.99-.67 1.14-.27 1.57.75 1.65 1.66.47 5.38-10.19 10.82-14.55 11.86-3.62.86-5.97-.23-5.98-4.99.02-10.71 1.05-23.12 1.25-30.91.04-1.07-.27-1.52-1.41-1.25-.54.13-1.06.39-1.6.51-1.34.32-2.13-.09-2.24-1.38-.28-3.24 2.71-5.01 5.31-6.49 3.19-1.82 7.52-3.9 10.93-4.72 2.34-.56 3.87-.33 4.09 2.2l-.8 32.19.02-.01Zm8.53-8.7c.14-1.55.36-2.86.29-3.7-.07-.84-.45-1.22-1.59-.94-1 .24-2.61.69-2.81-1.65-.24-2.78 2.73-4.75 4.86-6.18 3.03-2.04 8-4.68 11.41-5.49 2.08-.49 3.1.32 3.27 2.26.24 2.78-.28 8.53-.33 9.47-.07.74-.62 8.48-.74 11.08-.03 1.26.84 1.05 1.92.8 1.27-.3 2.22-.46 2.35 1.09.43 4.92-9.89 10.42-13.7 11.33-2.54.61-5.55-.2-5.79-2.92-.11-1.23 0-2.44.08-3.72l.78-11.42v-.01Zm-2.24-20.88c-.45-5.18 8.89-10.11 13.17-11.13 2.41-.57 5.7-.43 5.88 2.37.35 4.74-8.74 10.21-12.78 10.91-2.29.41-6.02.71-6.27-2.14v-.01ZM78.26 78.85s.37-16.63-21.02-38.47l30.94 8.19s-5-16.83-25.93-14.56l22.29-13.19s-14.56-9.1-28.66 7.73l6.37-25.02s-17.74 6.82-14.1 26.84c0 0-16.83-13.65-30.48-.45l25.13 6.14s-18.99.91-21.72 21.38l23.2-13.19s-13.19 14.1-1.36 30.48l8.64-31.39s17.83 33.27-4.4 44.17c.11.11 31.1-8.66 31.1-8.66Zm151.92-32.6L32.34 93.3a41.73 41.73 0 1 0 19.3 81.19l197.85-47.06a41.73 41.73 0 1 0-19.31-81.18Z"/><path fill="#FCCAE3" d="M232.42 41.51 34.58 88.57a41.73 41.73 0 1 0 19.31 81.19l197.84-47.06a41.73 41.73 0 1 0-19.3-81.19Z"/><path stroke="#072570" stroke-miterlimit="10" d="M232.42 41.51 34.58 88.57a41.73 41.73 0 1 0 19.31 81.19l197.84-47.06a41.73 41.73 0 1 0-19.3-81.19Z"/><path fill="#072570" d="M29.06 155.55c-6.6 1.57-8.21.02-8.43-2.43-.34-3.92 4.27-3.66 4.79-6.15 1.7-8.49 2.4-22.25 1.68-30.59-.34-3.92-5.03-.81-5.37-4.66-.34-3.85 3.79-5.76 6.99-6.38 7.34-1.46 14.72-3.36 22.03-5.24 8.83-2.24 14.89.25 15.56 7.89.6 7.01-6.14 11.76-6.05 12.81.17 1.96 8.05-.13 8.95 10.1.46 5.19-2.11 15.6-16.75 19.08l-23.41 5.57ZM43 119.61c0 1.65-.25 2.99 1.77 2.51 4.64-1.1 4.8-6.79 4.5-10.16-.24-2.8-1.17-4.16-4.21-3.43-2.25.53-1.85.8-1.95 3.04l-.11 8.04Zm.23 23.7c.12 1.4 1.2 1 2.43.71 5.15-1.22 5.26-6.62 4.93-10.4-.33-3.71-1.56-5.14-5.55-4.19-2.54.6-2 .76-2 3.34l.18 10.54Zm65.12-35.1c.74 8.48-8.46 17.39-16.65 19.34-1.01.24-2.83.67-2.7 2.14.18 2.03 2.89 2.53 4.7 2.1 5.22-1.24 8.85-6.18 11.17-6.74a2.66 2.66 0 0 1 3.16 2.25c.33 3.71-4.33 7.18-7.18 9.22-3.9 2.72-7.73 4.7-12.29 5.79-8.84 2.1-16.85.22-17.31-9.26-.63-14.73 12.6-27.54 25.79-30.68 5.73-1.36 10.77-.35 11.31 5.82v.02Zm-20.3 12.34c.07.84.46 1.89 1.48 1.65 2.03-.48 5.13-6.51 4.61-9.83-.15-.89-.7-2.05-1.86-1.78-2.97.71-4.43 7.71-4.23 9.95v.01Zm60.63-27.38c.08 4.27-.67 10.89-.59 18.6.03 1.14-.07 3.45.47 4.47.36.77.86.58 1.67.46 1.1-.12 1.87.2 1.97 1.32.4 4.55-9.82 11.14-13.8 12.09-6.46 1.54-3.87-5.16-6.18-4.61-1.88.45-4.88 7.6-12.35 9.38-6.67 1.59-9.92-3.43-10.13-9.18-.53-12.75 6.56-26.46 17.63-30.09 5.03-1.7 7.35 1.18 9.46.68.8-.19 2.03-1.27 2.66-1.78 1.94-1.46 3.75-2.75 6-3.29 2.03-.48 3.18-.04 3.2 1.96v-.01Zm-14.06 10.93c-.08-.91-.49-2.24-1.65-1.9-3.82 1.2-7.76 12.79-7.29 17.26.1 1.05.47 2.82 1.91 2.34 3.82-1.2 7.48-14.23 7.03-17.7Zm59.43-3.99c-.12 1.1-.24 2.28-.15 3.33.14 1.54.98 1.91 2.43 1.57 1.67-.33 2.54-.6 2.7 1.29.47 5.4-11.3 11.99-15.72 13.04-4.64 1.1-3-5.65-5.55-5.05-1.59.38-7.18 8.36-14.74 9.88-4.07.83-6.54-1.16-7.08-5.68-.49-3.89.67-10.03.83-15 .06-1.87.42-3.61-1.99-3.32-1.46.21-3.07.37-3.23-1.45-.25-2.8 3.63-5.8 5.72-7.3 3.41-2.46 7.5-4.72 11.42-5.65 2.75-.66 3.82.52 4.05 3.12.24 2.73-.63 9.73-.96 13.53-.06.95-1.27 8.31 1.85 7.57 2.32-.55 3.74-3.75 4.4-5.62 2.38-7.29.23-15.8 3.26-19.17 1.88-2.23 6.96-4.16 9.64-4.8 2.25-.53 4.26-.37 4.47 2.01.08.91-.06 2.66-.05 3.59l-1.28 14.11h-.02Zm25.02-5.67c-.45 3.26.65 4.92 2.47 4.49 1.74-.41 2.93-2.06 4-2.31 1.53-.36 2.08.87 2.19 2.06.48 5.47-12.9 13.23-17.1 14.23-4.35 1.04-7.42-.31-7.82-4.79-.2-2.24-.03-4.57.14-6.83l1.09-12.85c.27-2.85.02-3.15-2.88-2.46-1.74.41-2.72.15-2.9-1.75-.25-3.01 1.12-5.06 4.14-6.06 2.29-.83 2.45-1.58 3.18-5.05.47-2.26 1.09-4.48 2.96-5.86 2.43-1.79 6.1-3.03 8.92-3.7 1.8-.43 2.82.12 2.98 1.94-.02 1.44-.18 5.55-.08 6.67.18 2.1 2.5.83 4.69.32.94-.22 1.83-.22 1.92.83.09.98-.03 2.15-.1 3.1-.08 1.59.05 3.06-1.91 3.53-5 1.19-5.02.98-5.57 7.34l-.33 7.16v-.01Z"/><path fill="#072570" d="M242.14 118.71c-6.45 1.54-13.27-.34-13.88-7.21-.38-4.27 2.5-7.75 6.78-8.77 3.48-.83 6.33.43 6.63 3.93.1 1.19-.08 2.45.02 3.64.07.77.41 1.33 1.28 1.12 2.32-.55 3.18-4.19 2.96-5.93-.6-5.15-9.02-21.82-11.77-21.16-1.09.26-2.4 3-3.99 3.38-1.88.45-3.68-1.48-3.68-3.2.04-4.59 11.53-15.33 15.73-16.33 4.06-.97 5.73 2.07 7.38 4.82 2.35 4.02 6.84 15.54 8.69 15.53 1.99-.04 2.23-7.47 2.11-8.87-.43-4.91-3.87-5.37-4.19-8.95-.29-3.29 2.58-6.05 5.77-6.81 5.73-1.36 6.95 3.35 7.34 7.77 1.62 15.07-8.47 42.58-27.17 47.03l-.01.01ZM30.06 154.55c-6.6 1.57-8.21.02-8.43-2.43-.34-3.92 4.27-3.66 4.79-6.15 1.7-8.49 2.4-22.25 1.68-30.59-.34-3.92-5.03-.81-5.37-4.66-.34-3.85 3.79-5.76 6.99-6.38 7.34-1.46 14.72-3.36 22.03-5.24 8.83-2.24 14.89.25 15.56 7.89.6 7.01-6.14 11.76-6.05 12.81.17 1.96 8.05-.13 8.95 10.1.46 5.19-2.11 15.6-16.75 19.08l-23.41 5.57ZM44 118.61c0 1.65-.25 2.99 1.77 2.51 4.64-1.1 4.8-6.79 4.5-10.16-.24-2.8-1.17-4.16-4.21-3.43-2.25.53-1.85.8-1.95 3.04l-.11 8.04Zm.23 23.7c.12 1.4 1.2 1 2.43.71 5.15-1.22 5.26-6.62 4.93-10.4-.33-3.71-1.56-5.14-5.55-4.19-2.54.6-2 .76-2 3.34l.18 10.54Zm65.12-35.1c.74 8.48-8.46 17.39-16.65 19.34-1.01.24-2.83.67-2.7 2.14.18 2.03 2.89 2.53 4.7 2.1 5.22-1.24 8.85-6.18 11.17-6.74a2.66 2.66 0 0 1 3.16 2.25c.33 3.71-4.33 7.18-7.18 9.22-3.9 2.72-7.73 4.7-12.29 5.79-8.84 2.1-16.85.22-17.31-9.26-.63-14.73 12.6-27.54 25.79-30.68 5.73-1.36 10.77-.35 11.31 5.82v.02Zm-20.3 12.34c.07.84.46 1.89 1.48 1.65 2.03-.48 5.13-6.51 4.61-9.83-.15-.89-.7-2.05-1.86-1.78-2.97.71-4.43 7.71-4.23 9.95v.01Zm60.63-27.38c.08 4.27-.67 10.89-.59 18.6.03 1.14-.07 3.45.47 4.47.36.77.86.58 1.67.46 1.1-.12 1.87.2 1.97 1.32.4 4.55-9.82 11.14-13.8 12.09-6.46 1.54-3.87-5.16-6.18-4.61-1.88.45-4.88 7.6-12.35 9.38-6.67 1.59-9.92-3.43-10.13-9.18-.53-12.75 6.56-26.46 17.63-30.09 5.03-1.7 7.35 1.18 9.46.68.8-.19 2.03-1.27 2.66-1.78 1.94-1.46 3.75-2.75 6-3.29 2.03-.48 3.18-.04 3.2 1.96v-.01Zm-14.06 10.93c-.08-.91-.49-2.24-1.65-1.9-3.82 1.2-7.76 12.79-7.29 17.26.1 1.05.47 2.82 1.91 2.34 3.82-1.2 7.48-14.23 7.03-17.7Zm59.43-3.99c-.12 1.1-.24 2.28-.15 3.33.14 1.54.98 1.91 2.43 1.57 1.67-.33 2.54-.6 2.7 1.29.47 5.4-11.3 11.99-15.72 13.04-4.64 1.1-3-5.65-5.55-5.05-1.59.38-7.18 8.36-14.74 9.88-4.07.83-6.54-1.16-7.08-5.68-.49-3.89.67-10.03.83-15 .06-1.87.42-3.61-1.99-3.32-1.46.21-3.07.37-3.23-1.45-.25-2.8 3.63-5.8 5.72-7.3 3.41-2.46 7.5-4.72 11.42-5.65 2.75-.66 3.82.52 4.05 3.12.24 2.73-.63 9.73-.96 13.53-.06.95-1.27 8.31 1.85 7.57 2.32-.55 3.74-3.75 4.4-5.62 2.38-7.29.23-15.8 3.26-19.17 1.88-2.23 6.96-4.16 9.64-4.8 2.25-.53 4.26-.37 4.47 2.01.08.91-.06 2.66-.05 3.59l-1.28 14.11h-.02Z"/><path fill="#072570" d="M220.07 93.44c-.45 3.26.65 4.92 2.47 4.49 1.74-.41 2.93-2.06 4-2.31 1.53-.36 2.08.87 2.19 2.06.48 5.47-12.9 13.23-17.1 14.23-4.35 1.04-7.42-.31-7.82-4.79-.2-2.24-.03-4.57.14-6.83l1.09-12.85c.27-2.85.02-3.15-2.88-2.46-1.74.41-2.72.15-2.9-1.75-.25-3.01 1.12-5.06 4.14-6.06 2.29-.83 2.45-1.58 3.18-5.05.47-2.26 1.09-4.48 2.96-5.86 2.43-1.79 6.1-3.03 8.92-3.7 1.8-.43 2.82.12 2.98 1.94-.02 1.44-.18 5.55-.08 6.67.18 2.1 2.5.83 4.69.32.94-.22 1.83-.22 1.92.83.09.98-.03 2.15-.1 3.1-.08 1.59.05 3.06-1.91 3.53-5 1.19-5.02.98-5.57 7.34l-.33 7.16v-.01Z"/><path fill="#072570" d="M243.14 117.71c-6.45 1.54-13.27-.34-13.88-7.21-.38-4.27 2.5-7.75 6.78-8.77 3.48-.83 6.33.43 6.63 3.93.1 1.19-.08 2.45.02 3.64.07.77.41 1.33 1.28 1.12 2.32-.55 3.18-4.19 2.96-5.93-.6-5.15-9.02-21.82-11.77-21.16-1.09.26-2.4 3-3.99 3.38-1.88.45-3.68-1.48-3.68-3.2.04-4.59 11.53-15.33 15.73-16.33 4.06-.97 5.73 2.07 7.38 4.82 2.35 4.02 6.84 15.54 8.69 15.53 1.99-.04 2.23-7.47 2.11-8.87-.43-4.91-3.87-5.37-4.19-8.95-.29-3.29 2.58-6.05 5.77-6.81 5.73-1.36 6.95 3.35 7.34 7.77 1.62 15.07-8.47 42.58-27.17 47.03l-.01.01ZM31.06 153.55c-6.6 1.57-8.21.02-8.43-2.43-.34-3.92 4.27-3.66 4.79-6.15 1.7-8.49 2.4-22.25 1.68-30.59-.34-3.92-5.03-.81-5.37-4.66-.34-3.85 3.79-5.76 6.99-6.38 7.34-1.46 14.72-3.36 22.03-5.24 8.83-2.24 14.89.25 15.56 7.89.6 7.01-6.14 11.76-6.05 12.81.17 1.96 8.05-.13 8.95 10.1.46 5.19-2.11 15.6-16.75 19.08l-23.41 5.57ZM45 117.61c0 1.65-.25 2.99 1.77 2.51 4.64-1.1 4.8-6.79 4.5-10.16-.24-2.8-1.17-4.16-4.21-3.43-2.25.53-1.85.8-1.95 3.04l-.11 8.04Zm.23 23.7c.12 1.4 1.2 1 2.43.71 5.15-1.22 5.26-6.62 4.93-10.4-.33-3.71-1.56-5.14-5.55-4.19-2.54.6-2 .76-2 3.34l.18 10.54Zm65.12-35.1c.74 8.48-8.46 17.39-16.65 19.34-1.01.24-2.83.67-2.7 2.14.18 2.03 2.89 2.53 4.7 2.1 5.22-1.24 8.85-6.18 11.17-6.74a2.66 2.66 0 0 1 3.16 2.25c.33 3.71-4.33 7.18-7.18 9.22-3.9 2.72-7.73 4.7-12.29 5.79-8.84 2.1-16.85.22-17.31-9.26-.63-14.73 12.6-27.54 25.79-30.68 5.73-1.36 10.77-.35 11.31 5.82v.02Zm-20.3 12.34c.07.84.46 1.89 1.48 1.65 2.03-.48 5.13-6.51 4.61-9.83-.15-.89-.7-2.05-1.86-1.78-2.97.71-4.43 7.71-4.23 9.95v.01Zm60.63-27.38c.08 4.27-.67 10.89-.59 18.6.03 1.14-.07 3.45.47 4.47.36.77.86.58 1.67.46 1.1-.12 1.87.2 1.97 1.32.4 4.55-9.82 11.14-13.8 12.09-6.46 1.54-3.87-5.16-6.18-4.61-1.88.45-4.88 7.6-12.35 9.38-6.67 1.59-9.92-3.43-10.13-9.18-.53-12.75 6.56-26.46 17.63-30.09 5.03-1.7 7.35 1.18 9.46.68.8-.19 2.03-1.27 2.66-1.78 1.94-1.46 3.75-2.75 6-3.29 2.03-.48 3.18-.04 3.2 1.96v-.01Zm-14.06 10.93c-.08-.91-.49-2.24-1.65-1.9-3.82 1.2-7.76 12.79-7.29 17.26.1 1.05.47 2.82 1.91 2.34 3.82-1.2 7.48-14.23 7.03-17.7Zm59.43-3.99c-.12 1.1-.24 2.28-.15 3.33.14 1.54.98 1.91 2.43 1.57 1.67-.33 2.54-.6 2.7 1.29.47 5.4-11.3 11.99-15.72 13.04-4.64 1.1-3-5.65-5.55-5.05-1.59.38-7.18 8.36-14.74 9.88-4.07.83-6.54-1.16-7.08-5.68-.49-3.89.67-10.03.83-15 .06-1.87.42-3.61-1.99-3.32-1.46.21-3.07.37-3.23-1.45-.25-2.8 3.63-5.8 5.72-7.3 3.41-2.46 7.5-4.72 11.42-5.65 2.75-.66 3.82.52 4.05 3.12.24 2.73-.63 9.73-.96 13.53-.06.95-1.27 8.31 1.85 7.57 2.32-.55 3.74-3.75 4.4-5.62 2.38-7.29.23-15.8 3.26-19.17 1.88-2.23 6.96-4.16 9.64-4.8 2.25-.53 4.26-.37 4.47 2.01.08.91-.06 2.66-.05 3.59l-1.28 14.11h-.02Z"/><path fill="#072570" d="M221.07 92.44c-.45 3.26.65 4.92 2.47 4.49 1.74-.41 2.93-2.06 4-2.31 1.53-.36 2.08.87 2.19 2.06.48 5.47-12.9 13.23-17.1 14.23-4.35 1.04-7.42-.31-7.82-4.79-.2-2.24-.03-4.57.14-6.83l1.09-12.85c.27-2.85.02-3.15-2.88-2.46-1.74.41-2.72.15-2.9-1.75-.25-3.01 1.12-5.06 4.14-6.06 2.29-.83 2.45-1.58 3.18-5.05.47-2.26 1.09-4.48 2.96-5.86 2.43-1.79 6.1-3.03 8.92-3.7 1.8-.43 2.82.12 2.98 1.94-.02 1.44-.18 5.55-.08 6.67.18 2.1 2.5.83 4.69.32.94-.22 1.83-.22 1.92.83.09.98-.03 2.15-.1 3.1-.08 1.59.05 3.06-1.91 3.53-5 1.19-5.02.98-5.57 7.34l-.33 7.16v-.01Z"/><path fill="#072570" d="M244.14 116.71c-6.45 1.54-13.27-.34-13.88-7.21-.38-4.27 2.5-7.75 6.78-8.77 3.48-.83 6.33.43 6.63 3.93.1 1.19-.08 2.45.02 3.64.07.77.41 1.33 1.28 1.12 2.32-.55 3.18-4.19 2.96-5.93-.6-5.15-9.02-21.82-11.77-21.16-1.09.26-2.4 3-3.99 3.38-1.88.45-3.68-1.48-3.68-3.2.04-4.59 11.53-15.33 15.73-16.33 4.06-.97 5.73 2.07 7.38 4.82 2.35 4.02 6.84 15.54 8.69 15.53 1.99-.04 2.23-7.47 2.11-8.87-.43-4.91-3.87-5.37-4.19-8.95-.29-3.29 2.58-6.05 5.77-6.81 5.73-1.36 6.95 3.35 7.34 7.77 1.62 15.07-8.47 42.58-27.17 47.03l-.01.01Zm-142.54 80.9c3.43-.81 5.54-3.17 7.63-5.91 1.29-1.69 3.3-5.21 5.7-5.79 2.76-.65 4.13.94 4.34 3.4.3 3.43-1.88 10.5-6.01 11.74-.93.3-1.83.78-2.68 1.43-5 3.9-8.75 6.18-14.78 7.62-11.12 2.65-19.92-1.87-20.9-13.01-1.28-14.63 9.34-32.24 25.53-36.29 4.48-1.13 7.43-.25 8.17-.42.8-.19 1.89-1.11 2.82-1.33 3.88-.92 7.57 4.48 7.92 8.49.32 3.63-1.47 7.36-5.56 8.33-6.23 1.48-6.03-7.22-12.06-5.79-6.7 1.59-8.55 14.79-8.13 19.52.39 4.4 2.59 9.3 8.02 8.01Z"/><path fill="#072570" d="M138.08 187.02c.07.78.27 2.25 1.34 2 .67-.16 1.32-.51 1.99-.67 1.14-.27 1.57.75 1.65 1.66.47 5.37-10.19 10.82-14.55 11.86-3.62.86-5.97-.23-5.97-4.99.02-10.71 1.05-23.12 1.25-30.9.04-1.07-.27-1.52-1.41-1.25-.54.13-1.06.39-1.6.51-1.34.32-2.13-.09-2.24-1.38-.28-3.24 2.71-5.01 5.31-6.49 3.19-1.82 7.52-3.9 10.93-4.72 2.34-.56 3.87-.33 4.09 2.2l-.8 32.19.01-.02Zm43.48-13.2a15.2 15.2 0 0 0-.14 3.07c.12 1.42.91 1.77 2.25 1.45 1.55-.3 2.34-.56 2.5 1.19.44 4.99-10.44 11.08-14.53 12.05-4.29 1.02-2.78-5.22-5.13-4.66-1.47.35-6.64 7.73-13.62 9.13-3.76.76-6.04-1.07-6.55-5.25-.45-3.59.62-9.27.77-13.87.05-1.73.39-3.33-1.84-3.07-1.35.19-2.84.35-2.99-1.34-.23-2.59 3.36-5.36 5.29-6.75 3.15-2.27 6.93-4.36 10.55-5.22 2.54-.61 3.53.48 3.74 2.88.22 2.53-.58 9-.89 12.51-.06.87-1.17 7.68 1.71 7 2.14-.51 3.46-3.47 4.06-5.2 2.21-6.74.22-14.6 3.03-17.71 1.73-2.07 6.43-3.84 8.91-4.43 2.08-.49 3.93-.34 4.13 1.86.07.84-.06 2.46-.05 3.32l-1.18 13.04h-.02Zm21.57-27.61c0 2.25-.27 4.69-.07 6.96.05.52.3 1.12.91.97 1.27-.3 3.73-5.84 9.15-7.14 6.7-1.59 9.82 3.68 9.98 9.33.32 13.01-7.1 25.09-22.16 28.68-5.49 1.31-12.49.99-13.05-5.42-.27-3.04.32-8.01.59-11.25.37-5.18.72-11.28.28-16.33-.16-1.81-.22-2.46-2.24-2.11-2.02.35-2.83.41-3.03-1.86-.24-2.78 2.29-4.31 4.56-5.65 2.66-1.62 8.5-4.47 11.38-5.15 4.08-.97 3.78 1.02 3.83 4.71l-.1 4.26h-.03Zm-.85 29.22c.21.87.46 2.14 1.67 1.85 4.15-.99 4.45-13.95 4.29-15.04-.17-1.15-.45-3.59-2.19-3.18-3.82.91-4.06 15.31-3.76 16.37h-.01Z"/><path fill="#fff" stroke="#072570" stroke-miterlimit="10" d="M31.92 153.55c-6.59 1.57-8.2.02-8.43-2.43-.34-3.92 4.27-3.66 4.8-6.15 1.7-8.49 2.4-22.25 1.67-30.59-.34-3.92-5.03-.81-5.37-4.66-.34-3.85 3.8-5.76 7-6.38 7.33-1.46 14.71-3.36 22.02-5.24 8.83-2.24 14.9.25 15.56 7.89.61 7.01-6.14 11.76-6.05 12.81.17 1.96 8.05-.13 8.95 10.1.46 5.19-2.1 15.6-16.75 19.08l-23.4 5.57Zm13.94-35.94c0 1.65-.25 2.99 1.77 2.51 4.64-1.1 4.8-6.79 4.51-10.16-.25-2.8-1.18-4.16-4.22-3.43-2.25.53-1.85.8-1.95 3.04l-.1 8.04Zm.23 23.7c.12 1.4 1.2 1 2.43.71 5.15-1.22 5.26-6.62 4.93-10.4-.33-3.71-1.56-5.14-5.55-4.19-2.54.6-2 .76-2 3.34l.18 10.54h.01Zm65.12-35.1c.74 8.48-8.46 17.39-16.65 19.34-1.01.24-2.83.67-2.7 2.14.18 2.03 2.89 2.53 4.7 2.1 5.22-1.24 8.85-6.18 11.17-6.74a2.66 2.66 0 0 1 3.16 2.25c.33 3.71-4.33 7.18-7.18 9.22-3.9 2.72-7.73 4.7-12.29 5.79-8.84 2.1-16.85.22-17.31-9.26-.63-14.73 12.6-27.54 25.79-30.68 5.73-1.36 10.77-.35 11.31 5.82v.02Zm-20.3 12.34c.07.84.46 1.89 1.48 1.65 2.03-.48 5.13-6.51 4.6-9.83-.14-.89-.7-2.05-1.85-1.78-2.97.71-4.43 7.71-4.23 9.95v.01Zm60.63-27.38c.08 4.27-.67 10.89-.59 18.6.03 1.14-.07 3.45.47 4.47.36.77.86.58 1.67.46 1.1-.12 1.87.2 1.97 1.32.4 4.55-9.82 11.14-13.81 12.09-6.45 1.54-3.86-5.16-6.17-4.61-1.88.45-4.88 7.6-12.35 9.38-6.67 1.59-9.92-3.43-10.13-9.18-.53-12.75 6.56-26.46 17.63-30.09 5.03-1.7 7.35 1.18 9.46.68.8-.19 2.03-1.27 2.66-1.78 1.94-1.46 3.75-2.75 6-3.29 2.03-.48 3.18-.04 3.2 1.96l-.01-.01Zm-14.06 10.93c-.08-.91-.49-2.24-1.65-1.9-3.82 1.2-7.76 12.79-7.29 17.26.09 1.05.47 2.82 1.91 2.34 3.82-1.2 7.48-14.23 7.03-17.7Zm59.43-3.99c-.12 1.1-.24 2.28-.15 3.33.14 1.54.98 1.91 2.43 1.57 1.67-.33 2.54-.6 2.7 1.29.47 5.4-11.3 11.99-15.72 13.04-4.64 1.1-3.01-5.65-5.55-5.05-1.59.38-7.18 8.36-14.74 9.88-4.07.83-6.54-1.16-7.08-5.68-.49-3.89.67-10.03.83-15 .06-1.87.42-3.61-1.99-3.32-1.46.21-3.07.37-3.23-1.45-.25-2.8 3.63-5.8 5.72-7.3 3.41-2.46 7.5-4.72 11.42-5.65 2.75-.66 3.82.52 4.05 3.12.24 2.73-.63 9.73-.96 13.53-.06.95-1.27 8.31 1.85 7.57 2.32-.55 3.74-3.75 4.39-5.62 2.39-7.29.24-15.8 3.27-19.17 1.88-2.23 6.96-4.16 9.64-4.8 2.25-.53 4.26-.37 4.47 2.01.08.91-.06 2.66-.05 3.59l-1.28 14.11h-.02Zm25.02-5.67c-.45 3.26.65 4.92 2.47 4.49 1.74-.41 2.93-2.06 4.01-2.31 1.52-.36 2.07.87 2.18 2.06.48 5.47-12.9 13.23-17.1 14.23-4.35 1.04-7.42-.31-7.82-4.79-.2-2.24-.03-4.57.14-6.83l1.1-12.85c.26-2.85.01-3.15-2.89-2.46-1.74.41-2.72.15-2.89-1.75-.26-3.01 1.11-5.06 4.13-6.06 2.3-.83 2.45-1.58 3.18-5.05.47-2.26 1.1-4.48 2.96-5.86 2.43-1.79 6.1-3.03 8.92-3.7 1.81-.43 2.82.12 2.98 1.94-.02 1.44-.18 5.55-.08 6.67.18 2.1 2.51.83 4.7.32.93-.22 1.82-.22 1.91.83.1.98-.03 2.15-.1 3.1-.08 1.59.05 3.06-1.9 3.53-5 1.19-5.03.98-5.58 7.34l-.33 7.16.01-.01Z"/><path fill="#fff" stroke="#072570" stroke-miterlimit="10" d="M245 116.71c-6.45 1.54-13.27-.34-13.88-7.21-.38-4.27 2.5-7.75 6.78-8.77 3.48-.83 6.33.43 6.63 3.93.1 1.19-.08 2.45.02 3.64.07.77.41 1.33 1.28 1.12 2.32-.55 3.18-4.19 2.96-5.93-.6-5.15-9.02-21.82-11.77-21.16-1.09.26-2.4 3-3.99 3.38-1.88.45-3.68-1.48-3.68-3.2.04-4.59 11.53-15.33 15.73-16.33 4.06-.97 5.73 2.07 7.38 4.82 2.35 4.02 6.84 15.54 8.69 15.53 1.99-.04 2.23-7.47 2.11-8.87-.43-4.91-3.87-5.37-4.19-8.95-.29-3.29 2.58-6.05 5.77-6.81 5.73-1.36 6.95 3.35 7.34 7.77 1.62 15.07-8.47 42.58-27.17 47.03l-.01.01Z"/></g></svg>