<svg width="16" height="15" viewBox="0 0 16 15" fill="none" xmlns="http://www.w3.org/2000/svg">
<path d="M7.91602 14.1668L10.9327 6.16683H12.2993L15.3993 14.1668H13.9493L13.266 12.0668H10.066L9.28268 14.1668H7.91602ZM10.4327 10.9002H12.7993L11.6327 7.66683H11.5993L10.4327 10.9002ZM2.66602 12.1668L1.74935 11.2502L5.14935 7.85016C4.72713 7.36127 4.35213 6.86961 4.02435 6.37516C3.69657 5.88072 3.41046 5.36683 3.16602 4.8335H4.61602C4.8049 5.20016 5.01324 5.54738 5.24102 5.87516C5.46879 6.20294 5.72713 6.53905 6.01602 6.8835C6.51602 6.36127 6.93268 5.81961 7.26602 5.2585C7.59935 4.69738 7.88268 4.11127 8.11602 3.50016H0.666016V2.16683H5.33268V0.833496H6.66602V2.16683H11.3327V3.50016H9.44935C9.2049 4.26683 8.8799 5.01961 8.47435 5.7585C8.06879 6.49738 7.57157 7.20016 6.98268 7.86683L8.61602 9.51683L8.11602 10.8668L5.99935 8.8335L2.66602 12.1668Z" fill="black"/>
</svg>
