<svg xmlns="http://www.w3.org/2000/svg" viewBox="0 0 17 17"><path d="M12.57 2.338l.014.164-.001.75H16a.75.75 0 01.102 1.493L16 4.752h-.917v9.792c-.068 1.231-1.078 2.189-2.26 2.21l-.156-.002H4.371c-1.232.06-2.29-.843-2.44-2.086l-.014-.164-.001-9.75H1a.75.75 0 01-.102-1.493L1 3.252h3.417l.001-.791C4.483 1.282 5.41.355 6.526.258L6.679.25l.155.002 3.296.001c1.232-.062 2.29.842 2.44 2.085zm1.013 2.414H3.416v9.709c.023.425.36.76.805.79l8.483.002a.842.842 0 00.868-.655l.012-.096-.001-9.75zm-6.786-3a.842.842 0 00-.868.654l-.012.096-.001.75h5.168l.001-.708a.843.843 0 00-.805-.79L6.797 1.75z"/><path d="M6.833 7.002a.75.75 0 01.743.648l.007.102v4.5a.75.75 0 01-1.493.102l-.007-.102v-4.5a.75.75 0 01.75-.75zm3.334 0a.75.75 0 01.743.648l.007.102v4.5a.75.75 0 01-1.493.102l-.007-.102v-4.5a.75.75 0 01.75-.75z"/></svg>
