<svg fill="none" xmlns="http://www.w3.org/2000/svg" viewBox="0 0 65 34">
  <path fill-rule="evenodd" clip-rule="evenodd" d="M15.83 6.76H10.7l-1.6-4.43-1.61 4.43H2.49L6.6 9.5 5 13.93l4.1-2.74 2.56-1.69 4.18-2.74Zm-6.67 4.5 2.9-.7 1.2 3.44-4.1-2.74Z" />
  <path d="m15.83 6.76.28.42 1.4-.92h-1.68v.5Zm-5.14 0-.47.17.12.33h.35v-.5Zm-1.6-4.43.46-.17-.47-1.3-.47 1.3.47.17ZM7.47 6.76v.5h.35l.12-.33-.47-.17Zm-4.99 0v-.5H.85l1.37.92.27-.42ZM6.6 9.5l.47.17.14-.37-.33-.21-.28.41ZM5 13.93l-.48-.17L4 15.19l1.27-.84-.28-.42Zm4.1-2.74-.28-.42.27.42Zm2.56-1.69-.27-.42.27.42Zm-2.49 1.76-.11-.49-1.11.27.95.63.27-.41Zm2.9-.7.47-.17-.15-.43-.44.11.12.49Zm1.2 3.44-.28.42 1.25.83-.5-1.41-.47.16Zm2.57-7.74H10.7v1h5.14v-1Zm-4.67.33-1.6-4.43-.95.34 1.6 4.43.95-.34ZM8.6 2.16l-1.6 4.43.94.34 1.6-4.43-.94-.34Zm-1.13 4.1H2.49v1h4.99v-1Zm-5.26.92 4.1 2.74.55-.83-4.1-2.75-.55.84Zm3.9 2.15-1.6 4.43.93.34 1.61-4.43-.94-.34Zm-.86 5.02 4.1-2.75-.56-.83-4.1 2.74.56.84Zm4.1-2.74 2.57-1.7-.55-.83-2.57 1.7.55.83Zm2.57-1.7 4.18-2.73-.55-.84-4.18 2.74.55.84Zm-2.65 1.83 2.9-.7-.24-.97-2.9.7.24.97Zm2.3-1.02 1.21 3.45.94-.33-1.2-3.45-.95.33Zm1.96 2.86-4.1-2.74-.55.83 4.1 2.75.55-.84Z" fill="#00635B"/>
  <path fill-rule="evenodd" clip-rule="evenodd" d="M39.17 6.76h-5.08L32.5 2.33l-1.59 4.43h-5.08l4.05 2.74-1.59 4.43 4.05-2.74 2.54-1.69 4.29-2.74Zm-6.6 4.5 2.87-.7L36.63 14l-4.05-2.74Z" />
  <path d="m39.17 6.76.27.42 1.44-.92h-1.71v.5Zm-5.08 0-.47.17.12.33h.35v-.5ZM32.5 2.33l.47-.17L32.5.85l-.47 1.31.47.17Zm-1.59 4.43v.5h.35l.12-.33-.47-.17Zm-5.08 0v-.5H24.2l1.35.91.28-.41Zm4.05 2.74.47.17.13-.37-.32-.21-.28.41Zm-1.59 4.43-.47-.17-.51 1.44 1.26-.86-.28-.41Zm4.05-2.74-.27-.42.27.42Zm2.54-1.69-.27-.42.27.42Zm-2.3 1.76-.12-.49-1.1.27.94.63.28-.41Zm2.86-.7.47-.17-.15-.43-.44.11.12.49ZM36.63 14l-.28.41 1.24.85-.49-1.42-.47.16Zm2.54-7.74h-5.08v1h5.08v-1Zm-4.61.33-1.59-4.43-.94.34 1.59 4.43.94-.34Zm-2.53-4.43L30.44 6.6l.94.34 1.6-4.43-.95-.34Zm-1.12 4.1h-5.08v1h5.08v-1Zm-5.36.91 4.05 2.75.56-.83-4.05-2.74-.56.82Zm3.86 2.16-1.59 4.43.94.34 1.6-4.43-.95-.34Zm-.84 5.01 4.05-2.74-.56-.83-4.05 2.75.56.82Zm4.05-2.73 2.54-1.7-.55-.83-2.54 1.7.55.83Zm2.53-1.69 4.29-2.74-.54-.84-4.29 2.74.54.84Zm-2.45 1.82 2.86-.7-.24-.97-2.86.7.24.97Zm2.26-1.02 1.2 3.44.94-.32-1.2-3.45-.94.33Zm1.95 2.87-4.05-2.75-.56.83 4.05 2.74.56-.82Z" fill="#00635B"/>
  <path fill-rule="evenodd" clip-rule="evenodd" d="M62.5 6.76h-5.03l-1.6-4.43-1.6 4.43h-5.1l4.07 2.74-1.6 4.43 4.08-2.74 2.55-1.69 4.24-2.74Zm-6.62 4.5 2.87-.7 1.2 3.44-4.07-2.74Z" />
  <path d="m62.5 6.76.28.42 1.42-.92h-1.7v.5Zm-5.03 0-.47.17.12.33h.35v-.5Zm-1.6-4.43.48-.17-.47-1.3-.47 1.3.47.17Zm-1.6 4.43v.5h.36l.12-.33-.47-.17Zm-5.1 0v-.5h-1.64l1.36.91.28-.41Zm4.07 2.74.47.17.13-.37-.32-.21-.28.41Zm-1.6 4.43-.47-.17-.52 1.44 1.27-.85-.28-.42Zm4.08-2.74-.28-.42.28.42Zm2.55-1.69L58 9.08l.27.42Zm-2.4 1.76-.11-.49-1.1.27.94.63.28-.41Zm2.88-.7.48-.17-.15-.43-.44.11.11.49Zm1.2 3.44-.28.42 1.25.83-.5-1.41-.47.16Zm2.56-7.74h-5.04v1h5.04v-1Zm-4.57.33-1.6-4.43-.93.34L57 6.93l.93-.34Zm-2.53-4.43L53.8 6.6l.94.34 1.6-4.43-.94-.34Zm-1.13 4.1h-5.11v1h5.1v-1Zm-5.4.91 4.08 2.75.56-.83-4.07-2.75-.56.83Zm3.9 2.16-1.6 4.43.93.34 1.6-4.43-.94-.34Zm-.86 5.02L56 11.6l-.56-.83-4.08 2.75.56.83ZM56 11.6l2.56-1.7-.55-.83-2.56 1.7.55.83Zm2.55-1.69 4.24-2.74-.55-.84L58 9.08l.54.84ZM56 11.74l2.87-.7-.23-.97-2.88.7.24.97Zm2.28-1.02 1.2 3.44.94-.32-1.2-3.45-.94.33Zm1.95 2.87-4.07-2.75-.56.83 4.07 2.75.56-.83Z" fill="#00635B"/>
  <path fill-rule="evenodd" clip-rule="evenodd" d="M27.5 24.76h-5.08l-1.59-4.43-1.59 4.43h-5.08l4.05 2.74-1.59 4.43 4.05-2.74 2.54-1.69 4.29-2.74Zm-6.6 4.5 2.87-.7L24.96 32l-4.05-2.74Z" />
  <path d="m27.5 24.76.27.42 1.44-.92H27.5v.5Zm-5.08 0-.47.17.12.33h.35v-.5Zm-1.59-4.43.47-.17-.47-1.31-.47 1.31.47.17Zm-1.59 4.43v.5h.35l.12-.33-.47-.17Zm-5.08 0v-.5h-1.63l1.35.91.28-.41Zm4.05 2.74.47.17.13-.37-.32-.21-.28.41Zm-1.59 4.43-.47-.17-.51 1.44 1.26-.86-.28-.41Zm4.05-2.74-.27-.42.27.42Zm2.54-1.69-.27-.42.27.42Zm-2.3 1.76-.12-.49-1.1.27.94.63.28-.41Zm2.86-.7.47-.17-.15-.43-.44.11.12.49ZM24.96 32l-.28.41 1.24.85-.49-1.42-.47.16Zm2.54-7.74h-5.08v1h5.08v-1Zm-4.61.33-1.59-4.43-.94.34 1.59 4.43.94-.34Zm-2.53-4.43-1.59 4.43.94.34 1.6-4.43-.95-.34Zm-1.12 4.1h-5.08v1h5.08v-1Zm-5.36.91 4.05 2.74.56-.82-4.05-2.74-.56.82Zm3.86 2.16-1.59 4.43.94.34 1.6-4.43-.95-.34Zm-.84 5.01 4.05-2.74-.56-.83-4.05 2.75.56.82Zm4.05-2.74 2.54-1.68-.55-.84-2.54 1.7.55.82Zm2.53-1.68 4.29-2.74-.54-.84-4.29 2.74.54.84Zm-2.45 1.82 2.86-.7-.24-.97-2.86.7.24.97Zm2.26-1.02 1.2 3.44.94-.32-1.2-3.45-.94.33Zm1.95 2.87-4.05-2.75-.56.83 4.05 2.74.56-.82Z" fill="#00635B"/>
  <path fill-rule="evenodd" clip-rule="evenodd" d="M50.84 24.76h-5.08l-1.6-4.43-1.58 4.43H37.5l4.05 2.74-1.59 4.43 4.05-2.74 2.54-1.69 4.29-2.74Zm-6.6 4.5 2.86-.7L48.3 32l-4.05-2.74Z" />
  <path d="m50.84 24.76.27.42 1.44-.92h-1.71v.5Zm-5.08 0-.47.17.11.33h.36v-.5Zm-1.6-4.43.48-.17-.47-1.31-.47 1.31.47.17Zm-1.58 4.43v.5h.35l.12-.33-.47-.17Zm-5.08 0v-.5h-1.63l1.35.91.28-.41Zm4.05 2.74.47.17.13-.37-.32-.21-.28.41Zm-1.59 4.43-.47-.17-.52 1.44 1.27-.86-.28-.41Zm4.05-2.74-.28-.42.28.42Zm2.54-1.69-.27-.42.27.42Zm-2.3 1.76-.12-.49-1.1.27.94.63.28-.41Zm2.85-.7.48-.17-.15-.43-.45.11.12.49ZM48.3 32l-.29.41 1.25.85-.5-1.42-.46.16Zm2.54-7.74h-5.08v1h5.08v-1Zm-4.61.33-1.6-4.43-.93.34 1.59 4.43.94-.34Zm-2.53-4.43L42.1 24.6l.94.34 1.59-4.43-.94-.34Zm-1.12 4.1H37.5v1h5.08v-1Zm-5.36.91 4.05 2.74.56-.82-4.05-2.74-.56.82Zm3.86 2.16-1.59 4.43.94.34 1.59-4.43-.94-.34Zm-.84 5.01 4.05-2.74-.56-.83-4.05 2.75.56.82Zm4.05-2.74 2.54-1.68-.56-.84-2.54 1.7.56.82Zm2.53-1.68 4.29-2.74-.54-.84-4.29 2.74.54.84Zm-2.45 1.82 2.85-.7-.24-.97-2.85.7.24.97Zm2.26-1.02 1.2 3.44.94-.32-1.2-3.45-.94.33Zm1.95 2.87-4.05-2.75-.56.83L48 32.41l.57-.82Z" fill="#00635B"/>
</svg>
