<svg xmlns="http://www.w3.org/2000/svg" width="55" height="34" fill="none"><path fill="#151515" fill-rule="evenodd" d="M13.923 7.795H9.517L8.14 4 6.763 7.795H2.494l3.511 2.35-1.377 3.795 3.512-2.35 2.203-1.445 3.58-2.35ZM8.21 11.65l2.478-.602L11.721 14 8.21 11.65Z" clip-rule="evenodd"></path><path fill="#151515" d="m13.923 7.795.274.418 1.4-.918h-1.674v.5Zm-4.406 0-.47.17.12.33h.35v-.5ZM8.14 4l.47-.17-.47-1.296-.47 1.295.47.17ZM6.763 7.795v.5h.35l.12-.33-.47-.17Zm-4.269 0v-.5H.848l1.368.916.278-.416Zm3.511 2.35.47.17.134-.368-.326-.218-.278.416ZM4.628 13.94l-.47-.17-.52 1.434 1.268-.849-.278-.415Zm3.512-2.35-.275-.418-.003.003.278.415Zm2.203-1.445-.274-.419.274.418ZM8.21 11.65l-.118-.486-1.106.27.946.632.278-.416Zm2.478-.602.472-.165-.15-.428-.44.107.118.486ZM11.721 14l-.278.415 1.244.833-.494-1.413-.472.165Zm2.202-6.705H9.517v1h4.406v-1Zm-3.936.33L8.61 3.829l-.94.341 1.377 3.796.94-.341ZM7.67 3.829 6.293 7.625l.94.34L8.61 4.17l-.94-.34Zm-.907 3.466H2.494v1h4.269v-1Zm-4.547.916 3.511 2.35.556-.832-3.51-2.35-.557.832Zm3.32 1.763-1.378 3.795.94.341 1.377-3.795-.94-.341Zm-.63 4.381 3.512-2.35-.556-.83-3.512 2.35.556.83Zm3.508-2.347 2.203-1.445-.549-.837-2.203 1.446.549.836Zm2.203-1.445 3.58-2.35-.548-.836-3.58 2.35.548.835Zm-2.29 1.573 2.48-.602-.237-.972-2.478.603.236.971Zm1.89-.923 1.032 2.952.944-.33-1.033-2.952-.944.33Zm1.782 2.371-3.511-2.35-.556.832 3.51 2.35.557-.832Z"></path><path fill="#151515" fill-rule="evenodd" d="M33.352 7.795h-4.354L27.638 4l-1.361 3.795h-4.354l3.47 2.35-1.361 3.795 3.47-2.35 2.176-1.445 3.674-2.35Zm-5.648 3.855 2.449-.602L31.173 14l-3.47-2.35Z" clip-rule="evenodd"></path><path fill="#151515" d="m33.352 7.795.27.421 1.44-.921h-1.71v.5Zm-4.354 0-.47.169.118.331h.352v-.5ZM27.638 4l.47-.169-.47-1.313-.471 1.313.47.169Zm-1.361 3.795v.5h.352l.118-.331-.47-.169Zm-4.354 0v-.5h-1.63l1.35.914.28-.414Zm3.47 2.35.47.168.131-.365-.321-.218-.28.415Zm-1.361 3.795-.47-.169-.518 1.441 1.268-.858-.28-.414Zm3.47-2.35-.277-.416-.004.002.28.414Zm2.176-1.445-.27-.422-.006.005.276.417Zm-1.974 1.505-.12-.485-1.092.268.932.631.28-.414Zm2.449-.602.473-.164-.15-.43-.442.108.119.486ZM31.173 14l-.28.414 1.244.842-.491-1.42-.473.164Zm2.179-6.705h-4.354v1h4.354v-1Zm-3.883.331-1.36-3.795-.942.337 1.36 3.796.942-.338Zm-2.302-3.795-1.36 3.795.94.338 1.361-3.796-.941-.337Zm-.89 3.464h-4.354v1h4.354v-1Zm-4.634.914 3.47 2.35.56-.829-3.47-2.349-.56.828Zm3.279 1.767-1.36 3.795.94.337 1.361-3.795-.941-.337Zm-.61 4.378 3.47-2.35-.561-.828-3.47 2.35.561.828Zm3.466-2.347 2.177-1.446-.553-.833-2.177 1.446.553.833Zm2.17-1.441 3.673-2.35-.539-.842-3.673 2.35.539.842Zm-2.125 1.57 2.45-.603-.24-.97-2.449.602.24.97Zm1.857-.925 1.02 2.952.946-.327-1.02-2.952-.946.327Zm1.774 2.375-3.47-2.35-.56.828 3.469 2.35.56-.828Z"></path><path fill="#151515" fill-rule="evenodd" d="M52.78 7.795h-4.31L47.1 4l-1.368 3.795h-4.38l3.49 2.35-1.369 3.795 3.49-2.35 2.19-1.445 3.628-2.35Zm-5.678 3.855 2.464-.602L50.593 14l-3.49-2.35Z" clip-rule="evenodd"></path><path fill="#151515" d="m52.78 7.795.273.42 1.42-.92H52.78v.5Zm-4.31 0-.471.17.119.33h.351v-.5ZM47.1 4l.47-.17-.47-1.304-.47 1.304.47.17Zm-1.368 3.795v.5h.35l.12-.33-.47-.17Zm-4.38 0v-.5h-1.638l1.359.915.279-.415Zm3.49 2.35.47.17.133-.368-.324-.217-.279.415Zm-1.369 3.795-.47-.17-.519 1.438 1.268-.853-.279-.415Zm3.49-2.35-.275-.417-.004.003.28.414Zm2.19-1.445-.271-.42-.004.002.276.418Zm-2.05 1.505-.12-.485-1.098.268.938.632.28-.415Zm2.463-.602.472-.164-.149-.43-.442.108.12.486ZM50.593 14l-.28.415 1.245.837-.493-1.416-.472.164Zm2.188-6.705h-4.312v1h4.312v-1Zm-3.841.33L47.57 3.83l-.94.34L48 7.964l.94-.34ZM46.63 3.83l-1.369 3.795.941.34 1.369-3.796-.94-.339Zm-.898 3.465h-4.38v1h4.38v-1Zm-4.66.915 3.49 2.35.56-.83-3.491-2.35-.558.83Zm3.3 1.765-1.369 3.795.94.34 1.37-3.796-.941-.34Zm-.62 4.38 3.49-2.35-.558-.83-3.49 2.35.558.83Zm3.487-2.347 2.19-1.446-.551-.835-2.19 1.446.551.835Zm2.186-1.444 3.628-2.35-.544-.839-3.627 2.35.543.84Zm-2.204 1.572 2.464-.602-.238-.972-2.463.603.237.971Zm1.873-.924 1.026 2.952.945-.328-1.027-2.952-.944.328Zm1.778 2.373-3.49-2.35-.559.83 3.49 2.35.559-.83Z"></path><path fill="#151515" fill-rule="evenodd" d="M23.637 25.795h-4.354l-1.36-3.796-1.36 3.796h-4.354l3.469 2.35-1.36 3.794 3.469-2.349 2.177-1.446 3.673-2.35ZM17.99 29.65l2.45-.602L21.459 32l-3.47-2.35Z" clip-rule="evenodd"></path><path fill="#151515" d="m23.637 25.795.27.421 1.44-.921h-1.71v.5Zm-4.354 0-.47.168.119.332h.352v-.5Zm-1.36-3.796.47-.168-.47-1.313-.47 1.313.47.169Zm-1.36 3.796v.5h.351l.12-.332-.472-.168Zm-4.354 0v-.5h-1.63l1.35.914.28-.414Zm3.469 2.35.47.168.132-.365-.322-.218-.28.414Zm-1.36 3.794-.471-.168-.517 1.441 1.268-.858-.28-.415Zm3.469-2.349-.277-.416-.003.002.28.414Zm2.177-1.446-.27-.421-.007.005.277.416ZM17.99 29.65l-.12-.485-1.092.268.931.631.28-.414Zm2.449-.602.472-.164-.149-.43-.443.108.12.486ZM21.459 32l-.28.413 1.243.843-.49-1.42-.473.164Zm2.178-6.705h-4.354v1h4.354v-1Zm-3.883.331-1.36-3.795-.942.337 1.36 3.796.942-.338Zm-2.302-3.795-1.36 3.795.941.337 1.36-3.795-.94-.337Zm-.89 3.464H12.21v1h4.353v-1Zm-4.634.914 3.47 2.35.56-.829-3.47-2.35-.56.829Zm3.28 1.767-1.361 3.795.941.337 1.36-3.795-.94-.337Zm-.61 4.378 3.47-2.35-.561-.828-3.47 2.35.56.828Zm3.466-2.347 2.177-1.446-.554-.833-2.177 1.446.553.833Zm2.17-1.442 3.673-2.349-.539-.842-3.674 2.349.54.843Zm-2.125 1.57 2.449-.602-.239-.97-2.449.602.239.97Zm1.857-.924 1.02 2.952.945-.327-1.02-2.952-.945.327Zm1.773 2.375-3.47-2.35-.56.828 3.47 2.35.56-.829Z"></path><path fill="#151515" fill-rule="evenodd" d="M43.066 25.795h-4.354l-1.36-3.796-1.36 3.796h-4.355l3.47 2.35-1.36 3.794 3.469-2.349 2.177-1.446 3.673-2.35Zm-5.648 3.855 2.45-.602L40.887 32l-3.47-2.35Z" clip-rule="evenodd"></path><path fill="#151515" d="m43.066 25.795.27.421 1.44-.921h-1.71v.5Zm-4.354 0-.47.168.119.332h.351v-.5Zm-1.36-3.796.47-.168-.47-1.313-.47 1.313.47.169Zm-1.36 3.796v.5h.351l.119-.332-.47-.168Zm-4.355 0v-.5h-1.63l1.35.914.28-.414Zm3.47 2.35.47.168.131-.365-.32-.218-.281.414Zm-1.36 3.794-.471-.168-.517 1.441 1.268-.858-.28-.415Zm3.469-2.349-.277-.416-.004.002.28.414Zm2.177-1.446-.27-.421-.007.005.277.416Zm-1.975 1.506-.12-.485-1.092.268.932.631.28-.414Zm2.45-.602.472-.164-.15-.43-.442.108.12.486ZM40.887 32l-.28.413 1.243.843-.49-1.42-.473.164Zm2.178-6.705h-4.354v1h4.354v-1Zm-3.883.331-1.36-3.795-.942.337 1.36 3.796.942-.338Zm-2.302-3.795-1.36 3.795.94.337 1.361-3.795-.94-.337Zm-.89 3.464h-4.354v1h4.354v-1Zm-4.634.914 3.47 2.35.56-.829-3.47-2.35-.56.829Zm3.28 1.767-1.361 3.795.94.337 1.361-3.795-.94-.337Zm-.61 4.378 3.47-2.35-.562-.828-3.47 2.35.562.828Zm3.465-2.347 2.177-1.446-.553-.833-2.177 1.446.553.833Zm2.17-1.442 3.674-2.349-.54-.842-3.673 2.349.54.843Zm-2.124 1.57 2.449-.602-.24-.97-2.448.602.239.97Zm1.857-.924 1.02 2.952.945-.327-1.02-2.952-.945.327Zm1.773 2.375-3.47-2.35-.56.828 3.47 2.35.56-.829Z"></path></svg>
