<svg xmlns="http://www.w3.org/2000/svg" viewBox="0 0 36 47"><path d="M35.8 4.5l-.3-.6c-.8-1.2-2.3-1.5-3.5-.7.1-.2.1-.5.1-.7C32.1 1.1 31 0 29.6 0c-.9 0-1.7.4-2.1 1.2-.4.6-.5 1.4-.3 2.1-.6-.4-1.4-.5-2.1-.3-.8.2-1.5.9-1.8 1.7-.3.8-.1 1.7.4 2.4.5.6 1.1.9 1.9.9-1 .8-1.3 2.3-.5 3.4-1.1 1.2-1.7 2.7-1.7 4.3H19V9c0-.2-.1-.3-.2-.4L10.4.2c-.2-.2-.6-.2-.8 0L7.7 1.9c-.2.2-.2.6 0 .8l7.6 7.6v5.2h-.9c-.1 0-.3.1-.4.1-.7.7-1.4 1.4-1.9 2.3H9.7c-.2 0-.5.1-.5.4-.7 1.6-1.1 3.3-1.1 5 0 1.2.2 2.5.5 3.6h.1l1.5.9c-.6-1.4-.9-2.9-.9-4.5 0-1.4.3-2.9.8-4.2h21.2c.5 1.3.8 2.8.8 4.2 0 5.3-3.7 9.8-8.6 11l1.9-2.3-.9-.8-2.8 3.3h-.4v-3.6h-1.2v3.6h-.4L17 31.4l-.9.8 1.9 2.3c-3.2-.8-5.9-3-7.4-5.9l-.1.2-1 .2c2.1 4.1 6.3 7 11.3 7 6.9 0 12.6-5.7 12.6-12.6 0-1.7-.4-3.5-1.1-5-.1-.3-.3-.4-.6-.4h-2.4c-.5-.8-1.2-1.6-1.9-2.3-.1-.1-.2-.1-.4-.1h-2.5c0-1.3.5-2.5 1.4-3.5.1.1.2.1.4.2 1.3.5 2.8-.2 3.3-1.5.3.7.8 1.2 1.5 1.5.8.3 1.7.2 2.4-.3s1.1-1.3 1-2.2c0-.7-.4-1.4-1-1.9.2 0 .5-.1.7-.1 1.3-.5 2.1-2 1.6-3.3zM9 2.4l1-1 7.8 7.8v6.4h-1.2v-5.4c0-.2-.1-.3-.2-.4L9 2.4zm17.8 14.4c.4.4.8.8 1.1 1.2H13.5c.3-.4.7-.8 1.1-1.2h12.2zM24.6 6.2c-.3-.4-.4-.8-.2-1.3.1-.4.5-.8.9-.9.4-.1.9 0 1.3.3l1.6 1.5c.1.1.1.2.2.2v.1s0 .1-.1.1-.2.1-.3.1l-2.2.2c-.4.2-.9 0-1.2-.3zM28.9 8l-.5 2.1c-.1.5-.4.8-.8 1-.4.2-.9.1-1.3-.2-.4-.3-.6-.7-.6-1.2s.3-.9.7-1.1l1.9-1.1c.1 0 .2 0 .3-.1h.1l.1.1c.1.3.1.4.1.5zm1-2.9c-.1.1-.1.2-.2.2h-.3c-.1-.1-.1-.2-.2-.2l-.9-2c-.2-.4-.2-.9.1-1.3.3-.4.7-.6 1.1-.6.5 0 .9.2 1.1.6.3.4.3.9.1 1.3l-.8 2zm2.8 5.8c-.4.3-.8.3-1.3.2-.4-.2-.7-.5-.8-1L30.1 8v-.3s0-.1.1-.1h.1c.1 0 .2.1.3.1l1.9 1.1c.4.2.7.6.7 1.1.1.3-.1.8-.5 1zm.6-4.2l-2.2-.2c-.1 0-.2-.1-.3-.1l-.1-.1v-.1c.1-.1.1-.2.2-.3l1.6-1.5c.3-.4.8-.5 1.3-.4.4.1.8.4.9.9.1.4.1.9-.2 1.3-.3.3-.8.5-1.2.5z"/><path d="M23.5 35.5V38h.9c.3 0 .5.2.6.4l1.6 4.5h.1c1 0 1.8.8 1.7 1.8v.6c0 1-.8 1.7-1.8 1.7h-12c-1 0-1.7-.8-1.8-1.7v-.6c0-1 .8-1.8 1.7-1.8h.1l1.6-4.5c.1-.3.3-.4.6-.4h.9v-2.5h5.8zM19.1 38h3.1v-2.2H22c-.3.2-.7.2-1.1.2h-.5c-.4 0-.8 0-1.2-.1H19V38zm-4.4 6.2c-.3 0-.5.2-.5.5v.6c0 .3.2.5.5.5h12c.3 0 .5-.2.5-.5v-.6c0-.3-.2-.5-.5-.5h-12zm2.7-4.9l-1.3 3.6h9.1l-1.3-3.6h-6.5zM4.9 25.4c-.3 0-.6-.3-.6-.6 0-2-1.6-3.6-3.6-3.6-.3 0-.6-.3-.6-.6s.2-.6.6-.6c2 0 3.6-1.6 3.6-3.6 0-.3.3-.6.6-.6s.6.3.6.6c0 2 1.6 3.6 3.6 3.6.3 0 .6.3.6.6s-.3.6-.6.6c-2 0-3.6 1.6-3.6 3.6 0 .3-.3.6-.6.6M3 20.6c.8.4 1.4 1.1 1.9 1.9.4-.8 1.1-1.4 1.9-1.9-.8-.4-1.4-1.1-1.9-1.9-.5.8-1.1 1.4-1.9 1.9m9.4 7.2c.3 0 .6.3.6.6s-.3.6-.6.6c-1.7 0-3 1.3-3 3 0 .3-.3.6-.6.6s-.6-.3-.6-.6c0-1.7-1.3-3-3-3-.3 0-.6-.3-.6-.6s.3-.6.6-.6c1.7 0 3-1.3 3-3 0-.3.3-.6.6-.6s.6.3.6.6c0 1.6 1.3 3 3 3m-3.6 2c.4-.6.9-1.1 1.4-1.4-.6-.4-1.1-.9-1.4-1.4-.4.6-.9 1.1-1.4 1.4.5.3 1 .8 1.4 1.4m7.8-6.8c.3 0 .6.3.6.6s-.3.6-.6.6c-1.2 0-2.1.9-2.1 2.1 0 .3-.3.6-.6.6s-.6-.3-.6-.6c0-1.2-.9-2.1-2.1-2.1-.3 0-.6-.3-.6-.6s.3-.6.6-.6c1.2 0 2.1-.9 2.1-2.1 0-.3.3-.6.6-.6s.6.3.6.6c0 1.1.9 2.1 2.1 2.1m-2.7 1.3c.2-.3.5-.6.8-.8-.3-.2-.6-.5-.8-.8-.2.3-.5.6-.8.8.3.3.6.5.8.8"/></svg>
