<svg role="presentation" viewBox="0 0 43 43" xmlns="http://www.w3.org/2000/svg"><path d="M7.893.21c-.276.133-.47.31-.616.561-.193.328-.212.47-.212 1.612 0 .864.037 1.334.129 1.519.165.369.634.713 1.122.83.395.101.404.11.404.462v.361H5.658c-3.512 0-3.76.034-4.431.596C.583 6.688.49 7.024.5 8.66c.018 2.769.68 5.37 1.986 7.762 2.004 3.65 5.314 6.193 9.846 7.553.957.285 1.435.478 1.931.789.837.52 1.848 1.015 2.694 1.309.598.21.671.26.929.671.873 1.385 1.204 2.98.938 4.49-.046.302-.249.956-.433 1.468l-.34.924-1.241.042c-1.15.042-1.278.058-1.729.293a3.208 3.208 0 0 0-1.324 1.234c-.174.31-.21.52-.238 1.427l-.037 1.074h-1.444c-1.26 0-1.47.017-1.728.168-.598.327-.625.428-.625 2.433 0 1.662.018 1.83.183 2.098.405.63-.44.588 11.631.588 12.072 0 11.226.042 11.63-.588.166-.268.184-.436.184-2.098 0-1.754-.009-1.812-.211-2.08-.368-.47-.588-.521-2.16-.521h-1.426l-.037-1.074c-.027-.907-.064-1.117-.239-1.427a3.208 3.208 0 0 0-1.323-1.234c-.451-.235-.58-.252-1.729-.293l-1.241-.042-.34-.924c-.184-.512-.387-1.166-.433-1.468-.266-1.51.046-3.063.892-4.423.304-.486.359-.52.975-.738.846-.294 2.069-.89 2.776-1.351.423-.277.883-.462 1.84-.747 3.006-.881 5.635-2.417 7.493-4.347 2.785-2.913 4.32-6.79 4.348-10.969.01-1.636-.082-1.972-.726-2.51-.671-.561-.92-.595-4.431-.595H34.28v-.36c0-.353.009-.362.404-.462.488-.118.957-.462 1.122-.831.092-.185.129-.655.129-1.52 0-1.14-.019-1.283-.212-1.61a1.368 1.368 0 0 0-.616-.563l-.395-.193h-9.001c-5.59 0-9.915.084-10.008.044-.092.042.961.153.906.296-.092.201-.432.357-.313.575.083.143-1.196.269-1.187.277.01.017 5.435.042 10.39.067l9.01.042v2.181H8.49V1.318l2.722-.042c2.519-.042 5.624-.058 6.096-.22.698 0 6.012-.526 2.096-.699-.567-.314-5.664-.34-8.34-.34-2.72 0-2.785 0-3.171.193ZM32.9 10.304c0 6.076-.037 6.554-.561 8.031-1.646 4.624-6.602 7.637-11.805 7.192-2.722-.235-4.993-1.191-6.942-2.903-1.664-1.47-2.666-3.122-3.282-5.405-.129-.47-.157-1.41-.184-6.487L10.09 4.8H32.9v5.505ZM8.72 7.645v.839l-2.042.025c-1.977.025-2.06.034-2.354.218-.487.32-.606.621-.533 1.377.147 1.586.754 3.524 1.572 5.018.819 1.502 2.244 3.08 3.66 4.053.542.378.68.53 1.002 1.108.202.37.56.932.8 1.259l.496.688c.092.134-.965-.302-1.756-.722-3.862-2.056-6.39-5.37-7.328-9.592-.377-1.737-.533-3.927-.312-4.506.064-.151.239-.344.395-.437.267-.15.497-.16 3.347-.16H8.72v.832Zm31.912-.697c.542.252.653.999.45 3.013-.524 5.077-3.107 9.03-7.493 11.463-.781.428-2.013.957-1.912.806l.496-.688c.24-.327.598-.89.8-1.259.322-.579.46-.73 1.012-1.116 1.379-.948 2.868-2.585 3.613-3.978.35-.655 1.12-3.453.669-3.654-.46-.202-1.478 2.454-2.039 3.335-.57.915-1.306 1.821-1.857 2.308-.276.243-.377.285-.34.168.174-.537.248-1.939.248-4.59V9.75h1.793c1.48 0 1.793.017 1.793.118 0 .067-.083.562-.184 1.099-.193 1.032-1.161 3.884-.812 4.06.285.134.502.417.704.207.22-.21 1.542-4.124 1.634-5.131.074-.756-.046-1.058-.533-1.377-.295-.184-.377-.193-2.345-.218l-2.05-.025v-1.67h3.034c2.584 0 3.09.017 3.319.134ZM8.72 12.747c0 2.685.074 4.045.23 4.59.083.27-1.039-.839-1.554-1.544-.993-1.35-1.737-3.063-2.078-4.8-.1-.512-.184-1.007-.184-1.09 0-.144.12-.152 1.793-.152H8.72v2.996Zm12.32 14.082c.23.025.864 0 1.416-.042.561-.042 1.02-.067 1.04-.05.018.017-.056.21-.157.428-.772 1.653-.828 3.818-.138 5.673.12.335.23.671.23.721 0 .084-.45.11-1.931.11-1.48 0-1.93-.026-1.93-.11 0-.05.1-.377.23-.721.735-1.98.643-4.02-.277-5.992-.073-.16-.073-.16 1.517-.017Zm6.225 8.233c.174.075.423.277.56.436.23.277.249.37.276 1.25l.037.949H14.862l.037-.949c.027-.88.046-.973.275-1.25.497-.587.249-.57 6.308-.57 4.873 0 5.498.016 5.783.134Zm4.716 5.278v1.385H11.02v-2.769h20.96v1.384Z"/><path d="M20.71 9.576c-.414.227-.644.529-1.14 1.485-.276.537-.506.873-.608.898-.1.026-.652.11-1.232.185-1.112.151-1.397.243-1.71.562-.321.32-.432.58-.432 1.04 0 .563.175.815 1.168 1.704.432.386.79.764.79.831 0 .076-.082.571-.192 1.108-.157.789-.175 1.04-.092 1.318.128.444.404.746.846.948.616.294 1.01.226 2.27-.353l1.122-.528 1.131.528c1.25.58 1.646.647 2.262.353.441-.202.717-.504.846-.948.073-.269.055-.537-.11-1.41l-.212-1.083.882-.822c.479-.445.929-.907.993-1.024.147-.26.157-.999 0-1.259-.349-.62-.69-.789-1.976-.957a26.7 26.7 0 0 1-1.223-.184c-.175-.034-.322-.235-.671-.907-.478-.94-.791-1.334-1.196-1.519-.367-.176-1.167-.159-1.517.034Zm1.516 2.098c.543.982.902 1.385 1.324 1.477.11.025.69.118 1.297.201 1.048.152 1.287.244 1.186.479-.019.05-.386.394-.819.747-.432.352-.864.789-.956.973-.23.395-.23.714-.009 1.88.175.957.175 1.133-.055 1.133-.074 0-.607-.227-1.186-.503-.873-.42-1.131-.504-1.499-.504-.377 0-.643.084-1.508.504-.588.276-1.121.503-1.195.503-.23 0-.239-.21-.055-1.141.092-.495.175-1.058.175-1.25 0-.47-.359-.966-1.223-1.67-.386-.32-.717-.622-.736-.68-.1-.227.138-.32 1.232-.47a28.827 28.827 0 0 0 1.306-.21c.386-.11.745-.529 1.269-1.469.423-.772.588-.999.726-.999s.303.227.726 1Z"/></svg>
