<svg xmlns="http://www.w3.org/2000/svg" width="20" height="21.499" viewBox="0 0 20 21.499">
  <g id="icon_user" transform="translate(0 0.25)">
    <rect id="Rectangle_1" data-name="Rectangle 1" width="20" height="20" transform="translate(0 0.999)" fill="none"></rect>
    <path id="Shape" d="M18.537,9.688H0V6.733A6.641,6.641,0,0,1,2,1.97,6.857,6.857,0,0,1,6.836,0h4.9a6.807,6.807,0,0,1,4.8,1.969,6.641,6.641,0,0,1,2,4.763V9.687ZM6.834,1.51A5.444,5.444,0,0,0,3.067,3.022,5.287,5.287,0,0,0,1.533,6.733V8.209h15.5V6.733A5.184,5.184,0,0,0,15.47,3.022,5.414,5.414,0,0,0,11.736,1.51Z" transform="translate(1 11.311)" stroke="#000" stroke-width="0.5"></path>
    <path id="Shape-2" data-name="Shape" d="M4.867,8.622A4.814,4.814,0,0,1,1.435,7.209,4.64,4.64,0,0,1,0,3.795,4.668,4.668,0,0,1,1.435.412,4.812,4.812,0,0,1,4.867-1,4.788,4.788,0,0,1,8.334.412,4.668,4.668,0,0,1,9.77,3.795,4.64,4.64,0,0,1,8.334,7.209,4.788,4.788,0,0,1,4.867,8.622Zm0-8.144A3.241,3.241,0,0,0,2.5,1.462a3.162,3.162,0,0,0-1,2.333,3.191,3.191,0,0,0,1,2.364,3.244,3.244,0,0,0,2.366.986,3.335,3.335,0,0,0,2.4-.986,3.26,3.26,0,0,0,0-4.7A3.331,3.331,0,0,0,4.867.478Z" transform="translate(5.4 0.999)" stroke="#000" stroke-width="0.5"></path>
  </g>
</svg>
