<svg id="Layer_1" data-name="Layer 1" xmlns="http://www.w3.org/2000/svg" viewBox="0 0 22.67 33.66"><path d="M10.8,28.15a3.14,3.14,0,0,1-.68.07,3.67,3.67,0,0,1-3.59-3,.83.83,0,1,0-1.64.31,5.33,5.33,0,0,0,5.23,4.33,5.52,5.52,0,0,0,1-.09.82.82,0,0,0,.66-1,.83.83,0,0,0-1-.67Z" transform="translate(0 -0.05)"/><path d="M6.6,18.83c0-1.87.52-3.36,2.42-3.36s2.39,1.49,2.39,3.36S10.9,22.19,9,22.19,6.6,20.69,6.6,18.83Zm3.64,0c0-1.26-.26-2.29-1.22-2.29s-1.25,1-1.25,2.29S8,21.11,9,21.11,10.24,20.08,10.24,18.83Z" transform="translate(0 -0.05)"/><path d="M21.83,21.89l-.83,0v.23a9.91,9.91,0,0,1-9.69,9.91l0,.84,0-.84a9.91,9.91,0,0,1-9.69-9.91v-.23h0a14.19,14.19,0,0,1,1.21-4.72C5.17,11.43,10,3.88,11.53,1.59l-.7-.45.69.46-.21-.14v.26l.21-.12-.21-.14v0l-.13.22.13,0V1.46l-.13.22L11.59,1l-.6.58.16.17.61-.57-.69.47c1,1.51,3.54,5.37,5.78,9.48a57.61,57.61,0,0,1,2.93,6.08A14,14,0,0,1,21,21.89h0l.83,0h.84a15.79,15.79,0,0,0-1.34-5.34C18.93,10.56,14,3,12.44.67l0-.06L12.19.39,12.11.3,12,.24a1.36,1.36,0,0,0-.69-.19,1.42,1.42,0,0,0-1.17.62h0c-1,1.55-3.53,5.43-5.8,9.61a62.1,62.1,0,0,0-3,6.26A15.56,15.56,0,0,0,0,21.89H.83l-.83,0v.27A11.59,11.59,0,0,0,11.31,33.72h0A11.59,11.59,0,0,0,22.67,22.14v-.27l-.84,0h0Z" transform="translate(0 -0.05)"/><path d="M13.52,16a.75.75,0,1,1-.75.75.75.75,0,0,1,.75-.75" transform="translate(0 -0.05)"/><path d="M16.64,19.39a.75.75,0,1,1-.75.75.76.76,0,0,1,.75-.75" transform="translate(0 -0.05)"/><path d="M15.57,16.2l-2.33,4.41a.62.62,0,1,0,1.1.59l2.33-4.42a.61.61,0,0,0-.26-.84.63.63,0,0,0-.84.26" transform="translate(0 -0.05)"/></svg>
