<svg version="1.1" id="Layer_1" xmlns="http://www.w3.org/2000/svg" x="0" y="0" viewBox="0 0 35.9 47" xml:space="preserve"><style>.st0{fill:#00635b}</style><path class="st0" d="M35.8 4.6l-.3-.6c-.8-1.2-2.4-1.5-3.5-.7.1-.4.1-.9 0-1.3C31.6.6 30.2-.2 28.9.2c-1.4.4-2.2 1.8-1.8 3.1-.4-.3-.8-.4-1.3-.4-1.4-.1-2.6 1-2.7 2.4-.1 1.4 1 2.6 2.4 2.7-1 .8-1.3 2.3-.5 3.4-1.1 1.2-1.7 2.7-1.7 4.3h-4.4V9c0-.2-.1-.3-.2-.4L10.3.2c-.2-.2-.6-.2-.8 0L7.7 2c-.2.2-.2.6 0 .8l7.6 7.6v5.1h-.9c-.1 0-.3.1-.4.1-.7.7-1.4 1.4-1.9 2.3H9.7c-.2 0-.5.1-.5.4-.2.5-.4 1-.5 1.5-1.8-.2-3.2-1.7-3.2-3.6 0-.3-.3-.6-.6-.6s-.7.4-.7.7c0 2-1.6 3.6-3.6 3.6-.3.1-.6.3-.6.6s.3.6.6.6c2 0 3.6 1.6 3.6 3.6 0 .3.3.6.6.6s.6-.3.6-.6c0-1.7 1.2-3.2 2.9-3.5-.2 1.1-.3 2.3-.1 3.4v.1c0 1.7-1.3 3-3 3-.3 0-.6.3-.6.6s.3.6.6.6c1.7 0 3 1.3 3 3 0 .3.3.6.6.6s.6-.3.6-.6c0-.7.3-1.4.7-1.9 1.8 2.9 4.6 4.8 7.8 5.6V38H17c-.3 0-.5.2-.6.4l-1.6 4.5h-.1c-1 0-1.8.8-1.7 1.8v.6c0 1 .8 1.7 1.8 1.7h12c1 0 1.7-.8 1.8-1.7v-.6c0-1-.8-1.8-1.7-1.8h-.1l-1.6-4.5c-.1-.3-.3-.4-.6-.4h-.9v-2.3c.8-.2 1.5-.4 2.3-.7 6.4-2.8 9.3-10.2 6.5-16.6-.1-.2-.3-.4-.5-.4h-2.4c-.5-.8-1.2-1.6-1.9-2.3-.1-.1-.3-.2-.4-.1h-2.5c0-1.3.5-2.5 1.4-3.5.1.1.2.1.4.2 1.3.5 2.8-.2 3.3-1.5.2.4.4.8.8 1.1 1.1.9 2.7.7 3.6-.4.9-1.1.7-2.7-.4-3.6.2 0 .5-.1.7-.1.9-.5 1.6-1.9 1.2-3.2zm-31 17.8c-.4-.8-1-1.4-1.8-1.8 0 0-.1 0-.1-.1.1-.1.3-.2.4-.3.5-.4 1-.9 1.4-1.4 0-.1.1-.1.1-.2.4.8 1.1 1.4 1.9 1.8-.8.6-1.5 1.2-1.9 2zm4.1-20l1-1 7.8 7.8v6.3h-1.2v-5.4c0-.2-.1-.3-.2-.4L8.9 2.4zm-.2 27.4c-.4-.6-.9-1.1-1.4-1.4.6-.4 1.1-.9 1.4-1.4.4.6.9 1.1 1.4 1.4-.5.3-1 .8-1.4 1.4zm17.9 14.3c.3 0 .5.2.5.5v.6c0 .3-.2.5-.5.5h-12c-.3 0-.5-.2-.5-.5v-.6c0-.3.2-.5.5-.5h12zm-2.7-4.8l1.3 3.6h-9.1l1.3-3.6h6.5zM19.1 38v-2.1c1 .1 2.1.2 3.1 0V38h-3.1zm12.2-18.8c.5 1.3.8 2.8.8 4.2 0 5.2-3.6 9.8-8.6 11l1.9-2.3-.9-.8-2.8 3.3h-.4V31h-1.2v3.6h-.4L17 31.4l-1 .8 1.9 2.3c-.5-.1-1-.3-1.4-.5-2.4-1-4.3-2.6-5.5-4.7.4-.2.9-.3 1.4-.3.3 0 .6-.3.6-.6s-.3-.6-.6-.6c-1.2 0-2.3-.7-2.7-1.8-.5-2.2-.4-4.5.5-6.8h21.1zm-4.5-2.4c.4.4.8.8 1.1 1.2H13.5c.3-.4.7-.8 1.1-1.2h12.2zM25.2 6.6c-.7-.2-1.1-1-.9-1.7.1-.2.2-.3.3-.5.5-.6 1.4-.6 1.9-.1l1.6 1.5c.1.1.1.2.2.3v.1s0 .1-.1.1-.2.1-.3.1l-2.2.2c-.1.1-.3.1-.5 0zm3.2 3.6c-.1.4-.3.7-.6.9-.6.4-1.5.2-1.8-.5s-.2-1.5.5-1.8l1.9-1.1c.1 0 .2 0 .3-.1h.1l.1.1V8l-.5 2.2zm1.2-4.9h-.3c-.1-.1-.1-.2-.2-.2l-.9-2c-.2-.4-.2-.9.1-1.3.4-.6 1.1-.8 1.7-.5.7.3 1 1.1.7 1.8l-.9 2c0 .1-.1.2-.2.2zm3.1 5.7c-.2.1-.3.2-.5.2-.7.2-1.4-.3-1.6-1L30.1 8v-.3s0-.1.1-.1h.1c.1 0 .2.1.3.1l1.9 1.1c.2.1.3.2.4.4.5.5.4 1.3-.2 1.8zm.5-4.3L31 6.5c-.1 0-.2-.1-.3-.1-.1-.1-.1-.2-.1-.3.1-.1.1-.2.2-.3l1.6-1.5c.5-.4 1.2-.5 1.7 0 .6.5.7 1.3.2 1.9-.2.4-.6.5-1.1.5z"/><path class="st0" d="M11.1 24.2c1.2 0 2.1.9 2.1 2.1 0 .3.3.6.6.6s.6-.3.6-.6c0-1.2.9-2.1 2.1-2.1.3 0 .6-.3.6-.6s-.2-.6-.6-.6c-1.2 0-2.1-.9-2.1-2.1 0-.3-.3-.6-.6-.6s-.6.3-.6.6c0 1.2-.9 2.1-2.1 2.1-.3 0-.6.3-.6.6s.3.6.6.6zm2.7-1.5c.2.3.5.6.8.8-.3.2-.6.5-.8.8-.2-.3-.5-.6-.8-.8.3-.2.6-.4.8-.8z"/></svg>
