<svg xmlns="http://www.w3.org/2000/svg" width="24" height="28" viewBox="0 0 24 28"><path stroke-width="2" d="M20.389 27H3.613c-.983 0-1.677-.232-2.123-.708-.35-.376-.514-.877-.487-1.484l.834-17.882a.602.602 0 0 1 .598-.58h19.126c.32 0 .583.256.598.58l.838 17.885c.03.607-.135 1.105-.488 1.484-.442.473-1.136.705-2.12.705zM3.009 7.567l-.807 17.302c-.018.393.114.534.158.583.141.15.473.33 1.256.33h16.776c.783 0 1.115-.178 1.256-.33.045-.046.176-.19.158-.58l-.81-17.302H3.009zm4.226-1.678C7.235 3.192 9.373 1 12 1c2.629 0 4.767 2.192 4.767 4.889h-1.196c0-2.022-1.603-3.668-3.57-3.668-1.968 0-3.571 1.646-3.571 3.668z"></path><path fill="none" stroke-width="2" stroke="#000" d="M20.389 27H3.613c-.983 0-1.677-.232-2.123-.708-.35-.376-.514-.877-.487-1.484l.834-17.882a.602.602 0 0 1 .598-.58h19.126c.32 0 .583.256.598.58l.838 17.885c.03.607-.135 1.105-.488 1.484-.442.473-1.136.705-2.12.705zM3.009 7.567l-.807 17.302c-.018.393.114.534.158.583.141.15.473.33 1.256.33h16.776c.783 0 1.115-.178 1.256-.33.045-.046.176-.19.158-.58l-.81-17.302H3.009zm4.226-1.678C7.235 3.192 9.373 1 12 1c2.629 0 4.767 2.192 4.767 4.889h-1.196c0-2.022-1.603-3.668-3.57-3.668-1.968 0-3.571 1.646-3.571 3.668z"></path></svg>
