<svg width="31" height="35" xmlns="http://www.w3.org/2000/svg"><path d="M15.5.5l.234.003a7.049 7.049 0 016.818 6.577l5.11-.001a1.758 1.758 0 011.752 1.518l.015.147 1.066 21.965a3.347 3.347 0 01-.739 2.439l-.145.166-.074.072c-.886.772-2.033 1.173-3.124 1.13l-.233-.016-21.26-.004a4.592 4.592 0 01-3.259-.955l-.193-.16-.074-.072a3.36 3.36 0 01-.905-2.346l.012-.211L1.566 8.74c.048-.89.75-1.593 1.615-1.657l.145-.004H8.45A7.049 7.049 0 0115.26.503l.24-.002zm10.495 10.086H5.01l-.98 20.343.04.011.141.025.2.021c.077.006.164.01.263.013l.157.002h21.351l.275-.006c.041-.001.08-.003.116-.006l.19-.016.22-.031-.987-20.356zM15.502 3.973a3.545 3.545 0 00-3.517 3.106h7.034a3.545 3.545 0 00-3.517-3.106z" fill="#000" fill-rule="nonzero"/></svg>
