<svg xmlns="http://www.w3.org/2000/svg" width="29" height="33" viewBox="0 0 29 33">
    <defs><style>.a{stroke:#000;stroke-width:2;}</style></defs>
    <g transform="translate(0.5 0.5)">
    <path class="a" d="M26.169,6.579a.757.757,0,0,1,.761.714L28,29.305a2.347,2.347,0,0,1-.62,1.827,3.591,3.591,0,0,1-2.7.868H3.326a3.592,3.592,0,0,1-2.7-.872A2.37,2.37,0,0,1,0,29.3L1.065,7.293a.754.754,0,0,1,.761-.714ZM2.557,8.082,1.53,29.377a.868.868,0,0,0,.2.718c.179.184.6.406,1.6.406H24.681c1,0,1.42-.218,1.6-.406a.857.857,0,0,0,.2-.714L25.449,8.086H2.557ZM14,0a6.048,6.048,0,0,1,6.067,6.017H18.546a4.544,4.544,0,0,0-9.088,0H7.935A6.048,6.048,0,0,1,14,0Z"/>
    </g>
</svg>
