<svg xmlns="http://www.w3.org/2000/svg" width="54" height="54"><defs><style>.a{fill:#212121}</style></defs><path class="a" d="M40.727 27a1.086 1.086 0 11-1.086-1.086A1.086 1.086 0 0140.727 27zm0 0M30.193 20.68a1.086 1.086 0 11-1.086-1.086 1.086 1.086 0 011.086 1.086zm0 0M28.086 42.802A1.086 1.086 0 1127 41.716a1.086 1.086 0 011.086 1.086zm0 0M12.285 23.84a1.086 1.086 0 11-1.086-1.086 1.086 1.086 0 011.086 1.086zm0 0M15.462 41.832a4.343 4.343 0 10-4.343-4.343 4.348 4.348 0 004.343 4.343zm0-6.515a2.172 2.172 0 11-2.172 2.172 2.174 2.174 0 012.172-2.171zm0 0M25.049 13.364a4.343 4.343 0 10-4.343 4.343 4.348 4.348 0 004.343-4.343zm-6.515 0a2.172 2.172 0 112.172 2.172 2.174 2.174 0 01-2.171-2.172zm0 0M32.097 36.44a4.343 4.343 0 104.343-4.343 4.348 4.348 0 00-4.343 4.343zm6.515 0a2.172 2.172 0 11-2.172-2.172 2.174 2.174 0 012.172 2.172zm0 0M24.898 32.359a3.257 3.257 0 10-3.257-3.258 3.261 3.261 0 003.257 3.258zm0-4.343a1.086 1.086 0 11-1.086 1.086 1.087 1.087 0 011.086-1.086zm0 0M28.086 52.914A1.086 1.086 0 1127 51.828a1.086 1.086 0 011.086 1.086zm0 0"/><path class="a" d="M52.144 22.188a6.619 6.619 0 01-2.679.588 5.722 5.722 0 01-5.022-2.945 1.055 1.055 0 00-1.247-.542 6.747 6.747 0 01-1.958.323 6.863 6.863 0 01-6.855-6.854 6.744 6.744 0 01.323-1.958 1.054 1.054 0 00-.542-1.246 5.72 5.72 0 01-2.945-5.02 6.615 6.615 0 01.588-2.678 1.054 1.054 0 00-.781-1.518A26.087 26.087 0 0027 0C12.447 0 0 12.421 0 26.993c0 12.655 9.49 24.054 22.073 26.515a1.054 1.054 0 10.4-2.07A25.4 25.4 0 012.109 26.993 25.221 25.221 0 0127 2.109a21.66 21.66 0 012.424.143 9.034 9.034 0 00-.314 2.283A8.023 8.023 0 0032.474 11a8.043 8.043 0 00-.2 1.756 8.974 8.974 0 008.965 8.963 8.049 8.049 0 001.756-.2 8.026 8.026 0 006.47 3.364 9.041 9.041 0 002.283-.314 21.643 21.643 0 01.143 2.423 25.4 25.4 0 01-20.369 24.446 1.054 1.054 0 10.4 2.07C44.51 51.047 54 39.648 54 26.993a26.068 26.068 0 00-.338-4.025 1.055 1.055 0 00-1.518-.78zm0 0"/></svg>