<svg xmlns="http://www.w3.org/2000/svg" width="31.5" height="32.667"><g data-name="icon/crueltyFree" stroke="#fff" stroke-width=".5"><path d="M16.963 32.417h4.429a2.028 2.028 0 002.01-2.041V27.85a.421.421 0 01.12-.3l3.767-3.825a11.764 11.764 0 002.513-3.81l.552-1.349a11.914 11.914 0 00.896-4.539V9.658a2.028 2.028 0 00-2.01-2.041h-.456a2.015 2.015 0 00-2 1.839l-.476 4.854a1.99 1.99 0 00-2.477.257l-7.093 6.217a.561.561 0 00-.043.04 6.866 6.866 0 00-.945 1.162 6.907 6.907 0 00-.945-1.162.536.536 0 00-.043-.04l-7.093-6.217a1.99 1.99 0 00-2.478-.257l-.476-4.854a2.016 2.016 0 00-2-1.839H2.26A2.028 2.028 0 00.25 9.658v4.369a11.908 11.908 0 00.9 4.544l.548 1.346a11.761 11.761 0 002.513 3.81l3.767 3.825a.419.419 0 01.121.3v2.526a2.028 2.028 0 002.01 2.039h4.429a1.98 1.98 0 012.423 0zm-.413-7.513a3.806 3.806 0 011.255-2.912l7.087-6.215a.814.814 0 00.043-.04.408.408 0 01.584 0 .424.424 0 010 .593l-4.6 4.671a.82.82 0 000 1.147l.013.013.017.017a.79.79 0 001.129-.006l5.126-5.255a2.06 2.06 0 00.575-1.237l.595-6.06a.413.413 0 01.411-.377h.456a.416.416 0 01.413.419v4.369a10.279 10.279 0 01-.773 3.919l-.552 1.349a10.157 10.157 0 01-2.168 3.286l-3.767 3.825a2.043 2.043 0 00-.588 1.443v2.525a.423.423 0 01-.121.3.41.41 0 01-.292.123h-4.431a.416.416 0 01-.413-.42zm-1.6 5.472a.416.416 0 01-.413.42H10.11a.416.416 0 01-.413-.42V27.85a2.044 2.044 0 00-.589-1.443l-3.766-3.824a10.151 10.151 0 01-2.168-3.286l-.553-1.35a10.278 10.278 0 01-.771-3.919V9.659a.416.416 0 01.413-.419h.455a.414.414 0 01.411.377l.595 6.06a2.058 2.058 0 00.571 1.24l5.125 5.255a.791.791 0 001.13.006l.017-.017.013-.013a.819.819 0 000-1.147l-4.6-4.671a.424.424 0 01.009-.584.409.409 0 01.575-.009.525.525 0 00.042.04l7.087 6.215a3.8 3.8 0 011.257 2.911z"/><path d="M9.818 13.488a41.577 41.577 0 003.306 3.047c1.617 1.306 2.278 1.482 2.712 1.482.371 0 1.24 0 4.532-3.2a49.362 49.362 0 004.728-5.271 11.983 11.983 0 00.781-1.162l.023-.044a5.338 5.338 0 00.321-.815A5.5 5.5 0 0022.989.879a5.862 5.862 0 00-7.239 2.25A5.863 5.863 0 008.488.889a5.5 5.5 0 00-3.194 6.686c.256 1.451 3.234 4.602 4.524 5.913zm.989-11.508a4.1 4.1 0 014.12 3.675.83.83 0 001.646 0 4.011 4.011 0 012.605-3.392 4.246 4.246 0 014.3.764 3.885 3.885 0 01.972 4.627 10.8 10.8 0 01-.666.982 47.663 47.663 0 01-4.415 4.938 14.132 14.132 0 01-3.535 2.873c-.517-.143-2.331-1.478-4.918-4.116-2.625-2.674-3.952-4.565-4.022-4.994a.739.739 0 00-.034-.166 3.885 3.885 0 01.614-3.559 4.187 4.187 0 013.332-1.631z"/><path d="M20.8 5.002a1.124 1.124 0 011.122 1.122.693.693 0 101.385 0A2.51 2.51 0 0020.8 3.617a.693.693 0 000 1.385z"/></g></svg>
