<svg version="1.1" id="Layer_1" xmlns="http://www.w3.org/2000/svg" x="0" y="0" viewBox="0 0 71.3 47" xml:space="preserve"><style>.st0{fill:#00635b}</style><path class="st0" d="M25.7 37.7c-1.5 0-2.7 1.2-2.7 2.8 0 1.5 1.2 2.8 2.8 2.7 1.5 0 2.8-1.2 2.7-2.8 0-1.5-1.2-2.7-2.8-2.7zm0 4.4c-.9 0-1.6-.7-1.6-1.6 0-.9.7-1.6 1.6-1.6.9 0 1.6.7 1.6 1.6 0 .9-.7 1.6-1.6 1.6zM57 37.7c-1.5 0-2.7 1.2-2.7 2.8 0 1.5 1.2 2.8 2.8 2.7 1.5 0 2.8-1.2 2.7-2.8 0-1.5-1.2-2.7-2.8-2.7zm0 4.4c-.9 0-1.6-.7-1.6-1.6 0-.9.7-1.6 1.6-1.6.9 0 1.6.7 1.6 1.6 0 .9-.7 1.6-1.6 1.6zM38.2 24.4h13c1.1 0 1.9-.9 1.9-1.9V17c0-1.1-.9-1.9-1.9-1.9h-13c-1.1 0-1.9.9-1.9 1.9v5.5c0 1.1.8 1.9 1.9 1.9zm-.8-7.4c0-.4.3-.8.8-.8h13c.4 0 .8.3.8.8v5.5c0 .4-.3.8-.8.8h-13c-.4 0-.8-.3-.8-.8V17z"/><path class="st0" d="M70 26.8h-3.5-.1c0-.6-.4-9.9-4-14.2-1-1.2-2.4-1.9-4-1.9h-2.7V8.5h3.1c1.3 0 2.3-1 2.3-2.3 0-1.3-1-2.4-2.3-2.4H29.3C28.8 1.6 27 .1 24.7 0c-.3 0-.6.3-.6.6v3.2h-1.5c-1.3 0-2.3 1-2.3 2.3 0 1.3 1 2.4 2.3 2.4h3.3v2.3h-3.6c-2.3 0-4.3 1.5-5 3.8-.2.8-.3 1.5-.4 2.3H6.4c-.3 0-.6.3-.6.6s.3.6.6.6h10.3c-.4 2.9-.7 5.9-.6 8.9v4.1H6.4c-.3 0-.6.3-.6.6s.3.6.6.6h9.7v5.5h-.7c-.3 0-.6.3-.6.6v4.2c0 .3.3.6.6.6h4.4c.7 1.6 1.9 2.8 3.5 3.5 3.3 1.4 7.1-.2 8.5-3.5h19.4c.7 1.6 1.9 2.8 3.5 3.5 3.3 1.4 7.1-.2 8.5-3.5h4c.3 0 .6-.3.6-.6v-4.2c0-.3-.3-.6-.6-.6h-.5v-1H70c.7 0 1.2-.5 1.2-1.1v-7.6c0-.8-.5-1.3-1.2-1.3zm-5.1-3.5h-6.4c-.4 0-.8-.3-.8-.8V17c0-.4.3-.8.8-.8h4.6c.9 2.3 1.5 4.7 1.8 7.1zM25.3 1.2c1.3.3 2.4 1.3 2.7 2.6h-2.7V1.2zm-2.7 6.1c-.6 0-1.2-.5-1.2-1.2 0-.6.5-1.2 1.2-1.2h36.3c.6.1 1.1.6 1.1 1.2s-.5 1.2-1.1 1.2H22.6zm32 1.2v2.3H27V8.5h27.6zm-34.5 8.3h-2c.1-.7.2-1.3.4-2 .5-1.7 2-2.9 3.8-2.9h36.2c1.2 0 2.3.5 3.1 1.4.4.5.8 1.1 1.1 1.7h-4.1c-1.1 0-1.9.9-1.9 2v5.5c0 1.1.9 1.9 1.9 2h6.5c.1.8.2 1.5.2 2.3h-48c-.1-2.9.1-5.9.6-8.8h2.2c.3 0 .6-.3.6-.6s-.3-.6-.6-.6zm-.7 25.1H16v-3.1h3.5c-.3 1-.3 2.1-.1 3.1zm6.3 3.9c-2.9 0-5.3-2.4-5.3-5.4 0-3 2.4-5.3 5.4-5.3 3 0 5.3 2.4 5.3 5.4s-2.4 5.3-5.4 5.3zm25-3.9H32.1c.2-1 .2-2.1-.1-3.1h18.8c-.3 1-.3 2.1-.1 3.1zm6.3 3.9c-2.3 0-4.3-1.4-5-3.6-.2-.6-.3-1.2-.3-1.8 0-3 2.5-5.3 5.4-5.3s5.3 2.5 5.3 5.4c0 3-2.4 5.3-5.4 5.3zm5.9-8.2c-.6-1.3-1.7-2.4-3.1-3.1-3.2-1.5-7.1-.2-8.6 3.1H31.6c-.6-1.3-1.7-2.4-3.1-3.1-3.2-1.5-7.1-.2-8.6 3.1h-2.6v-5.5h2.8c.3 0 .6-.3.6-.6s-.3-.6-.6-.6h-2.8v-3h48v9.7h-2.4zm.5 4.3c.2-1 .2-2.1-.1-3.1h3.1v3.1h-3zm6.7-6.8c0 .2-.2.4-.4.4h-2.8c-.2 0-.4-.2-.4-.4v-6.8c0-.2.2-.4.4-.4h2.8c.2 0 .4.2.4.4v6.8z"/><path class="st0" d="M23.7 24.4h7.1c1.1 0 1.9-.9 1.9-1.9V17c0-1.1-.9-1.9-1.9-1.9h-7.1c-1.1 0-1.9.9-1.9 1.9v5.5c0 1.1.8 1.9 1.9 1.9zm-.8-7.4c0-.4.3-.8.8-.8h7.1c.4 0 .8.3.8.8v5.5c0 .4-.3.8-.8.8h-7.1c-.4 0-.8-.3-.8-.8V17zM14.8 24.4c0-.3-.3-.6-.6-.6H.6c-.3 0-.6.3-.6.6 0 .4.3.6.6.6h13.7c.3 0 .5-.2.5-.6z"/></svg>
