<svg xmlns="http://www.w3.org/2000/svg" viewBox="0 0 20 32"><path d="M.555 18.252a10.493 10.493 0 00.015 6.779.8.8 0 00.045.127 9.977 9.977 0 0010.4 6.789 10.177 10.177 0 008.878-8.822 10.468 10.468 0 00-6.047-11.115V1.6h.769a.785.785 0 00.769-.8.785.785 0 00-.769-.8H5.384a.785.785 0 00-.769.8.785.785 0 00.769.8h.769v10.41a10.232 10.232 0 00-5.5 5.972.794.794 0 00-.098.27zm6.625-4.939a.8.8 0 00.512-.755V1.6h4.615v10.959a.8.8 0 00.512.755 8.807 8.807 0 015.622 8.9 8.689 8.689 0 01-6.741 8.01A8.36 8.36 0 012.473 25.6h2.911a.8.8 0 000-1.6H1.867a9.035 9.035 0 01-.289-1.6h3.806a.8.8 0 000-1.6H1.6a9.037 9.037 0 01.28-1.6h3.504a.8.8 0 000-1.6H2.475a8.579 8.579 0 014.705-4.287z"/></svg>
