<svg xmlns="http://www.w3.org/2000/svg" viewBox="0 0 32.57 32.588"><g stroke="#404040" stroke-width=".5"><path d="M29.621 21.487h0l-2.292.765a2.423 2.423 0 00-1.51-1.524 2.67 2.67 0 00-2.791-2.266 4.534 4.534 0 00-4.178-2.124 2.14 2.14 0 00-1.415-1.506 10.356 10.356 0 012.592-4.3c.064.074.125.151.193.221a5.748 5.748 0 004.075 1.728c.108 0 .217 0 .325-.01a4.678 4.678 0 003.505-1.836c2.322-3.057 4.03-9.2 4.1-9.46a.532.532 0 00-.443-.673C31.47.458 24.041-.476 20.33 2.664a4.827 4.827 0 00-.709.743 12.051 12.051 0 00-4.5-.365.532.532 0 00-.453.689 14.72 14.72 0 002.049 4.218 2.652 2.652 0 002.046.9c.077 0 .154-.006.232-.012a6.033 6.033 0 00.391.8 11.388 11.388 0 00-3.04 5.131 2.151 2.151 0 00-1.266.8 3.718 3.718 0 00-4.263.906 3.1 3.1 0 00-.973-.158 3.2 3.2 0 00-3.151 2.669H5.71a2.4 2.4 0 00-1.993-1.07H2.65a2.4 2.4 0 00-2.4 2.4v9.623a2.4 2.4 0 002.4 2.4h1.067a2.374 2.374 0 001.49-.532h13.869a4.262 4.262 0 002.218-.623l10-6.09a2 2 0 00-1.67-3.6zm-9.983-15.1a4 4 0 011.378-2.906c2.042-1.726 5.511-2.066 7.929-2.066.865 0 1.595.044 2.078.083-.493 1.631-1.956 6.14-3.744 8.488a3.629 3.629 0 01-2.722 1.419 4.642 4.642 0 01-3.57-1.4c-.068-.07-.129-.147-.192-.221a18.18 18.18 0 013.689-2.594.534.534 0 00-.469-.959 18.653 18.653 0 00-3.829 2.64 4.963 4.963 0 01-.549-2.489zm-1.064-.049a5.892 5.892 0 00.118 1.443 1.567 1.567 0 01-1.153-.52 11.7 11.7 0 01-1.625-3.2 10.458 10.458 0 013.141.3 5.353 5.353 0 00-.483 1.977zM5.05 29.938a1.335 1.335 0 01-1.333 1.335H2.65a1.335 1.335 0 01-1.333-1.335v-9.61a1.335 1.335 0 011.333-1.337h1.067a1.335 1.335 0 011.333 1.335zm4.8-12.549a2.1 2.1 0 01.91.213.531.531 0 00.661-.17 2.656 2.656 0 013.585-.694.531.531 0 00.784-.261 1.054 1.054 0 01.95-.685h.043c.014 0 .025-.006.038-.007a1.064 1.064 0 011.029 1.042c0 .015-.008.066-.008.08a.532.532 0 00.64.553 3.5 3.5 0 01.7-.071 3.453 3.453 0 013.084 1.892.531.531 0 00.585.278 1.608 1.608 0 011.93 1.543v.05a.532.532 0 00.458.529 1.337 1.337 0 011.074.91l-6.563 2.188a1.6 1.6 0 01-.506.082h-.307a2.459 2.459 0 00-.2-2.1l-.047-.079a3.214 3.214 0 00-2.74-1.558h-2.793a4.347 4.347 0 01-2.708-.951 5.414 5.414 0 00-2.672-1.129 2.134 2.134 0 012.073-1.655zm21.316 6.171a.919.919 0 01-.429.618l-10 6.09a3.2 3.2 0 01-1.664.467H5.969a2.375 2.375 0 00.148-.8v-9.609a2.347 2.347 0 00-.027-.267h.986a4.347 4.347 0 012.708.951 5.416 5.416 0 003.374 1.182h2.792a2.143 2.143 0 011.831 1.038l.047.079a1.4 1.4 0 01-.079 1.553h-3.246a5.311 5.311 0 00-2.958.9l-.391.261a.533.533 0 10.591.887l.391-.261a4.249 4.249 0 012.367-.717h4.741a2.666 2.666 0 00.843-.137l6.8-2.27h.025a.522.522 0 00.327-.122l2.717-.906a.932.932 0 011.207 1.064z"/><path d="M12.696 19.481a.74.74 0 00.432-.061.448.448 0 00.247-.271.843.843 0 01.847-.514 1.061 1.061 0 01.518.128.714.714 0 00.806-.085.363.363 0 00-.114-.6 2.476 2.476 0 00-1.211-.3 1.969 1.969 0 00-1.976 1.2.342.342 0 00.086.322.611.611 0 00.365.181zM18.085 19.65a.8.8 0 00.585-.026h0a1.171 1.171 0 011.1.079.577.577 0 01.249.352.556.556 0 00.58.356h.084a.662.662 0 00.387-.161.328.328 0 00.111-.308 1.63 1.63 0 00-1.19-1.114 2.8 2.8 0 00-1.969.111.392.392 0 00-.263.372.44.44 0 00.328.345z"/></g></svg>
