<svg xmlns="http://www.w3.org/2000/svg" width="57.724" height="54"><defs><style>.a{fill:#212121}</style></defs><path class="a" d="M30.667 37.753h-3.61a1.805 1.805 0 110-3.61h3.61a1.807 1.807 0 011.805 1.805h1.805a3.614 3.614 0 00-3.61-3.61h-.9v-1.805h-1.805v1.805h-.9a3.61 3.61 0 100 7.22h3.61a1.805 1.805 0 010 3.61h-3.61a1.807 1.807 0 01-1.805-1.805h-1.81a3.614 3.614 0 003.61 3.61h.9v1.805h1.805v-1.805h.9a3.61 3.61 0 100-7.22z"/><path class="a" d="M41.9 0a15.888 15.888 0 00-13.039 6.863 15.82 15.82 0 10-14.37 24.725 15.806 15.806 0 0023.558 19.458l-1.083-1.515a13.965 13.965 0 112.513-2.3l1.416 1.209a15.735 15.735 0 002.345-16.845 15.709 15.709 0 007.843-2.895L50 27.186a13.855 13.855 0 01-7.743 2.593 15.82 15.82 0 00-12.043-7.365 15.72 15.72 0 00-.3-13.759 13.96 13.96 0 1122.6 16.231l1.415 1.214A15.817 15.817 0 0041.9 0zM28.154 22.381a15.808 15.808 0 00-12.684 7.394 13.962 13.962 0 1112.684-7.394z"/><path class="a" d="M41.957 21.661a2.711 2.711 0 01-2.708-2.708v-.9h1.805v-1.807h-1.805V14.44h1.805v-1.805h-1.805v-.9a2.708 2.708 0 015.415 0h1.805a4.513 4.513 0 10-9.026 0v.9h-1.804v1.805h1.805v1.805h-1.805v1.805h1.805v.9a4.513 4.513 0 109.026 0h-1.805a2.711 2.711 0 01-2.708 2.711zM16.619 13.872l5.2-6.064-1.37-1.175-4.73 5.518-4.731-5.518-1.37 1.175 5.2 6.064v2.374h-1.809v1.805h1.805v1.805h-1.805v1.805h1.805v.9h1.805v-.9h1.805v-1.805h-1.805v-1.805h1.805v-1.805h-1.805z"/></svg>