<svg xmlns="http://www.w3.org/2000/svg" width="72" height="47" viewBox="0 0 72 48">
  <g>
    <g>
      <g>
        <path fill="#00635b" d="M25.744 38.17a2.752 2.752 0 0 1 2.743 2.755 2.752 2.752 0 0 1-2.743 2.754A2.752 2.752 0 0 1 23 40.925a2.752 2.752 0 0 1 2.744-2.755m0 4.339a1.58 1.58 0 0 0 1.572-1.584 1.58 1.58 0 0 0-1.572-1.584 1.58 1.58 0 0 0-1.573 1.584 1.58 1.58 0 0 0 1.573 1.584"></path>
      </g>
      <g>
        <path fill="#00635b" d="M57.034 38.17a2.752 2.752 0 0 1 2.743 2.755 2.752 2.752 0 0 1-2.743 2.754 2.752 2.752 0 0 1-2.744-2.754 2.752 2.752 0 0 1 2.744-2.755m0 4.339a1.58 1.58 0 0 0 1.572-1.584 1.58 1.58 0 0 0-1.572-1.584c-.867 0-1.574.71-1.574 1.584 0 .873.707 1.584 1.574 1.584"></path>
      </g>
      <g></g>
      <g>
        <path fill="#00635b" d="M66.948 38.094c.323 0 .585.263.585.586v4.233a.585.585 0 0 1-.585.585h-3.956c-.994 2.32-3.289 3.948-5.956 3.948-2.667 0-4.963-1.628-5.957-3.948H31.7c-.993 2.32-3.288 3.948-5.956 3.948-2.667 0-4.962-1.628-5.956-3.948h-4.352a.585.585 0 0 1-.585-.585V38.68c0-.323.262-.586.585-.586h.706V27.358c0-4.899.458-9.492 1.226-12.285.605-2.204 2.641-3.743 4.952-3.743h3.555V9.057h-3.302a2.338 2.338 0 0 1-2.336-2.335 2.338 2.338 0 0 1 2.336-2.336h1.55v-3.21c0-.324.262-.586.586-.586 2.796 0 4.127 2.262 4.551 3.796h29.617a2.338 2.338 0 0 1 2.336 2.336 2.338 2.338 0 0 1-2.336 2.335h-3.073v2.273H58.5c1.553 0 2.997.678 3.964 1.86 3.563 4.35 3.95 13.75 3.965 14.15v10.755zm-2.036-14.303c-.29-2.09-.811-4.75-1.736-7.009h-4.628a.774.774 0 0 0-.774.774v5.462c0 .426.347.773.774.773zM25.292 4.386h2.736c-.308-.876-1.06-2.304-2.735-2.579zm-3.885 2.336c0 .642.522 1.165 1.165 1.165h36.304a1.166 1.166 0 0 0 0-2.33H22.572c-.643 0-1.165.522-1.165 1.165zm5.638 4.608h27.588V9.057H27.045zm-8.55 4.053c-.276 1.007-1.175 4.835-1.183 11.893h47.943a38.294 38.294 0 0 0-.196-2.314h-6.511a1.946 1.946 0 0 1-1.944-1.944v-5.462c0-1.072.872-1.944 1.944-1.944h4.091a9.674 9.674 0 0 0-1.08-1.682A3.932 3.932 0 0 0 58.5 12.5H22.32c-1.785 0-3.357 1.186-3.823 2.883zm-1.184 22.701h2.605c1.052-2.17 3.266-3.673 5.827-3.673 2.562 0 4.775 1.503 5.827 3.673H51.21c1.052-2.17 3.265-3.673 5.827-3.673 2.561 0 4.774 1.503 5.826 3.673h2.397v-9.637H17.31zm2.103 4.244a6.537 6.537 0 0 1-.154-1.397c0-.577.083-1.133.223-1.666h-3.462v3.063zm6.334 3.937c2.932 0 5.318-2.395 5.318-5.339 0-2.943-2.386-5.338-5.318-5.338-2.932 0-5.317 2.395-5.317 5.338 0 2.944 2.385 5.339 5.317 5.339zm24.969-3.937a6.534 6.534 0 0 1-.154-1.397c0-.577.082-1.133.223-1.666H32.004c.14.533.223 1.09.223 1.666 0 .48-.056.946-.154 1.397zm6.324 3.937c2.932 0 5.317-2.395 5.317-5.339 0-2.943-2.385-5.338-5.317-5.338-2.932 0-5.318 2.395-5.318 5.338 0 .612.109 1.197.298 1.745.004.007.006.016.009.024.73 2.076 2.697 3.57 5.01 3.57zm9.311-7h-3.057c.14.533.223 1.09.223 1.666 0 .48-.056.946-.154 1.397h2.988z"></path>
      </g>
      <g>
        <path fill="#00635b" d="M38.194 24.96a1.946 1.946 0 0 1-1.944-1.944v-5.462c0-1.072.872-1.944 1.944-1.944H51.16c1.072 0 1.944.872 1.944 1.944v5.462a1.946 1.946 0 0 1-1.944 1.944zm-.773-1.944c0 .427.347.773.773.773H51.16a.774.774 0 0 0 .774-.773v-5.462a.774.774 0 0 0-.774-.773H38.194a.774.774 0 0 0-.773.773z"></path>
      </g>
      <g></g>
      <g>
        <path fill="#00635b" d="M65.26 28.41c0-.628.558-1.14 1.246-1.14h3.499c.687 0 1.246.512 1.246 1.14v7.612c0 .63-.56 1.142-1.246 1.142h-3.5c-.687 0-1.245-.512-1.245-1.142zm1.57.022a.403.403 0 0 0-.403.403v6.763c0 .222.18.404.402.404h2.842a.404.404 0 0 0 .402-.404v-6.763a.403.403 0 0 0-.402-.403z"></path>
      </g>
      <g>
        <path fill="#00635b" d="M23.694 24.96a1.946 1.946 0 0 1-1.944-1.944v-5.462c0-1.072.872-1.944 1.944-1.944h7.113c1.072 0 1.944.872 1.944 1.944v5.462a1.946 1.946 0 0 1-1.944 1.944zm-.773-1.944c0 .427.347.773.773.773h7.113a.774.774 0 0 0 .773-.773v-5.462a.774.774 0 0 0-.773-.773h-7.113a.774.774 0 0 0-.773.773z"></path>
      </g>
      <g>
        <path fill="#00635b" d="M.585 25.54h13.678a.585.585 0 1 0 0-1.17H.585a.585.585 0 1 0 0 1.17"></path>
      </g>
      <g>
        <path fill="#00635b" d="M6.435 18.52h13.678a.585.585 0 1 0 0-1.17H6.435a.585.585 0 1 0 0 1.17"></path>
      </g>
      <g>
        <path fill="#00635b" d="M6.435 32.57h13.678a.585.585 0 1 0 0-1.17H6.435a.585.585 0 1 0 0 1.17"></path>
      </g>
    </g>
  </g>
</svg>