<?xml version="1.0" encoding="utf-8"?>
<!-- Generator: Adobe Illustrator 21.1.0, SVG Export Plug-In . SVG Version: 6.00 Build 0)  -->
<svg version="1.1" id="Layer_1" xmlns="http://www.w3.org/2000/svg" xmlns:xlink="http://www.w3.org/1999/xlink" x="0px" y="0px"
   viewBox="0 0 130 26" style="enable-background:new 0 0 130 26;" xml:space="preserve">
<style type="text/css">
  .st0{fill:#00B67A;}
</style>
<g>
  <path class="st0" d="M0,25.2h24.4V0.8H0V25.2z M12.2,17.4l3.6-1l1.5,4.9L12.2,17.4z M10.1,11l2-6.3l2,6.3h6.4l-5.2,3.9l-3.2,2.4
    L7,21.2l2-6.3L3.9,11H10.1z"/>
  <path class="st0" d="M26.4,25.2h24.4V0.8H26.4V25.2z M38.6,17.4l3.6-1l1.5,4.9L38.6,17.4z M36.5,11l2-6.3l2,6.3h6.4l-5.4,3.9
    l-3.2,2.4l-5.1,3.9l2-6.3L30.1,11H36.5z"/>
  <path class="st0" d="M52.8,25.2h24.4V0.8H52.8V25.2z M65,17.4l3.6-1l1.5,4.9L65,17.4z M63,11l2-6.3l2,6.3h6.3L68,14.9l-3.2,2.4
    l-5.1,3.9l2-6.3L56.6,11H63z"/>
  <path class="st0" d="M79.2,25.2h24.4V0.8H79.2V25.2z M91.4,17.4l3.6-1l1.5,4.9L91.4,17.4z M89.3,11l2-6.3l2,6.3h6.4l-5.4,3.9
    l-3.2,2.4L86,21.2l2-6.3L82.9,11H89.3z"/>
  <path class="st0" d="M105.6,0.8v24.4H130V0.8H105.6z M117.8,17.4l3.6-1l1.5,4.9L117.8,17.4z M120.7,14.9l-3.2,2.4l-5.1,3.9l2-6.3
    l-5.1-3.9h6.4l2-6.3l2,6.3h6.4L120.7,14.9z"/>
</g>
</svg>
