<svg xmlns="http://www.w3.org/2000/svg" xmlns:xlink="http://www.w3.org/1999/xlink" version="1.1" style="enable-background:new 0 0 647 25;" xml:space="preserve" width="130" height="26"><rect id="backgroundrect" width="100%" height="100%" x="0" y="0" fill="none" stroke="none" class="" style=""/>
<style type="text/css">
  .st0{fill-rule:evenodd;clip-rule:evenodd;}
  .st1{fill-rule:evenodd;clip-rule:evenodd;fill:#FFFFFF;}
  .st2{fill-rule:evenodd;clip-rule:evenodd;fill:#00B67A;}
  .st3{fill-rule:evenodd;clip-rule:evenodd;fill:#005128;}
  .st4{fill:#7B7B7B;}
  .st5{ font-family: sans-serif;}
  .st6{font-size:16px;}
  .st7{fill:#9C9C9C;}
  .st8{    font-family: sans-serif;}
  .st9{fill:none;}
</style>





















<g class="currentLayer" style=""><title>Layer 1</title><text transform="matrix(1,0,0,1,414.7556,17) " class="st7 st8 st6" id="svg_16" y="0" x="1.5806461572647095"> </text><g id="svg_32" class="">
  <g id="svg_33">
    <path class="st2" d="M-4.440892098500626e-16,25.206451618671416 h24.4 V0.8064516186714181 H-4.440892098500626e-16 V25.206451618671416 z" id="svg_34"/>
    <path class="st2" d="M26.399999999999977,25.206451618671416 h24.4 V0.8064516186714181 H26.399999999999977 V25.206451618671416 z" id="svg_35"/>
    <path class="st2" d="M52.80000000000001,25.206451618671416 h24.4 V0.8064516186714181 H52.80000000000001 L52.80000000000001,25.206451618671416 z" id="svg_36"/>
    <path class="st2" d="M79.19999999999999,25.206451618671416 h24.4 V0.8064516186714181 H79.19999999999999 V25.206451618671416 z" id="svg_37"/>
    <path class="st2" d="M105.60000000000002,25.206451618671416 H130 V0.8064516186714181 h-24.4 V25.206451618671416 z" id="svg_38"/>
  </g>
  <path class="st1" d="M20.5,11.006451618671417 h-6.4 l-2,-6.3 l-2,6.3 H3.9000000000000057 l5.1,3.9 l-2,6.3 l5.1,-3.9 l3.2,-2.4 L20.5,11.006451618671417 zM12.199999999999989,17.40645161867142 l3.6,-1 l1.5,4.9 L12.199999999999989,17.40645161867142 z" id="svg_39"/>
  <path class="st1" d="M46.89999999999998,11.006451618671417 h-6.4 l-2,-6.3 l-2,6.3 h-6.4 l5.1,3.9 l-2,6.3 l5.1,-3.9 l3.2,-2.4 L46.89999999999998,11.006451618671417 zM38.60000000000002,17.40645161867142 l3.6,-1 l1.5,4.9 L38.60000000000002,17.40645161867142 z" id="svg_40"/>
  <path class="st1" d="M73.30000000000001,11.006451618671417 H67 l-2,-6.3 l-2,6.3 h-6.4 l5.1,3.9 l-2,6.3 l5.1,-3.9 l3.2,-2.4 L73.30000000000001,11.006451618671417 zM65,17.40645161867142 l3.6,-1 l1.5,4.9 L65,17.40645161867142 z" id="svg_41"/>
  <path class="st1" d="M99.69999999999999,11.006451618671417 h-6.4 l-2,-6.3 l-2,6.3 h-6.4 l5.1,3.9 l-2,6.3 l5.1,-3.9 l3.2,-2.4 L99.69999999999999,11.006451618671417 zM91.39999999999998,17.40645161867142 l3.6,-1 l1.5,4.9 L91.39999999999998,17.40645161867142 z" id="svg_42"/>
  <path class="st1" d="M126.10000000000002,11.006451618671417 h-6.4 l-2,-6.3 l-2,6.3 h-6.4 l5.1,3.9 l-2,6.3 l5.1,-3.9 l3.2,-2.4 L126.10000000000002,11.006451618671417 zM117.80000000000001,17.40645161867142 l3.6,-1 l1.5,4.9 L117.80000000000001,17.40645161867142 z" id="svg_43"/>
</g></g></svg>