<svg xmlns="http://www.w3.org/2000/svg" viewBox="0 0 41 32"><path d="M23.216 24.321c.2.5 0 1.1-.3 1.5-.2.3-.6.5-1 .6v.5c0 .2-.2.4-.4.4s-.4-.2-.4-.4v-.5c-.7-.2-1.2-.7-1.3-1.4 0-.2.1-.5.3-.5.2 0 .5.1.5.3 0 .3.2.5.5.7v-1.5c-.7-.1-1.2-.7-1.2-1.3-.1-.8.4-1.4 1.2-1.6v-.3c0-.2.2-.4.4-.4s.4.2.4.4v.3c.6.1 1 .6 1.1 1.2 0 .2-.2.4-.4.4-.2.1-.4-.1-.4-.3 0-.2-.1-.3-.3-.4v1.3c.6.1 1 .5 1.3 1zm-1.3 1.2c.1 0 .2-.1.3-.2.2-.2.2-.5.1-.7 0-.2-.2-.3-.4-.4v1.3zm-1.2-2.9c0 .2.2.4.3.5v-1.1c-.2.1-.3.4-.3.6z"/><path d="M40.6 30.1s-.1 0 0 0c-1.2 0-2.3-.3-3.2-1-1-.7-2.3-1.1-3.5-1.1-1.3 0-2.5.3-3.6 1.1-.9.7-2 1-3.2 1-.5 0-1.1-.1-1.6-.2l-.5-.2-.8-.4-.3-.2c1.9-.9 3.3-2.8 3.3-5.1 0-2.4-1.4-4.4-3.4-5.4l1.8-5.2.5.2c3.3 1 6.7 1.8 10.2 2.2h.1c.2 0 .4-.1.4-.3 1.9-5.6-.8-11.7-6.2-14l-.1-.1-.1-.1-.6-.2.2-.5c0-.3-.1-.5-.3-.6-.2-.1-.5 0-.6.3l-.1.5-.5-.1h-.4C22.3-.5 16.4 2.8 14.5 8.4c-.1.2 0 .4.2.5 3.1 1.6 6.3 3 9.6 4.1l.6.2-1.9 5.1c-.2-.1-.4-.1-.6-.1.1-.2.2-.4.2-.6v-1.4c0-.5-.4-.9-1-.9h-12c-.5 0-1 .4-1 .9V17.8h-.2c-.5 0-1 .4-1 .9v1.4c0 .5.4.9 1 .9h1V22.8h-.6c-.5 0-1 .4-1 .9V25c0 .5.4.9 1 .9H9V27.7h-.2c-.3 0-.6.2-.8.4-.3 0-.6-.1-.9-.1-1.3 0-2.5.3-3.6 1.1-.9.7-2 1-3.1 1-.2 0-.4.2-.4.5 0 .2.2.4.4.4 1.3 0 2.5-.3 3.6-1.1 1.9-1.3 4.4-1.3 6.3 0 1 .7 2.3 1.1 3.5 1.1 1.3 0 2.5-.3 3.5-1.1.9-.7 2-1 3.1-1s2.2.3 3.1 1c1 .7 2.3 1.1 3.5 1.1 1.3 0 2.5-.3 3.6-1.1 1.9-1.3 4.4-1.3 6.3 0 1 .7 2.3 1.1 3.5 1.1.2 0 .4-.2.5-.4s-.1-.5-.3-.5zM31.1 4l-.3-1.4 1.2.9c3.5 2.5 5.2 6.9 4.2 11.1v.2l-.3.2h-.3c-1.2-.2-2.6-.4-4.2-.8l-.6-.2.1-.6c.4-1.6.6-3.3.6-5 .1-1.5-.1-3-.4-4.4zm-10.9 6.5l-.5-.2c-1.2-.5-2.5-1.1-3.7-1.8l-.5-.2.2-.5c1.7-4 5.7-6.5 10-6.5h1.5l-1.1 1C23.7 4.4 21.8 7 20.5 10l-.3.5zm1.5.6l-.6-.2.2-.5c1.5-3.4 3.8-6.3 6.8-8.6l.2-.2.8.2.7.3.2.3c1 3.5 1.1 7.3.3 10.8l-.1.6-.6-.1c-1.3-.3-2.7-.7-4-1.1-1.2-.5-2.4-.9-3.9-1.5zM9.4 16.2c0-.1.1-.2.2-.2h12.1c.1 0 .2.1.2.2v1.4c0 .1-.1.2-.2.2h-1.2H9.6c-.1 0-.2-.1-.2-.2v-1.4zm-1 4c-.1 0-.2-.1-.2-.2v-1.4c0-.1.1-.2.2-.2h11c-.9.4-1.7 1-2.3 1.7H8.4zm8.1.8c-.3.5-.5 1.1-.7 1.7h-5.5c-.1 0-.2-.1-.2-.2v-1.4c0-.1.1-.2.2-.2h6.2zm-7.7 4.2c-.1 0-.2-.1-.2-.2v-1.4c0-.1.1-.2.2-.2h6.9v.4c0 .4.1.9.1 1.3H9.9 8.8zm7.2.8c.2.6.6 1.2 1 1.7H9.9c-.1 0-.2-.1-.2-.2v-1.4c.1-.1.1-.1.2-.1H16zm.9 3.1c-.9.6-2 1-3.1 1s-2.2-.3-3.2-1c-.4-.3-.9-.5-1.3-.7h8.5l.1.1c-.3.2-.6.4-1 .6zm3.6-1.1c-.6 0-1.1.1-1.6.2-1.5-.9-2.5-2.5-2.5-4.3 0-2.8 2.2-5.2 5-5.2 2.9 0 5.2 2.3 5.2 5.1 0 2.2-1.4 4.1-3.4 4.8-.8-.3-1.8-.6-2.7-.6z"/></svg>
