<svg xmlns="http://www.w3.org/2000/svg" width="61" height="47" viewBox="0 0 61 47">
  <g>
    <g>
      <g>
        <path fill="#00635b" d="M31.868 22.5c.778 0 1.411.623 1.411 1.39v1.999c0 .766-.633 1.389-1.411 1.389H14.122a1.403 1.403 0 0 1-1.412-1.39V23.89c0-.766.634-1.389 1.412-1.389zm.263 1.39a.262.262 0 0 0-.263-.26H14.122a.262.262 0 0 0-.264.26v1.999c0 .143.119.26.264.26h17.746a.262.262 0 0 0 .263-.26z"></path>
      </g>
      <g>
        <path fill="#00635b" d="M30.088 26.14c.778 0 1.411.623 1.411 1.39v1.999c0 .766-.633 1.389-1.411 1.389H12.342a1.403 1.403 0 0 1-1.412-1.39V27.53c0-.766.634-1.389 1.412-1.389zm.263 1.39a.262.262 0 0 0-.263-.26H12.342a.262.262 0 0 0-.264.26v1.999c0 .143.119.26.264.26h17.746a.262.262 0 0 0 .263-.26z"></path>
      </g>
      <g>
        <path fill="#00635b" d="M32.958 29.79c.778 0 1.411.623 1.411 1.389v2c0 .765-.633 1.388-1.411 1.388H15.212A1.403 1.403 0 0 1 13.8 33.18v-2c0-.766.634-1.389 1.412-1.389zm.263 1.389a.262.262 0 0 0-.263-.26H15.212a.262.262 0 0 0-.264.26v2c0 .143.119.259.264.259h17.746a.262.262 0 0 0 .263-.26z"></path>
      </g>
      <g>
        <path fill="#00635b" d="M30.658 33.44c.778 0 1.411.623 1.411 1.39v1.999c0 .766-.633 1.389-1.411 1.389H12.912a1.403 1.403 0 0 1-1.412-1.39V34.83c0-.766.634-1.389 1.412-1.389zm.263 1.39a.262.262 0 0 0-.263-.26H12.912a.262.262 0 0 0-.264.26v1.999c0 .143.119.26.264.26h17.746a.262.262 0 0 0 .263-.26z"></path>
      </g>
      <g>
        <path fill="#00635b" d="M32.388 37.09c.778 0 1.411.623 1.411 1.389v2c0 .765-.633 1.388-1.411 1.388H14.642a1.403 1.403 0 0 1-1.412-1.388v-2c0-.766.634-1.389 1.412-1.389zm.263 1.389a.262.262 0 0 0-.263-.26H14.642a.262.262 0 0 0-.264.26v2c0 .143.119.259.264.259h17.746a.262.262 0 0 0 .263-.26z"></path>
      </g>
      <g>
        <path fill="#00635b" d="M30.677 40.73c.778 0 1.412.623 1.412 1.39v1.999c0 .766-.634 1.389-1.412 1.389H12.932a1.402 1.402 0 0 1-1.412-1.39V42.12c0-.766.633-1.389 1.412-1.389zm.264 1.39a.262.262 0 0 0-.264-.26H12.932a.262.262 0 0 0-.264.26v1.999c0 .143.119.26.264.26h17.745a.262.262 0 0 0 .264-.26z"></path>
      </g>
      <g>
        <path fill="#e0f0e9" d="M31.678 27.84c-4.129 0-7.488 3.304-7.488 7.365s3.36 7.365 7.488 7.365 7.487-3.304 7.487-7.365c0-4.06-3.359-7.365-7.487-7.365"></path>
      </g>
      <g>
        <path fill="#00635b" d="M31.676 26.71c4.762 0 8.636 3.81 8.636 8.495 0 4.684-3.874 8.494-8.636 8.494-4.762 0-8.636-3.81-8.636-8.494 0-4.684 3.874-8.495 8.636-8.495m-.005 15.86c4.126 0 7.483-3.304 7.483-7.365s-3.357-7.366-7.483-7.366c-4.126 0-7.483 3.305-7.483 7.366 0 4.06 3.357 7.365 7.483 7.365"></path>
      </g>
      <g>
        <path fill="#00635b" d="M34.096 35.76c.278.766.12 1.617-.408 2.23-.337.456-.85.78-1.423.899v.808a.614.614 0 0 1-.618.608.614.614 0 0 1-.618-.608v-.842a2.559 2.559 0 0 1-1.895-2.02.61.61 0 0 1 .473-.715.612.612 0 0 1 .465.08.606.606 0 0 1 .271.382c.064.425.322.78.686.975v-2.111a2.248 2.248 0 0 1-1.748-2.035c0-1.203.649-2.026 1.748-2.245v-.468c0-.335.278-.608.618-.608.341 0 .618.273.618.608v.469a2.05 2.05 0 0 1 1.623 1.76.614.614 0 0 1-.552.666.615.615 0 0 1-.678-.542.804.804 0 0 0-.393-.59v1.963c.682.156 1.492.515 1.83 1.336zm-1.83 1.854c.173-.082.323-.207.437-.366l.011-.014c.247-.286.329-.673.22-1.034a1.257 1.257 0 0 0-.669-.526zm-1.748-4.226a.985.985 0 0 0 .51.766v-1.72c-.344.151-.508.46-.51.954z"></path>
      </g>
      <g>
        <path fill="#00635b" d="M33.668 27.515l2.862-8.094-.818-.276a94.143 94.143 0 0 1-14.044-6.053.635.635 0 0 1-.305-.761C24.113 4.096 32.69-.776 41.317 1.001l.163.035.165-.029a.683.683 0 0 1 .227 0l.734.129.234-.697a.655.655 0 0 1 .824-.406.64.64 0 0 1 .413.81l-.27.802.813.268a.66.66 0 0 1 .202.108l.182.111c7.994 3.6 11.96 12.513 9.229 20.733a.647.647 0 0 1-.617.441h-.152A94.679 94.679 0 0 1 38.547 20l-.797-.246-2.906 8.214zm-3.536-12.852a32.72 32.72 0 0 1 8.252-11.335l1.652-1.472-2.23-.003h-.017c-6.414 0-12.181 3.75-14.696 9.555l-.315.725.714.36c1.87.943 3.719 1.82 5.496 2.606l.797.353zm14.302 4.744c.539-2.305.82-4.673.838-7.04.013-3.007-.4-6.002-1.226-8.899l-.116-.409-1.068-.405-1.18-.315-.337.256a32.13 32.13 0 0 0-9.952 12.584l-.353.8.824.324c2.184.856 3.99 1.512 5.684 2.068a85.99 85.99 0 0 0 5.833 1.667l.855.215zm8.903 1.814c1.44-6.161-.993-12.54-6.2-16.248l-1.774-1.264.425 2.114c.436 2.174.654 4.398.648 6.609a33.305 33.305 0 0 1-.885 7.338l-.195.833.85.185c2.346.51 4.286.872 6.102 1.14l.43.064.543-.534z"></path>
      </g>
      <g>
        <path fill="#e0f0e9" d="M.648 44.837a8.85 8.85 0 0 0 5.219-1.557c2.76-1.884 6.465-1.885 9.223-.002a8.813 8.813 0 0 0 5.185 1.559h.043c1.86.05 3.667-.501 5.198-1.557a7.662 7.662 0 0 1 4.626-1.417 7.643 7.643 0 0 1 4.613 1.427 8.782 8.782 0 0 0 5.175 1.547 8.796 8.796 0 0 0 5.22-1.557 8.179 8.179 0 0 1 4.614-1.413c1.616 0 3.23.47 4.61 1.411 1.534 1.059 3.328 1.613 5.204 1.559.376 0-.48 2.27-.48 2.27H1.146s-.857-2.27-.498-2.27"></path>
      </g>
      <g></g>
      <g>
        <path fill="#00635b" d="M35.617 43.102l-.914-.56a8.345 8.345 0 0 0-4.564-1.24 8.774 8.774 0 0 0-5.234 1.557 7.7 7.7 0 0 1-4.603 1.417 7.695 7.695 0 0 1-4.652-1.427c-1.514-1.043-3.307-1.573-5.174-1.547a8.825 8.825 0 0 0-5.22 1.556c-1.323.953-2.97 1.451-4.627 1.418a.642.642 0 0 0-.629.64c0 .353.292.64.65.64a8.855 8.855 0 0 0 5.22-1.557c2.76-1.884 6.465-1.884 9.222-.002a8.819 8.819 0 0 0 5.185 1.558h.044c1.86.05 3.667-.5 5.198-1.556a7.657 7.657 0 0 1 4.626-1.417 7.64 7.64 0 0 1 4.613 1.426 8.78 8.78 0 0 0 5.175 1.547A8.795 8.795 0 0 0 45.153 44a8.18 8.18 0 0 1 4.614-1.413c1.615 0 3.23.47 4.609 1.41 1.535 1.06 3.329 1.614 5.204 1.56a.65.65 0 0 0 .668-.64.646.646 0 0 0-.65-.64 7.664 7.664 0 0 1-4.62-1.427 8.8 8.8 0 0 0-5.173-1.547c-1.892-.025-3.692.504-5.22 1.557a7.627 7.627 0 0 1-4.66 1.416 7.796 7.796 0 0 1-2.323-.316l-.864-.254"></path>
      </g>
    </g>
  </g>
</svg>