<?xml version="1.0" encoding="utf-8"?>
<!-- Generator: Adobe Illustrator 25.2.3, SVG Export Plug-In . SVG Version: 6.00 Build 0)  -->
<svg version="1.1" id="icon_USP3" xmlns="http://www.w3.org/2000/svg" xmlns:xlink="http://www.w3.org/1999/xlink" x="0px" y="0px"
	 viewBox="0 0 41 32" style="enable-background:new 0 0 41 32;" xml:space="preserve">
<g id="Group_6343_1_" transform="translate(19.816 20.421)">
	<path id="Path_6777_1_" d="M3.4,3.9C3.6,4.4,3.4,5,3.1,5.4C2.9,5.7,2.5,5.9,2.1,6v0.5c0,0.2-0.2,0.4-0.4,0.4
		c-0.2,0-0.4-0.2-0.4-0.4V6C0.6,5.8,0.1,5.3,0,4.6c0-0.2,0.1-0.5,0.3-0.5c0.2,0,0.5,0.1,0.5,0.3c0,0.3,0.2,0.5,0.5,0.7V3.6
		C0.6,3.5,0.1,2.9,0.1,2.3C0,1.5,0.5,0.9,1.3,0.7V0.4C1.3,0.2,1.5,0,1.7,0c0.2,0,0.4,0.2,0.4,0.4v0.3c0.6,0.1,1,0.6,1.1,1.2
		c0,0.2-0.2,0.4-0.4,0.4C2.6,2.4,2.4,2.2,2.4,2c0-0.2-0.1-0.3-0.3-0.4v1.3C2.7,3,3.1,3.4,3.4,3.9L3.4,3.9z M2.1,5.1
		C2.2,5.1,2.3,5,2.4,4.9l0,0c0.2-0.2,0.2-0.5,0.1-0.7C2.5,4,2.3,3.9,2.1,3.8L2.1,5.1z M0.9,2.2c0,0.2,0.2,0.4,0.3,0.5V1.6
		C1,1.7,0.9,2,0.9,2.2z"/>
</g>
<path d="M40.6,30.1C40.6,30.1,40.5,30.1,40.6,30.1c-1.2,0-2.3-0.3-3.2-1c-1-0.7-2.3-1.1-3.5-1.1c-1.3,0-2.5,0.3-3.6,1.1
	c-0.9,0.7-2,1-3.2,1c-0.5,0-1.1-0.1-1.6-0.2L25,29.7l-0.8-0.4l-0.3-0.2c1.9-0.9,3.3-2.8,3.3-5.1c0-2.4-1.4-4.4-3.4-5.4l1.8-5.2
	l0.5,0.2c3.3,1,6.7,1.8,10.2,2.2h0.1c0.2,0,0.4-0.1,0.4-0.3C38.7,9.9,36,3.8,30.6,1.5l-0.1-0.1c0,0-0.1-0.1-0.1-0.1l-0.6-0.2L30,0.6
	c0,0,0,0,0,0C30,0.3,29.9,0.1,29.7,0c-0.2-0.1-0.5,0-0.6,0.3L29,0.8l-0.5-0.1c-0.1,0-0.1,0-0.2,0l-0.1,0l-0.1,0
	c-5.8-1.2-11.7,2.1-13.6,7.7c-0.1,0.2,0,0.4,0.2,0.5c3.1,1.6,6.3,3,9.6,4.1l0.6,0.2L23,18.3c-0.2-0.1-0.4-0.1-0.6-0.1
	c0.1-0.2,0.2-0.4,0.2-0.6v-1.4c0-0.5-0.4-0.9-1-0.9H9.6c-0.5,0-1,0.4-1,0.9v1.4c0,0.1,0,0.1,0,0.2H8.4c-0.5,0-1,0.4-1,0.9v1.4
	c0,0.5,0.4,0.9,1,0.9h1c0,0.1,0,0.1,0,0.2v1.4c0,0.1,0,0.1,0,0.2H8.8c-0.5,0-1,0.4-1,0.9V25c0,0.5,0.4,0.9,1,0.9H9
	c0,0.1,0,0.1,0,0.2v1.4c0,0.1,0,0.1,0,0.2H8.8c-0.3,0-0.6,0.2-0.8,0.4c-0.3,0-0.6-0.1-0.9-0.1c-1.3,0-2.5,0.3-3.6,1.1
	c-0.9,0.7-2,1-3.1,1c-0.2,0-0.4,0.2-0.4,0.5c0,0.2,0.2,0.4,0.4,0.4c1.3,0,2.5-0.3,3.6-1.1c1.9-1.3,4.4-1.3,6.3,0
	c1,0.7,2.3,1.1,3.5,1.1h0c1.3,0,2.5-0.3,3.5-1.1c0.9-0.7,2-1,3.1-1c1.1,0,2.2,0.3,3.1,1c1,0.7,2.3,1.1,3.5,1.1
	c1.3,0,2.5-0.3,3.6-1.1c1.9-1.3,4.4-1.3,6.3,0c1,0.7,2.3,1.1,3.5,1.1c0.2,0,0.4-0.2,0.5-0.4S40.8,30.1,40.6,30.1z M31.1,4l-0.3-1.4
	l1.2,0.9c3.5,2.5,5.2,6.9,4.2,11.1l0,0.2L35.9,15l-0.3,0c-1.2-0.2-2.6-0.4-4.2-0.8L30.8,14l0.1-0.6c0.4-1.6,0.6-3.3,0.6-5
	C31.6,6.9,31.4,5.4,31.1,4z M20.2,10.5l-0.5-0.2c-1.2-0.5-2.5-1.1-3.7-1.8l-0.5-0.2l0.2-0.5c1.7-4,5.7-6.5,10-6.5h0h1.5l-1.1,1
	C23.7,4.4,21.8,7,20.5,10L20.2,10.5z M21.7,11.1l-0.6-0.2l0.2-0.5c1.5-3.4,3.8-6.3,6.8-8.6l0.2-0.2l0.8,0.2l0.7,0.3L30,2.4
	c1,3.5,1.1,7.3,0.3,10.8l-0.1,0.6l-0.6-0.1c-1.3-0.3-2.7-0.7-4-1.1C24.4,12.1,23.2,11.7,21.7,11.1z M9.4,16.2
	C9.4,16.2,9.4,16.2,9.4,16.2c0-0.1,0.1-0.2,0.2-0.2h12.1c0.1,0,0.2,0.1,0.2,0.2v1.4c0,0.1-0.1,0.2-0.2,0.2h-1.2c0,0,0,0-0.1,0H9.6
	c-0.1,0-0.2-0.1-0.2-0.2V16.2z M8.4,20.2c-0.1,0-0.2-0.1-0.2-0.2v-1.4c0,0,0,0,0,0c0-0.1,0.1-0.2,0.2-0.2h1.2c0,0,0,0,0,0h9.8
	c-0.9,0.4-1.7,1-2.3,1.7l-6.7,0c0,0,0,0,0,0H8.4z M16.5,21c-0.3,0.5-0.5,1.1-0.7,1.7h-5.5c-0.1,0-0.2-0.1-0.2-0.2v-1.4c0,0,0,0,0,0
	c0-0.1,0.1-0.2,0.2-0.2H16.5z M8.8,25.2c-0.1,0-0.2-0.1-0.2-0.2v-1.4c0,0,0,0,0,0c0-0.1,0.1-0.2,0.2-0.2h1.5c0,0,0,0,0,0h5.4
	c0,0.1,0,0.3,0,0.4c0,0.4,0.1,0.9,0.1,1.3H9.9c0,0,0,0-0.1,0H8.8z M16,26c0.2,0.6,0.6,1.2,1,1.7H9.9c-0.1,0-0.2-0.1-0.2-0.2v-1.4
	c0,0,0,0,0,0C9.8,26,9.8,26,9.9,26H16z M16.9,29.1c-0.9,0.6-2,1-3.1,1c-1.1,0-2.2-0.3-3.2-1c-0.4-0.3-0.9-0.5-1.3-0.7h0.6
	c0,0,0,0,0,0h7.9c0,0,0.1,0.1,0.1,0.1C17.6,28.7,17.3,28.9,16.9,29.1z M20.5,28c-0.6,0-1.1,0.1-1.6,0.2c-1.5-0.9-2.5-2.5-2.5-4.3
	c0-2.8,2.2-5.2,5-5.2h0c2.9,0,5.2,2.3,5.2,5.1c0,2.2-1.4,4.1-3.4,4.8C22.4,28.3,21.4,28,20.5,28z"/>
</svg>
