<svg xmlns="http://www.w3.org/2000/svg" width="30" height="30">
  <defs>
    <style>
      .a{fill:#f4436c}
    </style>
  </defs>
  <path class="a" d="M8.527 15a1.421 1.421 0 00-1.421-1.421H1.421a1.421 1.421 0 100 2.842h5.685A1.421 1.421 0 008.527 15zM28.579 13.579h-2.842a1.421 1.421 0 100 2.842h2.842a1.421 1.421 0 000-2.842zM15.714 8.527a1.421 1.421 0 001.421-1.421V1.421a1.421 1.421 0 00-2.842 0v5.685a1.421 1.421 0 001.421 1.421zM15.715 21.473a1.421 1.421 0 00-1.421 1.421v5.685a1.421 1.421 0 002.842 0v-5.685a1.421 1.421 0 00-1.421-1.421zM6.589 4.579a1.421 1.421 0 00-2.01 2.01l4.02 4.02a1.421 1.421 0 102.01-2.01zM22.823 19.391a1.421 1.421 0 10-2.01 2.01l4.02 4.02a1.421 1.421 0 102.01-2.01zM8.598 19.392l-4.02 4.02a1.421 1.421 0 002.01 2.01l4.02-4.02a1.421 1.421 0 10-2.01-2.01z"/>
</svg>