<svg id="Layer_1" data-name="Layer 1" xmlns="http://www.w3.org/2000/svg" viewBox="0 0 26.5 33.54"><path d="M13,26.05l-.2,0a1.08,1.08,0,0,1-1.06-.88.75.75,0,1,0-1.47.28,2.57,2.57,0,0,0,2.53,2.1,2.61,2.61,0,0,0,.48-.05.74.74,0,0,0,.6-.87.75.75,0,0,0-.88-.6Z" transform="translate(0 0)"/><path d="M17.52,25.11h-.75a3.52,3.52,0,1,1-7,0,4.73,4.73,0,0,1,.46-1.67,38.88,38.88,0,0,1,3.48-6h0l-.43-.29v.52a.52.52,0,0,0,.43-.23l-.43-.29v0l-.29.43a.5.5,0,0,0,.29.09v-.52l-.29.43.42-.62-.53.53.06.06.53-.53-.61.42c.4.59,1.41,2.08,2.31,3.66a22.87,22.87,0,0,1,1.17,2.31,5.22,5.22,0,0,1,.46,1.67h1.5a6.3,6.3,0,0,0-.58-2.24,39.47,39.47,0,0,0-3.63-6.25l0-.06-.11-.1-.05-.05,0,0a1,1,0,0,0-1.37.25h0c-.42.61-1.45,2.13-2.38,3.77a23.05,23.05,0,0,0-1.25,2.48,6.07,6.07,0,0,0-.57,2.24,5,5,0,1,0,10,0Z" transform="translate(0 0)"/><path d="M25.75,6.31H25v21h0A4.79,4.79,0,0,1,20.21,32H6.29A4.79,4.79,0,0,1,1.5,27.27h0V12.73l.61-.61h0L8.54,5.73h0l4.23-4.19h7.44A4.79,4.79,0,0,1,25,6.31h1.5A6.28,6.28,0,0,0,20.21,0H12.15L7.49,4.67h0L1.05,11.06h0l-1,1V27.27H0a6.28,6.28,0,0,0,6.29,6.26H20.21a6.29,6.29,0,0,0,6.29-6.26h0V6.3h-.75Z" transform="translate(0 0)"/><path d="M21.58,7.76h-.75v3.56A1.79,1.79,0,0,1,19,13.1H10.92a1.79,1.79,0,0,1-1.79-1.78V11.1H8.38l.53.53L14.57,6H19a1.79,1.79,0,0,1,1.79,1.78h1.5A3.28,3.28,0,0,0,19,4.48H14L7.63,10.79v.53a3.28,3.28,0,0,0,3.29,3.28H19a3.28,3.28,0,0,0,3.29-3.28V7.76h-.75Z" transform="translate(0 0)"/><polygon points="2.17 6.5 2.7 7.03 6.87 2.85 7.83 3.81 4.18 7.45 2.7 5.97 2.17 6.5 2.7 7.03 2.17 6.5 1.64 7.03 4.18 9.57 9.95 3.81 6.87 0.73 1.1 6.5 1.64 7.03 2.17 6.5"/><polygon points="1.44 4.2 1.97 4.73 4.58 2.12 5.03 2.57 2.95 4.65 1.97 3.67 1.44 4.2 1.97 4.73 1.44 4.2 0.91 4.73 2.95 6.77 7.15 2.57 4.58 0 0.38 4.2 0.91 4.73 1.44 4.2"/></svg>
