<svg xmlns="http://www.w3.org/2000/svg" width="54" height="53.367"><defs><style>.a{fill:#212121}</style></defs><path class="a" d="M36 34.126a2.1 2.1 0 112.406-2.082 1.094 1.094 0 002.187 0 4.351 4.351 0 00-3.5-4.146v-.569a1.094 1.094 0 00-2.187 0v.569a4.351 4.351 0 00-3.5 4.146 4.445 4.445 0 004.593 4.269 2.1 2.1 0 11-2.406 2.082 1.094 1.094 0 00-2.187 0 4.351 4.351 0 003.5 4.146v.472a1.094 1.094 0 102.187 0v-.472a4.351 4.351 0 003.5-4.146A4.445 4.445 0 0036 34.126zM47.382 27.742a14.248 14.248 0 00-5.82-5.151 1.094 1.094 0 10-.948 1.971 12.04 12.04 0 015.422 16.49 1.094 1.094 0 101.931 1.027 14.232 14.232 0 00-.585-14.338zM37.708 21.693h-.074a1.094 1.094 0 000 2.187h.069a1.094 1.094 0 00.005-2.187zM31.2 45.625a12.04 12.04 0 01-5.422-16.49 1.094 1.094 0 00-1.931-1.027 14.223 14.223 0 006.406 19.489 1.094 1.094 0 10.948-1.971zM34.478 46.807h-.063a1.094 1.094 0 00-.01 2.187h.073a1.094 1.094 0 000-2.187z"/><path class="a" d="M40.859 18.158a4.841 4.841 0 00-.469-.861h2.746a4.852 4.852 0 100-9.7h-8.445a4.848 4.848 0 00-4-7.594H4.852a4.852 4.852 0 000 9.7H13.3a4.838 4.838 0 000 5.484h-2.753a4.849 4.849 0 00-3.015 8.648 4.843 4.843 0 000 7.594 4.843 4.843 0 000 7.594 4.849 4.849 0 003.015 8.648h12.429a17.926 17.926 0 1017.883-29.513zM43.137 9.7a2.742 2.742 0 110 5.484H17.3a2.742 2.742 0 010-5.484zM4.852 7.594a2.742 2.742 0 110-5.484h25.84a2.742 2.742 0 010 5.484zm5.7 9.7h25.84a2.741 2.741 0 011.2.275c-.5-.042-1-.064-1.513-.064a17.874 17.874 0 00-12.688 5.273H10.547a2.742 2.742 0 010-5.484zm0 7.594H21.58a17.879 17.879 0 00-2.711 5.484h-8.322a2.742 2.742 0 110-5.484zm0 7.594h7.838a17.944 17.944 0 00-.065 5.484h-7.778a2.742 2.742 0 110-5.484zm0 13.078a2.742 2.742 0 110-5.484h8.2a17.859 17.859 0 002.531 5.484zm25.523 5.7a15.82 15.82 0 1115.82-15.82A15.838 15.838 0 0136.07 51.258z"/></svg>