<svg data-name="icon/naturalDHA" xmlns="http://www.w3.org/2000/svg" width="30" height="32"><path d="M27.231 14.907a2.766 2.766 0 002.607-1.772 2.622 2.622 0 00-.843-2.971 3.231 3.231 0 00-.334-2.525c-1.166-1.84-4.34-2.143-8.767-.864C18.708 2.459 16.782 0 14.551 0s-4.154 2.452-5.339 6.759a21.74 21.74 0 00-2.4-.53 2.762 2.762 0 00-3-2.088A2.714 2.714 0 001.331 6.8v.122a2.893 2.893 0 00-.73.783c-1.2 1.909.084 4.881 3.515 8.217a17.588 17.588 0 00-3.367 4.223c-1.118 2.129-.782 3.468-.308 4.216.69 1.093 2.09 1.639 4.04 1.639a17.427 17.427 0 004.727-.779q.251.914.551 1.725a2.614 2.614 0 00-.464 3.418 2.821 2.821 0 003.4 1.026 3.253 3.253 0 001.853.6c2.251 0 4.186-2.49 5.368-6.867a17.883 17.883 0 004.914.825c1.972 0 3.384-.559 4.079-1.666.853-1.361.286-3.044-.335-4.212a17.586 17.586 0 00-3.389-4.206q.578-.569 1.081-1.133a2.845 2.845 0 00.965.176zM4.104 5.638A1.163 1.163 0 112.902 6.8a1.182 1.182 0 011.202-1.162zM1.777 23.567c-.781-1.231.61-3.84 3.477-6.6a36.547 36.547 0 002.954 2.324 34.145 34.145 0 00.64 4.455c-3.59 1.05-6.33.992-7.074-.178zm6.319-6.26q-.895-.681-1.7-1.38.8-.7 1.7-1.375a40.749 40.749 0 00-.004 2.758zm.122-4.74a37.44 37.44 0 00-2.96 2.314c-2.74-2.667-4.062-5.192-3.312-6.391v-.007a2.818 2.818 0 002.595.962 2.749 2.749 0 002.151-1.7 20.508 20.508 0 012.156.489 34.077 34.077 0 00-.633 4.337zm10.957-1.282c-.35-.218-.7-.434-1.061-.643a48.975 48.975 0 00-1.731-.963q1.2-.531 2.372-.945.255 1.224.419 2.553zm-4.624-9.773c1.418 0 2.9 2.228 3.852 5.736a36.791 36.791 0 00-3.772 1.559 36.453 36.453 0 00-3.928-1.592c.951-3.485 2.43-5.7 3.844-5.7zM10.352 8.7q1.244.425 2.54.988a44.576 44.576 0 00-2.984 1.746c.113-.946.262-1.859.444-2.731zm-.458 11.726q.744.475 1.511.926t1.542.863c-.88.4-1.749.744-2.6 1.045-.192-.9-.344-1.847-.457-2.831zm1.737 9.66a1.163 1.163 0 111.2-1.162 1.182 1.182 0 01-1.2 1.162zm2.922.4a1.485 1.485 0 01-.584-.127 2.6 2.6 0 00.09-2.726 2.784 2.784 0 00-2.428-1.39 2.876 2.876 0 00-.454.036q-.258-.72-.476-1.532a37.026 37.026 0 003.975-1.66 37.372 37.372 0 003.755 1.561c-.953 3.57-2.446 5.838-3.881 5.838zm4.226-7.323q-1.169-.417-2.38-.954.771-.417 1.537-.87.638-.378 1.259-.775-.165 1.354-.419 2.6zm.6-4.551a42.758 42.758 0 01-4.703 2.781 42.687 42.687 0 01-4.956-2.915 39.671 39.671 0 01.008-5.091 42.84 42.84 0 014.912-2.885c.895.443 1.788.925 2.663 1.439.7.412 1.392.844 2.06 1.287.064.909.1 1.839.1 2.773a43.846 43.846 0 01-.091 2.613zm8.2 4.9c-.461.735-1.644.912-2.555.931a16.213 16.213 0 01-4.743-.785 34.309 34.309 0 00.609-4.224 36.988 36.988 0 003.176-2.5c2.879 2.749 4.284 5.35 3.509 6.586zm-6.58-9.131q1.012.748 1.913 1.519-.894.786-1.907 1.554.025-.719.026-1.444c0-.556-.016-1.1-.036-1.637zm3.464-2.142a2.607 2.607 0 00.552 1.6q-.451.5-.968 1.007a37.279 37.279 0 00-3.179-2.446 33.876 33.876 0 00-.615-4.146c3.589-1.048 6.33-.99 7.071.179a1.659 1.659 0 01.191 1.133q-.143-.014-.286-.014a2.729 2.729 0 00-2.77 2.675zm2.77-1.162a1.163 1.163 0 11-1.2 1.162 1.182 1.182 0 011.2-1.162z"/></svg>
