<svg xmlns="http://www.w3.org/2000/svg" viewBox="0 0 21.203 32.1"><path d="M7.225 20.193a2.188 2.188 0 01-2.186-2.185.667.667 0 10-1.334 0 3.523 3.523 0 003.519 3.519.667.667 0 000-1.334zM9.175 5.683a.591.591 0 00-.524-.381.6.6 0 00-.519.393.969.969 0 00.005.774l.889 1.94a.591.591 0 00.524.381.6.6 0 00.519-.393.969.969 0 00-.01-.779z"/><path d="M19.737 22.745a4.06 4.06 0 00-1.5-.987c1.161-1.365.791-3.643.744-3.9a.726.726 0 00-.557-.592 5.346 5.346 0 00-2.595.14 10.862 10.862 0 00.081-1.32c0-2.09-1.249-5.383-3.713-9.79C10.397 3.067 8.568.385 8.55.358a.679.679 0 00-1.138 0c-.018.027-1.847 2.709-3.65 5.934-2.463 4.407-3.712 7.7-3.712 9.79 0 4.21 2.412 7.773 5.7 8.9a12.754 12.754 0 00-.5 6.284.8.8 0 00.026.1l.006.018a.786.786 0 00.039.093h0a.739.739 0 00.047.08l.013.019a.749.749 0 00.06.074h0a.716.716 0 00.069.064l.018.014a.678.678 0 00.075.05h0a.723.723 0 00.088.041l.017.006a.689.689 0 00.093.027 11.8 11.8 0 002.185.198 7.3 7.3 0 005.364-1.9 6.118 6.118 0 001.352-2.444q.083.1.174.2a5.335 5.335 0 003.92 1.4 8.437 8.437 0 001.566-.139h0a.62.62 0 00.093-.027l.017-.006a.637.637 0 00.087-.041h0a.68.68 0 00.075-.051l.018-.013a.729.729 0 00.069-.064h0a.74.74 0 00.06-.074l.013-.019a.781.781 0 00.047-.08h0a.8.8 0 00.039-.093l.006-.018a.785.785 0 00.026-.1c.038-.166.68-3.864-1.175-5.836zM7.473 24.728l.069-.086A4.457 4.457 0 0111 22.915c.04 0 .081-.012.121-.016l-.02.012a6.433 6.433 0 011.461.118l-6.088 6.47a5.906 5.906 0 01.999-4.771zm5.263 3.882c-.041.06-.082.119-.126.177-.014.019-.026.038-.04.055l-.069.086a3.112 3.112 0 01-.939.806l-.01.006q-.123.074-.265.146l-.055.028a5.606 5.606 0 01-.266.123l-.034.013a7.424 7.424 0 01-3.053.5c-.137 0-.271 0-.4-.011h0l6.089-6.47a5.983 5.983 0 01-.832 4.54zm.034-7.251c-1.68-.075-4.277.143-5.918 1.885a5.165 5.165 0 00-.349.414c-2.889-.8-5.047-3.895-5.047-7.578 0-1.248.609-3.826 3.51-9.017A88.582 88.582 0 017.98 2.092a88.704 88.704 0 013.016 4.971c2.9 5.191 3.51 7.769 3.51 9.017a8.624 8.624 0 01-1.733 5.279zm2.88-2.155a2.656 2.656 0 012.01-.536 3.1 3.1 0 01-.5 2.136 2.659 2.659 0 01-2.01.536 3.1 3.1 0 01.5-2.136zm.222 7.647h0a3.352 3.352 0 01-.756-1.6c.024-.418.027-.817.018-1.181l3.516 3.741a3.961 3.961 0 01-2.778-.96zm.093-4.008c.078 0 .157 0 .238.008a3.008 3.008 0 012.538.95 3.435 3.435 0 01.894 2.7c0 .086.006.17.008.253z" stroke="#151515" stroke-width=".1"/></svg>
