<svg data-name="icon/peta" xmlns="http://www.w3.org/2000/svg" width="28" height="32"><path data-name="Path 265" d="M3.822.163A3.743 3.743 0 015.496.056a8.514 8.514 0 014.033 2.01 14.019 14.019 0 013.184 4.382 29.456 29.456 0 011.409 3.44 21.991 21.991 0 012.674-5.781 13.9 13.9 0 012.013-2.236A8.1 8.1 0 0121.416.264a4.581 4.581 0 013.157.035 6.5 6.5 0 012.135 1.4 3.952 3.952 0 01.907 1.108 4.849 4.849 0 01.361 2.507 11.7 11.7 0 01-.613 2.806 8.492 8.492 0 01-1.327 2.465 26.728 26.728 0 01-2.251 2.363 299.414 299.414 0 01-4.443 4.132 237.27 237.27 0 01-4.636 4.1 5.571 5.571 0 011.757.378 4.107 4.107 0 011.671 1.4 10.908 10.908 0 001.736 2.225 3.591 3.591 0 011.155 1.113 2.942 2.942 0 01.19 1.578 9.3 9.3 0 011.985.6 2.081 2.081 0 01.963.706.946.946 0 01-.019.452 2.964 2.964 0 00-1.623-.959 9.909 9.909 0 00-1.407-.322 4.2 4.2 0 01-.265.741 10.379 10.379 0 011.7.809 2.23 2.23 0 01.906.858.712.712 0 01-.01.474 2.39 2.39 0 00-.988-.931 10.7 10.7 0 00-1.812-.79 6.583 6.583 0 01-1.355 1.834 2.808 2.808 0 01-2.07.621 4.36 4.36 0 01-2.323-1.028c-.285-.239-.575-.471-.84-.732a4.981 4.981 0 01-2.089 1.61 2.921 2.921 0 01-2.273-.083 5.1 5.1 0 01-2.145-2.158 11.748 11.748 0 00-1.431.656 2.5 2.5 0 00-1.117 1c-.008-.163-.084-.34 0-.494a2.06 2.06 0 01.718-.742 8.822 8.822 0 011.632-.806 6.057 6.057 0 01-.264-.7 12.817 12.817 0 00-1.33.408 2.26 2.26 0 00-1.185.807 1.262 1.262 0 01-.028-.447 1.69 1.69 0 01.64-.576 7.562 7.562 0 011.8-.625 2.661 2.661 0 01.185-1.73 4.923 4.923 0 011.114-1.219 13.73 13.73 0 001.652-1.979 5.894 5.894 0 011.917-1.676 2.759 2.759 0 011.4-.265q-2.267-1.946-4.482-3.952a187.376 187.376 0 01-4.931-4.624A14.782 14.782 0 01.954 8.861a8.739 8.739 0 01-.915-3.286 5.235 5.235 0 01.308-2.653 3.224 3.224 0 01.692-.96A6.656 6.656 0 013.82.162zm16.83 1.362a11.456 11.456 0 00-4 3.794 27.12 27.12 0 00-2.744 6.078 2.548 2.548 0 01-.007-.889c.023-.081.081-.164.036-.248a23.64 23.64 0 00-2.12-4.572 10.99 10.99 0 00-3.846-3.85 6.1 6.1 0 00-3.2-.951 5.154 5.154 0 00-3.222 1.414A4.181 4.181 0 00.305 3.819a4.353 4.353 0 00.078 2.664 10.689 10.689 0 00.865 2.081 15.286 15.286 0 002.808 3.479c.881.849 1.8 1.655 2.7 2.492q3.543 3.285 7.213 6.432 2.464-2.088 4.856-4.256c1.448-1.3 2.861-2.642 4.3-3.95a18.027 18.027 0 003.483-3.988 10.756 10.756 0 001.107-2.765 3.291 3.291 0 00-.164-2.511 6.482 6.482 0 00-1.61-1.622A4.968 4.968 0 0022.56.852a4.663 4.663 0 00-1.908.674zm-7.1 20.493a4.542 4.542 0 00-2.22.573c-1.12.793-1.74 2.053-2.694 3.006a7.977 7.977 0 00-1.226 1.221 1.554 1.554 0 00-.2 1.185 11.886 11.886 0 013.028-.21 3.99 3.99 0 01-.007.463 11.106 11.106 0 00-2.854.177 2.616 2.616 0 00.33.623 11.649 11.649 0 012.659-.564 2 2 0 01.012.466 12.016 12.016 0 00-2.4.465 5.272 5.272 0 001.944 1.658 2.313 2.313 0 001.59.081 4.994 4.994 0 002.35-1.567 2.582 2.582 0 01-.239-1.073 2.972 2.972 0 01-.65-.493.49.49 0 01-.158-.367.356.356 0 01.435-.294 1.973 1.973 0 01.851.514 2.084 2.084 0 01.925-.593c.27-.035.408.3.283.507a2.145 2.145 0 01-.78.711 2.355 2.355 0 01-.226 1.075 5.819 5.819 0 002.2 1.467 2.78 2.78 0 002.151-.127 4.231 4.231 0 001.572-1.547 12.348 12.348 0 00-2.154-.408 1.941 1.941 0 01.008-.464 12.475 12.475 0 012.4.459c.137-.215.262-.438.383-.662a11.627 11.627 0 00-2.389-.109 3.785 3.785 0 010-.464 12.293 12.293 0 012.555.112 1.122 1.122 0 00-.111-.87 5.651 5.651 0 00-1.255-1.1 6.487 6.487 0 01-1.331-1.762 4.335 4.335 0 00-1.849-1.733 5.173 5.173 0 00-1.93-.381 4.293 4.293 0 00-1 .024zm-1.817 1.946a.315.315 0 01.383.164 1.521 1.521 0 01.15.909.869.869 0 01-.28.614.281.281 0 01-.388-.073 1.363 1.363 0 01-.2-.951.8.8 0 01.332-.663zm3.953.175a.317.317 0 01.366-.175.581.581 0 01.3.424 1.752 1.752 0 01-.037 1 .509.509 0 01-.359.338.686.686 0 01-.416-.634 1.539 1.539 0 01.141-.95z"/><path data-name="Path 266" d="M21.37 2.796a3.5 3.5 0 011.927-.477 3.153 3.153 0 011.446.482 2.49 2.49 0 011.283 2.818 8.974 8.974 0 01-1.233 3.016 30.053 30.053 0 01-3.553 4.589 50.8 50.8 0 01-4.169 4.032 26.921 26.921 0 01-1.941 1.54 4.224 4.224 0 01-1.045.59 2.973 2.973 0 01-.893-.474 28.554 28.554 0 01-2.447-1.973c-.9-.784-1.759-1.6-2.6-2.442a40.937 40.937 0 01-4.753-5.519 11.994 11.994 0 01-1.451-2.686 3.283 3.283 0 01-.2-1.705 1.583 1.583 0 01.7-.991 4.353 4.353 0 012.74-.877 4.762 4.762 0 012.757 1.223 13.127 13.127 0 012.57 3.141 36.289 36.289 0 013.378 7.7 47.91 47.91 0 012.633-6 22.047 22.047 0 013.026-4.486 7.653 7.653 0 011.825-1.5z"/></svg>
