<svg xmlns="http://www.w3.org/2000/svg" width="54" height="53.998"><defs><style>.a{fill:#212121}</style></defs><path class="a" d="M53.643 18.373a1.834 1.834 0 00-1.207-.733l-15.688-2.423V1.846A1.848 1.848 0 0034.9 0H1.846A1.848 1.848 0 000 1.846v33.078a1.848 1.848 0 001.846 1.846h12.319l-1.553 10.057a1.862 1.862 0 001.542 2.106l32.67 5.045a1.887 1.887 0 002.106-1.542l.845-5.47a.791.791 0 00-1.563-.241c-.106.689-.6 5.773-1.146 5.691L14.4 47.369a.264.264 0 01-.22-.3l1.59-10.3h1.77L16.253 45.1a.791.791 0 00.661.9l28.17 4.35a.835.835 0 00.9-.661l4.358-28.22a.791.791 0 00-.661-.9l-12.931-2v-1.751l15.446 2.385a.264.264 0 01.22.3l-3.589 23.232a.792.792 0 001.563.241l3.588-23.231a1.834 1.834 0 00-.335-1.372zM1.582 34.924V1.846a.264.264 0 01.264-.264H34.9a.264.264 0 01.264.264v33.078a.264.264 0 01-.264.264H1.846a.264.264 0 01-.264-.264zm47.074-12.911L44.54 48.669 17.934 44.56l1.2-7.791H34.9a1.848 1.848 0 001.846-1.846v-14.75z"/><path class="a" d="M32.564 3.31H4.115a.789.789 0 00-.79.79v3.947a.79.79 0 001.579 0V4.889h26.871V31.81H4.904V12.245a.79.79 0 00-1.579 0V32.6a.789.789 0 00.79.79h28.45a.789.789 0 00.79-.79V4.1a.789.789 0 00-.789-.79z"/><path class="a" d="M18.366 26.231a.787.787 0 00.3-.061 20.808 20.808 0 004.335-2.592c2.919-2.278 4.481-4.933 4.518-7.679.039-2.872-2.149-5.669-5.158-5.669a5 5 0 00-4 2.08 5 5 0 00-4-2.08 5.432 5.432 0 00-5.152 5.662c0 6.61 8.5 10.137 8.859 10.284a.788.788 0 00.3.058zm-7.578-10.339a3.858 3.858 0 013.579-4.079 3.6 3.6 0 013.264 2.4.8.8 0 001.468 0 3.6 3.6 0 013.264-2.4 3.871 3.871 0 013.579 4.068c-.066 4.887-6.149 8.027-7.581 8.7-1.442-.664-7.573-3.763-7.573-8.689z"/></svg>