<svg enable-background="new 0 0 30 30" viewBox="0 0 30 30" xmlns="http://www.w3.org/2000/svg"><path d="m15 0c-8.3 0-15 6.7-15 15s6.7 15 15 15 15-6.7 15-15-6.7-15-15-15zm7.2 15.8h-6.4v6.4c0 .4-.4.8-.8.8s-.8-.4-.8-.8v-6.4h-6.4c-.4 0-.8-.4-.8-.8s.4-.8.8-.8h6.4v-6.4c0-.4.4-.8.8-.8s.8.4.8.8v6.4h6.4c.4 0 .8.4.8.8s-.4.8-.8.8z" fill="#f4436c"/><path d="m22.2 14.2h-6.4v-6.4c0-.4-.4-.8-.8-.8s-.8.4-.8.8v6.4h-6.4c-.4 0-.8.4-.8.8s.4.8.8.8h6.4v6.4c0 .4.4.8.8.8s.8-.4.8-.8v-6.4h6.4c.4 0 .8-.4.8-.8s-.4-.8-.8-.8z" fill="#fff"/></svg>