<svg width="73" height="43" viewBox="0 0 73 43" fill="none" xmlns="http://www.w3.org/2000/svg">
<g filter="url(#filter0_d)">
<path d="M22.999 -17.8003L34.4375 -10.0308C27.7471 -0.894368 24.2939 8.96143 24.0781 19.5366V34.2124H4.22266V21.6948C4.22266 14.3569 5.94922 7.09098 9.40234 -0.103027C12.9274 -7.29704 17.4596 -13.1961 22.999 -17.8003ZM56.9907 -17.8003L68.4292 -10.0308C61.7388 -0.894368 58.2856 8.96143 58.0698 19.5366V34.2124H38.2144V21.6948C38.2144 14.3569 39.9409 7.09098 43.394 -0.103027C46.9191 -7.29704 51.4513 -13.1961 56.9907 -17.8003Z" fill="black"/>
<path d="M22.999 -17.8003L23.5609 -18.6275L22.9385 -19.0503L22.3598 -18.5693L22.999 -17.8003ZM34.4375 -10.0308L35.2443 -9.43995L35.8564 -10.2758L34.9994 -10.858L34.4375 -10.0308ZM24.0781 19.5366L23.0783 19.5162L23.0781 19.5264V19.5366H24.0781ZM24.0781 34.2124V35.2124H25.0781V34.2124H24.0781ZM4.22266 34.2124H3.22266V35.2124H4.22266V34.2124ZM9.40234 -0.103027L8.50432 -0.543056L8.50082 -0.535759L9.40234 -0.103027ZM56.9907 -17.8003L57.5526 -18.6275L56.9302 -19.0503L56.3515 -18.5693L56.9907 -17.8003ZM68.4292 -10.0308L69.236 -9.43995L69.8481 -10.2758L68.9911 -10.858L68.4292 -10.0308ZM58.0698 19.5366L57.07 19.5162L57.0698 19.5264V19.5366H58.0698ZM58.0698 34.2124V35.2124H59.0698V34.2124H58.0698ZM38.2144 34.2124H37.2144V35.2124H38.2144V34.2124ZM43.394 -0.103027L42.496 -0.543056L42.4925 -0.535759L43.394 -0.103027ZM22.4371 -16.9731L33.8756 -9.20354L34.9994 -10.858L23.5609 -18.6275L22.4371 -16.9731ZM33.6307 -10.6216C26.8279 -1.33174 23.2986 8.72078 23.0783 19.5162L25.0779 19.557C25.2892 9.20207 28.6662 -0.456997 35.2443 -9.43995L33.6307 -10.6216ZM23.0781 19.5366V34.2124H25.0781V19.5366H23.0781ZM24.0781 33.2124H4.22266V35.2124H24.0781V33.2124ZM5.22266 34.2124V21.6948H3.22266V34.2124H5.22266ZM5.22266 21.6948C5.22266 14.5195 6.9098 7.40067 10.3039 0.329704L8.50082 -0.535759C4.98863 6.7813 3.22266 14.1944 3.22266 21.6948H5.22266ZM10.3003 0.336987C13.7703 -6.74461 18.219 -12.5269 23.6382 -17.0313L22.3598 -18.5693C16.7003 -13.8653 12.0845 -7.84946 8.50435 -0.543041L10.3003 0.336987ZM56.4288 -16.9731L67.8673 -9.20354L68.9911 -10.858L57.5526 -18.6275L56.4288 -16.9731ZM67.6224 -10.6216C60.8196 -1.33174 57.2903 8.72078 57.07 19.5162L59.0696 19.557C59.2809 9.20207 62.6579 -0.456997 69.236 -9.43995L67.6224 -10.6216ZM57.0698 19.5366V34.2124H59.0698V19.5366H57.0698ZM58.0698 33.2124H38.2144V35.2124H58.0698V33.2124ZM39.2144 34.2124V21.6948H37.2144V34.2124H39.2144ZM39.2144 21.6948C39.2144 14.5195 40.9015 7.40067 44.2956 0.329704L42.4925 -0.535759C38.9803 6.7813 37.2144 14.1944 37.2144 21.6948H39.2144ZM44.292 0.336987C47.762 -6.74461 52.2107 -12.5269 57.6299 -17.0313L56.3515 -18.5693C50.692 -13.8653 46.0762 -7.84946 42.4961 -0.543041L44.292 0.336987Z" fill="black"/>
<path d="M22.999 -17.8003L23.5609 -18.6275L22.9385 -19.0503L22.3598 -18.5693L22.999 -17.8003ZM34.4375 -10.0308L35.2443 -9.43995L35.8564 -10.2758L34.9994 -10.858L34.4375 -10.0308ZM24.0781 19.5366L23.0783 19.5162L23.0781 19.5264V19.5366H24.0781ZM24.0781 34.2124V35.2124H25.0781V34.2124H24.0781ZM4.22266 34.2124H3.22266V35.2124H4.22266V34.2124ZM9.40234 -0.103027L8.50432 -0.543056L8.50082 -0.535759L9.40234 -0.103027ZM56.9907 -17.8003L57.5526 -18.6275L56.9302 -19.0503L56.3515 -18.5693L56.9907 -17.8003ZM68.4292 -10.0308L69.236 -9.43995L69.8481 -10.2758L68.9911 -10.858L68.4292 -10.0308ZM58.0698 19.5366L57.07 19.5162L57.0698 19.5264V19.5366H58.0698ZM58.0698 34.2124V35.2124H59.0698V34.2124H58.0698ZM38.2144 34.2124H37.2144V35.2124H38.2144V34.2124ZM43.394 -0.103027L42.496 -0.543056L42.4925 -0.535759L43.394 -0.103027ZM22.4371 -16.9731L33.8756 -9.20354L34.9994 -10.858L23.5609 -18.6275L22.4371 -16.9731ZM33.6307 -10.6216C26.8279 -1.33174 23.2986 8.72078 23.0783 19.5162L25.0779 19.557C25.2892 9.20207 28.6662 -0.456997 35.2443 -9.43995L33.6307 -10.6216ZM23.0781 19.5366V34.2124H25.0781V19.5366H23.0781ZM24.0781 33.2124H4.22266V35.2124H24.0781V33.2124ZM5.22266 34.2124V21.6948H3.22266V34.2124H5.22266ZM5.22266 21.6948C5.22266 14.5195 6.9098 7.40067 10.3039 0.329704L8.50082 -0.535759C4.98863 6.7813 3.22266 14.1944 3.22266 21.6948H5.22266ZM10.3003 0.336987C13.7703 -6.74461 18.219 -12.5269 23.6382 -17.0313L22.3598 -18.5693C16.7003 -13.8653 12.0845 -7.84946 8.50435 -0.543041L10.3003 0.336987ZM56.4288 -16.9731L67.8673 -9.20354L68.9911 -10.858L57.5526 -18.6275L56.4288 -16.9731ZM67.6224 -10.6216C60.8196 -1.33174 57.2903 8.72078 57.07 19.5162L59.0696 19.557C59.2809 9.20207 62.6579 -0.456997 69.236 -9.43995L67.6224 -10.6216ZM57.0698 19.5366V34.2124H59.0698V19.5366H57.0698ZM58.0698 33.2124H38.2144V35.2124H58.0698V33.2124ZM39.2144 34.2124V21.6948H37.2144V34.2124H39.2144ZM39.2144 21.6948C39.2144 14.5195 40.9015 7.40067 44.2956 0.329704L42.4925 -0.535759C38.9803 6.7813 37.2144 14.1944 37.2144 21.6948H39.2144ZM44.292 0.336987C47.762 -6.74461 52.2107 -12.5269 57.6299 -17.0313L56.3515 -18.5693C50.692 -13.8653 46.0762 -7.84946 42.4961 -0.543041L44.292 0.336987Z" fill="url(#paint0_linear)"/>
</g>
<defs>
<filter id="filter0_d" x="0.222656" y="-17.8003" width="72.2065" height="60.0127" filterUnits="userSpaceOnUse" color-interpolation-filters="sRGB">
<feFlood flood-opacity="0" result="BackgroundImageFix"/>
<feColorMatrix in="SourceAlpha" type="matrix" values="0 0 0 0 0 0 0 0 0 0 0 0 0 0 0 0 0 0 127 0"/>
<feOffset dy="4"/>
<feGaussianBlur stdDeviation="2"/>
<feColorMatrix type="matrix" values="0 0 0 0 0 0 0 0 0 0 0 0 0 0 0 0 0 0 0.25 0"/>
<feBlend mode="normal" in2="BackgroundImageFix" result="effect1_dropShadow"/>
<feBlend mode="normal" in="SourceGraphic" in2="effect1_dropShadow" result="shape"/>
</filter>
<linearGradient id="paint0_linear" x1="32.5" y1="-55" x2="32.5" y2="204" gradientUnits="userSpaceOnUse">
<stop stop-color="white"/>
<stop offset="1" stop-color="white" stop-opacity="0"/>
</linearGradient>
</defs>
</svg>
