<svg xmlns="http://www.w3.org/2000/svg" width="54" height="51.836"><defs><style>.a{fill:#212121}</style></defs><path class="a" d="M53.9 28.412A21.288 21.288 0 0037.342 9.746v-2.68A3.586 3.586 0 0036.477 0h-7.594a3.586 3.586 0 00-.866 7.066v2.687a21.178 21.178 0 00-10.386 5.713 21.407 21.407 0 00-1.791 2.032H8.244a1.055 1.055 0 100 2.109h6.161a21.143 21.143 0 00-1.871 4.054H1.055a1.055 1.055 0 000 2.109h10.883a21.445 21.445 0 00-.523 4.054H6.75a1.055 1.055 0 000 2.109h4.7a21.413 21.413 0 00.659 4.054H5.274a1.055 1.055 0 100 2.109h7.506a21.3 21.3 0 0017.81 13.637q1.045.1 2.09.1a21.356 21.356 0 0011.627-3.436 1.055 1.055 0 00-1.151-1.768 19.2 19.2 0 115.654-5.661 1.055 1.055 0 101.769 1.149A21.373 21.373 0 0053.9 28.412zM27.406 3.586a1.478 1.478 0 011.477-1.477h7.594a1.477 1.477 0 110 2.953h-7.594a1.478 1.478 0 01-1.477-1.476zm2.72 5.8V7.172h5.106v2.215a21.49 21.49 0 00-5.105.003z"/><path class="a" d="M46.925 43.691a1.069 1.069 0 10.755.313 1.074 1.074 0 00-.755-.313zM32.42 13.682a16.573 16.573 0 1016.573 16.573A16.592 16.592 0 0032.42 13.682zm0 31.01a14.436 14.436 0 1114.436-14.436A14.453 14.453 0 0132.42 44.692z"/><path class="a" d="M39.403 22.288l-5.292 5.291a3.311 3.311 0 00-2.933 0l-2.368-2.368a1.068 1.068 0 00-1.511 1.511l2.368 2.368a3.32 3.32 0 105.955 0l5.136-5.136.155-.155a1.068 1.068 0 00-1.511-1.511zm-6.758 9.452a1.183 1.183 0 111.183-1.183 1.184 1.184 0 01-1.183 1.183zM43.966 29.473h-.99a1.069 1.069 0 000 2.137h.99a1.069 1.069 0 000-2.137zM22.406 29.447h-.99a1.069 1.069 0 000 2.137h.99a1.069 1.069 0 100-2.137zM32.705 21.311a1.068 1.068 0 001.068-1.068v-.99a1.069 1.069 0 00-2.137 0v.99a1.068 1.068 0 001.069 1.068zM32.68 39.744a1.068 1.068 0 00-1.068 1.068v.99a1.069 1.069 0 102.137 0v-.99a1.068 1.068 0 00-1.069-1.068zM1.068 35.964a1.068 1.068 0 10.755 1.824 1.068 1.068 0 00-.755-1.824z"/></svg>