<svg xmlns="http://www.w3.org/2000/svg" width="18.562" height="32.25"><g data-name="icon/toxinfree"><path d="M17.926 27.605l-4.733-8.851a1.98 1.98 0 01-.241-.925v-2.258h.113a.491.491 0 00.361-.134.512.512 0 00.16-.357v-2.572a.516.516 0 00-.159-.358.5.5 0 00-.361-.137h-.67l.414-2.839a.521.521 0 00-.118-.412.5.5 0 00-.383-.177H6.248a.5.5 0 00-.382.172.541.541 0 00-.117.421l.414 2.835h-.67a.5.5 0 00-.361.137.516.516 0 00-.159.358v2.572a.512.512 0 00.16.356.491.491 0 00.361.134h.112v2.262a1.98 1.98 0 01-.24.925L.637 27.608a3.023 3.023 0 00.05 2.936A2.9 2.9 0 003.181 32h12.194a2.9 2.9 0 002.5-1.456 3.025 3.025 0 00.052-2.937zM6.838 9.62h4.883l-.35 2.394H7.188zm-.857 3.428h6.588v1.487H5.981zm.269 6.2a3.034 3.034 0 00.364-1.42v-2.257h5.321v2.262a3.032 3.032 0 00.364 1.42l1.8 3.37a3.819 3.819 0 01-.585-.347 3.334 3.334 0 00-2.1-.7 3.334 3.334 0 00-2.1.7 2.367 2.367 0 01-1.533.524 2.367 2.367 0 01-1.542-.527 3.58 3.58 0 00-1.277-.612zm10.752 10.766a1.872 1.872 0 01-1.627.946H3.181a1.889 1.889 0 01-1.627-.948 1.971 1.971 0 01-.032-1.912l2.922-5.475a2.419 2.419 0 011.239.512 3.334 3.334 0 002.1.7 3.334 3.334 0 002.1-.7 2.521 2.521 0 013.085 0 3.359 3.359 0 001.786.687l2.282 4.276a1.954 1.954 0 01-.034 1.913z" stroke="#000" stroke-width=".5"/><path d="M9.68 5.073a1.951 1.951 0 10.571-1.38 1.951 1.951 0 00-.571 1.38zm1.951-.894a.894.894 0 11-.894.894.894.894 0 01.894-.894zM6.15 7.024a1.171 1.171 0 10-.828-.343 1.171 1.171 0 00.828.343zm0-1.627a.456.456 0 11-.456.456.456.456 0 01.456-.453zM10.065 2.341A1.171 1.171 0 109.236 2a1.171 1.171 0 00.829.341zm0-1.585a.413.413 0 11-.293.121.413.413 0 01.293-.12z"/></g></svg>
