<svg xmlns="http://www.w3.org/2000/svg" width="16" height="21"><path data-name="Path 6897" d="M12.741 21H3.259a1.537 1.537 0 01-1.528-1.448L.879 5.337a.3.3 0 01.081-.225.3.3 0 01.219-.095h13.643a.3.3 0 01.219.095.3.3 0 01.081.225l-.854 14.215A1.537 1.537 0 0112.741 21zM1.496 5.62l.834 13.9a.935.935 0 00.928.879h9.482a.935.935 0 00.93-.88l.834-13.9z"/><path data-name="Path 6898" d="M15.699 5.732H.299a.3.3 0 01-.3-.3V4.153a2.155 2.155 0 012.147-2.158h11.7a2.155 2.155 0 012.148 2.158v1.278a.3.3 0 01-.3.3zm-15.1-.6h14.8v-.976a1.553 1.553 0 00-1.548-1.555H2.146A1.553 1.553 0 00.598 4.156z"/><path data-name="Path 6899" d="M10.784 2.6H5.216a.3.3 0 01-.3-.3V1.23A1.231 1.231 0 016.146 0h3.71a1.231 1.231 0 011.23 1.23V2.3a.3.3 0 01-.302.3zM5.517 2h4.966v-.77A.627.627 0 009.856.6h-3.71a.627.627 0 00-.626.626z"/><path data-name="Path 6900" d="M11.021 17.905a.3.3 0 01-.3-.3V8.683a.3.3 0 11.6 0v8.921a.3.3 0 01-.3.301z"/><path data-name="Path 6901" d="M7.998 17.905a.3.3 0 01-.3-.3V8.683a.3.3 0 11.6 0v8.921a.3.3 0 01-.3.301z"/><path data-name="Path 6902" d="M4.979 17.905a.3.3 0 01-.3-.3V8.683a.3.3 0 01.6 0v8.921a.3.3 0 01-.3.301z"/></svg>
