<svg data-name="icon/vegan" xmlns="http://www.w3.org/2000/svg" width="34" height="32"><path d="M33.936 11.047a.635.635 0 00-.391-.32c-.386-.11-9.516-2.7-14.813-.161a8.7 8.7 0 00-4.821 4.965 6.561 6.561 0 00.284 4.985c.037.073.075.144.114.215a18.376 18.376 0 00-1.589 2.8q-.044-1-.14-1.973a29.351 29.351 0 00-1.765-7.624q-.33-.858-.717-1.67a4.963 4.963 0 001.577-2.865 6.092 6.092 0 00-1.382-4.751C7.793 1.339 1.167.068.887.016a.655.655 0 00-.5.109.618.618 0 00-.257.429c-.033.275-.78 6.793 1.719 10.1A6.592 6.592 0 006.03 13.4a5.1 5.1 0 00.778.06 5.158 5.158 0 002.213-.5q.306.661.593 1.4a28.136 28.136 0 011.69 7.31 36.649 36.649 0 01.114 5.608c-.09.675-.409 3.771-.409 4.1v.079a.24.24 0 00.006.035c0 .012 0 .019.006.027s.005.02.009.031l.01.029c0 .009.006.018.01.027l.013.03.012.024.016.029.014.023.019.026.018.023.02.024.02.022.021.02.024.021.022.018.027.019.023.015.028.017.026.014.028.013.031.012.027.01.035.01.026.006.037.007h.025a.715.715 0 00.078.011.478.478 0 00.063 0h.011a.289.289 0 00.049-.007h.02l.037-.009.024-.008.032-.011.026-.011.028-.013.024-.013.027-.016.019-.022.027-.02.019-.015a.241.241 0 00.028-.025l.015-.013a.54.54 0 00.033-.036l.006-.006a.636.636 0 00.067-.1l.008-.015.018-.036a.2.2 0 00.009-.023l.012-.031a.232.232 0 00.008-.028c0-.009.006-.019.008-.029s0-.02.006-.029 0-.013 0-.019q.281-1.924.4-3.784a17.47 17.47 0 012.415-5.842 6.883 6.883 0 003.065 2.018 7.513 7.513 0 002.32.355 10.738 10.738 0 004.616-1.15c5.3-2.542 8.727-11.155 8.87-11.521a.6.6 0 00-.02-.5zm-24.44.04q-.3-.541-.614-1.051a18.253 18.253 0 00-2.458-3.167A12.821 12.821 0 004.575 5.3a.652.652 0 00-.892.147.609.609 0 00.151.866 11.668 11.668 0 011.646 1.4 17.6 17.6 0 012.988 4.127 3.831 3.831 0 01-2.236.331 5.273 5.273 0 01-3.252-2.133l-.1-.127C1.115 7.574 1.225 3.093 1.342 1.378c1.516.36 5.141 1.372 7.188 3.209a5.6 5.6 0 01.732.785 4.99 4.99 0 011.151 3.817 3.759 3.759 0 01-.916 1.9zm15.028 10.862a8.083 8.083 0 01-5.966.73 5.578 5.578 0 01-2.711-1.912l.012-.016A17.026 17.026 0 0117.1 19.3q.5-.515 1.03-.982l4.061 1.44a.646.646 0 00.219.038.635.635 0 00.631-.513.619.619 0 00-.411-.692l-.377-.134-2.979-1.057q.27-.2.547-.382a16.62 16.62 0 012.256-1.273l3.623 1.467a.647.647 0 00.837-.335.615.615 0 00-.345-.812l-.4-.161-2.043-.826q.371-.127.749-.236a17.839 17.839 0 014.987-.7.621.621 0 100-1.242H29.3a18.349 18.349 0 00-11.726 4.24 17.921 17.921 0 00-1.4 1.309q-.522.543-1 1.125a4.992 4.992 0 01-.321-1.4 5.6 5.6 0 01.275-2.268 7.611 7.611 0 014.172-4.237 12.7 12.7 0 015.372-.98 33.556 33.556 0 016.768.8c.419.09.778.175 1.058.244-.898 2.026-3.911 8.267-7.974 10.216z"/></svg>
