<svg xmlns="http://www.w3.org/2000/svg" width="30.728" height="54"><defs><style>.a{fill:#212121}</style></defs><path class="a" d="M6.48 35.617a.854.854 0 00-.594 1.052l2.517 9.033a1.638 1.638 0 003.156 0l2.517-9.033a.854.854 0 00-1.646-.459L9.981 45l-2.444-8.79a.854.854 0 00-1.057-.593zM15.26 36.449v9.6a.854.854 0 001.708-.005v-9.6a.854.854 0 10-1.708 0zM19.467 35.577a.854.854 0 00-.854.854v9.615a.854.854 0 101.708 0v-3.263h.9a3.603 3.603 0 000-7.206h-1.755zm3.649 3.6a1.9 1.9 0 01-1.895 1.895h-.9v-3.79h.9a1.9 1.9 0 011.896 1.898zM21.481 23.609l-2.739-.616a.318.318 0 01-.2-.147l-1.432-2.415a2.025 2.025 0 00-3.484 0l-1.432 2.415a.318.318 0 01-.2.147l-2.739.616a2.025 2.025 0 00-1.077 3.313l1.854 2.108a.318.318 0 01.078.239l-.261 2.8a2.025 2.025 0 002.818 2.048l2.578-1.112a.318.318 0 01.251 0l2.578 1.112a2.031 2.031 0 001.992-.221 2.008 2.008 0 00.826-1.826l-.261-2.8a.318.318 0 01.078-.239l1.854-2.108a2.025 2.025 0 00-1.076-3.313zm-.206 2.185l-1.854 2.108a2.033 2.033 0 00-.5 1.525l.261 2.8a.319.319 0 01-.441.32l-2.578-1.112a2.043 2.043 0 00-1.6 0l-2.578 1.112a.319.319 0 01-.441-.32l.261-2.8a2.033 2.033 0 00-.5-1.525l-1.854-2.108a.319.319 0 01.168-.518l2.739-.616a2.033 2.033 0 001.3-.943l1.432-2.415a.319.319 0 01.545 0l1.432 2.415a2.032 2.032 0 001.3.943l2.739.616a.319.319 0 01.168.521z"/><path class="a" d="M27.499 10.54h-5.8l1.132-2.228a.767.767 0 00-.357-1.039.8.8 0 00-1.062.349L19.93 10.54h-2.923l-.756-1.488 3.811-7.5h4.435l-1.671 3.29a.767.767 0 00.357 1.039.8.8 0 001.062-.349l2.24-4.41A.783.783 0 0025.772 0h-6.2a.8.8 0 00-.71.43l-3.5 6.879L11.872.43a.8.8 0 00-.71-.43h-6.2a.783.783 0 00-.71 1.12l4.786 9.42h-5.8a3.2 3.2 0 00-3.229 3.158v6.438a.793.793 0 001.585 0V13.7a1.628 1.628 0 011.644-1.608h6.589l1.165 2.293h-.567a.775.775 0 100 1.55h9.9a.775.775 0 100-1.55H18.97l-1.165-2.293h9.706a1.628 1.628 0 011.644 1.608v26.63a.793.793 0 001.585 0V13.7a3.2 3.2 0 00-3.241-3.16zm-14.746 3.843L6.233 1.55h4.439l6.52 12.833z"/><path class="a" d="M29.935 42.814a.825.825 0 00-.793.854v6.852a1.713 1.713 0 01-1.644 1.772H3.228a1.713 1.713 0 01-1.644-1.772V21.411a.795.795 0 10-1.585 0V50.52A3.365 3.365 0 003.228 54h24.27a3.365 3.365 0 003.229-3.48v-6.852a.825.825 0 00-.792-.854z"/></svg>