<svg xmlns="http://www.w3.org/2000/svg" width="36" height="47" viewBox="0 0 36 47">
  <g>
    <g>
      <g>
        <path fill="#00635b" d="M35.77 4.56a2.533 2.533 0 0 1-2.308 3.325c.568.452.92 1.122.959 1.86a2.542 2.542 0 0 1-1.048 2.195 2.541 2.541 0 0 1-2.412.318 2.537 2.537 0 0 1-1.468-1.477 2.537 2.537 0 0 1-3.62 1.317 5.492 5.492 0 0 0-1.369 3.502h2.522a.6.6 0 0 1 .395.149A9.958 9.958 0 0 1 29.325 18h2.363c.238 0 .454.141.55.36a12.51 12.51 0 0 1 1.052 5.04c0 6.948-5.653 12.6-12.6 12.6-6.948 0-12.6-5.652-12.6-12.6 0-1.746.354-3.442 1.052-5.04a.6.6 0 0 1 .55-.36h2.362a9.955 9.955 0 0 1 1.904-2.251.601.601 0 0 1 .396-.149h.936V10.45L7.665 2.824a.6.6 0 0 1 0-.848l1.8-1.8a.6.6 0 0 1 .849 0l8.4 8.4A.598.598 0 0 1 18.89 9v6.6h4.414a6.684 6.684 0 0 1 1.686-4.313 2.541 2.541 0 0 1 .534-3.402 2.532 2.532 0 0 1-1.865-.933 2.542 2.542 0 0 1-.443-2.392 2.541 2.541 0 0 1 1.765-1.674 2.541 2.541 0 0 1 2.054.331c-.19-.694-.08-1.44.32-2.056A2.54 2.54 0 0 1 29.494 0a2.543 2.543 0 0 1 2.459 3.216A2.547 2.547 0 0 1 35.77 4.56zM16.315 9.776a.598.598 0 0 1 .176.424v5.4h1.2V9.25l-7.8-7.8-.952.951zM32.09 23.4c0-1.45-.27-2.86-.802-4.2H10.091a11.316 11.316 0 0 0-.801 4.2c0 5.326 3.677 9.798 8.621 11.044l-1.882-2.26.922-.768 2.78 3.336c.118.01.24.012.359.018V31.2h1.2v3.57c.12-.006.24-.008.36-.018l2.779-3.336.922.768-1.883 2.26c4.945-1.246 8.622-5.718 8.622-11.044zM27.873 18a8.868 8.868 0 0 0-1.086-1.2H14.583c-.402.371-.766.772-1.087 1.2zm.488-16.185c-.254.39-.29.858-.101 1.282l.891 2.006c.072.078.145.155.2.244.09.04.195.04.286 0 .054-.089.126-.166.198-.244l.892-2.006a1.327 1.327 0 0 0-.102-1.283 1.329 1.329 0 0 0-1.132-.614c-.465 0-.878.224-1.132.615zm-4.003 3.117c-.144.442-.059.904.234 1.266.293.362.734.54 1.19.493l2.18-.228c.101-.046.202-.09.309-.115a.312.312 0 0 0 .081-.118.324.324 0 0 0 .004-.145 1.546 1.546 0 0 1-.181-.273l-1.632-1.467a1.326 1.326 0 0 0-1.251-.3c-.45.12-.79.444-.934.887zm4.532 3.081a1.503 1.503 0 0 1-.014-.327.304.304 0 0 0-.088-.115c-.041-.03-.091-.037-.14-.046a1.512 1.512 0 0 1-.313.086l-1.898 1.098a1.327 1.327 0 0 0-.672 1.098c-.025.465.178.888.554 1.162.378.273.842.335 1.277.168.435-.166.74-.523.837-.978zm3.77 2.956c.375-.274.576-.697.552-1.162a1.327 1.327 0 0 0-.67-1.098L30.65 7.61a1.493 1.493 0 0 1-.31-.086c-.05.009-.099.016-.14.046a.304.304 0 0 0-.088.115c.01.108-.001.217-.014.327l.456 2.146c.097.455.4.812.834.978.433.166.896.105 1.272-.168zm1.744-4.771c.294-.363.38-.824.235-1.266a1.33 1.33 0 0 0-.936-.887 1.333 1.333 0 0 0-1.256.3l-1.634 1.467a1.543 1.543 0 0 1-.181.273.304.304 0 0 0 .003.144.307.307 0 0 0 .082.12c.106.023.207.068.307.114l2.188.228c.46.048.898-.131 1.192-.493z"></path>
      </g>
      <g>
        <path fill="#00635b" d="M23.448 35.56v2.525h.891a.63.63 0 0 1 .592.42l1.593 4.462h.105a1.757 1.757 0 0 1 1.748 1.763v.604a1.757 1.757 0 0 1-1.755 1.743H14.645c-.962 0-1.748-.78-1.755-1.742v-.606a1.758 1.758 0 0 1 1.748-1.762h.105l1.593-4.463a.63.63 0 0 1 .59-.42h.883V35.56zm-4.382 2.527h3.115l.002-2.185-.178.035c-.38.074-.768.111-1.154.111h-.453c-.385 0-.774-.037-1.153-.111l-.179-.035zm-4.424 6.135a.498.498 0 0 0-.497.498v.607a.5.5 0 0 0 .497.49h11.962a.498.498 0 0 0 .498-.497v-.6a.498.498 0 0 0-.498-.498zm2.725-4.877l-1.3 3.62h9.12l-1.3-3.62z"></path>
      </g>
      <g>
        <path fill="#fff" d="M13.823 21.92l1.559 1.671-1.559 1.6-1.593-1.6z"></path>
      </g>
      <g>
        <path fill="#fff" d="M8.743 26.75l1.559 1.671-1.559 1.6-1.593-1.6z"></path>
      </g>
      <g>
        <path fill="#fff" d="M5.174 18.37l2.157 2.312-2.157 2.215-2.204-2.215z"></path>
      </g>
      <g>
        <path fill="#00635b" d="M4.8 25.39a.6.6 0 0 1-.6-.6 3.6 3.6 0 0 0-3.6-3.6.6.6 0 0 1 0-1.2 3.6 3.6 0 0 0 3.6-3.6.6.6 0 0 1 1.2 0 3.6 3.6 0 0 0 3.6 3.6.6.6 0 0 1 0 1.2 3.6 3.6 0 0 0-3.6 3.6.6.6 0 0 1-.6.6m-1.878-4.8A4.874 4.874 0 0 1 4.8 22.468a4.874 4.874 0 0 1 1.878-1.878A4.87 4.87 0 0 1 4.8 18.712a4.87 4.87 0 0 1-1.878 1.878m9.402 7.2a.6.6 0 0 1 0 1.2 3 3 0 0 0-3 3 .6.6 0 0 1-1.2 0 3 3 0 0 0-3-3 .6.6 0 0 1 0-1.2 3 3 0 0 0 3-3 .6.6 0 0 1 1.2 0 3 3 0 0 0 3 3m-3.6 2.04a4.24 4.24 0 0 1 1.44-1.44 4.24 4.24 0 0 1-1.44-1.44 4.24 4.24 0 0 1-1.44 1.44 4.24 4.24 0 0 1 1.44 1.44m7.8-6.84a.6.6 0 0 1 0 1.2 2.1 2.1 0 0 0-2.1 2.1.6.6 0 0 1-1.2 0 2.1 2.1 0 0 0-2.1-2.1.6.6 0 0 1 0-1.2 2.1 2.1 0 0 0 2.1-2.1.6.6 0 0 1 1.2 0c0 1.16.94 2.1 2.1 2.1m-2.7 1.394c.22-.31.493-.579.804-.799a3.377 3.377 0 0 1-.804-.799 3.4 3.4 0 0 1-.804.799c.31.22.583.49.804.799"></path>
      </g>
    </g>
  </g>
</svg>