<svg width="20" height="20" viewBox="0 0 20 20" fill="none" xmlns="http://www.w3.org/2000/svg">
<path d="M20 10C20 15.5228 15.5228 20 10 20C4.47715 20 0 15.5228 0 10C0 4.47715 4.47715 0 10 0C15.5228 0 20 4.47715 20 10Z" fill="#E36482"/>
<path d="M5.2155 13.6336L5.90365 14.9172C5.90365 14.9172 6.15582 15.1077 6.11308 14.8178L5.48905 13.6336" fill="#FFDBE1"/>
<path d="M6.04897 15C5.98058 15 5.90365 14.942 5.89082 14.9338V14.9255L5.1984 13.6419L5.23687 13.6212L5.92074 14.9006C5.95066 14.9213 6.03187 14.971 6.07034 14.9503C6.09599 14.9379 6.10026 14.8923 6.09171 14.822L5.46767 13.6419L5.50614 13.6253L6.13018 14.8137C6.143 14.9089 6.13018 14.9627 6.08744 14.9876C6.07461 14.9959 6.05752 15 6.04469 15H6.04897Z" fill="#E47487"/>
<path d="M5.78397 13.5715L6.47212 14.8551C6.47212 14.8551 6.7243 15.0455 6.68155 14.7557L6.05752 13.5715" fill="#FFDBE1"/>
<path d="M6.61317 14.9379C6.54478 14.9379 6.46784 14.8799 6.45502 14.8716V14.8634L5.7626 13.5798L5.80106 13.5591L6.48494 14.8385C6.51486 14.8592 6.59607 14.9089 6.63454 14.8882C6.66018 14.8758 6.66446 14.8302 6.65591 14.7598L6.03187 13.5798L6.07034 13.5632L6.69438 14.7516C6.7072 14.8468 6.69438 14.9006 6.65163 14.9255C6.63881 14.9338 6.62172 14.9379 6.60889 14.9379H6.61317Z" fill="#E47487"/>
<path d="M6.34389 13.4763L7.03204 14.7598C7.03204 14.7598 7.28422 14.9503 7.24148 14.6605L6.58752 13.439" fill="#FFDBE1"/>
<path d="M7.17736 14.8427C7.10898 14.8427 7.03204 14.7847 7.01922 14.7764V14.7681L6.32679 13.4845L6.36526 13.4638L7.04914 14.7433C7.07906 14.764 7.16027 14.8137 7.19874 14.793C7.22438 14.7805 7.22865 14.735 7.22011 14.6646L6.57042 13.4473L6.60889 13.4266L7.26285 14.6563C7.27567 14.7516 7.26285 14.8054 7.22011 14.8302C7.20728 14.8385 7.19019 14.8427 7.17736 14.8427Z" fill="#E47487"/>
<path d="M6.91664 13.3438L7.60479 14.6273C7.60479 14.6273 7.85697 14.8178 7.81422 14.528L7.14744 13.2941" fill="#FFDBE1"/>
<path d="M7.75011 14.7102C7.68172 14.7102 7.60479 14.6522 7.59196 14.6439V14.6356L6.89954 13.352L6.93801 13.3313L7.62188 14.6108C7.6518 14.6315 7.73301 14.6812 7.77148 14.6605C7.79713 14.6481 7.8014 14.6025 7.79285 14.5321L7.13035 13.3024L7.16882 13.2817L7.83559 14.5197C7.84842 14.6149 7.83559 14.6688 7.79285 14.6936C7.78003 14.7019 7.76293 14.706 7.75011 14.706V14.7102Z" fill="#E47487"/>
<path d="M7.47656 13.203L8.18608 14.528C8.18608 14.528 8.43826 14.7184 8.39552 14.4286L7.69882 13.1367" fill="#FFDBE1"/>
<path d="M8.3314 14.6108C8.26302 14.6108 8.18608 14.5528 8.17326 14.5445V14.5363L7.45946 13.2113L7.49793 13.1906L8.20318 14.5114C8.2331 14.5321 8.31431 14.5818 8.35278 14.5611C8.37842 14.5487 8.38269 14.5031 8.37415 14.4327L7.68172 13.1409L7.72019 13.1202L8.41689 14.4203C8.42971 14.5156 8.41689 14.5694 8.37415 14.5942C8.36132 14.6025 8.34423 14.6066 8.3314 14.6066V14.6108Z" fill="#E47487"/>
<path d="M8.01939 13.0374L8.74173 14.3913C8.74173 14.3913 8.99391 14.5818 8.95117 14.292L8.27157 12.9587" fill="#FFDBE1"/>
<path d="M8.88705 14.4741C8.81867 14.4741 8.74173 14.4162 8.72891 14.4079V14.3996L7.99801 13.0456L8.03648 13.0249L8.75883 14.3748C8.78875 14.3955 8.86996 14.4452 8.90842 14.4245C8.93407 14.412 8.93834 14.3665 8.9298 14.2961L8.25019 12.9628L8.28866 12.9463L8.96826 14.2878C8.98109 14.3831 8.96826 14.4369 8.92552 14.4617C8.9127 14.47 8.8956 14.4741 8.88278 14.4741H8.88705Z" fill="#E47487"/>
<path d="M8.55794 12.8676L9.29311 14.2423C9.29311 14.2423 9.54528 14.4327 9.50254 14.1429L8.77592 12.7931" fill="#FFDBE1"/>
<path d="M9.43843 14.3251C9.37004 14.3251 9.2931 14.2671 9.28028 14.2588V14.2506L8.53657 12.8759L8.57504 12.8552L9.3102 14.2257C9.34012 14.2464 9.42133 14.2961 9.4598 14.2754C9.48544 14.263 9.48972 14.2174 9.48117 14.147L8.75883 12.7972L8.79729 12.7765L9.52391 14.1346C9.53674 14.2299 9.52391 14.2837 9.48117 14.3085C9.46835 14.3168 9.45125 14.3209 9.43843 14.3209V14.3251Z" fill="#E47487"/>
<path d="M9.08367 12.6896L9.83166 14.0849C9.83166 14.0849 10.0838 14.2754 10.0411 13.9856L9.3273 12.6026" fill="#FFDBE1"/>
<path d="M9.97698 14.1677C9.90859 14.1677 9.83166 14.1098 9.81883 14.1015V14.0932L9.06657 12.6937L9.10504 12.673L9.84875 14.0684C9.87867 14.0891 9.95988 14.1388 9.99835 14.1181C10.024 14.1056 10.0283 14.0601 10.0197 13.9897L9.30593 12.6109L9.3444 12.5943L10.0582 13.9856C10.071 14.0808 10.0582 14.1346 10.0154 14.1595C10.0026 14.1677 9.98553 14.1719 9.97271 14.1719L9.97698 14.1677Z" fill="#E47487"/>
<path d="M9.61795 12.5032L10.3617 13.8903C10.3617 13.8903 10.6138 14.0808 10.5711 13.7909L9.83593 12.4246" fill="#FFDBE1"/>
<path d="M10.5027 13.9731C10.4343 13.9731 10.3574 13.9152 10.3446 13.9069V13.8986L9.59657 12.5115L9.63504 12.4908L10.3745 13.8738C10.4044 13.8945 10.4856 13.9442 10.5241 13.9234C10.5497 13.911 10.554 13.8655 10.5455 13.7951L9.81029 12.4328L9.84875 12.4121L10.5882 13.7868C10.601 13.882 10.5882 13.9359 10.5455 13.9607C10.5326 13.969 10.5155 13.9731 10.5027 13.9731Z" fill="#E47487"/>
<path d="M10.1821 12.2962L10.9002 13.6419C10.9002 13.6419 11.1524 13.8324 11.1096 13.5425L10.3745 12.2217" fill="#FFDBE1"/>
<path d="M11.0455 13.7247C10.9771 13.7247 10.9002 13.6667 10.8874 13.6585V13.6502L10.1608 12.3045L10.1992 12.2838L10.9173 13.6253C10.9472 13.646 11.0284 13.6957 11.0669 13.675C11.0926 13.6626 11.0968 13.617 11.0883 13.5467L10.3574 12.2299L10.3959 12.2092L11.131 13.5384C11.1438 13.6336 11.131 13.6874 11.0883 13.7123C11.0755 13.7206 11.0584 13.7247 11.0455 13.7247Z" fill="#E47487"/>
<path d="M10.772 12.0685L11.473 13.3769C11.473 13.3769 11.7251 13.5674 11.6824 13.2775L10.9814 11.9857" fill="#FFDBE1"/>
<path d="M11.614 13.4597C11.5456 13.4597 11.4687 13.4017 11.4559 13.3935V13.3852L10.7506 12.0767L10.7891 12.056L11.4858 13.3603C11.5157 13.381 11.5969 13.4349 11.6354 13.41C11.661 13.3976 11.6653 13.352 11.6567 13.2817L10.9601 11.9939L10.9985 11.9732L11.7038 13.2734C11.7166 13.3686 11.7038 13.4224 11.661 13.4473C11.6482 13.4556 11.6311 13.4597 11.6183 13.4597H11.614Z" fill="#E47487"/>
<path d="M11.3276 11.878L12.0115 13.1574C12.0115 13.1574 12.2637 13.3479 12.2209 13.0581L11.5285 11.7662" fill="#FFDBE1"/>
<path d="M12.1568 13.2403C12.0884 13.2403 12.0115 13.1823 11.9987 13.174V13.1657L11.3063 11.8863L11.3447 11.8656L12.0286 13.1409C12.0585 13.1616 12.1397 13.2113 12.1782 13.1906C12.2039 13.1781 12.2081 13.1326 12.1996 13.0622L11.5072 11.7745L11.5456 11.7538L12.2423 13.0539C12.2551 13.1492 12.2423 13.203 12.1996 13.2278C12.1868 13.2361 12.1697 13.2403 12.1568 13.2403Z" fill="#E47487"/>
<path d="M11.8534 11.6337L12.5415 12.9214C12.5415 12.9214 12.7937 13.1119 12.751 12.8221L12.0713 11.5426" fill="#FFDBE1"/>
<path d="M12.6868 13.0042C12.6185 13.0042 12.5415 12.9463 12.5287 12.938V12.9297L11.8363 11.642L11.8747 11.6213L12.5629 12.9049C12.5928 12.9256 12.674 12.9753 12.7125 12.9546C12.7381 12.9421 12.7424 12.8966 12.7339 12.8262L12.0543 11.5509L12.0927 11.5343L12.7766 12.8221C12.7894 12.9173 12.7766 12.9711 12.7339 12.996C12.721 13.0042 12.7039 13.0084 12.6911 13.0084L12.6868 13.0042Z" fill="#E47487"/>
<path d="M12.409 11.4018L13.0972 12.6854C13.0972 12.6854 13.3493 12.8759 13.3066 12.586L12.6185 11.2942" fill="#FFDBE1"/>
<path d="M13.2382 12.7682C13.1698 12.7682 13.0929 12.7103 13.0801 12.702V12.6937L12.3876 11.4101L12.4261 11.3894L13.11 12.6689C13.1399 12.6896 13.2211 12.7392 13.2596 12.7185C13.2852 12.7061 13.2895 12.6606 13.281 12.5902L12.5928 11.3025L12.6313 11.2859L13.3237 12.5819C13.3365 12.6771 13.3237 12.731 13.281 12.7558C13.2681 12.7641 13.251 12.7682 13.2382 12.7682Z" fill="#E47487"/>
<path d="M12.9989 11.1244L13.7127 12.4577C13.7127 12.4577 13.9648 12.6481 13.9221 12.3583L13.2083 11.0168" fill="#FFDBE1"/>
<path d="M13.8537 12.5364C13.7853 12.5364 13.7084 12.4784 13.6956 12.4701V12.4618L12.9775 11.1286L13.016 11.1079L13.7255 12.437C13.7554 12.4577 13.8366 12.5115 13.8751 12.4867C13.9007 12.4742 13.905 12.4287 13.8964 12.3583L13.1826 11.0209L13.2211 11.0002L13.9392 12.3459C13.952 12.4411 13.9392 12.4949 13.8964 12.5198C13.8836 12.5281 13.8665 12.5322 13.8537 12.5322V12.5364Z" fill="#E47487"/>
<path d="M13.5802 10.8387L14.2854 12.1596C14.2854 12.1596 14.5376 12.35 14.4948 12.0602L13.7853 10.7269" fill="#FFDBE1"/>
<path d="M14.4307 12.2424C14.3623 12.2424 14.2854 12.1844 14.2726 12.1761V12.1678L13.5588 10.847L13.5972 10.8263L14.3025 12.143C14.3324 12.1637 14.4136 12.2134 14.4521 12.1927C14.4777 12.1803 14.482 12.1347 14.4735 12.0643L13.7639 10.7352L13.8024 10.7145L14.5162 12.0519C14.529 12.1471 14.5162 12.201 14.4735 12.2258C14.4606 12.2341 14.4435 12.2382 14.4307 12.2382V12.2424Z" fill="#E47487"/>
<path d="M14.1401 10.5489L14.8496 11.8739C14.8496 11.8739 15.1018 12.0643 15.059 11.7745L14.3623 10.4288" fill="#FFDBE1"/>
<path d="M14.9906 11.9567C14.9223 11.9567 14.8453 11.8987 14.8325 11.8904V11.8821L14.1187 10.5572L14.1572 10.5364L14.8624 11.8573C14.8923 11.878 14.9735 11.9277 15.012 11.907C15.0377 11.8946 15.0419 11.849 15.0334 11.7786L14.3367 10.4371L14.3752 10.4205L15.0761 11.7703C15.089 11.8656 15.0761 11.9194 15.0334 11.9442C15.0206 11.9525 15.0035 11.9567 14.9906 11.9567Z" fill="#E47487"/>
<path d="M14.6102 10.2383L15.2984 11.5219C15.2984 11.5219 15.5506 11.7124 15.5078 11.4225L14.8539 10.1514" fill="#FFDBE1"/>
<path d="M15.4437 11.6047C15.3753 11.6047 15.2984 11.5468 15.2856 11.5385V11.5302L14.5931 10.2466L14.6316 10.2259L15.3155 11.5053C15.3454 11.526 15.4266 11.5757 15.4651 11.555C15.4907 11.5426 15.495 11.4971 15.4865 11.4267L14.8368 10.1597L14.8752 10.1431L15.5292 11.4184C15.542 11.5136 15.5292 11.5675 15.4865 11.5923C15.4736 11.6006 15.4565 11.6047 15.4437 11.6047Z" fill="#E47487"/>
<path d="M15.1787 9.96091L15.8156 11.1534C15.8156 11.1534 16.0677 11.3439 16.025 11.054L15.3796 9.83255" fill="#FFDBE1"/>
<path d="M15.9609 11.2403C15.8925 11.2403 15.8156 11.1824 15.8027 11.1741V11.1658L15.1573 9.97333L15.1958 9.95263L15.8327 11.141C15.8626 11.1617 15.9438 11.2114 15.9823 11.1907C16.0079 11.1782 16.0122 11.1327 16.0036 11.0623L15.3625 9.84497L15.401 9.82427L16.0464 11.0499C16.0592 11.1451 16.0464 11.1989 16.0036 11.2238C15.9908 11.2321 15.9737 11.2362 15.9609 11.2362V11.2403Z" fill="#E47487"/>
<path d="M15.6959 9.62966L16.3285 10.8097C16.3285 10.8097 16.5807 11.0002 16.5379 10.7104L15.8882 9.49302" fill="#FFDBE1"/>
<path d="M16.4695 10.8967C16.4011 10.8967 16.3242 10.8387 16.3114 10.8304V10.8222L15.6745 9.64208L15.713 9.62138L16.3413 10.7973C16.3712 10.818 16.4524 10.8718 16.4909 10.847C16.5165 10.8346 16.5208 10.789 16.5123 10.7186L15.8626 9.50544L15.9011 9.48474L16.555 10.7104C16.5678 10.8056 16.555 10.8594 16.5123 10.8843C16.4994 10.8925 16.4823 10.8967 16.4695 10.8967Z" fill="#E47487"/>
<path d="M16.1618 9.28185L16.7687 10.4164C16.7687 10.4164 17.0209 10.6068 16.9782 10.317L16.3498 9.12037" fill="#FFDBE1"/>
<path d="M16.914 10.4992C16.8457 10.4992 16.7687 10.4412 16.7559 10.4329V10.4247L16.1447 9.29013L16.1832 9.26943L16.7858 10.3998C16.8157 10.4205 16.8969 10.4702 16.9354 10.4495C16.9611 10.4371 16.9653 10.3915 16.9568 10.3211L16.3285 9.12865L16.3669 9.11209L16.9953 10.317C17.0081 10.4122 16.9953 10.4661 16.9525 10.4909C16.9397 10.4992 16.9226 10.5033 16.9098 10.5033L16.914 10.4992Z" fill="#E47487"/>
<path d="M3.83492 9.13693C3.62121 9.51373 1.52684 13.3686 5.04453 13.6253C5.12574 13.6295 5.21122 13.6336 5.29671 13.6377C5.36082 13.6377 5.42493 13.6377 5.48905 13.6377C5.48905 13.6377 5.68566 13.6129 6.02332 13.5591C7.26285 13.3562 10.0454 12.4328 12.4432 11.3811C12.4432 11.3811 16.2259 9.70419 16.6661 8.70631C16.6661 8.70631 17.3158 7.97343 16.4994 6.665C16.4994 6.665 15.1915 4.55331 11.7636 5.12057C11.7636 5.12057 8.4981 5.38556 5.8609 7.24883C5.8609 7.24883 4.8009 7.81195 3.86911 9.07896C3.85629 9.09967 3.84347 9.11623 3.83065 9.13693H3.83492Z" fill="#FFDBE1"/>
<path d="M5.41211 13.6543C5.36937 13.6543 5.3309 13.6543 5.29243 13.6543C5.20695 13.6543 5.12146 13.6502 5.04025 13.6419C4.13839 13.5756 3.52718 13.2692 3.22371 12.7268C2.52273 11.4764 3.68105 9.36052 3.81355 9.12451C3.81355 9.12451 3.8392 9.08725 3.85202 9.0624C4.77525 7.8078 5.83953 7.23226 5.84808 7.22398C8.46391 5.38142 11.7337 5.09986 11.7679 5.09572C13.5417 4.80174 14.7427 5.24064 15.4352 5.65884C16.1874 6.11431 16.5208 6.6443 16.5251 6.64844C17.3115 7.9196 16.7345 8.66077 16.6918 8.71459C16.2473 9.70833 12.6142 11.3314 12.4603 11.3977C10.1565 12.408 7.33124 13.3645 6.03187 13.5756C5.69848 13.6295 5.49759 13.6543 5.49759 13.6543C5.47195 13.6543 5.4463 13.6543 5.42066 13.6543H5.41211ZM3.85202 9.14521C3.71952 9.38123 2.56975 11.4764 3.26218 12.7061C3.5571 13.2361 4.15976 13.5384 5.04453 13.6005C5.12574 13.6046 5.21122 13.6088 5.29671 13.6129C5.36082 13.6129 5.42493 13.6129 5.48905 13.6129C5.48905 13.6129 5.68993 13.5881 6.02332 13.5342C7.31841 13.3231 10.1394 12.3666 12.4389 11.3604C12.4774 11.3439 16.2173 9.67521 16.6533 8.69389C16.6533 8.69389 17.2816 7.95273 16.4866 6.66914C16.4866 6.665 16.1532 6.13915 15.4095 5.69197C14.7214 5.27791 13.5374 4.84315 11.7722 5.13713C11.738 5.13713 8.47673 5.42283 5.878 7.26125C5.86518 7.26953 4.80944 7.84093 3.89049 9.08725C3.87339 9.10795 3.86484 9.12451 3.85202 9.14521Z" fill="#E47487"/>
<path d="M3.09975 12.3335C3.09975 12.3335 4.2025 13.0125 6.34389 12.2631Z" fill="#FFDBE1"/>
<path d="M4.45896 12.6357C3.56137 12.6357 3.09548 12.3583 3.08693 12.3542L3.1083 12.321C3.1083 12.321 4.22815 12.9877 6.33534 12.2465L6.34816 12.2838C5.58735 12.5488 4.95477 12.6357 4.45468 12.6357H4.45896Z" fill="#E47487"/>
<path d="M16.5165 6.68571C16.5165 6.68571 16.5593 8.22186 14.871 8.98373Z" fill="#FFDBE1"/>
<path d="M14.8795 9.00029L14.8624 8.96303C15.7258 8.57381 16.1233 7.97757 16.3071 7.54281C16.5037 7.07078 16.4952 6.68985 16.4952 6.68571H16.5379C16.5379 6.68571 16.5465 7.07906 16.3456 7.55523C16.1618 7.99413 15.7557 8.6028 14.8795 9.00029Z" fill="#E47487"/>
</svg>
