<svg width="20" height="20" viewBox="0 0 20 20" fill="none" xmlns="http://www.w3.org/2000/svg">
<path d="M10 20C15.5228 20 20 15.5228 20 10C20 4.47715 15.5228 0 10 0C4.47715 0 0 4.47715 0 10C0 15.5228 4.47715 20 10 20Z" fill="#A78F92"/>
<path d="M4.03716 14.5525V6.16342C4.03716 6.16342 4.10034 5.0428 5.14463 5.03891H14.8814C14.8814 5.03891 15.9666 5.15564 15.9666 6.11673V14.5837C15.9666 14.5837 15.8811 15.3735 15.6432 14.5681L15.2084 9.62646C15.201 9.54864 15.1415 9.42412 15.0672 9.42412H14.5766C14.4949 9.42412 14.3983 9.56031 14.3945 9.64591L14.1493 14.5681C14.1493 14.5681 13.9858 15.393 13.826 14.5681L13.5807 9.607C13.5732 9.52918 13.5324 9.42412 13.458 9.42412H12.9192C12.8374 9.42412 12.7705 9.49027 12.7668 9.57198L12.5438 14.5642C12.5438 14.5642 12.3952 15.4086 12.2317 14.5642L12.0087 9.607C12.0012 9.52529 11.9566 9.42412 11.8786 9.42412H11.336C11.258 9.42412 11.1985 9.53697 11.1948 9.61868L10.9607 14.5681C10.9607 14.5681 10.8009 15.393 10.6188 14.5681L10.3846 9.62257C10.3809 9.54086 10.3438 9.42412 10.262 9.42412H9.70827C9.63023 9.42412 9.57448 9.54864 9.56705 9.63035L9.3515 14.5681C9.3515 14.5681 9.1917 15.393 9.01703 14.5681L8.80149 9.58366C8.79777 9.50195 8.73459 9.42412 8.65655 9.42412H8.11768C8.03964 9.42412 8.00248 9.48638 7.99504 9.5642L7.75348 14.5642C7.75348 14.5642 7.58625 15.3891 7.43016 14.5564L7.17374 9.54475C7.16259 9.45914 7.11056 9.41634 7.04367 9.42023H6.5271C6.45649 9.42802 6.43419 9.48249 6.42304 9.55642L6.18148 14.5798C6.18148 14.5798 6.02911 15.3502 5.84701 14.5642L5.60917 9.55642C5.60917 9.47082 5.59059 9.42023 5.50883 9.42023H4.98854C4.91421 9.41634 4.88448 9.47082 4.87334 9.54864L4.40508 14.5603C4.40508 14.5603 4.16723 15.393 4.05574 14.5409L4.03716 14.5525Z" fill="#FFB5C6"/>
<path d="M4.03716 14.5525H4.07433V6.16342C4.07433 6.16342 4.07433 6.10117 4.10034 5.99611C4.16723 5.68482 4.38278 5.08171 5.14463 5.07782H14.8814C14.8814 5.07782 14.9408 5.0856 15.0412 5.10895C15.1898 5.14786 15.4128 5.22568 15.5986 5.38132C15.7845 5.53696 15.9294 5.76654 15.9294 6.11284V14.5837C15.9294 14.5837 15.9182 14.6654 15.8997 14.7471C15.8885 14.7899 15.8774 14.8288 15.8625 14.856L15.8439 14.8833H15.8216C15.7919 14.8521 15.7399 14.7549 15.6804 14.5525L15.6432 14.5642H15.6804L15.2456 9.61868C15.2419 9.57198 15.2233 9.51751 15.1936 9.47082C15.1638 9.42412 15.1267 9.38132 15.0672 9.38132H14.5729C14.5135 9.38132 14.4614 9.42412 14.4243 9.47471C14.3871 9.52529 14.3574 9.58366 14.3537 9.64202L14.1084 14.5642H14.1456L14.1084 14.5564C14.1084 14.5564 14.0898 14.6459 14.0601 14.7354C14.0452 14.7782 14.0266 14.8249 14.0118 14.8521L13.9858 14.8833L13.9746 14.8911L13.9635 14.8833C13.9374 14.8599 13.8928 14.7588 13.8557 14.5564L13.8185 14.5642H13.8557L13.6104 9.59922C13.6067 9.55253 13.5918 9.50584 13.5695 9.46303C13.5472 9.42023 13.5063 9.38132 13.4506 9.38132H12.9117C12.8114 9.38132 12.7296 9.46303 12.7259 9.56809L12.5029 14.5603C12.5029 14.5603 12.4881 14.6459 12.4583 14.7393C12.4435 14.786 12.4286 14.8288 12.41 14.8599L12.3877 14.8949L12.3803 14.9027L12.3692 14.8949C12.3431 14.8716 12.2985 14.7665 12.2614 14.5564L12.2242 14.5642H12.2614L12.0384 9.607C12.0347 9.56031 12.0198 9.50973 11.9938 9.46693C11.9678 9.42412 11.9269 9.3891 11.8712 9.3891H11.3249C11.2654 9.3891 11.2245 9.42802 11.1948 9.47471C11.1651 9.5214 11.1502 9.57198 11.1465 9.62257L10.9124 14.572H10.9495L10.9124 14.5642C10.9124 14.5642 10.8938 14.6537 10.864 14.7432C10.8492 14.786 10.8306 14.8327 10.812 14.8599L10.7749 14.8988C10.7749 14.8988 10.7526 14.8949 10.7265 14.8405C10.7005 14.7899 10.6708 14.7004 10.6411 14.5642L10.6039 14.572H10.6411L10.4069 9.62257C10.4069 9.57588 10.3921 9.5214 10.3698 9.4786C10.3475 9.43191 10.3066 9.3891 10.2471 9.3891H9.6934C9.63394 9.3891 9.59306 9.4358 9.56333 9.4786C9.5336 9.52529 9.51874 9.57977 9.51502 9.62646L9.29947 14.5681H9.33664L9.29947 14.5603C9.29947 14.5603 9.28089 14.6498 9.25116 14.7393C9.2363 14.7821 9.21771 14.8288 9.19913 14.856L9.17312 14.8872L9.16197 14.8949L9.15082 14.8872C9.12481 14.8638 9.08021 14.7626 9.03561 14.5603L8.99845 14.5681H9.03561L8.82007 9.57977C8.81264 9.4786 8.74203 9.38521 8.63797 9.38521H8.0991C7.99876 9.38521 7.94673 9.47471 7.9393 9.5642L7.69774 14.5681H7.7349L7.69774 14.5603C7.69774 14.5603 7.67916 14.6498 7.64943 14.7393C7.63456 14.7821 7.61598 14.8249 7.5974 14.856L7.57138 14.8872L7.56024 14.8949L7.54909 14.8872C7.52307 14.8638 7.47848 14.7626 7.44131 14.5525L7.40415 14.5603H7.44131L7.18489 9.54864C7.17745 9.45136 7.10684 9.38521 7.02508 9.38521H6.49365C6.44906 9.3891 6.41561 9.41245 6.39331 9.44358C6.37101 9.47471 6.36358 9.51362 6.35615 9.54864L6.11087 14.5759H6.14803L6.11087 14.5681C6.11087 14.5681 6.096 14.6498 6.06627 14.7315C6.05141 14.7704 6.03654 14.8132 6.01796 14.8405L5.9808 14.8755C5.9808 14.8755 5.9585 14.8716 5.93249 14.821C5.90647 14.7704 5.87674 14.6848 5.84701 14.5564L5.80985 14.5642H5.84701L5.60917 9.55642C5.60917 9.51362 5.60545 9.47082 5.58315 9.4358C5.56085 9.40078 5.51998 9.38132 5.47166 9.38132H4.94766C4.90307 9.37743 4.86219 9.39689 4.83617 9.42802C4.81387 9.45914 4.80273 9.49805 4.79529 9.54086L4.34933 14.5681H4.3865L4.34933 14.5603C4.34933 14.5603 4.32332 14.6498 4.28616 14.7393C4.26758 14.7821 4.24528 14.8288 4.22298 14.856L4.17838 14.8988C4.17838 14.8988 4.1598 14.8988 4.1375 14.8405C4.11521 14.786 4.09291 14.6926 4.07433 14.5525H4.03716L4 14.5642C4.01858 14.7121 4.04088 14.8093 4.06689 14.8755C4.09291 14.9377 4.12635 14.9805 4.17838 14.9844C4.2267 14.9844 4.25643 14.9494 4.28244 14.9105C4.36048 14.7977 4.41994 14.5914 4.41994 14.5914L4.8882 9.57198C4.89192 9.53696 4.90307 9.50973 4.91422 9.49805L4.96624 9.47471H5.49024C5.52369 9.4786 5.53112 9.48638 5.53856 9.49805C5.54599 9.50973 5.55342 9.53696 5.55342 9.57588L5.79127 14.5875C5.821 14.7237 5.85444 14.8132 5.88417 14.8755C5.91391 14.9339 5.94735 14.9728 5.99566 14.9728C6.04398 14.9728 6.06999 14.9377 6.09229 14.9027C6.15918 14.7938 6.19263 14.607 6.19635 14.6031L6.44162 9.57588H6.40446L6.44162 9.58366L6.46764 9.50584L6.51595 9.4786H7.03623C7.08455 9.4786 7.11428 9.50584 7.12171 9.57198L7.37814 14.5837C7.40415 14.7276 7.43016 14.821 7.45989 14.8872C7.48591 14.9494 7.51936 14.9883 7.56767 14.9922C7.61598 14.9922 7.64199 14.9533 7.66429 14.9183C7.73119 14.8054 7.77207 14.5992 7.77207 14.5992L8.01363 9.59144C8.02478 9.5214 8.04707 9.48638 8.0991 9.48638H8.64168C8.69743 9.48638 8.74574 9.54475 8.74946 9.6109L8.965 14.5992C8.99473 14.7432 9.02447 14.8366 9.0542 14.8988C9.08393 14.9611 9.11737 15 9.16569 15C9.214 15 9.24373 14.9611 9.26603 14.9261C9.33292 14.8132 9.3738 14.607 9.3738 14.6031L9.58935 9.65759L9.62651 9.54475C9.64881 9.50973 9.67482 9.49027 9.6934 9.49027H10.2471L10.3029 9.53696C10.3177 9.56809 10.3289 9.61479 10.3326 9.64981L10.5667 14.5992C10.5965 14.7432 10.6262 14.8366 10.6596 14.8988C10.6894 14.9611 10.7228 15 10.7749 15C10.8232 15 10.8529 14.9611 10.8752 14.9261C10.9458 14.8093 10.983 14.607 10.983 14.6031L11.2171 9.64591L11.2543 9.53696L11.3212 9.48638H11.8675L11.9269 9.52918L11.9604 9.63424L12.1833 14.5914C12.2131 14.7354 12.2391 14.8327 12.2651 14.8949C12.2948 14.9572 12.3208 14.9961 12.3729 15C12.4212 15 12.4472 14.9611 12.4695 14.9222C12.5327 14.8054 12.5661 14.5953 12.5698 14.5953L12.7928 9.59922C12.7928 9.53696 12.8448 9.48638 12.9043 9.48638H13.4469L13.5026 9.52918L13.5361 9.63424L13.7814 14.5992C13.8074 14.7393 13.8334 14.8366 13.8631 14.8988C13.8928 14.9572 13.9226 15 13.9709 15C14.0192 15 14.0452 14.9611 14.0712 14.9261C14.1381 14.8132 14.179 14.607 14.179 14.6031L14.4243 9.67315C14.4243 9.64591 14.4466 9.59144 14.4763 9.55253C14.506 9.51362 14.5469 9.48638 14.5655 9.48638H15.0598C15.0598 9.48638 15.1044 9.50584 15.1229 9.54086L15.1638 9.6537L15.6024 14.5992C15.6432 14.7393 15.6804 14.8327 15.7138 14.8949C15.7473 14.9533 15.7807 14.9922 15.829 14.9922C15.8774 14.9922 15.9034 14.9533 15.922 14.9183C15.9777 14.8093 15.9963 14.6148 16 14.6109V6.11673C16 5.61868 15.7138 5.33463 15.4351 5.18288C15.1638 5.03113 14.8888 5 14.8851 5H5.14463C4.60576 5 4.31589 5.29572 4.16723 5.58366C4.01487 5.8716 4 6.15564 4 6.15953V14.5525H4.03716Z" fill="#F8577D"/>
</svg>
