<svg xmlns="http://www.w3.org/2000/svg" xmlns:xlink="http://www.w3.org/1999/xlink" width="40" height="40" viewBox="0 0 40 40">
  <defs>
    <clipPath id="clip-path">
      <circle id="Ellipse_284" data-name="Ellipse 284" cx="20" cy="20" r="20" transform="translate(908 -13167)" fill="#02635b"/>
    </clipPath>
    <filter id="Path_8695" x="1.322" y="3.299" width="43.756" height="47.185" filterUnits="userSpaceOnUse">
      <feOffset dx="8" dy="12" input="SourceAlpha"/>
      <feGaussianBlur stdDeviation="3" result="blur"/>
      <feFlood flood-opacity="0.251"/>
      <feComposite operator="in" in2="blur"/>
      <feComposite in="SourceGraphic"/>
    </filter>
    <filter id="Path_8695-2" x="1.322" y="3.299" width="43.756" height="47.185" filterUnits="userSpaceOnUse">
      <feOffset dy="2" input="SourceAlpha"/>
      <feGaussianBlur stdDeviation="2" result="blur-2"/>
      <feFlood flood-color="#4dbb86" result="color"/>
      <feComposite operator="out" in="SourceGraphic" in2="blur-2"/>
      <feComposite operator="in" in="color"/>
      <feComposite operator="in" in2="SourceGraphic"/>
    </filter>
    <filter id="Path_8696" x="16.188" y="11.519" width="40.274" height="43.072" filterUnits="userSpaceOnUse">
      <feOffset dx="8" dy="12" input="SourceAlpha"/>
      <feGaussianBlur stdDeviation="3" result="blur-3"/>
      <feFlood flood-opacity="0.251"/>
      <feComposite operator="in" in2="blur-3"/>
      <feComposite in="SourceGraphic"/>
    </filter>
    <filter id="Path_8696-2" x="16.188" y="11.519" width="40.274" height="43.072" filterUnits="userSpaceOnUse">
      <feOffset dy="2" input="SourceAlpha"/>
      <feGaussianBlur stdDeviation="2" result="blur-4"/>
      <feFlood flood-color="#4dbb86" result="color-2"/>
      <feComposite operator="out" in="SourceGraphic" in2="blur-4"/>
      <feComposite operator="in" in="color-2"/>
      <feComposite operator="in" in2="SourceGraphic"/>
    </filter>
    <filter id="Path_8697" x="11.434" y="22.146" width="33.295" height="36.647" filterUnits="userSpaceOnUse">
      <feOffset dx="8" dy="12" input="SourceAlpha"/>
      <feGaussianBlur stdDeviation="3" result="blur-5"/>
      <feFlood flood-opacity="0.251"/>
      <feComposite operator="in" in2="blur-5"/>
      <feComposite in="SourceGraphic"/>
    </filter>
    <filter id="Path_8697-2" x="11.434" y="22.146" width="33.295" height="36.647" filterUnits="userSpaceOnUse">
      <feOffset dy="2" input="SourceAlpha"/>
      <feGaussianBlur stdDeviation="2" result="blur-6"/>
      <feFlood flood-color="#4dbb86" result="color-3"/>
      <feComposite operator="out" in="SourceGraphic" in2="blur-6"/>
      <feComposite operator="in" in="color-3"/>
      <feComposite operator="in" in2="SourceGraphic"/>
    </filter>
    <filter id="Path_8698" x="23.168" y="-2.901" width="33.295" height="36.647" filterUnits="userSpaceOnUse">
      <feOffset dx="8" dy="12" input="SourceAlpha"/>
      <feGaussianBlur stdDeviation="3" result="blur-7"/>
      <feFlood flood-opacity="0.251"/>
      <feComposite operator="in" in2="blur-7"/>
      <feComposite in="SourceGraphic"/>
    </filter>
    <filter id="Path_8698-2" x="23.168" y="-2.901" width="33.295" height="36.647" filterUnits="userSpaceOnUse">
      <feOffset dy="2" input="SourceAlpha"/>
      <feGaussianBlur stdDeviation="2" result="blur-8"/>
      <feFlood flood-color="#4dbb86" result="color-4"/>
      <feComposite operator="out" in="SourceGraphic" in2="blur-8"/>
      <feComposite operator="in" in="color-4"/>
      <feComposite operator="in" in2="SourceGraphic"/>
    </filter>
    <filter id="Path_8699" x="-4.518" y="24.524" width="33.952" height="37.265" filterUnits="userSpaceOnUse">
      <feOffset dx="8" dy="12" input="SourceAlpha"/>
      <feGaussianBlur stdDeviation="3" result="blur-9"/>
      <feFlood flood-opacity="0.251"/>
      <feComposite operator="in" in2="blur-9"/>
      <feComposite in="SourceGraphic"/>
    </filter>
    <filter id="Path_8699-2" x="-4.518" y="24.524" width="33.952" height="37.265" filterUnits="userSpaceOnUse">
      <feOffset dy="2" input="SourceAlpha"/>
      <feGaussianBlur stdDeviation="2" result="blur-10"/>
      <feFlood flood-color="#4dbb86" result="color-5"/>
      <feComposite operator="out" in="SourceGraphic" in2="blur-10"/>
      <feComposite operator="in" in="color-5"/>
      <feComposite operator="in" in2="SourceGraphic"/>
    </filter>
    <filter id="Path_8700" x="23.754" y="31.639" width="33.482" height="36.119" filterUnits="userSpaceOnUse">
      <feOffset dx="8" dy="12" input="SourceAlpha"/>
      <feGaussianBlur stdDeviation="3" result="blur-11"/>
      <feFlood flood-opacity="0.251"/>
      <feComposite operator="in" in2="blur-11"/>
      <feComposite in="SourceGraphic"/>
    </filter>
    <filter id="Path_8700-2" x="23.754" y="31.639" width="33.482" height="36.119" filterUnits="userSpaceOnUse">
      <feOffset dy="2" input="SourceAlpha"/>
      <feGaussianBlur stdDeviation="2" result="blur-12"/>
      <feFlood flood-color="#4dbb86" result="color-6"/>
      <feComposite operator="out" in="SourceGraphic" in2="blur-12"/>
      <feComposite operator="in" in="color-6"/>
      <feComposite operator="in" in2="SourceGraphic"/>
    </filter>
    <filter id="Path_8701" x="8.269" y="-12.787" width="36.809" height="39.736" filterUnits="userSpaceOnUse">
      <feOffset dx="8" dy="12" input="SourceAlpha"/>
      <feGaussianBlur stdDeviation="3" result="blur-13"/>
      <feFlood flood-opacity="0.251"/>
      <feComposite operator="in" in2="blur-13"/>
      <feComposite in="SourceGraphic"/>
    </filter>
    <filter id="Path_8701-2" x="8.269" y="-12.787" width="36.809" height="39.736" filterUnits="userSpaceOnUse">
      <feOffset dy="2" input="SourceAlpha"/>
      <feGaussianBlur stdDeviation="2" result="blur-14"/>
      <feFlood flood-color="#4dbb86" result="color-7"/>
      <feComposite operator="out" in="SourceGraphic" in2="blur-14"/>
      <feComposite operator="in" in="color-7"/>
      <feComposite operator="in" in2="SourceGraphic"/>
    </filter>
    <filter id="Path_8702" x="-15.174" y="10.748" width="36.809" height="39.736" filterUnits="userSpaceOnUse">
      <feOffset dx="8" dy="12" input="SourceAlpha"/>
      <feGaussianBlur stdDeviation="3" result="blur-15"/>
      <feFlood flood-opacity="0.251"/>
      <feComposite operator="in" in2="blur-15"/>
      <feComposite in="SourceGraphic"/>
    </filter>
    <filter id="Path_8702-2" x="-15.174" y="10.748" width="36.809" height="39.736" filterUnits="userSpaceOnUse">
      <feOffset dy="2" input="SourceAlpha"/>
      <feGaussianBlur stdDeviation="2" result="blur-16"/>
      <feFlood flood-color="#4dbb86" result="color-8"/>
      <feComposite operator="out" in="SourceGraphic" in2="blur-16"/>
      <feComposite operator="in" in="color-8"/>
      <feComposite operator="in" in2="SourceGraphic"/>
    </filter>
    <filter id="Path_8703" x="33.679" y="8.125" width="36.809" height="39.736" filterUnits="userSpaceOnUse">
      <feOffset dx="8" dy="12" input="SourceAlpha"/>
      <feGaussianBlur stdDeviation="3" result="blur-17"/>
      <feFlood flood-opacity="0.251"/>
      <feComposite operator="in" in2="blur-17"/>
      <feComposite in="SourceGraphic"/>
    </filter>
    <filter id="Path_8703-2" x="33.679" y="8.125" width="36.809" height="39.736" filterUnits="userSpaceOnUse">
      <feOffset dy="2" input="SourceAlpha"/>
      <feGaussianBlur stdDeviation="2" result="blur-18"/>
      <feFlood flood-color="#4dbb86" result="color-9"/>
      <feComposite operator="out" in="SourceGraphic" in2="blur-18"/>
      <feComposite operator="in" in="color-9"/>
      <feComposite operator="in" in2="SourceGraphic"/>
    </filter>
  </defs>
  <g id="ce-eyemask-green" transform="translate(-908 13167)" clip-path="url(#clip-path)">
    <circle id="Ellipse_283" data-name="Ellipse 283" cx="20" cy="20" r="20" transform="translate(908 -13167)" fill="#003b36"/>
    <g id="Group_7482" data-name="Group 7482" transform="translate(882.434 -13165.713) rotate(-22)">
      <g id="Group_7473" data-name="Group 7473" transform="translate(30.265 14.398) rotate(37)">
        <g data-type="innerShadowGroup">
          <g transform="matrix(0.97, -0.26, 0.26, 0.97, -8.47, -1.14)" filter="url(#Path_8695)">
            <path id="Path_8695-3" data-name="Path 8695" d="M6.29,13.939c.017,1.122-4.844.995-4.844.995S1.385,16.366,3.3,18.671c2.479,2.985,7.9,4.161,9.774.8a3.153,3.153,0,0,0,.216-2.746,4.878,4.878,0,0,1-.859,1.226,6.294,6.294,0,0,1-2.12,1.451,10.9,10.9,0,0,0,1.807-1.556,4.764,4.764,0,0,0,.9-1.56q-.169-.236-.353-.484a16.965,16.965,0,0,1-2.837,2.32,4.487,4.487,0,0,1-2.1.817,5.587,5.587,0,0,0,1.993-1.025,14.554,14.554,0,0,0,2.509-2.686c-.318-.419-.659-.857-1.016-1.308a8.106,8.106,0,0,1-1.839.95,7.258,7.258,0,0,1-2.546.389,20.848,20.848,0,0,0,2.452-.74,4.2,4.2,0,0,0,1.551-1.079c-.666-.832-1.377-1.7-2.089-2.552a5.558,5.558,0,0,1-1.545.6,2.647,2.647,0,0,1-1.532-.066,6.378,6.378,0,0,0,1.482-.3,2.923,2.923,0,0,0,1.171-.744C7.354,9.237,2.771,3.973,2.771,3.973L7.052,8.515a12.684,12.684,0,0,0,.8-2.5A5.5,5.5,0,0,0,7.8,4.138s.111.691.161,1.675A11.482,11.482,0,0,1,7.4,8.884l2.62,2.781a16.662,16.662,0,0,0,1.25-2.279A27.514,27.514,0,0,0,12.445,5.66a15.108,15.108,0,0,1-.7,3.519,20.756,20.756,0,0,1-1.323,2.915l1.812,1.926a22.837,22.837,0,0,0,2.339-2.7,30.829,30.829,0,0,0,1.6-3.513A10.261,10.261,0,0,1,14.87,11.49c-.829,1.33-1.782,2.518-2.162,3.03l.593.631A9.423,9.423,0,0,0,16,13.589a22.936,22.936,0,0,0,2.665-3.061,15.763,15.763,0,0,1-2.41,3.4,13.168,13.168,0,0,1-2.468,1.7c.111.1.222.194.333.281a3.854,3.854,0,0,0,1.778-.1,4.948,4.948,0,0,0,1.5-.966,3.356,3.356,0,0,1-1.471,1.242,3.949,3.949,0,0,1-1.1.3c3.768,2.111,6.983-2.7,5.833-7C19.749,5.967,16,2.836,16,2.836a9.988,9.988,0,0,1-.239,3.35c-.443,1.525-1.6,4.271-2.98,4.071s2.649-4.728,2.152-7.515C14.515.39,9.657,0,9.657,0A2.72,2.72,0,0,1,11.17,1.761c.473,1.306-.575,5.711-1.644,5.879-1.382.218,1.524-4.766-.92-6.76-1.4-1.141-3.28.261-4.759.745a6.256,6.256,0,0,1-2.994.131s-.078.771-.185,2.49S-.532,7.192.327,8.28,4.44,8.792,4.12,9.722.209,9.25.209,9.25s.035.836.086,2.794S6.274,12.816,6.29,13.939Z" transform="translate(7.89 3.3) rotate(15)" fill="#007c73"/>
          </g>
          <g transform="matrix(0.97, -0.26, 0.26, 0.97, -8.47, -1.14)" filter="url(#Path_8695-2)">
            <path id="Path_8695-4" data-name="Path 8695" d="M6.29,13.939c.017,1.122-4.844.995-4.844.995S1.385,16.366,3.3,18.671c2.479,2.985,7.9,4.161,9.774.8a3.153,3.153,0,0,0,.216-2.746,4.878,4.878,0,0,1-.859,1.226,6.294,6.294,0,0,1-2.12,1.451,10.9,10.9,0,0,0,1.807-1.556,4.764,4.764,0,0,0,.9-1.56q-.169-.236-.353-.484a16.965,16.965,0,0,1-2.837,2.32,4.487,4.487,0,0,1-2.1.817,5.587,5.587,0,0,0,1.993-1.025,14.554,14.554,0,0,0,2.509-2.686c-.318-.419-.659-.857-1.016-1.308a8.106,8.106,0,0,1-1.839.95,7.258,7.258,0,0,1-2.546.389,20.848,20.848,0,0,0,2.452-.74,4.2,4.2,0,0,0,1.551-1.079c-.666-.832-1.377-1.7-2.089-2.552a5.558,5.558,0,0,1-1.545.6,2.647,2.647,0,0,1-1.532-.066,6.378,6.378,0,0,0,1.482-.3,2.923,2.923,0,0,0,1.171-.744C7.354,9.237,2.771,3.973,2.771,3.973L7.052,8.515a12.684,12.684,0,0,0,.8-2.5A5.5,5.5,0,0,0,7.8,4.138s.111.691.161,1.675A11.482,11.482,0,0,1,7.4,8.884l2.62,2.781a16.662,16.662,0,0,0,1.25-2.279A27.514,27.514,0,0,0,12.445,5.66a15.108,15.108,0,0,1-.7,3.519,20.756,20.756,0,0,1-1.323,2.915l1.812,1.926a22.837,22.837,0,0,0,2.339-2.7,30.829,30.829,0,0,0,1.6-3.513A10.261,10.261,0,0,1,14.87,11.49c-.829,1.33-1.782,2.518-2.162,3.03l.593.631A9.423,9.423,0,0,0,16,13.589a22.936,22.936,0,0,0,2.665-3.061,15.763,15.763,0,0,1-2.41,3.4,13.168,13.168,0,0,1-2.468,1.7c.111.1.222.194.333.281a3.854,3.854,0,0,0,1.778-.1,4.948,4.948,0,0,0,1.5-.966,3.356,3.356,0,0,1-1.471,1.242,3.949,3.949,0,0,1-1.1.3c3.768,2.111,6.983-2.7,5.833-7C19.749,5.967,16,2.836,16,2.836a9.988,9.988,0,0,1-.239,3.35c-.443,1.525-1.6,4.271-2.98,4.071s2.649-4.728,2.152-7.515C14.515.39,9.657,0,9.657,0A2.72,2.72,0,0,1,11.17,1.761c.473,1.306-.575,5.711-1.644,5.879-1.382.218,1.524-4.766-.92-6.76-1.4-1.141-3.28.261-4.759.745a6.256,6.256,0,0,1-2.994.131s-.078.771-.185,2.49S-.532,7.192.327,8.28,4.44,8.792,4.12,9.722.209,9.25.209,9.25s.035.836.086,2.794S6.274,12.816,6.29,13.939Z" transform="translate(7.89 3.3) rotate(15)" fill="#fff"/>
          </g>
        </g>
      </g>
      <g id="Group_7474" data-name="Group 7474" transform="translate(48.885 30.786) rotate(81)">
        <g data-type="innerShadowGroup">
          <g transform="matrix(0.52, -0.86, 0.86, 0.52, -25.99, 20.89)" filter="url(#Path_8696)">
            <path id="Path_8696-3" data-name="Path 8696" d="M11.09,10.663c-.013.859,3.677.761,3.677.761s.046,1.1-1.406,2.859c-1.882,2.284-6,3.183-7.419.616a2.429,2.429,0,0,1-.164-2.1,3.733,3.733,0,0,0,.652.938,4.773,4.773,0,0,0,1.609,1.11,8.292,8.292,0,0,1-1.372-1.19,3.652,3.652,0,0,1-.681-1.194q.128-.18.268-.37a12.9,12.9,0,0,0,2.153,1.774A3.388,3.388,0,0,0,10,14.491a4.226,4.226,0,0,1-1.513-.784,11.1,11.1,0,0,1-1.9-2.054c.241-.32.5-.656.771-1a6.137,6.137,0,0,0,1.4.727,5.469,5.469,0,0,0,1.932.3A15.73,15.73,0,0,1,8.82,11.11a3.189,3.189,0,0,1-1.177-.825c.506-.637,1.045-1.3,1.586-1.952a4.2,4.2,0,0,0,1.172.459,2,2,0,0,0,1.163-.05,4.807,4.807,0,0,1-1.125-.227,2.217,2.217,0,0,1-.889-.569c.732-.879,4.211-4.906,4.211-4.906L10.512,6.514a9.759,9.759,0,0,1-.6-1.909,4.24,4.24,0,0,1,.039-1.439s-.084.529-.122,1.282A8.846,8.846,0,0,0,10.248,6.8L8.259,8.924A12.778,12.778,0,0,1,7.31,7.181a21.171,21.171,0,0,1-.892-2.85,11.64,11.64,0,0,0,.53,2.692,15.939,15.939,0,0,0,1,2.23L6.576,10.726A17.432,17.432,0,0,1,4.8,8.661,23.678,23.678,0,0,1,3.586,5.974,7.893,7.893,0,0,0,4.578,8.79c.629,1.017,1.352,1.927,1.641,2.318l-.45.483a7.136,7.136,0,0,1-2.05-1.2A17.51,17.51,0,0,1,1.7,8.054a12.063,12.063,0,0,0,1.829,2.6,9.991,9.991,0,0,0,1.873,1.3c-.084.076-.169.149-.252.215A2.9,2.9,0,0,1,3.8,12.1a3.754,3.754,0,0,1-1.142-.739,2.555,2.555,0,0,0,1.117.95,2.978,2.978,0,0,0,.836.226C1.747,14.149-.693,10.468.18,7.182.875,4.565,3.72,2.169,3.72,2.169A7.7,7.7,0,0,0,3.9,4.732C4.238,5.9,5.116,8,6.163,7.847S4.153,4.23,4.53,2.1c.318-1.8,4-2.1,4-2.1A2.073,2.073,0,0,0,7.386,1.347c-.359,1,.437,4.369,1.248,4.5,1.049.167-1.156-3.646.7-5.171,1.062-.873,2.489.2,3.612.57a4.712,4.712,0,0,0,2.272.1s.059.59.141,1.905.91,2.253.258,3.085-3.121.392-2.879,1.1,2.969-.36,2.969-.36-.026.639-.065,2.138S11.1,9.8,11.09,10.663Z" transform="translate(31.29 11.52) rotate(59)" fill="#007c73"/>
          </g>
          <g transform="matrix(0.52, -0.86, 0.86, 0.52, -25.99, 20.89)" filter="url(#Path_8696-2)">
            <path id="Path_8696-4" data-name="Path 8696" d="M11.09,10.663c-.013.859,3.677.761,3.677.761s.046,1.1-1.406,2.859c-1.882,2.284-6,3.183-7.419.616a2.429,2.429,0,0,1-.164-2.1,3.733,3.733,0,0,0,.652.938,4.773,4.773,0,0,0,1.609,1.11,8.292,8.292,0,0,1-1.372-1.19,3.652,3.652,0,0,1-.681-1.194q.128-.18.268-.37a12.9,12.9,0,0,0,2.153,1.774A3.388,3.388,0,0,0,10,14.491a4.226,4.226,0,0,1-1.513-.784,11.1,11.1,0,0,1-1.9-2.054c.241-.32.5-.656.771-1a6.137,6.137,0,0,0,1.4.727,5.469,5.469,0,0,0,1.932.3A15.73,15.73,0,0,1,8.82,11.11a3.189,3.189,0,0,1-1.177-.825c.506-.637,1.045-1.3,1.586-1.952a4.2,4.2,0,0,0,1.172.459,2,2,0,0,0,1.163-.05,4.807,4.807,0,0,1-1.125-.227,2.217,2.217,0,0,1-.889-.569c.732-.879,4.211-4.906,4.211-4.906L10.512,6.514a9.759,9.759,0,0,1-.6-1.909,4.24,4.24,0,0,1,.039-1.439s-.084.529-.122,1.282A8.846,8.846,0,0,0,10.248,6.8L8.259,8.924A12.778,12.778,0,0,1,7.31,7.181a21.171,21.171,0,0,1-.892-2.85,11.64,11.64,0,0,0,.53,2.692,15.939,15.939,0,0,0,1,2.23L6.576,10.726A17.432,17.432,0,0,1,4.8,8.661,23.678,23.678,0,0,1,3.586,5.974,7.893,7.893,0,0,0,4.578,8.79c.629,1.017,1.352,1.927,1.641,2.318l-.45.483a7.136,7.136,0,0,1-2.05-1.2A17.51,17.51,0,0,1,1.7,8.054a12.063,12.063,0,0,0,1.829,2.6,9.991,9.991,0,0,0,1.873,1.3c-.084.076-.169.149-.252.215A2.9,2.9,0,0,1,3.8,12.1a3.754,3.754,0,0,1-1.142-.739,2.555,2.555,0,0,0,1.117.95,2.978,2.978,0,0,0,.836.226C1.747,14.149-.693,10.468.18,7.182.875,4.565,3.72,2.169,3.72,2.169A7.7,7.7,0,0,0,3.9,4.732C4.238,5.9,5.116,8,6.163,7.847S4.153,4.23,4.53,2.1c.318-1.8,4-2.1,4-2.1A2.073,2.073,0,0,0,7.386,1.347c-.359,1,.437,4.369,1.248,4.5,1.049.167-1.156-3.646.7-5.171,1.062-.873,2.489.2,3.612.57a4.712,4.712,0,0,0,2.272.1s.059.59.141,1.905.91,2.253.258,3.085-3.121.392-2.879,1.1,2.969-.36,2.969-.36-.026.639-.065,2.138S11.1,9.8,11.09,10.663Z" transform="translate(31.29 11.52) rotate(59)" fill="#fff"/>
          </g>
        </g>
      </g>
      <g id="Group_7475" data-name="Group 7475" transform="translate(36.805 51.171) rotate(-171)">
        <g data-type="innerShadowGroup">
          <g transform="matrix(-0.97, -0.22, 0.22, -0.97, 19.16, 40.29)" filter="url(#Path_8697)">
            <path id="Path_8697-3" data-name="Path 8697" d="M8.853,8.513c-.01.685,2.935.608,2.935.608A3.871,3.871,0,0,1,10.666,11.4c-1.5,1.823-4.79,2.541-5.923.491a1.939,1.939,0,0,1-.131-1.677,2.98,2.98,0,0,0,.521.748,3.81,3.81,0,0,0,1.284.886,6.62,6.62,0,0,1-1.1-.95,2.916,2.916,0,0,1-.544-.953q.1-.144.214-.3a10.3,10.3,0,0,0,1.719,1.417,2.7,2.7,0,0,0,1.27.5,3.374,3.374,0,0,1-1.208-.626A8.862,8.862,0,0,1,5.254,9.3c.193-.256.4-.523.616-.8a4.9,4.9,0,0,0,1.114.58,4.366,4.366,0,0,0,1.543.238,12.558,12.558,0,0,1-1.486-.452,2.546,2.546,0,0,1-.94-.659c.4-.508.834-1.037,1.266-1.558a3.353,3.353,0,0,0,.936.367,1.592,1.592,0,0,0,.928-.04,3.838,3.838,0,0,1-.9-.181,1.77,1.77,0,0,1-.71-.455c.584-.7,3.361-3.916,3.361-3.916L8.392,5.2a7.791,7.791,0,0,1-.483-1.524A3.385,3.385,0,0,1,7.94,2.527s-.067.422-.1,1.023a7.062,7.062,0,0,0,.339,1.875l-1.587,1.7a10.2,10.2,0,0,1-.758-1.392,16.9,16.9,0,0,1-.712-2.276,9.293,9.293,0,0,0,.423,2.149,12.725,12.725,0,0,0,.8,1.78L5.25,8.562A13.916,13.916,0,0,1,3.833,6.914a18.9,18.9,0,0,1-.97-2.145,6.3,6.3,0,0,0,.792,2.249c.5.812,1.08,1.538,1.31,1.851l-.359.385A5.7,5.7,0,0,1,2.968,8.3,13.979,13.979,0,0,1,1.354,6.43a9.63,9.63,0,0,0,1.46,2.077,7.976,7.976,0,0,0,1.5,1.037c-.067.061-.135.119-.2.172A2.318,2.318,0,0,1,3.03,9.657a3,3,0,0,1-.911-.59,2.04,2.04,0,0,0,.891.759,2.378,2.378,0,0,0,.668.181C1.394,11.3-.553,8.356.143,5.734a9.786,9.786,0,0,1,2.826-4,6.147,6.147,0,0,0,.145,2.046c.269.931.97,2.609,1.805,2.487s-1.6-2.887-1.3-4.59C3.87.238,6.813,0,6.813,0A1.655,1.655,0,0,0,5.9,1.075c-.287.8.349,3.488,1,3.591C7.73,4.8,5.969,1.755,7.45.538,8.3-.159,9.438.7,10.334.993a3.762,3.762,0,0,0,1.814.08s.047.471.112,1.521.727,1.8.206,2.463-2.492.313-2.3.881,2.37-.288,2.37-.288-.021.51-.052,1.706S8.863,7.827,8.853,8.513Z" transform="translate(27.73 34.94) rotate(167)" fill="#007c73"/>
          </g>
          <g transform="matrix(-0.97, -0.22, 0.22, -0.97, 19.16, 40.29)" filter="url(#Path_8697-2)">
            <path id="Path_8697-4" data-name="Path 8697" d="M8.853,8.513c-.01.685,2.935.608,2.935.608A3.871,3.871,0,0,1,10.666,11.4c-1.5,1.823-4.79,2.541-5.923.491a1.939,1.939,0,0,1-.131-1.677,2.98,2.98,0,0,0,.521.748,3.81,3.81,0,0,0,1.284.886,6.62,6.62,0,0,1-1.1-.95,2.916,2.916,0,0,1-.544-.953q.1-.144.214-.3a10.3,10.3,0,0,0,1.719,1.417,2.7,2.7,0,0,0,1.27.5,3.374,3.374,0,0,1-1.208-.626A8.862,8.862,0,0,1,5.254,9.3c.193-.256.4-.523.616-.8a4.9,4.9,0,0,0,1.114.58,4.366,4.366,0,0,0,1.543.238,12.558,12.558,0,0,1-1.486-.452,2.546,2.546,0,0,1-.94-.659c.4-.508.834-1.037,1.266-1.558a3.353,3.353,0,0,0,.936.367,1.592,1.592,0,0,0,.928-.04,3.838,3.838,0,0,1-.9-.181,1.77,1.77,0,0,1-.71-.455c.584-.7,3.361-3.916,3.361-3.916L8.392,5.2a7.791,7.791,0,0,1-.483-1.524A3.385,3.385,0,0,1,7.94,2.527s-.067.422-.1,1.023a7.062,7.062,0,0,0,.339,1.875l-1.587,1.7a10.2,10.2,0,0,1-.758-1.392,16.9,16.9,0,0,1-.712-2.276,9.293,9.293,0,0,0,.423,2.149,12.725,12.725,0,0,0,.8,1.78L5.25,8.562A13.916,13.916,0,0,1,3.833,6.914a18.9,18.9,0,0,1-.97-2.145,6.3,6.3,0,0,0,.792,2.249c.5.812,1.08,1.538,1.31,1.851l-.359.385A5.7,5.7,0,0,1,2.968,8.3,13.979,13.979,0,0,1,1.354,6.43a9.63,9.63,0,0,0,1.46,2.077,7.976,7.976,0,0,0,1.5,1.037c-.067.061-.135.119-.2.172A2.318,2.318,0,0,1,3.03,9.657a3,3,0,0,1-.911-.59,2.04,2.04,0,0,0,.891.759,2.378,2.378,0,0,0,.668.181C1.394,11.3-.553,8.356.143,5.734a9.786,9.786,0,0,1,2.826-4,6.147,6.147,0,0,0,.145,2.046c.269.931.97,2.609,1.805,2.487s-1.6-2.887-1.3-4.59C3.87.238,6.813,0,6.813,0A1.655,1.655,0,0,0,5.9,1.075c-.287.8.349,3.488,1,3.591C7.73,4.8,5.969,1.755,7.45.538,8.3-.159,9.438.7,10.334.993a3.762,3.762,0,0,0,1.814.08s.047.471.112,1.521.727,1.8.206,2.463-2.492.313-2.3.881,2.37-.288,2.37-.288-.021.51-.052,1.706S8.863,7.827,8.853,8.513Z" transform="translate(27.73 34.94) rotate(167)" fill="#fff"/>
          </g>
        </g>
      </g>
      <g id="Group_7476" data-name="Group 7476" transform="translate(57.068 32.344) rotate(-171)">
        <g data-type="innerShadowGroup">
          <g transform="matrix(-0.97, -0.22, 0.22, -0.97, 36.22, 18.52)" filter="url(#Path_8698)">
            <path id="Path_8698-3" data-name="Path 8698" d="M8.853,8.513c-.01.685,2.935.608,2.935.608A3.871,3.871,0,0,1,10.666,11.4c-1.5,1.823-4.79,2.541-5.923.491a1.939,1.939,0,0,1-.131-1.677,2.98,2.98,0,0,0,.521.748,3.81,3.81,0,0,0,1.284.886,6.62,6.62,0,0,1-1.1-.95,2.916,2.916,0,0,1-.544-.953q.1-.144.214-.3a10.3,10.3,0,0,0,1.719,1.417,2.7,2.7,0,0,0,1.27.5,3.374,3.374,0,0,1-1.208-.626A8.862,8.862,0,0,1,5.254,9.3c.193-.256.4-.523.616-.8a4.9,4.9,0,0,0,1.114.58,4.366,4.366,0,0,0,1.543.238,12.558,12.558,0,0,1-1.486-.452,2.546,2.546,0,0,1-.94-.659c.4-.508.834-1.037,1.266-1.558a3.353,3.353,0,0,0,.936.367,1.592,1.592,0,0,0,.928-.04,3.838,3.838,0,0,1-.9-.181,1.77,1.77,0,0,1-.71-.455c.584-.7,3.361-3.916,3.361-3.916L8.392,5.2a7.791,7.791,0,0,1-.483-1.524A3.385,3.385,0,0,1,7.94,2.527s-.067.422-.1,1.023a7.062,7.062,0,0,0,.339,1.875l-1.587,1.7a10.2,10.2,0,0,1-.758-1.392,16.9,16.9,0,0,1-.712-2.276,9.293,9.293,0,0,0,.423,2.149,12.725,12.725,0,0,0,.8,1.78L5.25,8.562A13.916,13.916,0,0,1,3.833,6.914a18.9,18.9,0,0,1-.97-2.145,6.3,6.3,0,0,0,.792,2.249c.5.812,1.08,1.538,1.31,1.851l-.359.385A5.7,5.7,0,0,1,2.968,8.3,13.979,13.979,0,0,1,1.354,6.43a9.63,9.63,0,0,0,1.46,2.077,7.976,7.976,0,0,0,1.5,1.037c-.067.061-.135.119-.2.172A2.318,2.318,0,0,1,3.03,9.657a3,3,0,0,1-.911-.59,2.04,2.04,0,0,0,.891.759,2.378,2.378,0,0,0,.668.181C1.394,11.3-.553,8.356.143,5.734a9.786,9.786,0,0,1,2.826-4,6.147,6.147,0,0,0,.145,2.046c.269.931.97,2.609,1.805,2.487s-1.6-2.887-1.3-4.59C3.87.238,6.813,0,6.813,0A1.655,1.655,0,0,0,5.9,1.075c-.287.8.349,3.488,1,3.591C7.73,4.8,5.969,1.755,7.45.538,8.3-.159,9.438.7,10.334.993a3.762,3.762,0,0,0,1.814.08s.047.471.112,1.521.727,1.8.206,2.463-2.492.313-2.3.881,2.37-.288,2.37-.288-.021.51-.052,1.706S8.863,7.827,8.853,8.513Z" transform="translate(39.46 9.9) rotate(167)" fill="#007c73"/>
          </g>
          <g transform="matrix(-0.97, -0.22, 0.22, -0.97, 36.22, 18.52)" filter="url(#Path_8698-2)">
            <path id="Path_8698-4" data-name="Path 8698" d="M8.853,8.513c-.01.685,2.935.608,2.935.608A3.871,3.871,0,0,1,10.666,11.4c-1.5,1.823-4.79,2.541-5.923.491a1.939,1.939,0,0,1-.131-1.677,2.98,2.98,0,0,0,.521.748,3.81,3.81,0,0,0,1.284.886,6.62,6.62,0,0,1-1.1-.95,2.916,2.916,0,0,1-.544-.953q.1-.144.214-.3a10.3,10.3,0,0,0,1.719,1.417,2.7,2.7,0,0,0,1.27.5,3.374,3.374,0,0,1-1.208-.626A8.862,8.862,0,0,1,5.254,9.3c.193-.256.4-.523.616-.8a4.9,4.9,0,0,0,1.114.58,4.366,4.366,0,0,0,1.543.238,12.558,12.558,0,0,1-1.486-.452,2.546,2.546,0,0,1-.94-.659c.4-.508.834-1.037,1.266-1.558a3.353,3.353,0,0,0,.936.367,1.592,1.592,0,0,0,.928-.04,3.838,3.838,0,0,1-.9-.181,1.77,1.77,0,0,1-.71-.455c.584-.7,3.361-3.916,3.361-3.916L8.392,5.2a7.791,7.791,0,0,1-.483-1.524A3.385,3.385,0,0,1,7.94,2.527s-.067.422-.1,1.023a7.062,7.062,0,0,0,.339,1.875l-1.587,1.7a10.2,10.2,0,0,1-.758-1.392,16.9,16.9,0,0,1-.712-2.276,9.293,9.293,0,0,0,.423,2.149,12.725,12.725,0,0,0,.8,1.78L5.25,8.562A13.916,13.916,0,0,1,3.833,6.914a18.9,18.9,0,0,1-.97-2.145,6.3,6.3,0,0,0,.792,2.249c.5.812,1.08,1.538,1.31,1.851l-.359.385A5.7,5.7,0,0,1,2.968,8.3,13.979,13.979,0,0,1,1.354,6.43a9.63,9.63,0,0,0,1.46,2.077,7.976,7.976,0,0,0,1.5,1.037c-.067.061-.135.119-.2.172A2.318,2.318,0,0,1,3.03,9.657a3,3,0,0,1-.911-.59,2.04,2.04,0,0,0,.891.759,2.378,2.378,0,0,0,.668.181C1.394,11.3-.553,8.356.143,5.734a9.786,9.786,0,0,1,2.826-4,6.147,6.147,0,0,0,.145,2.046c.269.931.97,2.609,1.805,2.487s-1.6-2.887-1.3-4.59C3.87.238,6.813,0,6.813,0A1.655,1.655,0,0,0,5.9,1.075c-.287.8.349,3.488,1,3.591C7.73,4.8,5.969,1.755,7.45.538,8.3-.159,9.438.7,10.334.993a3.762,3.762,0,0,0,1.814.08s.047.471.112,1.521.727,1.8.206,2.463-2.492.313-2.3.881,2.37-.288,2.37-.288-.021.51-.052,1.706S8.863,7.827,8.853,8.513Z" transform="translate(39.46 9.9) rotate(167)" fill="#fff"/>
          </g>
        </g>
      </g>
      <g id="Group_7477" data-name="Group 7477" transform="matrix(0.777, 0.629, -0.629, 0.777, 15.298, 31.243)">
        <g data-type="innerShadowGroup">
          <g transform="matrix(0.96, -0.29, 0.29, 0.96, -7.48, -23.36)" filter="url(#Path_8699)">
            <path id="Path_8699-3" data-name="Path 8699" d="M8.853,8.513c-.01.685,2.935.608,2.935.608A3.871,3.871,0,0,1,10.666,11.4c-1.5,1.823-4.79,2.541-5.923.491a1.939,1.939,0,0,1-.131-1.677,2.98,2.98,0,0,0,.521.748,3.81,3.81,0,0,0,1.284.886,6.62,6.62,0,0,1-1.1-.95,2.916,2.916,0,0,1-.544-.953q.1-.144.214-.3a10.3,10.3,0,0,0,1.719,1.417,2.7,2.7,0,0,0,1.27.5,3.374,3.374,0,0,1-1.208-.626A8.862,8.862,0,0,1,5.254,9.3c.193-.256.4-.523.616-.8a4.9,4.9,0,0,0,1.114.58,4.366,4.366,0,0,0,1.543.238,12.558,12.558,0,0,1-1.486-.452,2.546,2.546,0,0,1-.94-.659c.4-.508.834-1.037,1.266-1.558a3.353,3.353,0,0,0,.936.367,1.592,1.592,0,0,0,.928-.04,3.838,3.838,0,0,1-.9-.181,1.77,1.77,0,0,1-.71-.455c.584-.7,3.361-3.916,3.361-3.916L8.392,5.2a7.791,7.791,0,0,1-.483-1.524A3.385,3.385,0,0,1,7.94,2.527s-.067.422-.1,1.023a7.062,7.062,0,0,0,.339,1.875l-1.587,1.7a10.2,10.2,0,0,1-.758-1.392,16.9,16.9,0,0,1-.712-2.276,9.293,9.293,0,0,0,.423,2.149,12.725,12.725,0,0,0,.8,1.78L5.25,8.562A13.916,13.916,0,0,1,3.833,6.914a18.9,18.9,0,0,1-.97-2.145,6.3,6.3,0,0,0,.792,2.249c.5.812,1.08,1.538,1.31,1.851l-.359.385A5.7,5.7,0,0,1,2.968,8.3,13.979,13.979,0,0,1,1.354,6.43a9.63,9.63,0,0,0,1.46,2.077,7.976,7.976,0,0,0,1.5,1.037c-.067.061-.135.119-.2.172A2.318,2.318,0,0,1,3.03,9.657a3,3,0,0,1-.911-.59,2.04,2.04,0,0,0,.891.759,2.378,2.378,0,0,0,.668.181C1.394,11.3-.553,8.356.143,5.734a9.786,9.786,0,0,1,2.826-4,6.147,6.147,0,0,0,.145,2.046c.269.931.97,2.609,1.805,2.487s-1.6-2.887-1.3-4.59C3.87.238,6.813,0,6.813,0A1.655,1.655,0,0,0,5.9,1.075c-.287.8.349,3.488,1,3.591C7.73,4.8,5.969,1.755,7.45.538,8.3-.159,9.438.7,10.334.993a3.762,3.762,0,0,0,1.814.08s.047.471.112,1.521.727,1.8.206,2.463-2.492.313-2.3.881,2.37-.288,2.37-.288-.021.51-.052,1.706S8.863,7.827,8.853,8.513Z" transform="matrix(0.96, 0.29, -0.29, 0.96, 0.32, 24.52)" fill="#007c73"/>
          </g>
          <g transform="matrix(0.96, -0.29, 0.29, 0.96, -7.48, -23.36)" filter="url(#Path_8699-2)">
            <path id="Path_8699-4" data-name="Path 8699" d="M8.853,8.513c-.01.685,2.935.608,2.935.608A3.871,3.871,0,0,1,10.666,11.4c-1.5,1.823-4.79,2.541-5.923.491a1.939,1.939,0,0,1-.131-1.677,2.98,2.98,0,0,0,.521.748,3.81,3.81,0,0,0,1.284.886,6.62,6.62,0,0,1-1.1-.95,2.916,2.916,0,0,1-.544-.953q.1-.144.214-.3a10.3,10.3,0,0,0,1.719,1.417,2.7,2.7,0,0,0,1.27.5,3.374,3.374,0,0,1-1.208-.626A8.862,8.862,0,0,1,5.254,9.3c.193-.256.4-.523.616-.8a4.9,4.9,0,0,0,1.114.58,4.366,4.366,0,0,0,1.543.238,12.558,12.558,0,0,1-1.486-.452,2.546,2.546,0,0,1-.94-.659c.4-.508.834-1.037,1.266-1.558a3.353,3.353,0,0,0,.936.367,1.592,1.592,0,0,0,.928-.04,3.838,3.838,0,0,1-.9-.181,1.77,1.77,0,0,1-.71-.455c.584-.7,3.361-3.916,3.361-3.916L8.392,5.2a7.791,7.791,0,0,1-.483-1.524A3.385,3.385,0,0,1,7.94,2.527s-.067.422-.1,1.023a7.062,7.062,0,0,0,.339,1.875l-1.587,1.7a10.2,10.2,0,0,1-.758-1.392,16.9,16.9,0,0,1-.712-2.276,9.293,9.293,0,0,0,.423,2.149,12.725,12.725,0,0,0,.8,1.78L5.25,8.562A13.916,13.916,0,0,1,3.833,6.914a18.9,18.9,0,0,1-.97-2.145,6.3,6.3,0,0,0,.792,2.249c.5.812,1.08,1.538,1.31,1.851l-.359.385A5.7,5.7,0,0,1,2.968,8.3,13.979,13.979,0,0,1,1.354,6.43a9.63,9.63,0,0,0,1.46,2.077,7.976,7.976,0,0,0,1.5,1.037c-.067.061-.135.119-.2.172A2.318,2.318,0,0,1,3.03,9.657a3,3,0,0,1-.911-.59,2.04,2.04,0,0,0,.891.759,2.378,2.378,0,0,0,.668.181C1.394,11.3-.553,8.356.143,5.734a9.786,9.786,0,0,1,2.826-4,6.147,6.147,0,0,0,.145,2.046c.269.931.97,2.609,1.805,2.487s-1.6-2.887-1.3-4.59C3.87.238,6.813,0,6.813,0A1.655,1.655,0,0,0,5.9,1.075c-.287.8.349,3.488,1,3.591C7.73,4.8,5.969,1.755,7.45.538,8.3-.159,9.438.7,10.334.993a3.762,3.762,0,0,0,1.814.08s.047.471.112,1.521.727,1.8.206,2.463-2.492.313-2.3.881,2.37-.288,2.37-.288-.021.51-.052,1.706S8.863,7.827,8.853,8.513Z" transform="matrix(0.96, 0.29, -0.29, 0.96, 0.32, 24.52)" fill="#fff"/>
          </g>
        </g>
      </g>
      <g id="Group_7478" data-name="Group 7478" transform="translate(30.645 58.478) rotate(-56)">
        <g data-type="innerShadowGroup">
          <g transform="matrix(0.21, 0.98, -0.98, 0.21, 37.92, -33.37)" filter="url(#Path_8700)">
            <path id="Path_8700-3" data-name="Path 8700" d="M8.853,8.513c-.01.685,2.935.608,2.935.608A3.871,3.871,0,0,1,10.666,11.4c-1.5,1.823-4.79,2.541-5.923.491a1.939,1.939,0,0,1-.131-1.677,2.98,2.98,0,0,0,.521.748,3.81,3.81,0,0,0,1.284.886,6.62,6.62,0,0,1-1.1-.95,2.916,2.916,0,0,1-.544-.953q.1-.144.214-.3a10.3,10.3,0,0,0,1.719,1.417,2.7,2.7,0,0,0,1.27.5,3.374,3.374,0,0,1-1.208-.626A8.862,8.862,0,0,1,5.254,9.3c.193-.256.4-.523.616-.8a4.9,4.9,0,0,0,1.114.58,4.366,4.366,0,0,0,1.543.238,12.558,12.558,0,0,1-1.486-.452,2.546,2.546,0,0,1-.94-.659c.4-.508.834-1.037,1.266-1.558a3.353,3.353,0,0,0,.936.367,1.592,1.592,0,0,0,.928-.04,3.838,3.838,0,0,1-.9-.181,1.77,1.77,0,0,1-.71-.455c.584-.7,3.361-3.916,3.361-3.916L8.392,5.2a7.791,7.791,0,0,1-.483-1.524A3.385,3.385,0,0,1,7.94,2.527s-.067.422-.1,1.023a7.062,7.062,0,0,0,.339,1.875l-1.587,1.7a10.2,10.2,0,0,1-.758-1.392,16.9,16.9,0,0,1-.712-2.276,9.293,9.293,0,0,0,.423,2.149,12.725,12.725,0,0,0,.8,1.78L5.25,8.562A13.916,13.916,0,0,1,3.833,6.914a18.9,18.9,0,0,1-.97-2.145,6.3,6.3,0,0,0,.792,2.249c.5.812,1.08,1.538,1.31,1.851l-.359.385A5.7,5.7,0,0,1,2.968,8.3,13.979,13.979,0,0,1,1.354,6.43a9.63,9.63,0,0,0,1.46,2.077,7.976,7.976,0,0,0,1.5,1.037c-.067.061-.135.119-.2.172A2.318,2.318,0,0,1,3.03,9.657a3,3,0,0,1-.911-.59,2.04,2.04,0,0,0,.891.759,2.378,2.378,0,0,0,.668.181C1.394,11.3-.553,8.356.143,5.734a9.786,9.786,0,0,1,2.826-4,6.147,6.147,0,0,0,.145,2.046c.269.931.97,2.609,1.805,2.487s-1.6-2.887-1.3-4.59C3.87.238,6.813,0,6.813,0A1.655,1.655,0,0,0,5.9,1.075c-.287.8.349,3.488,1,3.591C7.73,4.8,5.969,1.755,7.45.538,8.3-.159,9.438.7,10.334.993a3.762,3.762,0,0,0,1.814.08s.047.471.112,1.521.727,1.8.206,2.463-2.492.313-2.3.881,2.37-.288,2.37-.288-.021.51-.052,1.706S8.863,7.827,8.853,8.513Z" transform="translate(24.75 44.03) rotate(-78)" fill="#007c73"/>
          </g>
          <g transform="matrix(0.21, 0.98, -0.98, 0.21, 37.92, -33.37)" filter="url(#Path_8700-2)">
            <path id="Path_8700-4" data-name="Path 8700" d="M8.853,8.513c-.01.685,2.935.608,2.935.608A3.871,3.871,0,0,1,10.666,11.4c-1.5,1.823-4.79,2.541-5.923.491a1.939,1.939,0,0,1-.131-1.677,2.98,2.98,0,0,0,.521.748,3.81,3.81,0,0,0,1.284.886,6.62,6.62,0,0,1-1.1-.95,2.916,2.916,0,0,1-.544-.953q.1-.144.214-.3a10.3,10.3,0,0,0,1.719,1.417,2.7,2.7,0,0,0,1.27.5,3.374,3.374,0,0,1-1.208-.626A8.862,8.862,0,0,1,5.254,9.3c.193-.256.4-.523.616-.8a4.9,4.9,0,0,0,1.114.58,4.366,4.366,0,0,0,1.543.238,12.558,12.558,0,0,1-1.486-.452,2.546,2.546,0,0,1-.94-.659c.4-.508.834-1.037,1.266-1.558a3.353,3.353,0,0,0,.936.367,1.592,1.592,0,0,0,.928-.04,3.838,3.838,0,0,1-.9-.181,1.77,1.77,0,0,1-.71-.455c.584-.7,3.361-3.916,3.361-3.916L8.392,5.2a7.791,7.791,0,0,1-.483-1.524A3.385,3.385,0,0,1,7.94,2.527s-.067.422-.1,1.023a7.062,7.062,0,0,0,.339,1.875l-1.587,1.7a10.2,10.2,0,0,1-.758-1.392,16.9,16.9,0,0,1-.712-2.276,9.293,9.293,0,0,0,.423,2.149,12.725,12.725,0,0,0,.8,1.78L5.25,8.562A13.916,13.916,0,0,1,3.833,6.914a18.9,18.9,0,0,1-.97-2.145,6.3,6.3,0,0,0,.792,2.249c.5.812,1.08,1.538,1.31,1.851l-.359.385A5.7,5.7,0,0,1,2.968,8.3,13.979,13.979,0,0,1,1.354,6.43a9.63,9.63,0,0,0,1.46,2.077,7.976,7.976,0,0,0,1.5,1.037c-.067.061-.135.119-.2.172A2.318,2.318,0,0,1,3.03,9.657a3,3,0,0,1-.911-.59,2.04,2.04,0,0,0,.891.759,2.378,2.378,0,0,0,.668.181C1.394,11.3-.553,8.356.143,5.734a9.786,9.786,0,0,1,2.826-4,6.147,6.147,0,0,0,.145,2.046c.269.931.97,2.609,1.805,2.487s-1.6-2.887-1.3-4.59C3.87.238,6.813,0,6.813,0A1.655,1.655,0,0,0,5.9,1.075c-.287.8.349,3.488,1,3.591C7.73,4.8,5.969,1.755,7.45.538,8.3-.159,9.438.7,10.334.993a3.762,3.762,0,0,0,1.814.08s.047.471.112,1.521.727,1.8.206,2.463-2.492.313-2.3.881,2.37-.288,2.37-.288-.021.51-.052,1.706S8.863,7.827,8.853,8.513Z" transform="translate(24.75 44.03) rotate(-78)" fill="#fff"/>
          </g>
        </g>
      </g>
      <g id="Group_7479" data-name="Group 7479" transform="translate(37.571 0) rotate(22)">
        <g data-type="innerShadowGroup">
          <g transform="matrix(1, 0, 0, 1, -9.27, 12.79)" filter="url(#Path_8701)">
            <path id="Path_8701-3" data-name="Path 8701" d="M1.58,2.8a6.164,6.164,0,0,1,4.7-.031c-.431-.326-.645-.76-1.075-1.086-.538-.543-1.4-.655-1.94-1.2a4.992,4.992,0,0,1,5.346.728,4.848,4.848,0,0,1,1.342,1.9c.159.6-.222,1.188-.063,1.783C9.092,2.459,7.164.481,4.624.522c2.323.065,3.89,2.719,4.619,4.152A7.413,7.413,0,0,0,1.627,4.26a6.963,6.963,0,0,1,8.1,1.66c.162.055-.219.648-.219.648-2.052-.334-4.158-.506-5.946.512a7.957,7.957,0,0,1,5.67.352l-.11.324c-2.04-.6-4.709,2.138-5.257,3.756C5,9.733,7.108,7.638,8.9,8.4a16.6,16.6,0,0,0-.6,2.266c-1.892.261-2.55,2.2-3.1,3.822.655-1.4,1.274-3.054,3-3.37a4.174,4.174,0,0,1-.286.746,17.494,17.494,0,0,0-1.273,4.219,25.543,25.543,0,0,1,1.318-3.365,7.269,7.269,0,0,0,1,4.49,7.218,7.218,0,0,1-.35-5.891,15.218,15.218,0,0,1,3.372,6.554c-.258-2.433-1.652-4.709-3.1-6.823-.214-.433.06-1.243.225-1.728,1.887.82,3.067,2.662,4.573,4.074A59.424,59.424,0,0,0,9.332,8.674l.274-.809c2.756-.149,4.745,1.968,6.737,3.545A12.81,12.81,0,0,0,9.88,7.055a3,3,0,0,1,2.112-.908c2.271-.313,4.049.83,5.936,1.65-2.208-1.47-5.011-2.78-7.664-1.874a5.559,5.559,0,0,1,3.195-1.444c1.013-.062,2.268.227,3.4.071-2.213-.389-4.482-.616-6.325.564a7.878,7.878,0,0,1,3.853-3.386A6.669,6.669,0,0,0,10.214,5c-.151-2.216,1.993-3.6,3.858-4.466a1.322,1.322,0,0,1,1.832.982c-.814.807-2.057.746-2.44,1.879,1.569-.371,5.937,1.379,4.544,1.764-1.482.41-3.145-.569-4.661.18a12.239,12.239,0,0,1,3.941.613,2.89,2.89,0,0,1,1.5,1.952,1.56,1.56,0,0,1-.927,1.671c-.379.052-.593-.381-.754-.436a4.167,4.167,0,0,0-3.393-2.232c-.54,0,1.991,1.576,2.905,2.607.59.921,1.449,2.114.687,3.3-.271.269-.812.266-.919.05-1.832-.981-2.681-4.336-5.009-3.32-.167,1.026,1.021,1.248,1.5,1.952.807.815,2.318,1.146,2.42,2.443a1.078,1.078,0,0,1-1.678.694,10.875,10.875,0,0,1-2.365-2.605c-.269-.271-.861-.652-1.188-.222a10.294,10.294,0,0,1,2.676,5.416c0,.54-.331,1.511-.872,1.509-1.081-.005-1.128-1.464-1.339-2.438A8.31,8.31,0,0,0,8.875,13.75,11.314,11.314,0,0,0,10.1,18.133c.107.217-.164.485-.543.538l-.486-.164a6.941,6.941,0,0,1-1.66-3.088c-.219.647-.386,1.673-.981,1.832C5.615,17.517,6,16.384,6,15.844c.439-1.295.989-3.453.718-3.185-.653.861-.712,2.1-1.8,2.639l-.324-.11a3.62,3.62,0,0,1,1.041-3.075c.6-.7,1.574-1.451,1.417-2.587-1.84.64-2.12,2.53-2.668,4.148-.055.162-.271.269-.488.376-.379.052-.538-.543-.645-.76C2.945,11.02,4.414,8.812,6.15,7.415c-1.569.371-2.762,1.23-4.33,1.6-.379.052-1.19.318-1.35-.277,1.417-2.587,4.769-2.895,7.1-3.91a10.651,10.651,0,0,0-3.39-.246C1.959,4.96-.037,6,0,5.333A3.185,3.185,0,0,1,1.58,2.8Z" transform="translate(9.27 -12.79)" fill="#007c73"/>
          </g>
          <g transform="matrix(1, 0, 0, 1, -9.27, 12.79)" filter="url(#Path_8701-2)">
            <path id="Path_8701-4" data-name="Path 8701" d="M1.58,2.8a6.164,6.164,0,0,1,4.7-.031c-.431-.326-.645-.76-1.075-1.086-.538-.543-1.4-.655-1.94-1.2a4.992,4.992,0,0,1,5.346.728,4.848,4.848,0,0,1,1.342,1.9c.159.6-.222,1.188-.063,1.783C9.092,2.459,7.164.481,4.624.522c2.323.065,3.89,2.719,4.619,4.152A7.413,7.413,0,0,0,1.627,4.26a6.963,6.963,0,0,1,8.1,1.66c.162.055-.219.648-.219.648-2.052-.334-4.158-.506-5.946.512a7.957,7.957,0,0,1,5.67.352l-.11.324c-2.04-.6-4.709,2.138-5.257,3.756C5,9.733,7.108,7.638,8.9,8.4a16.6,16.6,0,0,0-.6,2.266c-1.892.261-2.55,2.2-3.1,3.822.655-1.4,1.274-3.054,3-3.37a4.174,4.174,0,0,1-.286.746,17.494,17.494,0,0,0-1.273,4.219,25.543,25.543,0,0,1,1.318-3.365,7.269,7.269,0,0,0,1,4.49,7.218,7.218,0,0,1-.35-5.891,15.218,15.218,0,0,1,3.372,6.554c-.258-2.433-1.652-4.709-3.1-6.823-.214-.433.06-1.243.225-1.728,1.887.82,3.067,2.662,4.573,4.074A59.424,59.424,0,0,0,9.332,8.674l.274-.809c2.756-.149,4.745,1.968,6.737,3.545A12.81,12.81,0,0,0,9.88,7.055a3,3,0,0,1,2.112-.908c2.271-.313,4.049.83,5.936,1.65-2.208-1.47-5.011-2.78-7.664-1.874a5.559,5.559,0,0,1,3.195-1.444c1.013-.062,2.268.227,3.4.071-2.213-.389-4.482-.616-6.325.564a7.878,7.878,0,0,1,3.853-3.386A6.669,6.669,0,0,0,10.214,5c-.151-2.216,1.993-3.6,3.858-4.466a1.322,1.322,0,0,1,1.832.982c-.814.807-2.057.746-2.44,1.879,1.569-.371,5.937,1.379,4.544,1.764-1.482.41-3.145-.569-4.661.18a12.239,12.239,0,0,1,3.941.613,2.89,2.89,0,0,1,1.5,1.952,1.56,1.56,0,0,1-.927,1.671c-.379.052-.593-.381-.754-.436a4.167,4.167,0,0,0-3.393-2.232c-.54,0,1.991,1.576,2.905,2.607.59.921,1.449,2.114.687,3.3-.271.269-.812.266-.919.05-1.832-.981-2.681-4.336-5.009-3.32-.167,1.026,1.021,1.248,1.5,1.952.807.815,2.318,1.146,2.42,2.443a1.078,1.078,0,0,1-1.678.694,10.875,10.875,0,0,1-2.365-2.605c-.269-.271-.861-.652-1.188-.222a10.294,10.294,0,0,1,2.676,5.416c0,.54-.331,1.511-.872,1.509-1.081-.005-1.128-1.464-1.339-2.438A8.31,8.31,0,0,0,8.875,13.75,11.314,11.314,0,0,0,10.1,18.133c.107.217-.164.485-.543.538l-.486-.164a6.941,6.941,0,0,1-1.66-3.088c-.219.647-.386,1.673-.981,1.832C5.615,17.517,6,16.384,6,15.844c.439-1.295.989-3.453.718-3.185-.653.861-.712,2.1-1.8,2.639l-.324-.11a3.62,3.62,0,0,1,1.041-3.075c.6-.7,1.574-1.451,1.417-2.587-1.84.64-2.12,2.53-2.668,4.148-.055.162-.271.269-.488.376-.379.052-.538-.543-.645-.76C2.945,11.02,4.414,8.812,6.15,7.415c-1.569.371-2.762,1.23-4.33,1.6-.379.052-1.19.318-1.35-.277,1.417-2.587,4.769-2.895,7.1-3.91a10.651,10.651,0,0,0-3.39-.246C1.959,4.96-.037,6,0,5.333A3.185,3.185,0,0,1,1.58,2.8Z" transform="translate(9.27 -12.79)" fill="#fff"/>
          </g>
        </g>
      </g>
      <g id="Group_7480" data-name="Group 7480" transform="translate(7.019 13.039) rotate(22)">
        <g data-type="innerShadowGroup">
          <g transform="matrix(1, 0, 0, 1, 14.17, -10.75)" filter="url(#Path_8702)">
            <path id="Path_8702-3" data-name="Path 8702" d="M1.58,2.8a6.164,6.164,0,0,1,4.7-.031c-.431-.326-.645-.76-1.075-1.086-.538-.543-1.4-.655-1.94-1.2a4.992,4.992,0,0,1,5.346.728,4.848,4.848,0,0,1,1.342,1.9c.159.6-.222,1.188-.063,1.783C9.092,2.459,7.164.481,4.624.522c2.323.065,3.89,2.719,4.619,4.152A7.413,7.413,0,0,0,1.627,4.26a6.963,6.963,0,0,1,8.1,1.66c.162.055-.219.648-.219.648-2.052-.334-4.158-.506-5.946.512a7.957,7.957,0,0,1,5.67.352l-.11.324c-2.04-.6-4.709,2.138-5.257,3.756C5,9.733,7.108,7.638,8.9,8.4a16.6,16.6,0,0,0-.6,2.266c-1.892.261-2.55,2.2-3.1,3.822.655-1.4,1.274-3.054,3-3.37a4.174,4.174,0,0,1-.286.746,17.494,17.494,0,0,0-1.273,4.219,25.543,25.543,0,0,1,1.318-3.365,7.269,7.269,0,0,0,1,4.49,7.218,7.218,0,0,1-.35-5.891,15.218,15.218,0,0,1,3.372,6.554c-.258-2.433-1.652-4.709-3.1-6.823-.214-.433.06-1.243.225-1.728,1.887.82,3.067,2.662,4.573,4.074A59.424,59.424,0,0,0,9.332,8.674l.274-.809c2.756-.149,4.745,1.968,6.737,3.545A12.81,12.81,0,0,0,9.88,7.055a3,3,0,0,1,2.112-.908c2.271-.313,4.049.83,5.936,1.65-2.208-1.47-5.011-2.78-7.664-1.874a5.559,5.559,0,0,1,3.195-1.444c1.013-.062,2.268.227,3.4.071-2.213-.389-4.482-.616-6.325.564a7.878,7.878,0,0,1,3.853-3.386A6.669,6.669,0,0,0,10.214,5c-.151-2.216,1.993-3.6,3.858-4.466a1.322,1.322,0,0,1,1.832.982c-.814.807-2.057.746-2.44,1.879,1.569-.371,5.937,1.379,4.544,1.764-1.482.41-3.145-.569-4.661.18a12.239,12.239,0,0,1,3.941.613,2.89,2.89,0,0,1,1.5,1.952,1.56,1.56,0,0,1-.927,1.671c-.379.052-.593-.381-.754-.436a4.167,4.167,0,0,0-3.393-2.232c-.54,0,1.991,1.576,2.905,2.607.59.921,1.449,2.114.687,3.3-.271.269-.812.266-.919.05-1.832-.981-2.681-4.336-5.009-3.32-.167,1.026,1.021,1.248,1.5,1.952.807.815,2.318,1.146,2.42,2.443a1.078,1.078,0,0,1-1.678.694,10.875,10.875,0,0,1-2.365-2.605c-.269-.271-.861-.652-1.188-.222a10.294,10.294,0,0,1,2.676,5.416c0,.54-.331,1.511-.872,1.509-1.081-.005-1.128-1.464-1.339-2.438A8.31,8.31,0,0,0,8.875,13.75,11.314,11.314,0,0,0,10.1,18.133c.107.217-.164.485-.543.538l-.486-.164a6.941,6.941,0,0,1-1.66-3.088c-.219.647-.386,1.673-.981,1.832C5.615,17.517,6,16.384,6,15.844c.439-1.295.989-3.453.718-3.185-.653.861-.712,2.1-1.8,2.639l-.324-.11a3.62,3.62,0,0,1,1.041-3.075c.6-.7,1.574-1.451,1.417-2.587-1.84.64-2.12,2.53-2.668,4.148-.055.162-.271.269-.488.376-.379.052-.538-.543-.645-.76C2.945,11.02,4.414,8.812,6.15,7.415c-1.569.371-2.762,1.23-4.33,1.6-.379.052-1.19.318-1.35-.277,1.417-2.587,4.769-2.895,7.1-3.91a10.651,10.651,0,0,0-3.39-.246C1.959,4.96-.037,6,0,5.333A3.185,3.185,0,0,1,1.58,2.8Z" transform="translate(-14.17 10.75)" fill="#007c73"/>
          </g>
          <g transform="matrix(1, 0, 0, 1, 14.17, -10.75)" filter="url(#Path_8702-2)">
            <path id="Path_8702-4" data-name="Path 8702" d="M1.58,2.8a6.164,6.164,0,0,1,4.7-.031c-.431-.326-.645-.76-1.075-1.086-.538-.543-1.4-.655-1.94-1.2a4.992,4.992,0,0,1,5.346.728,4.848,4.848,0,0,1,1.342,1.9c.159.6-.222,1.188-.063,1.783C9.092,2.459,7.164.481,4.624.522c2.323.065,3.89,2.719,4.619,4.152A7.413,7.413,0,0,0,1.627,4.26a6.963,6.963,0,0,1,8.1,1.66c.162.055-.219.648-.219.648-2.052-.334-4.158-.506-5.946.512a7.957,7.957,0,0,1,5.67.352l-.11.324c-2.04-.6-4.709,2.138-5.257,3.756C5,9.733,7.108,7.638,8.9,8.4a16.6,16.6,0,0,0-.6,2.266c-1.892.261-2.55,2.2-3.1,3.822.655-1.4,1.274-3.054,3-3.37a4.174,4.174,0,0,1-.286.746,17.494,17.494,0,0,0-1.273,4.219,25.543,25.543,0,0,1,1.318-3.365,7.269,7.269,0,0,0,1,4.49,7.218,7.218,0,0,1-.35-5.891,15.218,15.218,0,0,1,3.372,6.554c-.258-2.433-1.652-4.709-3.1-6.823-.214-.433.06-1.243.225-1.728,1.887.82,3.067,2.662,4.573,4.074A59.424,59.424,0,0,0,9.332,8.674l.274-.809c2.756-.149,4.745,1.968,6.737,3.545A12.81,12.81,0,0,0,9.88,7.055a3,3,0,0,1,2.112-.908c2.271-.313,4.049.83,5.936,1.65-2.208-1.47-5.011-2.78-7.664-1.874a5.559,5.559,0,0,1,3.195-1.444c1.013-.062,2.268.227,3.4.071-2.213-.389-4.482-.616-6.325.564a7.878,7.878,0,0,1,3.853-3.386A6.669,6.669,0,0,0,10.214,5c-.151-2.216,1.993-3.6,3.858-4.466a1.322,1.322,0,0,1,1.832.982c-.814.807-2.057.746-2.44,1.879,1.569-.371,5.937,1.379,4.544,1.764-1.482.41-3.145-.569-4.661.18a12.239,12.239,0,0,1,3.941.613,2.89,2.89,0,0,1,1.5,1.952,1.56,1.56,0,0,1-.927,1.671c-.379.052-.593-.381-.754-.436a4.167,4.167,0,0,0-3.393-2.232c-.54,0,1.991,1.576,2.905,2.607.59.921,1.449,2.114.687,3.3-.271.269-.812.266-.919.05-1.832-.981-2.681-4.336-5.009-3.32-.167,1.026,1.021,1.248,1.5,1.952.807.815,2.318,1.146,2.42,2.443a1.078,1.078,0,0,1-1.678.694,10.875,10.875,0,0,1-2.365-2.605c-.269-.271-.861-.652-1.188-.222a10.294,10.294,0,0,1,2.676,5.416c0,.54-.331,1.511-.872,1.509-1.081-.005-1.128-1.464-1.339-2.438A8.31,8.31,0,0,0,8.875,13.75,11.314,11.314,0,0,0,10.1,18.133c.107.217-.164.485-.543.538l-.486-.164a6.941,6.941,0,0,1-1.66-3.088c-.219.647-.386,1.673-.981,1.832C5.615,17.517,6,16.384,6,15.844c.439-1.295.989-3.453.718-3.185-.653.861-.712,2.1-1.8,2.639l-.324-.11a3.62,3.62,0,0,1,1.041-3.075c.6-.7,1.574-1.451,1.417-2.587-1.84.64-2.12,2.53-2.668,4.148-.055.162-.271.269-.488.376-.379.052-.538-.543-.645-.76C2.945,11.02,4.414,8.812,6.15,7.415c-1.569.371-2.762,1.23-4.33,1.6-.379.052-1.19.318-1.35-.277,1.417-2.587,4.769-2.895,7.1-3.91a10.651,10.651,0,0,0-3.39-.246C1.959,4.96-.037,6,0,5.333A3.185,3.185,0,0,1,1.58,2.8Z" transform="translate(-14.17 10.75)" fill="#fff"/>
          </g>
        </g>
      </g>
      <g id="Group_7481" data-name="Group 7481" transform="translate(53.296 28.908) rotate(22)">
        <g data-type="innerShadowGroup">
          <g transform="matrix(1, 0, 0, 1, -34.68, -8.12)" filter="url(#Path_8703)">
            <path id="Path_8703-3" data-name="Path 8703" d="M1.58,2.8a6.164,6.164,0,0,1,4.7-.031c-.431-.326-.645-.76-1.075-1.086-.538-.543-1.4-.655-1.94-1.2a4.992,4.992,0,0,1,5.346.728,4.848,4.848,0,0,1,1.342,1.9c.159.6-.222,1.188-.063,1.783C9.092,2.459,7.164.481,4.624.522c2.323.065,3.89,2.719,4.619,4.152A7.413,7.413,0,0,0,1.627,4.26a6.963,6.963,0,0,1,8.1,1.66c.162.055-.219.648-.219.648-2.052-.334-4.158-.506-5.946.512a7.957,7.957,0,0,1,5.67.352l-.11.324c-2.04-.6-4.709,2.138-5.257,3.756C5,9.733,7.108,7.638,8.9,8.4a16.6,16.6,0,0,0-.6,2.266c-1.892.261-2.55,2.2-3.1,3.822.655-1.4,1.274-3.054,3-3.37a4.174,4.174,0,0,1-.286.746,17.494,17.494,0,0,0-1.273,4.219,25.543,25.543,0,0,1,1.318-3.365,7.269,7.269,0,0,0,1,4.49,7.218,7.218,0,0,1-.35-5.891,15.218,15.218,0,0,1,3.372,6.554c-.258-2.433-1.652-4.709-3.1-6.823-.214-.433.06-1.243.225-1.728,1.887.82,3.067,2.662,4.573,4.074A59.424,59.424,0,0,0,9.332,8.674l.274-.809c2.756-.149,4.745,1.968,6.737,3.545A12.81,12.81,0,0,0,9.88,7.055a3,3,0,0,1,2.112-.908c2.271-.313,4.049.83,5.936,1.65-2.208-1.47-5.011-2.78-7.664-1.874a5.559,5.559,0,0,1,3.195-1.444c1.013-.062,2.268.227,3.4.071-2.213-.389-4.482-.616-6.325.564a7.878,7.878,0,0,1,3.853-3.386A6.669,6.669,0,0,0,10.214,5c-.151-2.216,1.993-3.6,3.858-4.466a1.322,1.322,0,0,1,1.832.982c-.814.807-2.057.746-2.44,1.879,1.569-.371,5.937,1.379,4.544,1.764-1.482.41-3.145-.569-4.661.18a12.239,12.239,0,0,1,3.941.613,2.89,2.89,0,0,1,1.5,1.952,1.56,1.56,0,0,1-.927,1.671c-.379.052-.593-.381-.754-.436a4.167,4.167,0,0,0-3.393-2.232c-.54,0,1.991,1.576,2.905,2.607.59.921,1.449,2.114.687,3.3-.271.269-.812.266-.919.05-1.832-.981-2.681-4.336-5.009-3.32-.167,1.026,1.021,1.248,1.5,1.952.807.815,2.318,1.146,2.42,2.443a1.078,1.078,0,0,1-1.678.694,10.875,10.875,0,0,1-2.365-2.605c-.269-.271-.861-.652-1.188-.222a10.294,10.294,0,0,1,2.676,5.416c0,.54-.331,1.511-.872,1.509-1.081-.005-1.128-1.464-1.339-2.438A8.31,8.31,0,0,0,8.875,13.75,11.314,11.314,0,0,0,10.1,18.133c.107.217-.164.485-.543.538l-.486-.164a6.941,6.941,0,0,1-1.66-3.088c-.219.647-.386,1.673-.981,1.832C5.615,17.517,6,16.384,6,15.844c.439-1.295.989-3.453.718-3.185-.653.861-.712,2.1-1.8,2.639l-.324-.11a3.62,3.62,0,0,1,1.041-3.075c.6-.7,1.574-1.451,1.417-2.587-1.84.64-2.12,2.53-2.668,4.148-.055.162-.271.269-.488.376-.379.052-.538-.543-.645-.76C2.945,11.02,4.414,8.812,6.15,7.415c-1.569.371-2.762,1.23-4.33,1.6-.379.052-1.19.318-1.35-.277,1.417-2.587,4.769-2.895,7.1-3.91a10.651,10.651,0,0,0-3.39-.246C1.959,4.96-.037,6,0,5.333A3.185,3.185,0,0,1,1.58,2.8Z" transform="translate(34.68 8.12)" fill="#007c73"/>
          </g>
          <g transform="matrix(1, 0, 0, 1, -34.68, -8.12)" filter="url(#Path_8703-2)">
            <path id="Path_8703-4" data-name="Path 8703" d="M1.58,2.8a6.164,6.164,0,0,1,4.7-.031c-.431-.326-.645-.76-1.075-1.086-.538-.543-1.4-.655-1.94-1.2a4.992,4.992,0,0,1,5.346.728,4.848,4.848,0,0,1,1.342,1.9c.159.6-.222,1.188-.063,1.783C9.092,2.459,7.164.481,4.624.522c2.323.065,3.89,2.719,4.619,4.152A7.413,7.413,0,0,0,1.627,4.26a6.963,6.963,0,0,1,8.1,1.66c.162.055-.219.648-.219.648-2.052-.334-4.158-.506-5.946.512a7.957,7.957,0,0,1,5.67.352l-.11.324c-2.04-.6-4.709,2.138-5.257,3.756C5,9.733,7.108,7.638,8.9,8.4a16.6,16.6,0,0,0-.6,2.266c-1.892.261-2.55,2.2-3.1,3.822.655-1.4,1.274-3.054,3-3.37a4.174,4.174,0,0,1-.286.746,17.494,17.494,0,0,0-1.273,4.219,25.543,25.543,0,0,1,1.318-3.365,7.269,7.269,0,0,0,1,4.49,7.218,7.218,0,0,1-.35-5.891,15.218,15.218,0,0,1,3.372,6.554c-.258-2.433-1.652-4.709-3.1-6.823-.214-.433.06-1.243.225-1.728,1.887.82,3.067,2.662,4.573,4.074A59.424,59.424,0,0,0,9.332,8.674l.274-.809c2.756-.149,4.745,1.968,6.737,3.545A12.81,12.81,0,0,0,9.88,7.055a3,3,0,0,1,2.112-.908c2.271-.313,4.049.83,5.936,1.65-2.208-1.47-5.011-2.78-7.664-1.874a5.559,5.559,0,0,1,3.195-1.444c1.013-.062,2.268.227,3.4.071-2.213-.389-4.482-.616-6.325.564a7.878,7.878,0,0,1,3.853-3.386A6.669,6.669,0,0,0,10.214,5c-.151-2.216,1.993-3.6,3.858-4.466a1.322,1.322,0,0,1,1.832.982c-.814.807-2.057.746-2.44,1.879,1.569-.371,5.937,1.379,4.544,1.764-1.482.41-3.145-.569-4.661.18a12.239,12.239,0,0,1,3.941.613,2.89,2.89,0,0,1,1.5,1.952,1.56,1.56,0,0,1-.927,1.671c-.379.052-.593-.381-.754-.436a4.167,4.167,0,0,0-3.393-2.232c-.54,0,1.991,1.576,2.905,2.607.59.921,1.449,2.114.687,3.3-.271.269-.812.266-.919.05-1.832-.981-2.681-4.336-5.009-3.32-.167,1.026,1.021,1.248,1.5,1.952.807.815,2.318,1.146,2.42,2.443a1.078,1.078,0,0,1-1.678.694,10.875,10.875,0,0,1-2.365-2.605c-.269-.271-.861-.652-1.188-.222a10.294,10.294,0,0,1,2.676,5.416c0,.54-.331,1.511-.872,1.509-1.081-.005-1.128-1.464-1.339-2.438A8.31,8.31,0,0,0,8.875,13.75,11.314,11.314,0,0,0,10.1,18.133c.107.217-.164.485-.543.538l-.486-.164a6.941,6.941,0,0,1-1.66-3.088c-.219.647-.386,1.673-.981,1.832C5.615,17.517,6,16.384,6,15.844c.439-1.295.989-3.453.718-3.185-.653.861-.712,2.1-1.8,2.639l-.324-.11a3.62,3.62,0,0,1,1.041-3.075c.6-.7,1.574-1.451,1.417-2.587-1.84.64-2.12,2.53-2.668,4.148-.055.162-.271.269-.488.376-.379.052-.538-.543-.645-.76C2.945,11.02,4.414,8.812,6.15,7.415c-1.569.371-2.762,1.23-4.33,1.6-.379.052-1.19.318-1.35-.277,1.417-2.587,4.769-2.895,7.1-3.91a10.651,10.651,0,0,0-3.39-.246C1.959,4.96-.037,6,0,5.333A3.185,3.185,0,0,1,1.58,2.8Z" transform="translate(34.68 8.12)" fill="#fff"/>
          </g>
        </g>
      </g>
    </g>
  </g>
</svg>
