<svg xmlns="http://www.w3.org/2000/svg" xmlns:xlink="http://www.w3.org/1999/xlink" width="40" height="40" viewBox="0 0 40 40">
  <defs>
    <clipPath id="clip-path">
      <circle id="Ellipse_264" data-name="Ellipse 264" cx="20" cy="20" r="20" transform="translate(1215 -12346)" fill="#02635b"/>
    </clipPath>
  </defs>
  <g id="ce-eyemask-pink" transform="translate(-1215 12346)" clip-path="url(#clip-path)">
    <circle id="Ellipse_263" data-name="Ellipse 263" cx="20" cy="20" r="20" transform="translate(1215 -12346)" fill="#f6e4ef"/>
    <g id="Group_7310" data-name="Group 7310" transform="translate(1229.021 -12322.668) rotate(-30)">
      <path id="Path_7717" data-name="Path 7717" d="M16.294,26.685c-.765.1-1.31.142-1.653.236-.089-.314-.139-.6-.236-.945a21.729,21.729,0,0,0,4.251-2.125C19.8,22.89,23.143,19.6,23.143,19.6s-2.793,1.288-4.251,2.125a58.778,58.778,0,0,0-4.723,3.542c-.1-.36-.36-.561-.472-.945a37.278,37.278,0,0,0,4.487-3.07,30.158,30.158,0,0,0,3.07-3.778s-2.066,2.543-3.306,3.07a8.194,8.194,0,0,0-3.07,1.653c-.619.6-1.184,1.15-1.417,1.417-.137-.468-.088-1.159-.236-1.653a18.04,18.04,0,0,0,4.015-1.889c1.147-.961,4.723-4.015,4.723-4.015a29.619,29.619,0,0,1-3.778,1.889,30.458,30.458,0,0,0-5.2,3.542c-.072-.238-.163-.466-.236-.708a23.912,23.912,0,0,0,4.015-2.6c1.147-1.086,4.959-4.959,4.959-4.959s-2.309,1.493-4.015,2.362c-1.451.739-4.359,3.639-5.2,4.487-.119-.393-.112-.776-.236-1.181.469-.318,1.794-1.4,2.6-2.125a28.984,28.984,0,0,1,3.542-2.834c1.148-.713,3.07-1.653,3.07-1.653s-5.124,1.829-6.612,3.07a20.942,20.942,0,0,0-2.834,3.07c-.16-.519-.305-.882-.472-1.417a17.014,17.014,0,0,0,4.015-3.07,54.9,54.9,0,0,0,3.778-6.14,46.854,46.854,0,0,1-3.07,3.542c-1.228,1.228-4.26,4.456-4.959,5.2-.125-.4-.106-.773-.236-1.181a27.063,27.063,0,0,0,4.487-4.015c1.209-1.613,3.542-4.959,3.542-4.959s-3.048,2.669-4.723,4.251a43.264,43.264,0,0,0-3.542,4.015c-.129-.4-.343-.81-.472-1.181A33.959,33.959,0,0,0,13.7,9.446C14.72,7.771,16.53,4.015,16.53,4.015s-2.24,2.769-3.542,4.723c-1.1,1.643-2.27,3.637-2.6,4.251-.2-.559-.511-.921-.708-1.417a15.362,15.362,0,0,0,2.6-3.306c1.085-1.985,2.125-4.487,2.125-4.487a30.67,30.67,0,0,0-2.834,3.778c-.776,1.3-1.742,2.83-2.125,3.542-.161-.393-.314-.828-.472-1.181A21.553,21.553,0,0,0,11.1,6.612C11.843,5,12.752,2.6,12.752,2.6a21.572,21.572,0,0,1-1.889,3.07A16.112,16.112,0,0,0,8.974,9.446c-.191-.413-.525-.823-.708-1.181A13.284,13.284,0,0,0,9.918,5.431c.248-.962.945-3.778.945-3.778S9.8,4.017,9.21,5.2a17.836,17.836,0,0,0-.945,2.834c-.166-.314-.552-.674-.708-.945.413-.6,1.838-2.473,1.889-3.07.062-.713.708-3.306.708-3.306S9.389,2.681,8.738,4.015c-.469.959-.9,2.245-1.181,2.834-.143-.239-.34-.505-.472-.708.164-.413.86-1.875,1.181-2.6A17.112,17.112,0,0,0,8.974.708s-.541,1.2-.945,2.125C7.7,3.588,7.061,5.32,6.848,5.9c-.111-.163-.135-.334-.236-.472a18.98,18.98,0,0,0,.945-2.6C7.773,1.934,8.029,0,8.029,0s-.573,1.531-.945,2.834C6.795,3.847,6.5,4.8,6.376,5.2c-.1-.131-.148-.13-.236-.236a7.362,7.362,0,0,0,.472-2.125c.031-1.085,0-2.6,0-2.6a8.084,8.084,0,0,0-.708,2.6,8.2,8.2,0,0,0,0,1.889,7.961,7.961,0,0,1-.472-.708,3.042,3.042,0,0,0,0-1.417A7.849,7.849,0,0,0,4.723.708a1.884,1.884,0,0,0-.236,1.417,5.215,5.215,0,0,0,.472.945,4.71,4.71,0,0,0-.945-1.181,3.637,3.637,0,0,0-1.653-.708A13.7,13.7,0,0,0,4.014,3.07c.431.308.911.717,1.181.945a5.029,5.029,0,0,0-.945-.472A7.285,7.285,0,0,0,2.6,3.306a3.631,3.631,0,0,0,1.417.708c.719.125.639.143,1.181.236.135.234.7.745.945,1.181a7.286,7.286,0,0,0-1.889-.945c-1.085-.31-2.834-.708-2.834-.708A13.95,13.95,0,0,0,4.251,4.959a14.5,14.5,0,0,1,1.889.472c.119.218.336.449.472.708a10.7,10.7,0,0,0-1.889-.708c-.9-.248-1.009-.193-2.125-.472A12.354,12.354,0,0,1,.236,4.015S1.35,5.339,2.125,5.431s1.543.584,2.6.708a16.676,16.676,0,0,1,2.125.472c.128.245.1.436.236.708a16.213,16.213,0,0,0-2.6-.708A39.862,39.862,0,0,0,.236,6.376s2.786.789,3.778.945c.836.131,2.7.365,3.306.472.167.339.3.811.472,1.181a22.566,22.566,0,0,0-3.07-1.181C3.327,7.421.236,6.848.236,6.848A25.658,25.658,0,0,0,4.723,8.738c1.181.246,2.675.553,3.306.708.187.407.521.747.708,1.181A28.891,28.891,0,0,0,4.959,8.974C3.781,8.632.472,8.029.472,8.029A38.058,38.058,0,0,0,4.723,9.918c.994.268,3.616.964,4.251,1.181.169.4.31.765.472,1.181a33.27,33.27,0,0,1-4.015-1.417c-1.085-.59-1.388-.275-2.6-.708S0,8.974,0,8.974a10.4,10.4,0,0,0,2.6,1.653c.931.248,1.488,1.083,2.6,1.417a26.051,26.051,0,0,0,4.251.945c.156.411.328.76.472,1.181-.739-.3-3.237-1.386-4.251-1.653-1.178-.31-5.2-.945-5.2-.945a31.52,31.52,0,0,1,3.07.945c.961.4,1.407,1.405,2.834,1.653,1.111.193,3.024.379,3.778.472.075.228.166.479.236.708s.162.463.236.708a20.71,20.71,0,0,0-3.07-.945c-1.705-.341-2.619-.038-4.015-.472A26.072,26.072,0,0,1,.236,13.224s1.8,1.7,3.07,1.889a13.261,13.261,0,0,1,3.306.708,4.235,4.235,0,0,0,2.125.708,18.847,18.847,0,0,0,1.889-.236c.171.572.523,1.253.708,1.889a32.228,32.228,0,0,0-4.487-1.889,38.4,38.4,0,0,0-5.668-.472S3.862,16.507,5.2,17a14.378,14.378,0,0,0,3.542,1.181c.847.069,2.053.179,2.6.236.118.409.351.993.472,1.417-.861-.309-3.259-1.277-4.487-1.653-1.52-.465-5.9-1.417-5.9-1.417A38.236,38.236,0,0,1,5.2,18.42a10.518,10.518,0,0,0,3.542,1.417c1.06.188,2.475.41,3.07.472.141.5.33.913.472,1.417a22.929,22.929,0,0,0-4.015-1.417,41.556,41.556,0,0,0-6.612-.236,14.294,14.294,0,0,1,3.778.708A18,18,0,0,0,10.154,22.2c.835.042,1.859.232,2.361.236.088.314.149.632.236.945a26.749,26.749,0,0,0-3.542-.945c-1.892-.279-7.793-.708-7.793-.708s3.966,1.4,5.668,1.889,2.569.354,5.668.236c.107.386.367.8.472,1.181a6.5,6.5,0,0,0-2.834-.472,36.32,36.32,0,0,0-7.084.708,29.184,29.184,0,0,1,3.542.236c1.088.191,5.558,0,6.612,0,.09.328.149.864.236,1.181a5.658,5.658,0,0,0-2.834-.708c-1.985.062-4.723,2.362-4.723,2.362s2.631-1.746,3.778-1.653,1.288.5,2.125.472a13.429,13.429,0,0,0,1.653-.236c.1.369.141.6.236.945a5.9,5.9,0,0,0-3.07.472,5.887,5.887,0,0,0-2.125,1.417,11.434,11.434,0,0,1,2.362-.472,12.091,12.091,0,0,0,3.07-.945c.695,2.535,1.181,4.251,1.181,4.251l.472-.945s-.432-1.61-1.181-4.251a11.613,11.613,0,0,0,3.542,0A24.068,24.068,0,0,0,22.67,25.5a20.907,20.907,0,0,1-3.306,1.181C18.372,26.84,17.442,26.53,16.294,26.685Z" transform="translate(0 0)" fill="#ff5a8d"/>
    </g>
    <g id="Group_7311" data-name="Group 7311" transform="matrix(0.454, 0.891, -0.891, 0.454, 1268.472, -12352.363)">
      <path id="Path_7718" data-name="Path 7718" d="M16.294,5.9c-.765-.1-1.31-.142-1.653-.236-.089.314-.139.6-.236.945a21.731,21.731,0,0,1,4.251,2.125c1.148.961,4.487,4.251,4.487,4.251S20.35,11.7,18.892,10.863a58.791,58.791,0,0,1-4.723-3.542c-.1.36-.36.561-.472.945a37.278,37.278,0,0,1,4.487,3.07,30.163,30.163,0,0,1,3.07,3.778s-2.066-2.543-3.306-3.07a8.2,8.2,0,0,1-3.07-1.653c-.619-.6-1.184-1.15-1.417-1.417-.137.468-.088,1.159-.236,1.653a18.042,18.042,0,0,1,4.015,1.889c1.147.961,4.723,4.015,4.723,4.015a29.62,29.62,0,0,0-3.778-1.889,30.461,30.461,0,0,1-5.2-3.542c-.072.238-.163.466-.236.708a23.917,23.917,0,0,1,4.015,2.6c1.147,1.086,4.959,4.959,4.959,4.959S19.418,17.871,17.712,17c-1.451-.739-4.359-3.639-5.2-4.487-.119.393-.112.776-.236,1.181.469.318,1.794,1.4,2.6,2.125a28.982,28.982,0,0,0,3.542,2.834c1.148.713,3.07,1.653,3.07,1.653s-5.124-1.83-6.612-3.07a20.943,20.943,0,0,1-2.834-3.07c-.16.519-.305.882-.472,1.417a17.015,17.015,0,0,1,4.015,3.07,54.9,54.9,0,0,1,3.779,6.14,46.847,46.847,0,0,0-3.07-3.542c-1.228-1.228-4.26-4.456-4.959-5.2-.125.4-.106.773-.236,1.181a27.066,27.066,0,0,1,4.487,4.015c1.209,1.613,3.542,4.959,3.542,4.959s-3.048-2.669-4.723-4.251a43.274,43.274,0,0,1-3.542-4.015c-.129.4-.343.81-.472,1.181A33.958,33.958,0,0,1,13.7,23.143c1.024,1.675,2.834,5.432,2.834,5.432s-2.24-2.769-3.542-4.723c-1.1-1.643-2.27-3.637-2.6-4.251-.2.559-.511.921-.708,1.417a15.363,15.363,0,0,1,2.6,3.306c1.085,1.985,2.125,4.487,2.125,4.487a30.67,30.67,0,0,1-2.834-3.778c-.776-1.3-1.742-2.83-2.126-3.542-.161.393-.314.828-.472,1.181A21.555,21.555,0,0,1,11.1,25.977c.744,1.613,1.653,4.015,1.653,4.015a21.573,21.573,0,0,0-1.889-3.07,16.113,16.113,0,0,1-1.889-3.778c-.191.413-.525.823-.708,1.181a13.287,13.287,0,0,1,1.653,2.834c.248.962.945,3.778.945,3.778S9.8,28.572,9.21,27.393a17.835,17.835,0,0,1-.945-2.834c-.166.314-.552.674-.708.945.413.6,1.838,2.473,1.889,3.07.062.713.709,3.306.709,3.306s-.766-1.972-1.417-3.306c-.469-.96-.9-2.245-1.181-2.834-.143.239-.34.505-.472.708.164.413.86,1.875,1.181,2.6a17.111,17.111,0,0,1,.708,2.834s-.541-1.2-.945-2.125C7.7,29,7.061,27.268,6.849,26.685c-.111.163-.135.334-.236.472a18.981,18.981,0,0,1,.945,2.6c.217.9.472,2.834.472,2.834s-.573-1.531-.945-2.834c-.29-1.013-.586-1.961-.709-2.362-.1.131-.148.13-.236.236a7.365,7.365,0,0,1,.472,2.125c.031,1.085,0,2.6,0,2.6a8.084,8.084,0,0,1-.708-2.6,8.2,8.2,0,0,1,0-1.889,7.956,7.956,0,0,0-.472.708,3.043,3.043,0,0,1,0,1.417,7.85,7.85,0,0,1-.708,1.889,1.884,1.884,0,0,1-.236-1.417,5.216,5.216,0,0,1,.472-.945A4.709,4.709,0,0,1,4.015,30.7a3.637,3.637,0,0,1-1.653.708,13.7,13.7,0,0,1,1.653-1.889c.431-.308.911-.717,1.181-.945a5.029,5.029,0,0,1-.945.472,7.285,7.285,0,0,1-1.653.236,3.631,3.631,0,0,1,1.417-.708c.719-.125.639-.143,1.181-.236.135-.234.7-.745.945-1.181a7.287,7.287,0,0,1-1.889.945c-1.085.31-2.834.708-2.834.708A13.95,13.95,0,0,1,4.251,27.63a14.5,14.5,0,0,0,1.889-.472c.119-.218.335-.449.472-.708a10.7,10.7,0,0,1-1.889.708c-.9.248-1.009.193-2.125.472a12.354,12.354,0,0,0-2.362.945S1.35,27.25,2.125,27.157s1.543-.584,2.6-.708a16.675,16.675,0,0,0,2.125-.472c.128-.245.1-.436.236-.708a16.213,16.213,0,0,1-2.6.708,39.864,39.864,0,0,1-4.251.236s2.786-.789,3.778-.945c.836-.131,2.7-.365,3.306-.472.167-.339.3-.811.472-1.181A22.563,22.563,0,0,1,4.723,24.8c-1.4.372-4.487.945-4.487.945a25.659,25.659,0,0,1,4.487-1.889C5.9,23.605,7.4,23.3,8.029,23.143c.187-.407.521-.747.709-1.181a28.893,28.893,0,0,1-3.778,1.653c-1.179.341-4.487.945-4.487.945A38.059,38.059,0,0,1,4.723,22.67c.994-.268,3.616-.964,4.251-1.181.169-.4.31-.765.472-1.181a33.273,33.273,0,0,0-4.015,1.417c-1.085.59-1.388.275-2.6.708S0,23.615,0,23.615a10.4,10.4,0,0,1,2.6-1.653c.931-.248,1.488-1.083,2.6-1.417A26.051,26.051,0,0,1,9.446,19.6c.156-.411.328-.76.472-1.181-.739.3-3.237,1.386-4.251,1.653-1.178.31-5.2.945-5.2.945a31.517,31.517,0,0,0,3.07-.945c.961-.4,1.407-1.405,2.834-1.653,1.111-.193,3.024-.379,3.778-.472.075-.228.166-.479.236-.708s.162-.463.236-.708a20.711,20.711,0,0,1-3.07.945c-1.706.341-2.619.038-4.015.472A26.074,26.074,0,0,0,.236,19.364s1.8-1.7,3.07-1.889a13.262,13.262,0,0,0,3.306-.708,4.235,4.235,0,0,1,2.125-.708,18.848,18.848,0,0,1,1.889.236c.171-.572.523-1.253.708-1.889a32.23,32.23,0,0,1-4.487,1.889,38.4,38.4,0,0,1-5.668.472s2.681-.685,4.015-1.181a14.378,14.378,0,0,1,3.542-1.181c.847-.069,2.053-.178,2.6-.236.118-.409.351-.993.472-1.417-.861.309-3.259,1.277-4.487,1.653-1.52.465-5.9,1.417-5.9,1.417A38.236,38.236,0,0,0,5.2,14.169a10.518,10.518,0,0,1,3.542-1.417c1.06-.188,2.475-.41,3.07-.472.141-.5.33-.913.472-1.417A22.929,22.929,0,0,1,8.265,12.28a41.558,41.558,0,0,1-6.612.236,14.3,14.3,0,0,0,3.778-.708,18,18,0,0,1,4.723-1.417c.835-.042,1.859-.232,2.362-.236.088-.314.149-.632.236-.945a26.752,26.752,0,0,1-3.542.945c-1.892.279-7.793.708-7.793.708s3.966-1.4,5.668-1.889,2.569-.354,5.668-.236c.107-.386.367-.8.472-1.181a6.5,6.5,0,0,1-2.834.472,36.321,36.321,0,0,1-7.085-.709,29.185,29.185,0,0,0,3.542-.236c1.088-.191,5.558,0,6.612,0,.09-.328.149-.864.236-1.181a5.658,5.658,0,0,1-2.834.708C8.878,6.55,6.14,4.251,6.14,4.251S8.771,6,9.918,5.9s1.288-.5,2.125-.472a13.427,13.427,0,0,1,1.653.236c.1-.369.141-.6.236-.945a5.9,5.9,0,0,1-3.07-.472A5.887,5.887,0,0,1,8.737,2.834a11.434,11.434,0,0,0,2.362.472,12.091,12.091,0,0,1,3.07.945C14.864,1.716,15.35,0,15.35,0l.472.945S15.39,2.554,14.641,5.2a11.613,11.613,0,0,1,3.542,0,24.069,24.069,0,0,1,4.487,1.889A20.909,20.909,0,0,0,19.364,5.9C18.372,5.749,17.442,6.059,16.294,5.9Z" transform="translate(0 0)" fill="#ff5a8d"/>
    </g>
    <path id="Path_7719" data-name="Path 7719" d="M161.741,33.863c2.178.18,4.133.472,5.54.72,1.788.329,1.676.329,2.267.447-4.985-.212-8.592-.2-11.733-.252l-4.472-.062c-1.448-.021-2.89-.042-4.437-.036a26.32,26.32,0,0,1,6-.935A50.3,50.3,0,0,1,161.741,33.863Zm14.092,35.168c-.9-.477-1.785-.979-2.658-1.5,1.367.975,2.8,2.192,4.06,3.288l2.606,2.269,1.089.938a39.039,39.039,0,0,1-3.485-2.168c-.986-.689-1.823-1.339-2.58-1.968-.5-.414-.957-.819-1.4-1.224a61.555,61.555,0,0,1,4.118,5.6,47.344,47.344,0,0,1-7.154-8.476q-1.929-1.3-3.744-2.759c.578.937,1.166,2.045,1.79,3.192a40.98,40.98,0,0,0,2.621,4.31,19.545,19.545,0,0,0,2.737,3.094l.544.477.433.335.371.289a13.847,13.847,0,0,1-4.091-2.912,16.75,16.75,0,0,1-2.413-3.2,20.512,20.512,0,0,1-1.468-3.117c-.338-.893-.623-1.8-.889-2.757-.653-.532-1.3-1.075-1.924-1.635.571,1.025,1.148,2.251,1.741,3.541.722,1.587,1.486,3.261,2.208,4.784s1.416,2.888,1.929,3.875l.348.666.268.5.226.429a34.992,34.992,0,0,1-4.947-7.789,29.478,29.478,0,0,1-1.266-3.3c-.307-.967-.568-1.945-.806-2.979q-.859-.778-1.683-1.593c.612,1.26,1.229,2.84,1.886,4.508.687,1.77,1.443,3.626,2.173,5.31s1.455,3.186,2,4.269l.368.73.286.548.241.47a38.926,38.926,0,0,1-3.137-4.656,33.009,33.009,0,0,1-1.944-4.016,30.552,30.552,0,0,1-1.206-3.663c-.3-1.162-.547-2.334-.749-3.585q-.743-.736-1.458-1.5c.47,1.459.971,3.2,1.563,5.006a62.67,62.67,0,0,0,2.365,6.186,51.96,51.96,0,0,0,2.49,4.84l.482.813.38.605.323.519a33.211,33.211,0,0,1-3.826-5.257,29.181,29.181,0,0,1-3.956-12.9q-.8-.868-1.571-1.771a84.179,84.179,0,0,0,3.56,11.846,51.124,51.124,0,0,0,2.449,5.17l.482.869.382.647.324.554A34.032,34.032,0,0,1,162.5,69.1a30.176,30.176,0,0,1-3.571-13.639q-.682-.815-1.332-1.657a83.6,83.6,0,0,0,2.176,12.4,49.035,49.035,0,0,0,1.871,5.481c.135.348.277.653.391.927s.221.506.309.7l.268.593a32.8,32.8,0,0,1-1.9-3.156c-.275-.507-.512-1.012-.747-1.5s-.438-.974-.623-1.45a28.684,28.684,0,0,1-2.1-10.045,30.985,30.985,0,0,1,.189-4.172c-.345-.453-.687-.908-1.017-1.373-.1-.142-.2-.288-.3-.431-.046,1.818-.077,3.942.072,6.165q.014.246.028.494a40.356,40.356,0,0,0,.911,5.929c.035.16.081.316.12.474l.24.934a35.279,35.279,0,0,0,2.324,6.105l.516,1.014c.161.294.308.542.424.749l.361.641a27.342,27.342,0,0,1-4-6.746,26.276,26.276,0,0,1-1.831-7.443l-.083-1.365c-.017-.224-.01-.449-.012-.672s0-.445,0-.666c-.008-.442.032-.882.057-1.319a27.02,27.02,0,0,1,.71-4.523q-.565-.819-1.1-1.658c0,1.79-.049,3.884-.02,6.083a74.172,74.172,0,0,0,.5,7.914,62.381,62.381,0,0,0,1.12,6.414l.261,1.1.145.55.051.062.163.185.135.153c-.113-.1-.213-.2-.322-.3l.045.172.184.706c-.159-.366-.309-.727-.453-1.084a12.941,12.941,0,0,1-1.084-1.135,13.225,13.225,0,0,1-1.239-1.794,14.31,14.31,0,0,1-.891-1.852c-.251-.619-.433-1.23-.623-1.821a27.778,27.778,0,0,1-1.14-6.612,26.741,26.741,0,0,1,.331-5.8,29.2,29.2,0,0,1,1.412-5.289q-.512-.886-.995-1.792c-.155.838-.4,1.744-.661,2.7-.155.574-.312,1.155-.443,1.767l-.211.925-.2.945c-.258,1.272-.489,2.585-.673,3.894s-.31,2.615-.393,3.866c-.044.58-.06,1.146-.083,1.7a30.392,30.392,0,0,0,1.543,5.408l.484,1.176c.157.339.3.627.417.866l.356.742-.663-1.025c-.107-.17-.222-.333-.318-.505l-.283-.514c-.185-.342-.376-.674-.547-1.01l-.466-1.011-.226-.5-.19-.5-.107-.284c.007.183.014.367.02.542.01.486.052.937.073,1.35s.066.785.091,1.114.06.61.086.841l.079.718a34.986,34.986,0,0,1-.851-4,31.525,31.525,0,0,1-.324-3.138c0-.015-.009-.031-.013-.046a24.881,24.881,0,0,1-.757-6.979l.105-1.577a24.166,24.166,0,0,1,3.1-9.53q-.445-.919-.859-1.854c-.064.176-.127.352-.188.523l.194-.347s-.042.1-.173.376l-.121.252a51.443,51.443,0,0,0-2.792,10.284l-.165,1.056-.123,1.052c-.1.7-.124,1.388-.185,2.063a35.759,35.759,0,0,0,.229,6.938l.182,1.194c.061.351.132.648.18.9l.156.766-.38-1.1c-.059-.181-.132-.357-.177-.539l-.149-.537-.146-.53c-.047-.176-.1-.349-.133-.524l-.217-1.034c-.078-.339-.125-.677-.174-1.009l-.144-.984q-.045-.488-.087-.96l-.041-.47q-.01-.117-.02-.233t-.009-.231a28.965,28.965,0,0,1,4.445-16.98c-.166-.378-.324-.759-.482-1.14a42.544,42.544,0,0,0-4.517,12.153l-.1.491a32.433,32.433,0,0,0-.416,8.082c.041.425.078.811.11,1.149s.094.625.127.863l.11.739-.313-1.063c-.048-.175-.109-.347-.145-.522l-.116-.52c-.073-.345-.16-.683-.217-1.02l-.155-1c-.023-.164-.054-.327-.07-.489L144.264,59l-.084-.948c-.016-.312-.02-.619-.029-.923l-.011-.452a24.465,24.465,0,0,1,5.835-16.135c-.151-.364-.3-.728-.447-1.1-.04.052-.1.129-.188.244l-.595.755A34.041,34.041,0,0,0,142.889,53.4c-.132.653-.246,1.3-.341,1.921l-.07.465q-.017.115-.033.229l-.025.219c-.02.145-.031.29-.038.434s-.015.287-.017.428a15.921,15.921,0,0,0,.3,3.036c.156.868.3,1.572.389,2.06.045.244.077.434.1.563l.032.2c-.454-1.479-.958-2.83-1.254-4.177-.614-2.744.026-6.523.737-8.866.075-.252.159-.5.241-.739s.169-.481.259-.716a23.211,23.211,0,0,1,6.314-9.116c-.178-.457-.352-.915-.519-1.376a129.383,129.383,0,0,0-7.186,11.97c-1.509,3.011-2.268,4.491-2.5,7.533-.033.442-.04.689-.04.689a15,15,0,0,1-.091-1.524l-.007.024.007-.033c0-.162-.01-.327-.007-.487a13.54,13.54,0,0,1,1.216-5.233,35.542,35.542,0,0,1,2.513-5.3,34.183,34.183,0,0,1,2.872-4.191,38.393,38.393,0,0,1,3.2-3.515c-.2-.545-.38-1.095-.56-1.645-1.088,1.33-2.478,2.885-3.854,4.608a47.256,47.256,0,0,0-7.66,12.92,30.043,30.043,0,0,1,2.177-6.489,28.426,28.426,0,0,1,2.782-4.706,27.391,27.391,0,0,1,3.11-3.563,29.835,29.835,0,0,1,3.426-2.831c-.145-.446-.281-.894-.414-1.343-.974,1.181-2.274,2.492-3.647,3.87-1.484,1.485-3.047,3.052-4.43,4.534l-.656.7c-.342.368-.666.721-.975,1.065a32.2,32.2,0,0,0-1.517,6.246,23.342,23.342,0,0,1,.234-3.86c.055-.378.12-.744.19-1.1l-.021.026a12.645,12.645,0,0,0-1.423,2.2c-.064.123-.239.509-.246.525a9.1,9.1,0,0,1,.42-1.342l-.017.021.021-.032a12.328,12.328,0,0,1,.842-1.7q.248-.42.508-.809c.081-.123.165-.236.247-.355q.1-.4.221-.778a12.012,12.012,0,0,1,1.3-2.833,21.227,21.227,0,0,1,1.649-2.249,26.146,26.146,0,0,1,6.816-5.836c-.135-.51-.266-1.02-.387-1.532-3.127,3.973.319-.061-5.774,5.976-.769.768-1.518,1.543-2.213,2.3a47.576,47.576,0,0,0-3.335,4.106c-.39.557-.71,1.009-.915,1.331l-.331.495a30.585,30.585,0,0,1,1.483-3.022,29.525,29.525,0,0,1,1.6-2.509c2.315-3.237,7.747-7.566,9.44-8.88a53.306,53.306,0,0,1-1.336-9.524l.046-.006a7.185,7.185,0,0,0,.941.312l.006.1.031.5.062,1,.2,1.992.269,1.983.34,1.972q.182.953.4,1.9a24.872,24.872,0,0,1,5.121-.641c.98-.038,1.988-.045,2.987-.031l.747.014c.249.007.5.016.752.029.5.028.988.07,1.463.124,1.9.217,3.578.575,4.792.822l1.965.414c-2.174-.029-4.049-.165-5.708-.233-.83-.037-1.608-.062-2.345-.07l-2.133-.006c-2.7-.027-5-.2-7.632-.382.076.336.164.669.247,1l.073-.044-.067.066c.051.2.1.41.151.614a24.1,24.1,0,0,1,5.424-.859c1.029-.065,2.087-.095,3.136-.1q.787-.006,1.562,0c.523.007,1.038.028,1.539.063a28.038,28.038,0,0,1,2.809.342c.855.15,1.616.324,2.249.489s1.137.324,1.484.434l.536.181a44.881,44.881,0,0,0-5.937-.479c-.868-.014-1.683,0-2.458.018s-1.532.045-2.25.052c-2.861.033-5.29-.08-8.089-.126.255.986.541,1.963.849,2.933.853-.148,1.789-.291,2.792-.451,1.113-.175,2.3-.364,3.546-.518a32.464,32.464,0,0,1,3.833-.266c.323-.007.646.006.966.01.161,0,.324.015.485.023s.322.017.481.034l.476.044.47.06c.313.036.619.1.922.146a17.624,17.624,0,0,1,3.324.952,12.838,12.838,0,0,1,2.489,1.309,9.049,9.049,0,0,1,1.437,1.217c.29.336.443.523.443.523a9.243,9.243,0,0,0-1.587-1.173,12.125,12.125,0,0,0-1.659-.782,17.413,17.413,0,0,0-3.2-.883,23.968,23.968,0,0,0-2.929-.347c-.466-.027-.914-.039-1.362-.039s-.886.005-1.316.013c-1.721.043-3.324.171-4.939.245a36.892,36.892,0,0,1-4.648-.048c.121.379.238.759.366,1.135.024.07.048.137.072.207a19.681,19.681,0,0,1,3.11-.729,26.563,26.563,0,0,1,4.089-.279,31.034,31.034,0,0,1,8.5,1.3c.329.1.655.2.972.3l.933.324c.3.11.6.23.889.342.146.059.285.107.432.175s.295.129.429.209a6.855,6.855,0,0,1,1.4,1.026,9.448,9.448,0,0,1,1,1.1,11.213,11.213,0,0,1,1.131,1.8c.109.225.192.4.241.521l.079.183a11.736,11.736,0,0,0-1.308-1.81,9.871,9.871,0,0,0-1.5-1.409,6.066,6.066,0,0,0-1.638-.908c-.135-.051-.286-.1-.437-.14l-.444-.133-.437-.132-.434-.117A48.152,48.152,0,0,0,160.435,38a49.224,49.224,0,0,0-5.527-.446,43.934,43.934,0,0,0-5.174.172q.3.871.618,1.691a21.866,21.866,0,0,1,7.72-1.043c.747.018,1.5.085,2.261.168s1.516.211,2.262.376a22.1,22.1,0,0,1,4.28,1.353,17.285,17.285,0,0,1,3.531,2.029,13.047,13.047,0,0,1,4.052,4.8A14.4,14.4,0,0,0,173,45.273a14.056,14.056,0,0,0-1.608-1.451,16.626,16.626,0,0,0-1.67-1.139c-.566-.325-1.122-.624-1.681-.877a23.6,23.6,0,0,0-3.26-1.212,31.323,31.323,0,0,0-3.073-.728c-.994-.187-1.962-.321-2.914-.42s-1.889-.167-2.827-.2a37.525,37.525,0,0,0-5.606.208q.314.815.634,1.574a16.777,16.777,0,0,1,6.67-1.328c.337-.006.676.01,1.017.02s.683.037,1.025.075a20.327,20.327,0,0,1,2.044.3,21.5,21.5,0,0,1,3.86,1.156,23.18,23.18,0,0,1,5.685,3.306,24.1,24.1,0,0,1,2.025,1.792,29.223,29.223,0,0,0-6.64-3.682,28.585,28.585,0,0,0-5.733-1.6,29.56,29.56,0,0,0-5.136-.418,27.359,27.359,0,0,0-4.784.457q.22.521.44,1.016a15.724,15.724,0,0,1,3.58-.888,19.548,19.548,0,0,1,4.415-.056,22.212,22.212,0,0,1,4.592.955,23.147,23.147,0,0,1,4.223,1.833,17.965,17.965,0,0,1,1.836,1.148,18.617,18.617,0,0,1,4.772,4.907c.6.484,1.174.985,1.72,1.5.194.18.338.327.438.424l.151.149c-.62-.474-1.231-.912-1.835-1.321.111.182.2.339.258.442l.106.186c-.2-.277-.411-.54-.62-.8a39.759,39.759,0,0,0-5.314-2.971,44.5,44.5,0,0,0-6.384-2.372,45.257,45.257,0,0,0-5.755-1.262,38.916,38.916,0,0,0-5.522-.442q.324.677.637,1.289a25.494,25.494,0,0,1,8.133.536,33.289,33.289,0,0,1,4.5,1.329,35.349,35.349,0,0,1,4.205,1.89,40.171,40.171,0,0,1,3.58,2.146c.532.361,1.025.726,1.467,1.091a13.96,13.96,0,0,1,1.178,1.073,11.5,11.5,0,0,1,1.445,1.781c.153.222.253.407.326.528l.109.186a13.213,13.213,0,0,0-3.4-3.169,35.039,35.039,0,0,0-3.572-2.014c-1.149-.579-2.248-1.081-3.306-1.533s-2.081-.834-3.075-1.185a50.448,50.448,0,0,0-11.589-2.647c.406.8.794,1.511,1.148,2.136a22.654,22.654,0,0,1,7.761.4c.726.155,1.461.349,2.182.562s1.446.444,2.159.7a24.238,24.238,0,0,1,4.069,1.852,15.222,15.222,0,0,1,1.754,1.193c.131.107.272.218.391.319s.245.2.368.3l.738.578a11.7,11.7,0,0,1,1.333,1.179c.257.282.479.554.685.817l.073.056c.673.531,1.2.987,1.549,1.308s.543.506.543.506c-.528-.375-1.046-.722-1.558-1.05.066.1.128.186.188.276l.2.129c.262.164.483.312.663.436l.557.381c-.4-.195-.782-.376-1.165-.552.175.276.323.525.44.73.256.452.382.709.382.709a20.4,20.4,0,0,0-1.267-1.642q-.958-.429-1.862-.8c-1.1-.446-2.129-.834-3.114-1.173-.489-.177-.972-.328-1.435-.488s-.921-.3-1.367-.432l-.659-.2-.647-.189c-.425-.129-.844-.241-1.254-.357-1.639-.456-3.18-.838-4.7-1.171-1.478-.3-3.023-.4-4.664-.6l.607.9c.261.372.532.737.8,1.1a20.923,20.923,0,0,1,5.667.1,33.214,33.214,0,0,1,6.52,1.634,37.552,37.552,0,0,1,5.008,2.231l.827.456.613.363.519.313c-2.269-.9-4.257-1.564-6.049-2.1s-3.383-.939-4.869-1.3-2.87-.658-4.255-.934c-1.273-.252-2.552-.48-3.914-.674.465.628.941,1.248,1.433,1.855a19.348,19.348,0,0,1,6.4.157,27.177,27.177,0,0,1,7.039,2.283,21.536,21.536,0,0,1,5.031,3.337l.749.721c.113.1.2.216.289.312l.236.268.436.5c-.518-.426-.99-.859-1.507-1.207l-.373-.27-.183-.134c-.063-.042-.128-.081-.191-.121l-.746-.471c-.239-.162-.5-.288-.739-.426s-.482-.272-.721-.4l-.718-.352c-.236-.114-.462-.237-.7-.333a43.38,43.38,0,0,0-5.146-1.921c-1.6-.488-3.1-.863-4.612-1.188a40.449,40.449,0,0,0-4.522-.718q.787.971,1.62,1.9c.305-.081.624-.159.964-.23.44-.068.907-.129,1.394-.166q.365-.014.745-.021l.383,0c.128,0,.257.012.386.018l.788.051c.265.023.53.067.8.1a19.263,19.263,0,0,1,6.156,2.084,27.257,27.257,0,0,1,4.37,2.947l.694.582.508.457.429.392a49.837,49.837,0,0,0-5.331-3.011,36.055,36.055,0,0,0-4.441-1.774,27.955,27.955,0,0,0-4-.985,26.193,26.193,0,0,0-3.767-.362q.772.866,1.581,1.7c.334-.075.688-.142,1.066-.2.424-.038.876-.08,1.343-.083q.35,0,.713.015c.121,0,.243.006.366.016l.368.035.751.082c.25.041.5.085.757.131l.383.071c.127.026.253.059.38.088l.764.188c.253.072.5.15.756.227l.377.117c.125.042.248.087.371.131l.737.269c.242.1.481.2.718.3.478.192.931.418,1.38.626a39.1,39.1,0,0,1,4.359,2.522c.535.356.963.651,1.255.86l.454.324c-.446-.207-.876-.406-1.3-.6l.031.025-.076-.045c-1.482-.678-2.815-1.268-4.043-1.772-1.588-.652-3-1.177-4.32-1.619a39.075,39.075,0,0,0-3.818-1.078,26.662,26.662,0,0,0-3.736-.585q.773.8,1.577,1.563a15.186,15.186,0,0,1,4.908.206,19.792,19.792,0,0,1,5.71,2.078,24.891,24.891,0,0,1,4.029,2.858c.479.407.857.746,1.118.981l.4.367a54.5,54.5,0,0,0-4.894-3.016,28.713,28.713,0,0,0-4.135-1.764,34.553,34.553,0,0,0-3.751-1.053,29.613,29.613,0,0,0-3.248-.525c.681.645,1.373,1.278,2.085,1.888a12.89,12.89,0,0,1,4.224.386,24.724,24.724,0,0,1,4.668,1.7c1.432.676,2.674,1.381,3.564,1.9s1.429.866,1.429.866L175.783,65.2c-1.293-.5-2.431-.923-3.494-1.3s-2.052-.71-3.046-1.011c-.916-.276-1.84-.526-2.834-.739q.7.6,1.415,1.173c.4.319.8.628,1.2.937a16.421,16.421,0,0,1,3.726.579,26.3,26.3,0,0,1,4.61,1.721,30.552,30.552,0,0,1,3.495,1.979l.575.386.425.3.36.261c-3.232-1.54-5.654-2.417-7.757-3.2-1.053-.385-2.033-.728-3.012-1.063-.666-.226-1.334-.447-2.026-.664.882.662,1.787,1.292,2.707,1.9,3.653.5,9.324,3.522,9.324,3.522a41.352,41.352,0,0,1-7.659-2.458q.571.351,1.15.689a20.073,20.073,0,0,1,2.678,1.159c1.023.516,2.091,1.077,3.074,1.588s1.884.96,2.542,1.283l1.068.522a21.775,21.775,0,0,1-5.753-1.987A18.541,18.541,0,0,1,175.834,69.031Zm-27.92-34.3c-.133-.449-.263-.9-.385-1.351-1.187,1.145-2.589,2.436-3.947,3.893-.837.892-1.66,1.843-2.442,2.82-.39.48-.762.963-1.105,1.451q.789-.906,1.565-1.684A40.809,40.809,0,0,1,147.914,34.735Zm1.61,4.7-.027-.072c-.113.16-.224.319-.335.478l.083-.094Zm2.576,4.048a23.076,23.076,0,0,1,7.778-.115A29.607,29.607,0,0,1,164.39,44.4a31.281,31.281,0,0,1,4.23,1.661,31.863,31.863,0,0,1,5.37,3.258c-.455-.483-.916-.936-1.383-1.347a20.85,20.85,0,0,0-3.27-2.356c-.547-.314-1.085-.6-1.626-.858l-.4-.2c-.133-.063-.268-.119-.4-.179-.267-.114-.525-.24-.788-.342a30.3,30.3,0,0,0-3.058-1.066l-.742-.2c-.245-.07-.493-.118-.736-.178-.486-.125-.973-.2-1.452-.3-.241-.043-.482-.076-.721-.116s-.478-.078-.717-.1l-.716-.086c-.239-.024-.478-.039-.717-.059a25.19,25.19,0,0,0-5.786.209C151.686,42.6,151.894,43.055,152.1,43.486Zm.264,2.139q-.475-.9-.92-1.811c-.149.47-.214.61-.666,2.129l-.142.47-.073.238-.059.245q-.12.491-.25.994c-.041.168-.094.334-.127.507-.423,2.107-.231.964-.493,2.655l-.089.546c-.022.184-.038.369-.058.553l-.121,1.113q-.031.56-.062,1.123l-.033.561c0,.052,0,.1,0,.157a30.9,30.9,0,0,1,1.226-5.027,22.249,22.249,0,0,1,.95-2.409C151.746,47,152.061,46.322,152.364,45.625Zm1.576,1.393c.422.743.8,1.361,1.092,1.84a18,18,0,0,1,2.9-.248,24.079,24.079,0,0,1,3.922.308,27.989,27.989,0,0,1,4.061.97,29.768,29.768,0,0,1,3.73,1.472c-.044-.023-.088-.048-.132-.071-.512-.264-1.027-.494-1.531-.711-1.013-.429-2-.788-2.964-1.113a53.342,53.342,0,0,0-5.556-1.6A39.322,39.322,0,0,0,153.939,47.019Zm.751,2.608q-.627-.99-1.218-2.006c-.128.99-.285,2.075-.417,3.241-.138,1.283-.25,2.654-.3,4.066a42.9,42.9,0,0,0,.065,4.3,37.636,37.636,0,0,0,.516,4.194c.053.337.125.666.192.992l.1.485c.035.16.076.317.112.474.078.311.143.625.226.919.039.149.079.3.124.439s.085.287.132.426a14.431,14.431,0,0,0,1.262,2.854,12.779,12.779,0,0,0,1.071,1.571,39.88,39.88,0,0,1-1.869-6.018,37.18,37.18,0,0,1-.843-6.129,34.882,34.882,0,0,1,.134-5.35A40.042,40.042,0,0,1,154.69,49.627Zm1.556,1.119a26.17,26.17,0,0,1,2.976-.276,14.8,14.8,0,0,1,1.758.05c.306.027.606.07.907.113s.607.087.913.144a36.266,36.266,0,0,1,7.2,2.072c1.112.443,2.145.924,3.07,1.386.46.236.9.46,1.3.687.365.2.7.394,1.005.578-.1-.112-.208-.231-.313-.34l-.058-.059a40.687,40.687,0,0,0-4.243-2.215,45.958,45.958,0,0,0-5.76-2.129,47.334,47.334,0,0,0-5.169-1.227,39.982,39.982,0,0,0-4.718-.555c.35.561.584.915.648,1.039Z" transform="translate(1056.923 -12403.38)" fill="#ff5a8d"/>
    <path id="Path_7720" data-name="Path 7720" d="M248.425,623.414c1.073.715,2.106,1.333,2.951,1.786-.688-.343-1.415-.677-2.151-1l-.007,0q-.37-.162-.741-.321c-4.224-1.737-8.213-3.433-8.155-3.276a41.086,41.086,0,0,0,6,3.466q.36.17.722.332c.338.151.678.294,1.02.434.7.284,1.4.543,2.124.757a5.877,5.877,0,0,0,1.177.158,2.9,2.9,0,0,1,.954.2c-.127.352-.242.7-.356,1.047q-.257.77-.473,1.549-.2.706-.362,1.411a29.134,29.134,0,0,0-.722,5.5c0,.066.1.04.107-.027a40.608,40.608,0,0,1,.946-5.534q.146-.612.316-1.224c.13-.475.272-.951.424-1.423.122-.378.263-.754.4-1.13l.063.05c.791.654,1.338,1.631,2.061,2.318l.007.007a20.427,20.427,0,0,0,1.814,1.554,20.023,20.023,0,0,0,2.524,1.6,28.128,28.128,0,0,0,2.571,1.208,17.855,17.855,0,0,1-1.635-1.169h0c-.525-.417-1.047-.857-1.594-1.3l-.229-.186c-.4-.318-.875-.706-1.373-1.12l-.071-.059h0c-.873-.726-1.81-1.523-2.537-2.153.38.282.847.59,1.374.9.292.174.6.35.925.524a31.308,31.308,0,0,0,5.041,2.153c.679.222,1.318.4,1.877.54.169.042.331.079.484.112q-.162-.095-.355-.2c-.543-.291-1.259-.636-2.061-1.018h0c-1.9-.9-4.285-2.039-5.975-2.906-.672-.341-1.236-.635-1.619-.838a.023.023,0,0,1,0-.007c.1.049.215.1.337.148a14.562,14.562,0,0,0,1.384.477,45.31,45.31,0,0,0,7.076,1.356h0a16.066,16.066,0,0,0,2.664.138,43.343,43.343,0,0,0-6.58-1.639h0c-.607-.108-1.191-.2-1.739-.29-.24-.038-.469-.072-.693-.105-.517-.077-.989-.143-1.395-.2a22.288,22.288,0,0,0,3.064.006h0c1.628-.09,3.382-.279,4.923-.458,1.223-.144,2.313-.283,3.158-.421a25.216,25.216,0,0,0-5.363-.248h0c-1.386.065-2.7.2-3.862.314h-.616c.292-.069.622-.164.993-.283,1.768-.534,4.742-1.847,8.646-3.011l.138-.039c-3.247-.166-7.447,1.323-10.227,2.549,1-.471,2.17-1.078,3.336-1.715a.008.008,0,0,1,.006,0,37.109,37.109,0,0,0,6.441-4.109,1.15,1.15,0,0,0,.314-.456l-.035.012c-.09.032-.181.066-.275.1a63,63,0,0,0-10.061,5.778l-.395.272h0l-.007,0-.119.083-.331.232.222-.183c.29-.24.606-.507.942-.8.641-.547,1.351-1.17,2.08-1.825,0,0,0,0,0,0,2.958-2.639,5.913-5.7,6.5-7.075a1.926,1.926,0,0,0,.084-.219c.034-.018-3.078,2.614-6.64,6l-.116.112s0,0,0,0c-.84.81-1.682,1.653-2.464,2.493l-.2.2c2.721-3.354,4.306-5.481,5.39-7.13a32.1,32.1,0,0,0,2.413-4.345,17.61,17.61,0,0,0-1.722,2.12c-1.708,2.334-4.164,5.942-6.065,8.685.024-.057.047-.115.07-.173,0,0,0,0,0,0v-.006l.1-.255c1.11-1.838,2.14-3.713,3.011-5.4.007-.012.015-.026.022-.04a38.629,38.629,0,0,0,2.786-6.18c-.145.161-.282.329-.416.5a24.843,24.843,0,0,0-1.836,3.057c-.752,1.351-1.478,2.725-2.191,4.114q-.235.457-.469.915c-.793,1.549-1.58,3.119-2.31,4.719q-.177.388-.35.779c.04-.113.078-.225.117-.337.034-.064.07-.132.108-.2a.71.71,0,0,0-.059.069c.008-.025.017-.05.027-.074.029-.084.06-.169.091-.251l.3-.751.39-.964c.642-1.59,1.184-2.931,1.645-4.069,0,0,0,0,0,0,2.418-5.926,2.656-6.491,3.4-8.7-.141.172-.273.343-.4.514h0a16.148,16.148,0,0,0-1.827,3.293,86.241,86.241,0,0,0-3,8.114c-.171.529-.364,1.076-.554,1.63.647-2.1,1.275-4.836,1.8-7.3h0a52.855,52.855,0,0,0,1.239-6.709,2.212,2.212,0,0,0-.212.337h0c-.946,1.642-2.352,7.6-3.095,13.309l-.01-.038c.38-3.289.59-5.547.725-7.381.014-.128.027-.263.039-.412.019-.249.029-.464.035-.655.115-1.775.161-3.242.261-4.978a15.778,15.778,0,0,0-.638,2.53s0,0,0,0a64.842,64.842,0,0,0-.95,9.072l-.012.079a3.906,3.906,0,0,0-.04.448,81.389,81.389,0,0,0-.7-8.566l-.044-.3c-.261-1.715-.538-2.692-.7-2.632a4.356,4.356,0,0,0-.069.893c0,.317.01.695.033,1.13.122,2.387.589,6.852,1.107,10.87.066.5.133.99.2,1.462-.01-.014-.019-.03-.029-.044-.066-.36-.141-.757-.221-1.181-.293-1.529-.672-3.425-1.062-5.22v0a64.084,64.084,0,0,0-1.8-6.977,4.576,4.576,0,0,0-.026.892s0,0,0,0a75.765,75.765,0,0,0,2.432,11.13l-.03-.03c-.7-2.036-1.3-3.648-1.834-4.941a22.778,22.778,0,0,0-3.2-5.785,3.194,3.194,0,0,0,.209.739h0c.691,1.688,2.669,6.348,4.126,9.8q.214.477.427.954l-.045-.068-.383-.724c-.633-1.2-1.183-2.243-1.679-3.154l0,0a26.057,26.057,0,0,0-4.1-6.078c-.074-.077-.15-.153-.228-.228.2,1.134,4.208,7.645,6.34,10.887l-.253-.245c-1.009-1.241-1.862-2.3-2.633-3.226a33.78,33.78,0,0,0-5.659-5.617l-.069-.014a4.529,4.529,0,0,0,.266.486l0,0c.2.322.435.634.67.94,1.126,1.474,2.422,2.918,3.709,4.327.672.736,1.353,1.462,2.045,2.168.045.046.09.092.136.137l.594.594.114.112.326.325.02.021c.123.126.247.254.376.373.046.041.092.081.139.12-.066-.031-.134-.06-.2-.09-.566-.355-1.105-.742-1.65-1.154-.323-.246-.647-.489-.97-.738l0,0c-1.268-.966-2.542-1.948-3.824-2.926-1.117-.854-2.239-1.7-3.37-2.54a2.247,2.247,0,0,0,.25.47s0,0,0,0C242.614,619.045,245.646,621.565,248.425,623.414Zm4.5-1.314-.008-.064c0-.026,0-.052,0-.078,0,.035.006.069.009.1C252.921,622.074,252.921,622.087,252.921,622.1Z" transform="translate(965.572 -12936.097)" fill="#ff5a8d"/>
  </g>
</svg>
