<svg width="130" height="50" viewBox="0 0 130 50" fill="none" xmlns="http://www.w3.org/2000/svg">
<g clip-path="url(#clip0_2289_154)">
<path fill-rule="evenodd" clip-rule="evenodd" d="M88.9439 15.608C89.0497 15.6129 89.1506 15.7253 89.2534 15.7912C89.1608 15.8472 89.0684 15.9033 88.9446 15.9783C88.8303 15.9011 88.7435 15.8423 88.6566 15.7835C88.7526 15.7202 88.851 15.6035 88.9439 15.608Z" fill="#151515"/>
<path fill-rule="evenodd" clip-rule="evenodd" d="M90.142 14.6243C90.4065 14.7159 90.6548 14.7649 90.8624 14.8845C91.0557 14.9961 91.0178 15.2327 90.9109 15.376C90.8292 15.4858 90.6176 15.603 90.5096 15.5695C90.2348 15.4845 89.9772 15.3301 89.7335 15.1714C89.6841 15.139 89.6825 14.9256 89.7369 14.8675C89.8358 14.7612 89.9928 14.7086 90.142 14.6243H90.142Z" fill="#151515"/>
<path fill-rule="evenodd" clip-rule="evenodd" d="M77.9563 37.8327C76.4633 37.8331 74.9701 37.7887 73.4776 37.7412C72.8028 37.7197 68.5204 37.2653 68.0088 38.6754C67.8383 39.146 67.9202 39.3821 67.9456 39.6965C68.0434 40.9013 68.5961 41.4336 69.651 41.4354C70.9041 41.4379 72.1575 41.4361 73.4106 41.4361C73.4108 41.4563 73.4108 41.4765 73.4108 41.4964C74.9873 41.4964 76.5644 41.5239 78.14 41.4878C79.3929 41.4587 79.861 40.9235 79.8423 39.6796C79.8193 38.1358 79.4839 37.8327 77.9563 37.8327L77.9563 37.8327Z" fill="#151515"/>
<path fill-rule="evenodd" clip-rule="evenodd" d="M81.5676 34.3643C79.8627 30.2612 79.5954 29.4227 79.5877 29.2901C79.5877 29.2044 79.603 29.0841 79.6273 28.9543L79.8241 28.3592C79.8892 28.1303 79.9393 27.9281 79.9722 27.7639C80.1796 26.8861 80.2597 26.0064 80.3375 25.1559C80.3633 24.8736 80.3889 24.5943 80.4185 24.3189C80.4515 24.0169 80.4965 23.7216 80.541 23.4294C80.6221 22.8973 80.7063 22.3473 80.7063 21.7961V20.6696C80.7063 20.3037 80.6902 20.1812 80.678 20.1191C80.6579 20.0217 80.6575 19.9875 80.6575 19.9875C80.6575 19.6913 80.5637 19.4838 80.3787 19.3667C80.2758 19.3023 80.0582 19.2167 79.3592 19.2167H78.3381C77.8254 19.2167 77.6616 19.2664 77.5758 19.3094C77.3315 19.4328 77.3315 19.7738 77.3315 19.8861V20.1308C77.3315 20.2309 77.3391 20.4144 77.3562 20.6805C77.372 20.9407 77.38 21.2995 77.38 21.7471C77.38 23.0859 77.2856 23.4407 77.2447 23.5319C77.2146 23.4729 77.1558 23.3495 77.0427 23.0921C76.5617 22.059 75.9258 20.449 75.1553 18.3165C75.0638 18.009 75.0175 17.7624 75.0175 17.5838C75.0175 17.5703 75.0297 17.4365 75.4136 16.9637C77.7633 14.1366 78.9712 11.6107 79.0037 9.46794L79.1213 8.031L79.0044 6.26946C79.0044 5.34242 78.7572 4.50791 78.5154 3.81386L78.5051 3.78412C78.3071 3.21565 78.1025 2.6281 77.7319 2.10135C76.8737 0.880536 75.4744 0.261475 73.5728 0.261475C71.805 0.261475 70.4079 0.894291 69.4202 2.14217C68.5185 3.28155 68.0613 4.6721 68.0613 6.27567C68.0613 6.43476 68.0319 6.6136 68.0005 6.80286C67.9426 7.15367 67.8769 7.55151 67.9591 8.00393C68.2985 9.87154 69.2922 12.4851 70.5502 15.7941L70.5833 15.8811C70.7054 16.2212 70.7675 16.547 70.7675 16.8492C70.7675 17.0353 70.6655 17.2623 70.4702 17.5166C68.635 19.6624 67.7041 21.5968 67.7041 23.2654V29.4369C67.7041 31.1408 68.194 32.5489 69.1603 33.6221C70.131 34.7016 71.4356 35.2492 73.0381 35.2492C74.5122 35.2492 75.7684 34.6681 76.7643 33.5305C76.8683 33.4255 76.9647 33.3108 77.0509 33.1892C77.1536 33.0437 77.1925 33.0011 77.2017 32.992C77.2266 32.9669 77.2585 32.9418 77.2956 32.9168C77.2985 32.9148 77.3014 32.913 77.3039 32.9114L77.34 32.9472H77.4137C77.4348 33.0106 77.466 33.0741 77.5063 33.1349C77.5275 33.167 77.5442 33.207 77.5553 33.2503C77.572 33.3201 77.5979 33.406 77.6319 33.509C77.6615 33.5997 77.6843 33.6832 77.6994 33.7575C77.7177 33.8496 77.7522 33.9632 77.8047 34.1032C77.8495 34.2248 77.8887 34.3504 77.9223 34.4839C78.0446 34.894 78.4296 35.1021 79.0672 35.1021H81.0125C81.5699 35.1021 81.6302 34.7713 81.6302 34.629C81.6302 34.5383 81.6075 34.446 81.5677 34.3643H81.5676ZM72.1248 4.35859C72.5631 3.88642 73.0366 3.65699 73.5728 3.65699C74.2051 3.65699 74.7019 3.86955 75.0914 4.30667C75.4809 4.74489 75.6782 5.33932 75.6782 6.07354V9.50211C75.6782 10.5714 75.2141 11.8068 74.2964 13.1774C73.9499 13.7213 73.743 13.7801 73.6701 13.7801C73.6013 13.7801 73.4187 13.7801 73.3056 13.3629C72.0861 9.77547 71.4679 7.3394 71.4679 6.12258C71.4679 5.41188 71.683 4.83498 72.1248 4.35859ZM75.421 30.2624C74.7371 31.2011 73.9577 31.6576 73.0381 31.6576C72.4146 31.6576 71.9534 31.4892 71.667 31.1568C71.3737 30.8171 71.2247 30.1397 71.2247 29.1432V23.2166C71.2247 22.5037 71.477 21.7449 71.9725 20.9645C72.1937 20.6308 72.2983 20.6059 72.3081 20.6041C72.3179 20.6072 72.444 20.6603 72.6286 21.1788L75.5475 28.2354C75.6668 28.5068 75.727 28.8288 75.727 29.1922C75.727 29.5798 75.6218 29.9431 75.421 30.2624L75.421 30.2624Z" fill="#151515"/>
<path fill-rule="evenodd" clip-rule="evenodd" d="M91.6951 49.9174C90.4075 49.9174 89.1197 49.9205 87.8318 49.9165C86.7769 49.9134 86.2166 49.3868 86.1137 48.2011C86.0349 47.2931 85.991 46.3756 86.0297 45.4663C86.121 43.3247 86.0863 20.6407 85.9144 18.5049C85.7204 16.0914 85.9415 13.6915 86.1186 11.286C86.2008 10.1691 86.0591 9.03723 86.07 7.91272C86.0879 6.00273 86.1132 4.09163 86.2023 2.18431C86.2397 1.37931 86.8199 0.90159 87.5795 0.747822C88.2331 0.6158 88.9103 0.552117 89.5777 0.545906C91.4658 0.528601 93.3542 0.544576 95.2423 0.573863C95.8544 0.583402 96.47 0.645308 97.0762 0.736948C97.6788 0.828145 98.046 1.22376 98.1248 1.82197C98.1894 2.31344 98.2182 2.81623 98.2003 3.31126C98.1774 3.96382 97.7852 4.36854 97.1212 4.42091C96.4517 4.47327 95.7779 4.47061 95.1057 4.47904C93.9747 4.49369 92.8425 4.47438 91.7127 4.51321C90.7892 4.54538 90.3743 4.94256 90.3068 5.8474C90.2494 6.6138 90.2394 7.38485 90.2432 8.1539C90.2494 9.32346 90.2886 10.4928 90.3093 11.6621C90.3269 12.6404 90.6311 12.9764 91.6186 13.0041C92.8492 13.0383 94.0804 13.0447 95.3113 13.0487C96.199 13.0516 96.4907 13.8752 96.3896 14.4679C96.3054 14.9576 96.2184 15.447 96.1455 15.9383C96.0783 16.3909 95.7959 16.6248 95.369 16.6583C94.6857 16.7118 93.9989 16.7271 93.3133 16.7559C92.6846 16.7826 92.0535 16.7832 91.4272 16.8372C90.6594 16.9031 90.4138 17.2075 90.3928 17.9657C90.3534 19.3762 90.283 41.3344 90.255 42.7451C90.2403 43.457 90.2563 44.1725 90.3198 44.8808C90.399 45.7752 90.8406 46.1768 91.743 46.205C93.2594 46.252 94.7766 46.2962 96.2936 46.2962C97.8262 46.2966 98.1709 46.6015 98.1981 48.1212C98.221 49.4048 97.7538 49.9398 96.4577 49.9704C94.871 50.0077 93.2828 49.979 91.6951 49.979V49.9174Z" fill="#151515"/>
<path d="M110.181 46.9284C110.167 46.9583 110.366 47.0508 110.466 47.115C110.532 46.9867 110.597 46.8582 110.662 46.73C110.591 46.6969 110.519 46.6641 110.448 46.6308C110.353 46.7282 110.232 46.8179 110.181 46.9283V46.9284Z" fill="#151515"/>
<path fill-rule="evenodd" clip-rule="evenodd" d="M114.17 0.679503C113.905 0.668408 113.638 0.631799 113.381 0.579654C112.17 0.33425 110.728 0.653098 110.51 1.63871C110.236 2.88083 107.692 42.6713 107.565 43.0482C107.513 43.202 107.541 43.4357 107.387 43.4383C107.219 43.4412 107.336 42.4887 107.28 42.1969C107.126 41.3841 104.699 3.10338 104.318 1.45366C104.175 0.83438 103.316 0.529068 102.527 0.465385C102.275 0.444972 102.022 0.434099 101.702 0.414795C101.441 0.431214 101.113 0.440088 100.788 0.474928C100.15 0.543713 99.8238 0.776024 99.8256 1.28548C99.8278 1.98686 99.8679 2.69445 99.9928 3.38761C100.268 4.92018 103.445 45.9765 104.033 48.8326C104.181 49.5484 104.512 49.7878 105.419 49.8377C105.939 49.8661 106.458 49.9178 106.979 49.934C107.81 49.9595 108.644 50.0013 109.473 49.9662C110.173 49.9367 110.807 49.7219 110.967 49.0858C111.186 48.2104 111.514 47.3304 111.531 46.4493C111.573 44.4297 115.015 2.55466 115.206 1.66357C115.334 1.06559 114.928 0.710789 114.17 0.679507L114.17 0.679503ZM110.466 47.1152C110.366 47.0511 110.167 46.9585 110.181 46.9286C110.232 46.8181 110.353 46.7285 110.448 46.631C110.519 46.6643 110.591 46.6972 110.662 46.7302C110.597 46.8585 110.532 46.9869 110.466 47.1152H110.466Z" fill="#151515"/>
<path d="M123.507 4.51321C124.637 4.47438 125.769 4.49369 126.9 4.47904C127.572 4.47061 128.246 4.47327 128.916 4.42091C129.58 4.36854 129.972 3.96382 129.995 3.31126C130.013 2.81623 129.984 2.31344 129.919 1.82197C129.841 1.22377 129.474 0.828144 128.871 0.736951C128.265 0.645311 127.649 0.583404 127.037 0.573865C125.149 0.544575 123.26 0.528599 121.372 0.545908C120.705 0.552123 120.028 0.615802 119.374 0.747824C118.614 0.901592 118.034 1.37931 117.997 2.18431C117.908 4.09163 117.882 6.00273 117.865 7.91272C117.854 9.03723 117.995 10.1691 117.913 11.286C117.736 13.6915 117.515 16.0914 117.709 18.5049C117.881 20.6407 117.916 43.3247 117.824 45.4663C117.786 46.3756 117.829 47.2931 117.908 48.2011C118.011 49.3868 118.571 49.9134 119.626 49.9165C120.914 49.9205 122.202 49.9173 123.49 49.9173V49.979C125.077 49.979 126.666 50.0077 128.252 49.9704C129.548 49.9398 130.016 49.4048 129.993 48.1212C129.965 46.6015 129.621 46.2964 128.088 46.2962C126.571 46.2962 125.054 46.252 123.538 46.205C122.635 46.1768 122.194 45.7752 122.114 44.8808C122.051 44.1725 122.035 43.4569 122.05 42.7451C122.078 41.3344 122.148 19.3762 122.187 17.9657C122.208 17.2075 122.454 16.9031 123.222 16.8372C123.848 16.7832 124.479 16.7826 125.108 16.7559C125.793 16.7271 126.48 16.7118 127.164 16.6583C127.59 16.6248 127.873 16.391 127.94 15.9383C128.013 15.447 128.1 14.9576 128.184 14.4679C128.285 13.8752 127.993 13.0516 127.106 13.0487C125.875 13.0447 124.644 13.0383 123.413 13.0041C122.426 12.9764 122.121 12.6404 122.104 11.6621C122.083 10.4928 122.044 9.32347 122.038 8.15391C122.034 7.38486 122.044 6.6138 122.101 5.84741C122.169 4.94257 122.584 4.54539 123.507 4.51322L123.507 4.51321Z" fill="#151515"/>
<path fill-rule="evenodd" clip-rule="evenodd" d="M29.4559 14.6652C29.4559 17.1115 29.4586 40.056 29.4548 42.502C29.453 43.8329 29.3011 45.13 28.743 46.3682C27.8404 48.3704 26.3401 49.5342 24.1506 49.879C22.1211 50.1986 20.2594 49.8404 18.5785 48.6773C17.145 47.6851 16.3833 46.2894 16.2642 44.5471C16.1776 43.2837 16.0758 42.0232 16.294 40.7602C16.3388 40.5011 16.26 40.2233 16.2589 39.9537C16.2504 37.4801 16.2546 14.5079 16.2373 12.0343C16.2252 10.3704 16.1809 8.70627 16.1575 7.04213C16.1341 5.34626 16.425 3.72828 17.4182 2.30288C18.2885 1.05367 19.4969 0.402658 21.0237 0.315016C21.4911 0.288167 21.9592 0.219604 22.4196 0.131296C24.8291 -0.33089 26.7339 0.425073 28.1453 2.43225C28.9913 3.63553 29.4029 4.9573 29.3931 6.42973C29.375 9.17467 29.3882 11.9201 29.3882 14.6652H29.4559ZM25.334 10.2197H25.2703C25.2703 9.28051 25.3035 8.33972 25.2587 7.40247C25.2282 6.75568 25.1727 6.08869 24.9841 5.47474C24.4425 3.70942 22.6013 3.11477 21.2257 4.2395C20.4767 4.85213 20.1567 5.7126 20.1235 6.65117C20.0832 7.78833 20.1066 8.92794 20.1173 10.0662C20.1271 11.1328 20.1371 12.1996 20.1823 13.2649C20.2576 15.0273 20.3917 37.2873 19.9503 39.0275C19.8957 39.243 19.8942 39.4804 19.9109 39.7041C19.9968 40.8519 20.0792 42.0001 20.1999 43.1442C20.2529 43.6483 20.3531 44.1555 20.503 44.6395C20.9963 46.2322 22.899 46.4636 23.9515 45.809C24.9191 45.2068 25.1574 44.2245 25.1523 43.1781C25.1458 41.8692 25.0872 40.5608 25.0449 39.2525C25.0064 38.0615 24.8866 36.8684 25.2759 35.7013C25.3542 35.4667 25.3313 14.6965 25.332 14.442C25.3369 13.0346 25.334 11.6272 25.334 10.2197V10.2197Z" fill="#151515"/>
<path fill-rule="evenodd" clip-rule="evenodd" d="M61.6013 14.6742C61.6013 17.1203 61.6046 40.0649 61.6002 42.511C61.5975 43.8266 61.4521 45.1122 60.9027 46.3374C60.0054 48.3366 58.5236 49.5226 56.3296 49.8736C54.3015 50.1982 52.4382 49.8525 50.7515 48.6965C49.2995 47.7018 48.5283 46.2977 48.4087 44.5384C48.3232 43.275 48.2223 42.014 48.4412 40.7515C48.486 40.4927 48.4051 40.2145 48.4043 39.9451C48.3956 37.4713 48.4007 14.4991 48.3833 12.0256C48.3718 10.3616 48.3261 8.69751 48.3032 7.03337C48.28 5.35259 48.5686 3.74725 49.5438 2.33051C50.4163 1.06311 51.6334 0.400335 53.178 0.314466C53.6454 0.288726 54.1135 0.217945 54.5741 0.130081C56.9845 -0.329667 58.8868 0.430959 60.2963 2.43968C61.141 3.64452 61.5485 4.96651 61.5389 6.43872C61.5202 9.18366 61.5336 11.929 61.5336 14.6742L61.6013 14.6742ZM57.4796 10.2163H57.4159C57.4159 9.27685 57.4491 8.33628 57.4048 7.39903C57.3738 6.75224 57.3182 6.08503 57.1293 5.47129C56.5852 3.70731 54.7411 3.11398 53.3684 4.24182C52.6092 4.86643 52.2812 5.74221 52.2672 6.69721C52.24 8.58944 52.2649 10.4826 52.2738 12.3752C52.2756 12.6732 52.3081 12.9708 52.3237 13.2688C52.4155 15.0308 52.5369 37.291 52.0955 39.0312C52.0409 39.2467 52.0398 39.4841 52.0567 39.7077C52.1427 40.8556 52.2246 42.0038 52.3456 43.1478C52.399 43.6515 52.5001 44.1588 52.6502 44.6429C53.1433 46.2329 55.0491 46.4639 56.1002 45.8071C57.0663 45.2034 57.3041 44.2207 57.2977 43.1747C57.2899 41.8516 57.2271 40.5289 57.1874 39.2065C57.1525 38.044 57.0344 36.8791 57.4114 35.7391C57.4939 35.491 57.4758 14.707 57.4772 14.4386C57.4827 13.0311 57.4796 11.6237 57.4796 10.2163V10.2163Z" fill="#151515"/>
<path fill-rule="evenodd" clip-rule="evenodd" d="M36.6556 11.6028C36.6556 15.0025 36.652 38.9013 36.6591 42.3013C36.6602 42.8267 36.6694 43.3584 36.7458 43.8762C36.8881 44.8423 37.4829 45.4605 38.4042 45.7441C39.1952 45.9877 39.9348 45.8759 40.5294 45.2515C41.0329 44.7225 41.1598 44.0631 41.1451 43.3584C41.1249 42.3912 41.0835 41.4226 41.1137 40.4565C41.1503 39.2881 41.5478 38.888 42.7247 38.7975C43.2187 38.7593 43.7248 38.7869 44.2177 38.8479C44.7522 38.9138 45.1866 39.1942 45.2563 39.768C45.557 42.2416 45.504 44.6857 44.4081 46.9928C43.6507 48.5866 42.3524 49.4314 40.6167 49.7924C38.7322 50.184 36.9718 50.0542 35.2757 49.1234C33.7467 48.2847 32.8376 47.0066 32.5553 45.3063C32.3787 44.2415 32.2457 43.166 32.1642 42.0903C32.1228 41.5453 32.1417 40.9569 32.3078 40.4446C32.5352 39.7427 32.4691 39.0826 32.368 38.3899C32.2758 37.7584 32.1994 37.1163 32.2067 36.4799C32.2417 33.4507 32.2067 9.91759 32.3998 6.89729C32.5176 5.05831 32.9846 3.21 34.399 1.85051C35.8207 0.483034 37.5753 -0.0472701 39.5453 0.180825C40.6625 0.310183 41.7235 0.614612 42.6646 1.2563C44.0377 2.1931 44.7524 3.55326 45.133 5.11755C45.4421 6.38762 45.483 7.68121 45.3893 8.97746C45.3198 9.9349 44.9002 10.3809 43.9417 10.4337C43.3977 10.4639 42.8365 10.3722 42.2974 10.2644C41.8295 10.171 41.5226 9.83971 41.4527 9.35156C41.3059 8.32845 41.1888 7.30068 41.0311 6.27934C40.9271 5.60325 40.691 4.97177 40.0477 4.61498C38.8939 3.97551 37.5971 4.43459 37.0644 5.64474C36.6585 6.56712 36.6244 7.55118 36.5965 8.52992C36.5678 9.55347 36.5903 10.5784 36.5903 11.6028L36.6556 11.6028Z" fill="#151515"/>
<path fill-rule="evenodd" clip-rule="evenodd" d="M4.51005 11.6037C4.51005 15.0039 4.50671 38.902 4.51384 42.302C4.51495 42.8278 4.52386 43.359 4.60047 43.8773C4.74322 44.843 5.33804 45.4611 6.25956 45.7443C7.0508 45.9875 7.79038 45.8759 8.38453 45.2508C8.8876 44.7218 9.01432 44.0624 8.99962 43.3575C8.97935 42.3905 8.93793 41.422 8.968 40.4559C9.00474 39.2876 9.40248 38.888 10.5801 38.7975C11.0743 38.7593 11.5802 38.7868 12.0731 38.8479C12.6075 38.914 13.0413 39.1953 13.1113 39.7687C13.4117 42.2425 13.3585 44.6861 12.2624 46.9935C11.5045 48.5873 10.206 49.4318 8.47049 49.7923C6.58603 50.184 4.82539 50.054 3.12977 49.1229C1.60051 48.2842 0.692353 47.0055 0.409749 45.3052C0.233152 44.2403 0.100202 43.1653 0.0186946 42.0892C-0.0227285 41.544 -0.00379867 40.9558 0.162557 40.4434C0.390374 39.7418 0.323121 39.0817 0.222239 38.389C0.13049 37.7573 0.0541031 37.1152 0.06123 36.479C0.0961936 33.4496 0.0610076 9.91648 0.25431 6.8964C0.371893 5.05742 0.839557 3.20912 2.25391 1.84985C3.67605 0.483037 5.43046 -0.0472704 7.40043 0.180829C8.51793 0.310408 9.57908 0.614837 10.5197 1.25675C11.8931 2.19377 12.6071 3.55393 12.9877 5.11844C13.2963 6.38851 13.3378 7.6821 13.2436 8.97813C13.1741 9.93579 12.7545 10.3811 11.7956 10.4337C11.2511 10.4639 10.6901 10.372 10.151 10.264C9.68308 10.1703 9.37687 9.83883 9.30672 9.35067C9.16041 8.32756 9.04238 7.29979 8.88583 6.27823C8.7845 5.61746 8.55557 4.99618 7.93781 4.63628C6.78446 3.96375 5.45763 4.41994 4.91871 5.64564C4.51318 6.56801 4.4889 7.55207 4.45015 8.53081C4.42988 9.04181 4.47131 9.55481 4.4771 10.0669C4.48267 10.579 4.47821 11.0914 4.47821 11.6037L4.51005 11.6037Z" fill="#151515"/>
</g>
<defs>
<clipPath id="clip0_2289_154">
<rect width="130" height="50" fill="white"/>
</clipPath>
</defs>
</svg>
