<svg width="245" height="245" fill="none" xmlns="http://www.w3.org/2000/svg"><path d="M244.547 122.073C244.547 54.687 189.919.059 122.532.059 55.146.059.518 54.687.518 122.073c0 67.387 54.627 122.015 122.014 122.015s122.015-54.628 122.015-122.015Z" fill="#C7DDF3"/><path d="M117.468 103.169c-7.391 3.85-19.682 11.831-18.752 29.063.93 17.232-17.102 1.77-17.102 1.77l4.67-35.474 33.844-17.912 32.134 11.721 2.211 14.482s-23.903-10.491-37.005-3.65Z" fill="#CFCFCE" style="mix-blend-mode:multiply" opacity=".5"/><path d="M179.676 85.517c2.1 5.42 20.802 34.154 5.5 73.139-14.731 37.574-98.391 56.737-123.014-6.251-19.382-49.586 67.448 9.161 67.448 9.161l38.344-26.293 11.722-49.756Z" fill="#CFCFCE" style="mix-blend-mode:multiply" opacity=".5"/><path d="M55.95 114.28c3.001-22.193 22.664-56.227 54.257-58.347 31.594-2.12 71.389 8.2 78.86 57.707 7.471 49.506-30.294 69.818-62.008 73.458-31.713 3.641-51.126-16.932-60.677-29.433 0 0-13.392-21.203-10.431-43.385Zm42.376 19.002c4.81 7.411 10.271 13.722 17.642 14.702 7.371.98 33.844-4.141 33.664-21.833-.18-17.692-17.702-35.574-34.004-32.394-16.302 3.18-26.653 25.123-17.302 39.525Z" fill="#FEF385"/><path d="M149.392 122.881s7.451-9.681 6-18.863c-1.45-9.18-7.21-16.002-16.412-18.122-9.201-2.12-22.202-15.352-22.202-15.352l-7.151-.24-.18 5.251 14.492 11.321 19.562 10.002 4.31 19.502a42.936 42.936 0 0 1 1.581 6.501Z" fill="#CFCFCE" style="mix-blend-mode:multiply"/><path d="m94.515 60.324.8-.86a46.007 46.007 0 0 1 17.672-3.69c9.762 0 14.112 4.64 12.172 8.68-1.94 4.04-16.772 5-16.772 5l-8.101 3.421-6-6.36.23-6.191ZM146.891 135.222s4.911 1.001 12.522 9.181c7.611 8.181 7.511 13.402 10.271 15.492a37.806 37.806 0 0 0 6.751 3.801 9.21 9.21 0 0 1-2.291 2.16c-1.41.92-8.891-1.75-8.891-1.75l-12.861-11.702-10.101-10.921 1.24-2.79a14.852 14.852 0 0 0 2-1.74 14.65 14.65 0 0 0 1.36-1.731ZM99.276 96.948s-9.75 14.472-9.7 19.452a46.125 46.125 0 0 0 3.95 17.002c2.19 4.341 5 3.341 6.27 8.771 1.271 5.431-3.75 3.511-3.75 3.511l-8-7.581-5.662-17.152.42-12.662 5.001-17.892 11.471 6.551Z" fill="#CFCFCE" style="mix-blend-mode:multiply"/><path d="M75.464 63.053a5.46 5.46 0 0 0-3.89 4.531c-.65 3.82-.37 4.87 1.61 7.63 1.98 2.761 4.55 3.681 4.26 6.162-.29 2.48-.49 5.07 1.65 6.28 2.14 1.21 2.08 2.86 3 4 .92 1.141 3.181 1.101 3.181 1.101l7.56-2.55 11.552-14.282s-.84-5.62-1.69-7.15c-.85-1.531-1.16-4.851-3.32-5.442-2.16-.59-4.17-2.84-5.581-3.82-1.41-.98-1.11-2.64-3.6-2.64s-2.74 1.23-3.79 1.42c-1.051.19-4.491-2-7.002-.24-2.51 1.76-3.09 1.08-3.94 5Z" fill="#000"/><path d="M88.925 141.012c1.3 2.51 1.42 4.201 2 6.191.58 1.99 2.31 2.25 3.87 2.41 1.32.246 2.668.29 4 .13 1.351-.26 3.081-2.07 3.081-2.07s1-4.371-.33-5.791-4.47-1.32-5.89-1.58-3.22-2.08-3.71-2.82c-.49-.74-2.241-10.662-3.781-14.342-1.54-3.681-2.44-4.441-2.19-5.681.25-1.24 3.83-12.111 4.88-15.602 1.05-3.49 1.17-4 3-4.26 1.83-.26 6.171-.62 6.171-.62l16.812 2 8.421-6.77-8.221-14.492-2.63-3.51s-2.37-2.261-2.25-2.771c.12-.51 9.891-1 11.181-2.32 1.29-1.32 3.21-2.7 2.83-3.85-.38-1.151-.91-4.001-6.051-5.392-5.14-1.39-18.202 1.36-20.362.87-2.16-.49-6.44-2.76-8.951-2.14a3.07 3.07 0 0 0-2.49 2.9s4.21-1.83 4.78-.26c.57 1.57-3.5 2.38-3.5 2.38a8.681 8.681 0 0 0 4.61 1.711c2.59.08 4-1.32 6.361-1l8.791 1s-5.891.21-7.001 4.33c-1.11 4.121-3.25 5.281-4.91 5.121-1.66-.16-3.41-3.54-3.41-3.54s-1-3.66-2-4.84c-2.401-2.771-6.402-5.501-9.102-4.001a8.55 8.55 0 0 1-5.94.84 12 12 0 0 1-.15 4.25 42.28 42.28 0 0 0-.66 4.23s3.21.42 4.28 2.321c1.07 1.9.14 3 .94 3.81a2.61 2.61 0 0 0 2.93.83c.84-.49.68-1 1.6-.51s3.28 1 3.67 1.89c.39.89 1.351 4.191 1.351 4.191s-1.72 3.68-4 4.54c-2.28.86-2.78 2.601-3.5 5.481a142.566 142.566 0 0 0-2.681 17.603c-.27 4.87-1.28 7.22 1 14.251 2.28 7.031 4.91 10.552 7.15 14.882Z" fill="#752C24"/><path d="M90.975 84.216a11.782 11.782 0 0 1 6.49 4.231 18.514 18.514 0 0 0 10.432 6.71c3.57.68 8.481-1.37 8.481-1.37s-1-4.6-6.141-10.72c-5.14-6.121-8.491-10.662-8.491-10.662l.64-2.74s3.291 5.09 6.271 6.85c2.98 1.76 7.381 2.73 7.571 1.36.19-1.37-1.76-3.66-1.76-3.66a58.576 58.576 0 0 1 6.111 5.881c3.07 3.42 4.92 6 9.831 8.071 4.91 2.07 11.431 5.5 11.431 5.5l-7.211 23.213-10.731-3.93a28.25 28.25 0 0 0-6.641-8.101c-4.58-3.891-7.631-3.44-11.201-4.391a13.994 13.994 0 0 1-6.001-3.52s-3.11-6-5.4-7.93a18.57 18.57 0 0 0-4.751-2.791l1.07-2Z" fill="#F05D77"/><path d="M123.899 112.99s-7.621 12.891-10.201 19.722c-2.58 6.831-1.16 9.781.85 11.792 2.01 2.01 11.451 4.81 20.002 9.111 8.551 4.3 12.842 6.37 18.183 11.271 5.34 4.901 7.77 7.731 9.261 8.611 1.49.88 2.25-1.17.94-3.43-1.31-2.261-6.061-8.921-6.061-8.921l-18.592-15.162s-10.641-6.301-11.102-8.251c-.46-1.95 4.721-6.331 6.181-9.061 1.46-2.731 1.26-13.662 1.26-13.662s-7.23-2.59-10.721-2.02Z" fill="#5B1F18"/><path d="M134.62 115.01c-.35-1.95 0-13.282 3.221-17.602 3.22-4.32 4-3.74 4-3.74s9.812 4.48 8.361 14.811c-1.45 10.331-7.151 27.403-5.81 30.244 1.34 2.84 9.431 3.49 15.001 10.871 5.571 7.381 6.001 11.411 9.101 13.312 3.101 1.9 7.451.53 7.901 3.73.45 3.2-.33 5.791 1.151 11.101 1.48 5.311-.741 9.521-3.091 9.581-2.35.06-1.45-2-2.43-5.75-.98-3.751-2.32-9.351-7.831-14.242-5.511-4.891-19.002-15.712-23.183-18.202-4.18-2.49-8.001-5.001-8.301-8.171-.3-3.17 1.91-25.943 1.91-25.943Z" fill="#752C24"/><path d="M107.144 146.007a3.64 3.64 0 0 0-7.26-.508 3.64 3.64 0 0 0 7.26.508ZM86.865 70.385a2.977 2.977 0 1 0-5.94-.415 2.977 2.977 0 0 0 5.94.415Z" fill="#F9E6F0"/><path d="M81.074 72.655a2.1 2.1 0 1 0 0-4.2 2.1 2.1 0 0 0 0 4.2Z" fill="#000"/><path d="M92.166 65.053a2.977 2.977 0 1 0-5.94-.416 2.977 2.977 0 0 0 5.94.416Z" fill="#F9E6F0"/><path d="M86.364 67.344a2.1 2.1 0 1 0 0-4.2 2.1 2.1 0 0 0 0 4.2Z" fill="#000"/><path d="m83.235 69.014 1.74-1.82-.76-.59-1.86 1.89.88.52Z" fill="#F9E6F0"/><path d="M94.066 71.245s-.56 4.45-2.15 5.53c-1.59 1.08-6 1.36-6 1.36l3.67 1.89s4.81 1.821 6.42.21c1.61-1.61 1.43-5.45 1.43-5.45s-2.8-1.91-3.37-3.54Z" fill="#5B1F18"/><path d="M211.901 80.489a1.88 1.88 0 0 1-2.422-.533c-3.829-5.299-11.203-11.217-19.731-15.832-9.068-4.91-18.444-7.798-25.725-7.936a1.867 1.867 0 0 1-1.815-1.157 1.87 1.87 0 0 1 1.885-2.575c17.204.32 40.15 13.867 48.413 25.308a1.88 1.88 0 0 1-.417 2.61l-.188.115ZM95.887 224.432a1.881 1.881 0 0 1-2.422-.533c-3.829-5.299-11.203-11.217-19.73-15.832-9.069-4.911-18.445-7.798-25.725-7.936a1.861 1.861 0 0 1-1.39-.528 1.862 1.862 0 0 1-.565-1.375 1.863 1.863 0 0 1 .616-1.353 1.88 1.88 0 0 1 1.408-.476c17.205.321 40.15 13.867 48.413 25.308a1.879 1.879 0 0 1-.417 2.609l-.188.116ZM182.446 42.615a1.85 1.85 0 0 1-1.34.182c-14.249-3.365-38.56-11.123-41.174-25.203a1.872 1.872 0 0 1 2.229-2.29 1.863 1.863 0 0 1 1.199.884c.129.221.211.467.241.721 2.319 12.436 27.604 19.701 38.367 22.243a1.872 1.872 0 0 1 .473 3.454l.005.009ZM66.431 186.557a1.85 1.85 0 0 1-1.34.183c-14.248-3.365-38.56-11.124-41.173-25.204a1.866 1.866 0 0 1 .764-2.016 1.875 1.875 0 0 1 2.156.044 1.87 1.87 0 0 1 .748 1.288c2.32 12.436 27.604 19.701 38.367 22.243a1.875 1.875 0 0 1 1.418 1.565 1.87 1.87 0 0 1-.944 1.889l.004.008Z" fill="#DBEFED"/><path d="M211.901 80.489a1.88 1.88 0 0 1-2.422-.533c-3.829-5.299-11.203-11.217-19.731-15.832-9.068-4.91-18.444-7.798-25.725-7.936a1.867 1.867 0 0 1-1.815-1.157 1.87 1.87 0 0 1 1.885-2.575c17.204.32 40.15 13.867 48.413 25.308a1.88 1.88 0 0 1-.417 2.61l-.188.115ZM95.887 224.432a1.881 1.881 0 0 1-2.422-.533c-3.829-5.299-11.203-11.217-19.73-15.832-9.069-4.911-18.445-7.798-25.725-7.936a1.861 1.861 0 0 1-1.39-.528 1.862 1.862 0 0 1-.565-1.375 1.863 1.863 0 0 1 .616-1.353 1.88 1.88 0 0 1 1.408-.476c17.205.321 40.15 13.867 48.413 25.308a1.879 1.879 0 0 1-.417 2.609l-.188.116ZM182.446 42.615a1.85 1.85 0 0 1-1.34.182c-14.249-3.365-38.56-11.123-41.174-25.203a1.872 1.872 0 0 1 2.229-2.29 1.863 1.863 0 0 1 1.199.884c.129.221.211.467.241.721 2.319 12.436 27.604 19.701 38.367 22.243a1.872 1.872 0 0 1 .473 3.454l.005.009ZM66.431 186.557a1.85 1.85 0 0 1-1.34.183c-14.248-3.365-38.56-11.124-41.173-25.204a1.866 1.866 0 0 1 .764-2.016 1.875 1.875 0 0 1 2.156.044 1.87 1.87 0 0 1 .748 1.288c2.32 12.436 27.604 19.701 38.367 22.243a1.875 1.875 0 0 1 1.418 1.565 1.87 1.87 0 0 1-.944 1.889l.004.008Z" fill="#fff"/></svg>