<svg xmlns="http://www.w3.org/2000/svg" xmlns:xlink="http://www.w3.org/1999/xlink" width="40" height="40" viewBox="0 0 40 40">
  <defs>
    <clipPath id="clip-path">
      <circle id="Ellipse_260" data-name="Ellipse 260" cx="20" cy="20" r="20" transform="translate(2118 -11647)" fill="#02635b"/>
    </clipPath>
  </defs>
  <g id="ce-towel-leaf" transform="translate(-2118 11647)" clip-path="url(#clip-path)">
    <circle id="Ellipse_259" data-name="Ellipse 259" cx="20" cy="20" r="20" transform="translate(2118 -11647)" fill="#f5dadf"/>
    <g id="Group_7249" data-name="Group 7249" transform="matrix(0.966, -0.259, 0.259, 0.966, 2099.737, -11627.318)">
      <path id="Path_7689" data-name="Path 7689" d="M.442,28.2l.482,1.008c1.571,2.7,4.9,4.036,8.165,3.947a.7.7,0,0,0,.626-1.08L9.165,30.9c-.258-.548-.132-.632.279-.186l1.22,1.316a1.77,1.77,0,0,0,1.706.514,8.995,8.995,0,0,0,.923-.388l2.718-1.143a1.077,1.077,0,0,0,.573-1.43L15.277,26.6c-.244-.558-.132-.621.245-.149l2.17,2.719a1.532,1.532,0,0,0,1.7.434l1.752-.736a.993.993,0,0,0,.5-1.4l-1.462-2.79c-.284-.534-.211-.581.158-.1L22.367,27.2a1.6,1.6,0,0,0,1.7.488l1.921-.712a1.375,1.375,0,0,0,.848-1.464l-.284-1.663c-.1-.6.036-.641.3-.1l.7,1.43a1.141,1.141,0,0,0,1.483.535l4.618-2.078a.891.891,0,0,0,.385-1.358l-2.655-3.933c-.341-.5-.278-.554.138-.11l3.485,3.688a1.706,1.706,0,0,0,1.765.375l2.506-1.053c.559-.236,1.184-.47,1.392-.536s.124-.551-.182-1.074l-2.336-3.956c-.306-.523-.234-.577.167-.122l3.233,3.673a1.369,1.369,0,0,0,1.681.283A15.157,15.157,0,0,0,47.715,14.8a1.154,1.154,0,0,0-.406-1.545l-1.395-.87c-.514-.321-.458-.45.129-.289l1.58.437a1.161,1.161,0,0,0,1.412-.749,24.747,24.747,0,0,0,.819-6.162,2.3,2.3,0,0,0-.883-1.729,25.035,25.035,0,0,0-5.352-3,1.05,1.05,0,0,0-1.361.7l-.6,1.948c-.177.578-.321.558-.322-.048l0-2.148A1.3,1.3,0,0,0,40.258.087a13.958,13.958,0,0,0-6.218.7,1.4,1.4,0,0,0-.82,1.506l.77,4.4c.107.6.011.623-.214.06L32.245,2.9a.93.93,0,0,0-1.362-.478L28.341,3.876a1.423,1.423,0,0,0-.627,1.589l1.557,4.976c.182.579.127.6-.125.048l-2.1-4.62a.983.983,0,0,0-1.409-.456L22.294,7.32a1.462,1.462,0,0,0-.648,1.6l1.919,6.588c.17.582.1.608-.151.058L20.643,9.522a.913.913,0,0,0-1.374-.394l-1.049.692a1.772,1.772,0,0,0-.708,1.681l.38,1.951c.114.6,0,.632-.245.079l-.733-1.623a1.032,1.032,0,0,0-1.43-.5L9.622,14.447a1.462,1.462,0,0,0-.709,1.571l.915,3.664c.147.586.077.611-.155.05L8.289,16.413a.887.887,0,0,0-1.347-.422l-.289.183c-.51.325-1.3.77-1.737,1.045a1.6,1.6,0,0,0-.524,1.6L5.1,22.008c.134.593.018.633-.257.094L3.6,19.652a.7.7,0,0,0-1.234-.166C.344,21.969-.632,25.343.442,28.2Zm13.8-6.771L13.6,16.513l.564-.147.445,4.886,5.053-2.478L18.7,14.158l.408-.083,1.019,4.468,6.491-3.182-.85-4.421.135-.045,1.362,4.148,9.82-4.758.318-4.819.2-.072.121,4.625,5.167-2.548.3.545L32.237,13.282l3.854,4.073-.257.149L31.6,13.643l-6.346,3.184L29.331,21l-.172.345-4.313-4.311L9.36,24.915l4.363,3.868-.123.247L8.852,25.175,3.26,28.02l-.611-.9Z" transform="translate(0 0)" fill="#00504a"/>
    </g>
  </g>
</svg>
