<svg xmlns="http://www.w3.org/2000/svg" xmlns:xlink="http://www.w3.org/1999/xlink" width="40" height="40" viewBox="0 0 40 40">
  <defs>
    <clipPath id="clip-path">
      <circle id="Ellipse_262" data-name="Ellipse 262" cx="20" cy="20" r="20" transform="translate(2118 -11647)" fill="#02635b"/>
    </clipPath>
  </defs>
  <g id="ce-towel-girl" transform="translate(-2118 11647)" clip-path="url(#clip-path)">
    <circle id="Ellipse_261" data-name="Ellipse 261" cx="20" cy="20" r="20" transform="translate(2118 -11647)" fill="#f5dadf"/>
    <g id="Group_7309" data-name="Group 7309" transform="translate(2116.053 -11621.25) rotate(-47)">
      <g id="Group_7251" data-name="Group 7251" transform="translate(6.79 20.305)">
        <g id="Group_7250" data-name="Group 7250">
          <path id="Path_7690" data-name="Path 7690" d="M11.51.537S8.529,4.126,9.888,8.125c.1.289-3.4.066-3.4.066L0,.783,7.534,0Z" fill="#fab49e"/>
        </g>
      </g>
      <g id="Group_7304" data-name="Group 7304" transform="translate(0.23 0)">
        <g id="Group_7253" data-name="Group 7253" transform="translate(0 16.419)">
          <g id="Group_7252" data-name="Group 7252">
            <path id="Path_7691" data-name="Path 7691" d="M9.5,1.638A10.073,10.073,0,0,0,1.736.292c-4.287,1.122.647,8.162,1.185,11.313s6.805,9.27,10.5,8.417,3.338-8.03,2.667-9.83S9.5,1.638,9.5,1.638Z" fill="#fab49e"/>
          </g>
        </g>
        <g id="Group_7263" data-name="Group 7263" transform="translate(6.536)">
          <g id="Group_7255" data-name="Group 7255" transform="translate(0 15.014)">
            <g id="Group_7254" data-name="Group 7254">
              <path id="Path_7692" data-name="Path 7692" d="M4.555,0A22.4,22.4,0,0,1,2.4,4.239C1.63,5.436-.232,5.725.024,6.074c.187.255,6.147,1.152,11.51-.246h0c2.24-2.719,2.08-3.007,2.08-3.007L10.832.648Z" fill="#b37a70"/>
            </g>
          </g>
          <g id="Group_7262" data-name="Group 7262" transform="translate(1.504)">
            <g id="Group_7257" data-name="Group 7257" transform="translate(2.69 3.133)">
              <g id="Group_7256" data-name="Group 7256">
                <path id="Path_7693" data-name="Path 7693" d="M5.588,0A22.5,22.5,0,0,0,2.571,1C1.693,1.437.137,2.417.025,3.228A2.914,2.914,0,0,0,.22,4.7L3.283,3.5,6.793.866Z" fill="#3b231e"/>
              </g>
            </g>
            <g id="Group_7259" data-name="Group 7259" transform="translate(0 1.562)">
              <g id="Group_7258" data-name="Group 7258">
                <path id="Path_7694" data-name="Path 7694" d="M8.542,1.175a3.367,3.367,0,0,1-.586.9c-.262.2-1.1.66-1.089.762a7.771,7.771,0,0,1-.652,1.01,6.84,6.84,0,0,0-1.524.265,1.457,1.457,0,0,0-.4.642L3.445,6.065a13.605,13.605,0,0,1-.773,1.16A22.035,22.035,0,0,1,1.011,8.9C.516,9.306-.412,9.845.2,10.924a16.668,16.668,0,0,0,5.35,4.507c1.875.855,3.671,1.559,4.28.531S15.793,6.13,15.793,6.13L14.466,2.736,11.794,0,10.2.217Z" fill="#fab49e"/>
              </g>
            </g>
            <g id="Group_7261" data-name="Group 7261" transform="translate(6.679)">
              <g id="Group_7260" data-name="Group 7260">
                <path id="Path_7695" data-name="Path 7695" d="M7.275,5.405A10.287,10.287,0,0,0,7.142,7.76c.17.194.5.508.415.912A9.628,9.628,0,0,1,5.8,11.8c-.613.428-3.109,2.34-4.181,2.182S-.018,13.747,0,14.018s1.783,1.909,2.047,2.336,1.236,1.661,1.446,2.026a19.846,19.846,0,0,0,1.225,1.836,10.315,10.315,0,0,0,1.267,1.2c.225.132,1.181.721,1.181.721s1.9.974,4.4-1,5.647-5.772,6.021-8.79-2.168-6.609-2.576-7.075-2.4-3.933-4.862-4.8A7.42,7.42,0,0,0,4.006.86,9.217,9.217,0,0,0,1.863,2.737S3.381,1.9,3.894,2.11a2.606,2.606,0,0,0,1.223.081,3,3,0,0,0-.26.831c.05.12.719.194.719.194l.179.831a8.518,8.518,0,0,0,.68.776C6.548,4.889,7.275,5.405,7.275,5.405Z" fill="#6f4438"/>
              </g>
            </g>
          </g>
        </g>
        <g id="Group_7265" data-name="Group 7265" transform="translate(9.98 7.542)">
          <g id="Group_7264" data-name="Group 7264">
            <path id="Path_7696" data-name="Path 7696" d="M2.722,3.452A12.53,12.53,0,0,1,2.134,1.5,1.649,1.649,0,0,0,1.549.391C1.362.335,1.624-.059,1.3.008A1,1,0,0,0,.771,1.1c.154.332-.765.067-.77.593A2.113,2.113,0,0,0,1.374,3.261,2.5,2.5,0,0,0,2.722,3.452Z" fill="#ec2959"/>
          </g>
        </g>
        <g id="Group_7267" data-name="Group 7267" transform="translate(14.051 2.327)">
          <g id="Group_7266" data-name="Group 7266">
            <path id="Path_7697" data-name="Path 7697" d="M0,3.114s2.249-.159,2.682-.745S3.642.457,3.447.093s-1.1.432-1.389.764A12.891,12.891,0,0,1,.78,1.937Z" fill="#b37a70"/>
          </g>
        </g>
        <g id="Group_7269" data-name="Group 7269" transform="translate(12.251 6.073)">
          <g id="Group_7268" data-name="Group 7268">
            <path id="Path_7698" data-name="Path 7698" d="M.255,0S1.124.474,1.31.969s.083,1.41.252,1.509.678-.1.831-.358.417-.078.184.21A1.048,1.048,0,0,1,1.1,2.513a6.822,6.822,0,0,1-.668-.7A1.816,1.816,0,0,1,.016.4C.047.179.115,0,.255,0Z" fill="#b37a70"/>
          </g>
        </g>
        <g id="Group_7271" data-name="Group 7271" transform="translate(17.412 7.053)">
          <g id="Group_7270" data-name="Group 7270">
            <path id="Path_7699" data-name="Path 7699" d="M.015,0a2.591,2.591,0,0,1,1.15.968,2.277,2.277,0,0,0,1.368,1A2.406,2.406,0,0,1,.785,1.631,1.694,1.694,0,0,1,.015,0Z" fill="#1e1e1e"/>
          </g>
        </g>
        <g id="Group_7273" data-name="Group 7273" transform="translate(12.736 7.028)">
          <g id="Group_7272" data-name="Group 7272">
            <path id="Path_7700" data-name="Path 7700" d="M.472,1.068s.42.291.295-.259S.222-.031.059,0,.081.779.472,1.068Z" fill="#6f4438"/>
          </g>
        </g>
        <g id="Group_7275" data-name="Group 7275" transform="translate(18.788 4.837)">
          <g id="Group_7274" data-name="Group 7274">
            <path id="Path_7701" data-name="Path 7701" d="M.19.165A.78.78,0,0,1,.854.023,10.457,10.457,0,0,1,3.076.985c.4.3,1,.8,1,.8l-.724.771A1.8,1.8,0,0,0,2.48,1.37,9.091,9.091,0,0,0,.212.747.255.255,0,0,1,.054.34Z" fill="#6f4438"/>
          </g>
        </g>
        <g id="Group_7277" data-name="Group 7277" transform="translate(16.642 2.255)">
          <g id="Group_7276" data-name="Group 7276">
            <path id="Path_7702" data-name="Path 7702" d="M.6,1.285c.268-.064.4-.7.243-1.14S-.258.391.068.394.278,1.362.6,1.285Z" fill="#6f4438"/>
          </g>
        </g>
        <g id="Group_7280" data-name="Group 7280" transform="translate(17.57 6.317)">
          <g id="Group_7279" data-name="Group 7279">
            <g id="Group_7278" data-name="Group 7278">
              <path id="Path_7703" data-name="Path 7703" d="M.032.854a.132.132,0,0,1,0-.174A3.158,3.158,0,0,1,1.121.008a.132.132,0,0,1,.09.247,2.944,2.944,0,0,0-.982.6A.132.132,0,0,1,.044.866Z" fill="#b37a70"/>
            </g>
          </g>
        </g>
        <g id="Group_7283" data-name="Group 7283" transform="translate(14.551 3.808)">
          <g id="Group_7282" data-name="Group 7282">
            <g id="Group_7281" data-name="Group 7281">
              <path id="Path_7704" data-name="Path 7704" d="M.033.767l0,0A.132.132,0,0,1,.048.579,3.334,3.334,0,0,1,1.155,0a.132.132,0,0,1,.07.254A3.111,3.111,0,0,0,.215.782.132.132,0,0,1,.033.767Z" fill="#b37a70"/>
            </g>
          </g>
        </g>
        <g id="Group_7285" data-name="Group 7285" transform="translate(14.097 4.376)">
          <g id="Group_7284" data-name="Group 7284">
            <path id="Path_7705" data-name="Path 7705" d="M1.753.833A1.706,1.706,0,0,0,1.012.22,7.815,7.815,0,0,1,.031.009C-.181-.107.759.935.759.935Z" fill="#1e1e1e"/>
          </g>
        </g>
        <g id="Group_7287" data-name="Group 7287" transform="translate(10.712 8.632)">
          <g id="Group_7286" data-name="Group 7286">
            <path id="Path_7706" data-name="Path 7706" d="M0,.155a3.67,3.67,0,0,0,.572.871c.348.374.789.791.789.791S.872,1.017.721.7A2.852,2.852,0,0,0,.236.008C.17-.043,0,.155,0,.155Z" fill="#7e0b2e"/>
          </g>
        </g>
        <g id="Group_7289" data-name="Group 7289" transform="translate(20.633 5.856)">
          <g id="Group_7288" data-name="Group 7288">
            <path id="Path_7707" data-name="Path 7707" d="M1.657,2.776S3.069.935,3.24,1s-1.079,1.6-.911,1.787S4.361,1.327,5.1.8C5.8.3,6.312,0,6.312,0S4.465,1.651,3.368,2.466,4.907,1.9,4.907,1.9,2.388,4.166,1.678,4.734A15.3,15.3,0,0,1,0,5.851,22.647,22.647,0,0,0,1.657,2.776Z" fill="#3b231e"/>
          </g>
        </g>
        <g id="Group_7291" data-name="Group 7291" transform="translate(16.577 11.772)">
          <g id="Group_7290" data-name="Group 7290">
            <path id="Path_7708" data-name="Path 7708" d="M0,4.366s3.581-.173,5.347-1.447A12.887,12.887,0,0,1,9,1.093C9.323.972,10.619-.054,10.806,0A33.4,33.4,0,0,1,5.26,4.259C3.884,4.915,1.29,5.212,0,4.366Z" fill="#3b231e"/>
          </g>
        </g>
        <g id="Group_7293" data-name="Group 7293" transform="translate(17.8 16.618)">
          <g id="Group_7292" data-name="Group 7292">
            <path id="Path_7709" data-name="Path 7709" d="M0,1.16a16.226,16.226,0,0,0,4.116-.148A13.556,13.556,0,0,0,6.962,0,8.115,8.115,0,0,1,2.72,1.889,4.342,4.342,0,0,1,.342,1.666Z" fill="#3b231e"/>
          </g>
        </g>
        <g id="Group_7295" data-name="Group 7295" transform="translate(21.937 2.365)">
          <g id="Group_7294" data-name="Group 7294">
            <path id="Path_7710" data-name="Path 7710" d="M0,3.192S3.09-.421,4.693.562,1.442-2.683,0,3.192Z" fill="#3b231e"/>
          </g>
        </g>
        <g id="Group_7297" data-name="Group 7297" transform="translate(17.376 0.032)">
          <g id="Group_7296" data-name="Group 7296">
            <path id="Path_7711" data-name="Path 7711" d="M.094,2.348A13.6,13.6,0,0,0,2.113,1.073,5.734,5.734,0,0,1,4.027,0,6.467,6.467,0,0,0,.746,1.173C-.365,1.954.094,2.348.094,2.348Z" fill="#3b231e"/>
          </g>
        </g>
        <g id="Group_7299" data-name="Group 7299" transform="translate(21.301 1.452)">
          <g id="Group_7298" data-name="Group 7298">
            <path id="Path_7712" data-name="Path 7712" d="M4.423.218A9.828,9.828,0,0,0,.378.963C-1.006,1.764,1.65-.728,4.423.218Z" fill="#3b231e"/>
          </g>
        </g>
        <g id="Group_7301" data-name="Group 7301" transform="translate(18.613 0.026)">
          <g id="Group_7300" data-name="Group 7300">
            <path id="Path_7713" data-name="Path 7713" d="M0,2.085S2.624.044,4.14,0l.444.048S1.09,1.742.534,2.2Z" fill="#3b231e"/>
          </g>
        </g>
        <g id="Group_7303" data-name="Group 7303" transform="translate(19.438 14.061)">
          <g id="Group_7302" data-name="Group 7302">
            <path id="Path_7714" data-name="Path 7714" d="M10.69,0S7.005,3.97,4.821,5.143A10.235,10.235,0,0,1,0,6.156L1.005,7.162s3.613-.277,3.809-.839c.075-.215-1.67.311-1.5.116C3.569,6.157,7.168,5.495,10.69,0Z" fill="#3b231e"/>
          </g>
        </g>
      </g>
      <g id="Group_7306" data-name="Group 7306" transform="translate(2.723 26.075)">
        <g id="Group_7305" data-name="Group 7305">
          <path id="Path_7715" data-name="Path 7715" d="M14.023,3.815a.428.428,0,0,1-.355-.189h0A6.5,6.5,0,0,0,11.6,1.873a9.172,9.172,0,0,0-6.636-.726,37.891,37.891,0,0,0-4.385,1.2.429.429,0,0,1-.3-.8A37.866,37.866,0,0,1,4.776.31a10,10,0,0,1,7.284.839,7.2,7.2,0,0,1,2.318,2,.429.429,0,0,1-.356.668Z" fill="#69ba84"/>
        </g>
      </g>
      <g id="Group_7308" data-name="Group 7308" transform="translate(0 17.527)">
        <g id="Group_7307" data-name="Group 7307">
          <path id="Path_7716" data-name="Path 7716" d="M.306,2.676a.306.306,0,0,1-.2-.537A9.954,9.954,0,0,1,6.3.015,16.273,16.273,0,0,1,9.792.231a.306.306,0,1,1-.118.6,15.972,15.972,0,0,0-3.363-.2A9.564,9.564,0,0,0,.508,2.6.3.3,0,0,1,.306,2.676Z" fill="#69ba84"/>
        </g>
      </g>
    </g>
  </g>
</svg>
