<svg width="20" height="20" viewBox="0 0 20 20" fill="none" xmlns="http://www.w3.org/2000/svg">
<path d="M10 20C15.5228 20 20 15.5228 20 10C20 4.47715 15.5228 0 10 0C4.47715 0 0 4.47715 0 10C0 15.5228 4.47715 20 10 20Z" fill="#B6D7D4"/>
<path d="M4.48484 10.4093L4.52141 11.6171C4.52141 11.6171 4.49398 11.9202 4.718 11.7121L5.17974 10.9838" fill="#085A54"/>
<path d="M4.43912 10.4093L4.4757 11.6171V11.6443L4.48941 11.7483C4.49856 11.7845 4.53056 11.8343 4.58999 11.8343C4.64028 11.8343 4.686 11.8026 4.75 11.7483L5.21174 11.011L5.13402 10.9612L4.67228 11.6895L4.70885 11.7121L4.67685 11.6805C4.62199 11.7302 4.58999 11.7438 4.58085 11.7438L4.56713 11.7212L4.55799 11.6488V11.6262L4.52141 10.4138H4.42998L4.43912 10.4093Z" fill="#02302B"/>
<path d="M5.46776 11.1964V12.5626C5.46776 12.5626 5.44033 12.8974 5.66434 12.6486L6.32724 11.7302" fill="#085A54"/>
<path d="M5.42204 11.1964V12.5943L5.43576 12.7029C5.4449 12.739 5.47233 12.7888 5.53633 12.7888C5.59119 12.7888 5.63691 12.7526 5.70091 12.6802L6.36381 11.7574L6.29066 11.7031L5.62777 12.6214L5.66434 12.6486L5.63234 12.6169C5.57748 12.6802 5.53633 12.6938 5.53633 12.6938L5.51805 12.5898V11.1919H5.42661L5.42204 11.1964Z" fill="#02302B"/>
<path d="M7.15014 12.1645L7.13643 13.6212C7.13643 13.6212 7.13643 13.8248 7.28729 13.6845L8.18792 12.6124" fill="#085A54"/>
<path d="M7.10443 12.1645L7.09071 13.6212L7.09985 13.689L7.12729 13.7433L7.20043 13.7795C7.24158 13.7795 7.27815 13.7569 7.3193 13.7162L8.21992 12.6395L8.15135 12.5807L7.25072 13.6529L7.28729 13.68L7.25529 13.6483L7.19586 13.6845L7.18215 13.6438V13.6167L7.19586 12.16H7.10443V12.1645Z" fill="#02302B"/>
<path d="M8.88282 12.9471L8.86453 13.404C8.86453 13.404 8.87825 13.5488 8.99254 13.4629L9.13426 13.0964" fill="#085A54"/>
<path d="M8.8371 12.9471L8.81882 13.404L8.83253 13.4674C8.84167 13.4945 8.87368 13.5398 8.92854 13.5398L9.01997 13.5036L9.02911 13.4945L9.17541 13.119L9.08855 13.0874L8.94682 13.4538L8.98797 13.4719L8.96054 13.4357L8.92397 13.4538L8.91482 13.4402V13.4176L8.90568 13.4086L8.92397 12.9562H8.83253L8.8371 12.9471Z" fill="#02302B"/>
<path d="M9.13426 13.0964L9.03826 14.5531C9.03826 14.5531 8.9834 14.8924 9.22113 14.6979L10.0532 13.7252" fill="#085A54"/>
<path d="M9.08855 13.0964L8.99254 14.5531C8.99254 14.5531 8.98797 14.5848 8.98797 14.63L9.00626 14.734C9.01997 14.7702 9.05654 14.8064 9.10683 14.8064C9.15255 14.8064 9.19827 14.7838 9.25313 14.7386L10.0897 13.7614L10.0212 13.7026L9.18912 14.6752L9.2257 14.7024L9.19827 14.6662C9.14798 14.7069 9.11598 14.716 9.10683 14.716L9.09312 14.7024L9.08397 14.63V14.5621H9.08855L9.18455 13.1055H9.09312L9.08855 13.0964Z" fill="#02302B"/>
<path d="M10.4875 13.9469V14.3133C10.4875 14.3133 10.4966 14.5486 10.6521 14.3767L10.8852 14.1233" fill="#085A54"/>
<path d="M10.4418 13.9469V14.3133L10.4555 14.3902L10.4829 14.449L10.5561 14.4852C10.6018 14.4852 10.6429 14.4581 10.6886 14.4038L10.9218 14.1505L10.8532 14.0871L10.6201 14.3405C10.5789 14.3857 10.5561 14.3902 10.5561 14.3902L10.5469 14.3812L10.5332 14.336V13.9469H10.4418Z" fill="#02302B"/>
<path d="M11.2098 14.2364L11.0041 15.3764C11.0041 15.3764 10.9355 15.7157 11.2098 15.5076L12.1882 14.4898" fill="#085A54"/>
<path d="M11.1641 14.2319L10.9584 15.3719C10.9584 15.3719 10.9492 15.4126 10.9492 15.4624L10.9675 15.5619C10.9812 15.5936 11.0178 15.6252 11.0681 15.6252C11.1184 15.6252 11.1687 15.5981 11.2372 15.5483L12.2202 14.526L12.1562 14.4626L11.1778 15.4805L11.2098 15.5121L11.1824 15.476C11.123 15.5212 11.0818 15.5348 11.0681 15.5348L11.0544 15.5212L11.0452 15.4624L11.0544 15.39L11.2601 14.25L11.1687 14.2319H11.1641Z" fill="#02302B"/>
<path d="M13.0431 14.5848L12.8922 15.1502C12.8922 15.1502 12.8145 15.494 13.1025 15.2814L13.9254 14.5667" fill="#085A54"/>
<path d="M13.0019 14.5757L12.8511 15.1412C12.8511 15.1412 12.8419 15.191 12.8419 15.2407L12.8602 15.3357C12.8739 15.3674 12.9151 15.399 12.9562 15.3945C13.0065 15.3945 13.0614 15.3674 13.1345 15.3176L13.9574 14.5983L13.898 14.5305L13.0751 15.2452L13.1071 15.2814L13.0796 15.2452C13.0156 15.295 12.9745 15.3086 12.9562 15.304L12.9425 15.295L12.9333 15.2407L12.9425 15.1638L12.8968 15.1548L12.9425 15.1683L13.0934 14.6029L13.0065 14.5802L13.0019 14.5757Z" fill="#02302B"/>
<path d="M11.1687 6.96667C11.1687 6.96667 8.08277 5.46929 5.20717 6.42833C5.20717 6.42833 4.55342 6.69976 4.40255 7.23809L3.80366 8.77619C3.80366 8.77619 3.68022 8.99333 3.80366 9.43667C3.80366 9.43667 4.06424 10.0971 4.48484 10.4093C4.48484 10.4093 5.77863 11.5674 6.50553 11.8026C6.50553 11.8026 7.46559 12.4043 8.26564 12.635C8.26564 12.635 9.23027 13.0783 9.41771 13.3271C9.41771 13.3271 10.4509 14.1188 11.8773 14.4219C11.8773 14.4219 12.9105 14.716 14.3734 14.5169C14.3734 14.5169 15.0866 14.4717 15.3472 14.1414L16.097 12.3319C16.097 12.3319 16.1518 12.1826 16.1747 11.97C16.2113 11.6352 16.1747 11.1512 15.7312 10.8979L14.8992 10.2645C14.8992 10.2645 14.5654 10.0655 14.3414 9.58143C14.3414 9.58143 14.1037 9.02952 13.2351 8.50024C13.2351 8.50024 13.3082 7.61809 13.6145 7.49143C13.6145 7.49143 14.314 7.91667 14.6112 7.56381C14.6112 7.56381 15.0272 7.24714 14.3003 6.26095C14.3003 6.26095 13.546 5.37429 12.8556 4.845C12.8556 4.845 11.7127 3.95833 11.1824 4.14381C11.1824 4.14381 10.5606 4.36095 11.155 5.24762C11.155 5.24762 11.5024 5.78143 11.6441 5.93524C11.6761 5.9669 11.6898 6.01214 11.6761 6.05738C11.635 6.20214 11.5161 6.5369 11.1732 6.97571L11.1687 6.96667Z" fill="#085A54"/>
<path d="M11.1687 6.96667L11.187 6.92595C11.187 6.92595 9.40857 6.0619 7.28729 6.0619C6.60611 6.0619 5.89293 6.15238 5.18888 6.38309C5.18888 6.38309 4.52141 6.65452 4.35683 7.22452L4.40255 7.23809L4.3614 7.22L3.76251 8.75809L3.80366 8.77619L3.76251 8.75357C3.76251 8.75357 3.70308 8.86214 3.70308 9.06571C3.70308 9.16976 3.71679 9.29643 3.75794 9.44571C3.75794 9.44571 4.01853 10.1198 4.45284 10.441L4.48027 10.4048L4.44827 10.4364C4.44827 10.4364 5.74206 11.5945 6.48268 11.8388L6.49639 11.7936L6.47353 11.8298C6.47353 11.8298 7.43816 12.4314 8.24278 12.6712L8.2565 12.626L8.23821 12.6667C8.23821 12.6667 8.47594 12.7752 8.7411 12.92C9.00168 13.0602 9.29427 13.2367 9.37656 13.3452L9.38571 13.3543C9.38571 13.3543 10.4235 14.1505 11.8636 14.4581L11.8727 14.4129L11.859 14.4581C11.859 14.4581 12.4396 14.6255 13.3448 14.6255C13.6511 14.6255 13.9986 14.6074 14.3689 14.5576C14.3689 14.5576 15.0866 14.5169 15.3746 14.164V14.155L16.129 12.3455C16.129 12.3455 16.1838 12.1871 16.2067 11.9745C16.2158 11.9112 16.2204 11.8433 16.2204 11.7755C16.2204 11.4588 16.1244 11.0743 15.7404 10.8571L15.7175 10.8979L15.7449 10.8617L14.9129 10.2283L14.8626 10.1876C14.762 10.1107 14.538 9.91619 14.3734 9.56333C14.3734 9.56333 14.1266 8.99333 13.2488 8.45952L13.2259 8.50024H13.2717C13.2717 8.50024 13.2899 8.28762 13.3448 8.05238C13.3997 7.81714 13.5002 7.57738 13.6237 7.52762L13.6054 7.4869L13.5825 7.52762C13.5825 7.52762 13.9346 7.74476 14.2637 7.74476C14.4009 7.74476 14.538 7.70405 14.6386 7.58643L14.602 7.55929L14.6295 7.59548C14.6295 7.59548 14.7666 7.4869 14.7666 7.23357C14.7666 7.01643 14.6706 6.69071 14.3323 6.22929C14.3323 6.22929 13.5734 5.3381 12.8785 4.80429C12.8785 4.80429 11.9459 4.07143 11.3424 4.0669C11.2784 4.0669 11.219 4.07595 11.1641 4.09405C11.1641 4.09405 10.8532 4.20714 10.8487 4.57357C10.8487 4.75 10.9172 4.97167 11.1138 5.26571L11.1504 5.23857L11.1138 5.26119C11.1138 5.26119 11.4567 5.795 11.6076 5.95333L11.6304 6.00762V6.03024C11.5893 6.17048 11.4704 6.50071 11.1321 6.935L11.1687 6.96214L11.2052 6.98929C11.5527 6.54595 11.6761 6.20214 11.7173 6.05286V6.00762C11.7218 5.96238 11.7036 5.92167 11.6761 5.89C11.6076 5.81762 11.4841 5.64571 11.3835 5.49643C11.2784 5.34262 11.1915 5.21143 11.1915 5.21143C11.0041 4.93095 10.9401 4.72286 10.9401 4.56905C10.9401 4.41071 11.0041 4.31571 11.0681 4.2569L11.155 4.19357L11.1915 4.17548C11.2372 4.1619 11.2875 4.15286 11.3424 4.15286C11.6076 4.15286 11.987 4.32929 12.2887 4.51024C12.5905 4.69119 12.8236 4.86762 12.8236 4.87214C13.1665 5.13452 13.5277 5.48738 13.802 5.77238C14.0763 6.05738 14.2637 6.27905 14.2637 6.27905C14.5974 6.73595 14.6843 7.03905 14.6843 7.23357C14.6843 7.34214 14.6569 7.41452 14.6295 7.46429L14.5929 7.51405L14.5746 7.53214C14.4969 7.62262 14.3917 7.65429 14.2729 7.65429C14.1266 7.65429 13.9666 7.60452 13.8431 7.55024C13.7197 7.50048 13.6374 7.44619 13.6374 7.44619H13.5962C13.4088 7.52762 13.3219 7.79 13.2625 8.02976C13.2031 8.26952 13.1894 8.49119 13.1894 8.49571L13.2122 8.53643C13.642 8.79881 13.9117 9.06571 14.0763 9.26476C14.1586 9.36428 14.2134 9.45024 14.25 9.50905C14.2866 9.56786 14.2957 9.59952 14.2957 9.59952C14.5289 10.0926 14.8672 10.3007 14.8717 10.3007L14.8946 10.26L14.8672 10.2962L15.6992 10.9295H15.7038C16.0512 11.1286 16.1381 11.4724 16.1381 11.771C16.1381 11.8388 16.1381 11.9021 16.129 11.961C16.1061 12.1645 16.0558 12.3093 16.0558 12.3093L16.097 12.3229L16.0558 12.3048L15.3061 14.1143L15.3472 14.1324L15.3106 14.1052C15.1918 14.2545 14.9586 14.3495 14.7483 14.3993C14.5426 14.449 14.3689 14.4626 14.3689 14.4626C13.9986 14.5124 13.6602 14.5305 13.3539 14.5305C12.9059 14.5305 12.5402 14.4898 12.2887 14.449C12.0327 14.4083 11.8956 14.3676 11.8956 14.3676C11.187 14.2138 10.5789 13.9424 10.1446 13.7071C9.92974 13.5895 9.75602 13.481 9.63715 13.404C9.51829 13.3271 9.45428 13.2774 9.45428 13.2774L9.42685 13.3136L9.46343 13.2864C9.35371 13.1507 9.06569 12.9788 8.80053 12.834C8.53537 12.6893 8.29307 12.5807 8.29307 12.5807H8.2885C7.89533 12.4631 7.45645 12.255 7.11814 12.0786C6.77984 11.9021 6.54211 11.7529 6.54211 11.7529H6.53296C6.18094 11.6352 5.67806 11.2869 5.2666 10.9702C4.85515 10.6536 4.53056 10.364 4.53056 10.364C4.3294 10.2148 4.16025 9.975 4.04139 9.77143C3.92709 9.57238 3.86309 9.40952 3.86309 9.40952L3.82194 9.42762L3.86766 9.41405C3.82652 9.26929 3.8128 9.15167 3.8128 9.05667C3.8128 8.96167 3.82652 8.89381 3.84023 8.84857L3.85852 8.79881V8.78524H3.86766L4.46655 7.24262C4.53513 6.98476 4.73171 6.78571 4.91001 6.65452C4.99687 6.58667 5.08373 6.54143 5.14774 6.50524C5.21174 6.47357 5.24831 6.45548 5.24831 6.45548L5.23003 6.41476L5.24374 6.45548C5.93407 6.22476 6.64268 6.13881 7.31015 6.13881C8.35707 6.13881 9.3217 6.35143 10.0257 6.56405C10.3778 6.67262 10.6612 6.77667 10.8624 6.85809C11.0635 6.93952 11.1687 6.98929 11.1687 6.98929L11.2235 6.97571L11.187 6.94857L11.1687 6.96667Z" fill="#02302B"/>
<path d="M4.59456 6.88524C4.59456 6.88524 4.42541 8.02976 5.37175 8.4369Z" fill="#085A54"/>
<path d="M4.54884 6.88071C4.54884 6.88071 4.53513 6.96214 4.53513 7.08881C4.53513 7.44167 4.62656 8.17 5.35346 8.47762L5.4129 8.455L5.39004 8.39619C4.718 8.11119 4.62656 7.43262 4.62656 7.08881C4.62656 6.96667 4.63571 6.89429 4.63571 6.89429L4.59913 6.84452L4.54884 6.88071Z" fill="#02302B"/>
<path d="M11.1687 6.96667C11.1687 6.96667 11.0178 7.39191 10.4463 7.1431Z" fill="#085A54"/>
<path d="M11.1275 6.9531L11.1138 6.98476C11.0772 7.0481 10.9858 7.17476 10.7755 7.17476C10.6932 7.17476 10.5926 7.15667 10.4692 7.10238L10.4098 7.125L10.4326 7.18381C10.5652 7.24262 10.6795 7.26524 10.7755 7.26524C11.1138 7.26524 11.2144 6.98476 11.2144 6.98024L11.187 6.92143L11.1275 6.94857V6.9531Z" fill="#02302B"/>
<path d="M13.2305 8.50024C13.2305 8.50024 13.1802 9.27833 13.3997 9.54071Z" fill="#085A54"/>
<path d="M13.1848 8.49571C13.1848 8.49571 13.1802 8.57714 13.1802 8.69476C13.1802 8.94809 13.1985 9.36429 13.3677 9.56786H13.4317V9.50905C13.3037 9.35524 13.2717 8.93905 13.2717 8.69476C13.2717 8.58167 13.2762 8.50024 13.2762 8.50024L13.2351 8.45048L13.1848 8.49119V8.49571Z" fill="#02302B"/>
<path d="M13.6465 7.505C13.6465 7.505 13.2671 7.27429 13.1665 7.15667Z" fill="#085A54"/>
<path d="M13.6694 7.46881C13.6694 7.46881 13.5734 7.41 13.4682 7.33762C13.3631 7.26524 13.2442 7.17929 13.1985 7.125H13.1345V7.18381C13.2442 7.315 13.6191 7.54119 13.6191 7.54119L13.6831 7.52762L13.6694 7.46429V7.46881Z" fill="#02302B"/>
<path d="M11.2007 4.8269C11.2007 4.8269 11.8407 5.95333 12.2933 6.11619Z" fill="#085A54"/>
<path d="M11.1641 4.84952C11.1641 4.84952 11.3241 5.13452 11.5436 5.43762C11.763 5.74071 12.0327 6.06643 12.2842 6.1569L12.3436 6.12976L12.3162 6.07095C12.1104 5.99857 11.8316 5.6819 11.6213 5.38333C11.4064 5.08476 11.2464 4.80429 11.2464 4.80429L11.1824 4.78619L11.1641 4.84952Z" fill="#02302B"/>
<path d="M16.1518 12.0967C16.1518 12.0967 15.8227 12.739 15.2055 12.3726C15.2055 12.3726 14.8123 12.1645 14.3826 12.4857C14.3826 12.4857 13.6374 13.0421 12.8785 12.4857C12.8785 12.4857 11.6853 11.694 10.9904 11.7483C10.9904 11.7483 10.2863 11.6805 10.1949 11.4362C10.1949 11.4362 9.88402 11.0471 9.36285 10.934C9.36285 10.934 7.52502 10.3098 7.13186 9.95691" fill="#085A54"/>
<path d="M16.1107 12.0786L16.0787 12.1329C16.0101 12.2369 15.8364 12.4405 15.5758 12.4405C15.4752 12.4405 15.3609 12.4133 15.2329 12.3319C15.2329 12.3319 15.0958 12.2595 14.8992 12.2595C14.7483 12.2595 14.5563 12.3002 14.3597 12.4495L14.3049 12.4857C14.1951 12.5536 13.9346 12.6893 13.61 12.6893C13.3951 12.6893 13.1574 12.6305 12.9105 12.4495C12.9105 12.4495 11.795 11.7031 11.0681 11.7031H10.9904V11.7529L10.9995 11.7076C10.9995 11.7076 10.8258 11.6895 10.6429 11.6443C10.4601 11.599 10.2726 11.5131 10.2452 11.4271L10.236 11.4136C10.236 11.4136 9.9206 11.011 9.37656 10.8979L9.36742 10.9431L9.38113 10.9024C9.38113 10.9024 8.92396 10.7486 8.41651 10.545C7.90905 10.346 7.3513 10.0971 7.16843 9.92976H7.10443V9.99762C7.3193 10.1876 7.87247 10.4274 8.3845 10.631C8.89654 10.83 9.3537 10.9883 9.3537 10.9883H9.35828C9.60972 11.0426 9.81088 11.1648 9.9526 11.2733C10.0212 11.3276 10.076 11.3774 10.1126 11.4136L10.1675 11.4724L10.204 11.4452L10.1629 11.4588C10.2269 11.6126 10.4326 11.685 10.6246 11.7348C10.8167 11.7845 10.9949 11.7981 10.9949 11.7981H11.0727C11.4064 11.7981 11.859 11.9745 12.2202 12.16C12.5859 12.3455 12.8602 12.5264 12.8602 12.5264C13.1208 12.7164 13.3814 12.7843 13.6145 12.7843C14.0763 12.7843 14.4146 12.531 14.4192 12.5264C14.5974 12.3907 14.7666 12.3545 14.8992 12.3545C14.986 12.3545 15.0592 12.3681 15.1095 12.3862L15.1689 12.4088L15.1872 12.4179C15.3289 12.5038 15.4615 12.5355 15.5804 12.5355C15.9964 12.5355 16.193 12.1238 16.1975 12.1193L16.1793 12.0605L16.1198 12.0786H16.1107Z" fill="#02302B"/>
</svg>
