<svg xmlns="http://www.w3.org/2000/svg" width="70" height="16" viewBox="0 0 70 16" fill="none">
  <mask id="mask0_2609_2328" style="mask-type:luminance" maskUnits="userSpaceOnUse" x="52" y="0" width="18" height="16">
    <path d="M52.8521 0.5H69.0671V15.5H52.8521V0.5Z" fill="white"/>
  </mask>
  <g mask="url(#mask0_2609_2328)">
    <path fill-rule="evenodd" clip-rule="evenodd" d="M66.2289 15.5001H55.69C55.3162 15.4992 54.9464 15.4247 54.6014 15.2808C54.2565 15.1369 53.9433 14.9265 53.6797 14.6616C53.416 14.3967 53.2072 14.0825 53.065 13.7368C52.9228 13.3912 52.8501 13.0209 52.8511 12.6472V3.353C52.8499 2.59851 53.1482 1.8744 53.6805 1.33966C54.2128 0.804931 54.9355 0.50329 55.69 0.500977H66.2289C66.6027 0.502008 66.9725 0.576641 67.3174 0.720614C67.6623 0.864588 67.9755 1.07508 68.239 1.34008C68.5025 1.60508 68.7113 1.91939 68.8534 2.26507C68.9954 2.61074 69.068 2.98102 69.067 3.35475V12.6472C69.068 13.0209 68.9954 13.3911 68.8533 13.7368C68.7113 14.0824 68.5025 14.3966 68.2389 14.6616C67.9754 14.9265 67.6622 15.1369 67.3174 15.2808C66.9725 15.4247 66.6026 15.4992 66.2289 15.5001Z" fill="#F0FF5F"/>
  </g>
  <path fill-rule="evenodd" clip-rule="evenodd" d="M65.4123 9.64392C65.9178 9.05689 66.3747 8.42967 66.7785 7.76848H64.289C63.1752 9.229 62.0589 9.95489 60.9609 9.92869C60.318 9.91384 59.6978 9.63431 59.1396 9.23861L60.9609 6.1717L61.3452 6.80936C61.899 7.60776 62.5411 7.19371 62.8241 7.00154C63.2128 6.73599 63.5273 6.46083 63.5273 6.46083L60.9609 2.14392L54.3003 13.3599H56.6911L58.0791 11.0223C58.8898 11.5753 59.841 11.9814 60.9041 12.0085L61.0203 12.0103C62.0004 12.0103 62.9499 11.6914 63.8627 11.0599L65.228 13.3599H67.6197L65.4123 9.64392ZM36.6614 5.21782C35.5984 5.21782 34.7528 5.62925 34.2138 6.40929L34.1387 6.51848L34.0645 6.40842C33.5421 5.62925 32.7306 5.21782 31.7156 5.21782C30.746 5.21782 29.9546 5.59605 29.4305 6.31146L29.3606 6.39881L28.9247 5.41698L26.4841 5.41349L27.1392 6.89147V13.3537H29.5135V8.76953C29.5135 7.78508 30.0245 7.19721 30.8805 7.19721C31.7278 7.19721 32.2318 7.78508 32.2318 8.76953V13.3537H34.6061V8.76953C34.6061 7.78508 35.1171 7.19721 35.9731 7.19721C36.8204 7.19721 37.3244 7.78508 37.3244 8.76953V13.3537H39.6986V8.43672C39.6986 6.48092 38.5063 5.21782 36.6614 5.21782ZM46.6772 8.56251L46.6544 8.45157C46.471 7.55185 45.8071 7.01377 44.8795 7.01377C43.9413 7.01377 43.2722 7.55098 43.0879 8.45157L43.0652 8.56251H46.6772ZM48.7352 8.28124V10.2755H43.1185L43.1551 10.3943C43.336 10.9909 43.764 11.4049 44.3938 11.6102C44.9153 11.7639 45.6141 11.7561 46.1373 11.5936C46.6125 11.4469 46.892 11.2879 46.892 11.2879L48.1289 12.6977C47.3436 13.2341 46.2858 13.5538 45.2883 13.5538C42.6494 13.5538 40.8761 11.8784 40.8761 9.38536C40.8761 6.97009 42.5594 5.21782 44.8795 5.21782C46.8842 5.21782 48.2888 6.3333 48.7352 8.28124ZM23.4312 9.38536C23.4312 8.2428 22.6284 7.41296 21.5225 7.41296C20.4167 7.41296 19.6148 8.2428 19.6148 9.38536C19.6148 10.5279 20.4167 11.3578 21.5225 11.3578C22.6284 11.3578 23.4312 10.5279 23.4312 9.38536ZM25.8045 9.38536C25.8045 10.5646 25.3459 11.6382 24.5135 12.4077C23.7159 13.1467 22.6537 13.5529 21.5225 13.5529C20.3913 13.5529 19.33 13.1467 18.5316 12.4086C17.6992 11.6382 17.2414 10.5646 17.2414 9.38536C17.2414 8.20612 17.6992 7.13257 18.5316 6.363C19.3291 5.624 20.3922 5.21782 21.5225 5.21782C22.6537 5.21782 23.7159 5.624 24.5135 6.36212C25.3459 7.13257 25.8045 8.20612 25.8045 9.38536ZM7.12265 9.30238C7.07199 8.20524 6.2701 7.41296 5.21489 7.41296C4.10902 7.41296 3.30626 8.2428 3.30626 9.38536C3.30626 10.5279 4.10902 11.3578 5.21489 11.3578C6.27097 11.3578 7.07286 10.5646 7.12265 9.47271V9.30238ZM9.49599 11.6277L9.95895 13.3537H7.82146L7.51835 12.2479L7.40829 12.3675C7.06837 12.7418 6.65379 13.0406 6.1913 13.2447C5.7288 13.4489 5.22866 13.5539 4.7231 13.5529C4.2281 13.5525 3.73838 13.4511 3.2839 13.2549C2.82941 13.0588 2.41971 12.772 2.07985 12.4121C1.33998 11.6408 0.932922 10.5664 0.932922 9.38536C0.932922 8.20437 1.33998 7.12994 2.07985 6.35863C2.41958 5.99857 2.82926 5.71167 3.28377 5.51551C3.73829 5.31934 4.22807 5.21804 4.7231 5.21782C5.70144 5.21782 6.61601 5.5978 7.29561 6.28875L7.45022 6.44598V5.41698H9.49599V11.6277ZM14.4244 5.41698H16.9462L16.0771 7.39637H14.4244V10.2842C14.4244 11.0197 14.7231 11.3621 15.366 11.3621L16.0456 11.3726V13.3537H14.9074C12.9053 13.3537 12.051 12.5702 12.051 10.7332V7.39637H10.9207V5.41698H12.051V3.45419H14.4244V5.41786V5.41698Z" fill="black"/>
</svg>