<svg width="200" height="39" xmlns="http://www.w3.org/2000/svg"><g fill="#000" fill-rule="nonzero"><path d="M196.958 7.758l-6.023-3.446-6.11-3.5c-4.04-2.315-9.088.592-9.088 5.258v.783c0 .435.226.836.61 1.045l2.837 1.619c.783.452 1.758-.122 1.758-1.027V6.627a1.2 1.2 0 011.793-1.045l5.571 3.203 5.553 3.186c.801.453.801 1.62 0 2.072l-5.553 3.186-5.57 3.203a1.2 1.2 0 01-1.794-1.045v-.922c0-4.666-5.048-7.59-9.087-5.258l-6.11 3.5-6.024 3.446c-4.056 2.333-4.056 8.2 0 10.532l6.024 3.447 6.11 3.5c4.039 2.314 9.087-.593 9.087-5.258v-.784a1.18 1.18 0 00-.61-1.044l-2.837-1.62c-.783-.452-1.758.123-1.758 1.028v1.863a1.2 1.2 0 01-1.793 1.044l-5.57-3.203-5.554-3.186c-.8-.452-.8-1.619 0-2.071l5.553-3.186 5.571-3.203a1.2 1.2 0 011.793 1.044v.923c0 4.665 5.049 7.59 9.087 5.257l6.11-3.499 6.024-3.447c4.056-2.35 4.056-8.199 0-10.532zM157.441 8.907l-14.1 29.124h-5.85l5.275-10.88-8.304-18.244h6.006l5.327 12.221 5.814-12.22zM16.45 19.248c0-3.482-2.523-5.919-5.622-5.919-3.099 0-5.623 2.49-5.623 5.919 0 3.395 2.524 5.919 5.623 5.919s5.623-2.437 5.623-5.92m.052 10.341v-2.68c-1.532 1.862-3.812 3.011-6.528 3.011C4.3 29.92 0 25.376 0 19.248 0 13.172 4.474 8.542 10.097 8.542c2.646 0 4.874 1.166 6.406 2.977V8.907h5.083v20.681h-5.083zM46.306 24.993c-1.775 0-2.28-.662-2.28-2.403v-9.174h3.272V8.907h-3.272V3.86H38.82v5.048H32.1V6.853c0-1.74.661-2.402 2.49-2.402h1.148V.447h-2.506c-4.3 0-6.337 1.41-6.337 5.71v2.768h-2.89v4.491h2.89v16.172H32.1V13.416h6.72v10.132c0 4.213 1.619 6.04 5.831 6.04h2.681v-4.595h-1.027zM65.003 17.385c-.366-2.68-2.56-4.3-5.136-4.3-2.559 0-4.683 1.567-5.205 4.3h10.34zm-10.393 3.22c.366 3.065 2.559 4.805 5.344 4.805 2.194 0 3.882-1.027 4.875-2.68h5.344c-1.236 4.386-5.17 7.19-10.34 7.19-6.25 0-10.637-4.388-10.637-10.637 0-6.25 4.63-10.759 10.758-10.759 6.163 0 10.637 4.544 10.637 10.759 0 .452-.035.905-.122 1.323h-15.86zM103.736 19.248c0-3.342-2.524-5.919-5.623-5.919-3.098 0-5.623 2.49-5.623 5.919 0 3.395 2.525 5.919 5.623 5.919 3.1 0 5.623-2.56 5.623-5.92M87.355 38.032V8.907h5.083v2.681c1.532-1.897 3.813-3.064 6.528-3.064 5.588 0 9.975 4.596 9.975 10.672 0 6.075-4.474 10.706-10.096 10.706-2.612 0-4.753-1.027-6.25-2.768v10.88h-5.24v.017zM127.272 19.248c0-3.482-2.524-5.919-5.623-5.919-3.098 0-5.622 2.49-5.622 5.919 0 3.395 2.524 5.919 5.622 5.919 3.1 0 5.623-2.437 5.623-5.92m.053 10.341v-2.68c-1.532 1.862-3.813 3.011-6.529 3.011-5.675 0-9.975-4.543-9.975-10.671 0-6.076 4.474-10.706 10.097-10.706 2.646 0 4.875 1.166 6.407 2.977V8.907h5.083v20.681h-5.083zM78.18 10.927s1.289-2.403 4.475-2.403c1.358 0 2.228.47 2.228.47v5.275s-1.915-1.184-3.673-.94-2.872 1.845-2.872 4.004v12.238H73.08V8.907h5.083v2.02h.018z"/></g></svg>
