<svg width="81" height="18" xmlns="http://www.w3.org/2000/svg"><g fill="#000" fill-rule="nonzero"><path d="M78.335 13.33a2.295 2.295 0 100 4.59 2.295 2.295 0 000-4.59M70.796 6.228v-.781h3.657v12.215h-3.657v-.78a6.445 6.445 0 110-10.653zm-3.326 8.47c1.83 0 3.314-1.408 3.314-3.143 0-1.736-1.484-3.143-3.314-3.143s-3.314 1.407-3.314 3.143c0 1.735 1.484 3.142 3.314 3.142zM54.226 5.118c-1.46 0-2.843.454-3.768 1.705V5.447h-3.641v12.215h3.686v-6.42c0-1.857 1.246-2.766 2.746-2.766 1.607 0 2.53.96 2.53 2.741v6.445h3.654V9.894c0-2.843-2.26-4.776-5.207-4.776M41.528 7.038V5.447h-3.745v12.215h3.753v-5.703C41.536 10.035 43.622 9 45.07 9l.043.002V5.448c-1.485 0-2.851.636-3.584 1.59M32.213 6.228v-.781h3.657v12.215h-3.657v-.78a6.445 6.445 0 110-10.653zm-3.326 8.47c1.83 0 3.314-1.408 3.314-3.143 0-1.736-1.484-3.143-3.314-3.143s-3.314 1.407-3.314 3.143c0 1.735 1.484 3.142 3.314 3.142zM16.815 17.662h3.828V.003h-3.828zM14.177 0H10.21c0 3.251-1.494 6.235-4.1 8.187L4.538 9.364l6.09 8.303h5.006l-5.603-7.64C12.687 7.383 14.177 3.825 14.177 0M0 17.667h4.053V0H0z"/></g></svg>
