<svg width="288" height="241" viewBox="-160 0 288 241" fill="none" xmlns="http://www.w3.org/2000/svg">
<g clip-path="url(#clip0_815_1251)">
<path d="M-157.876 146.498L-156.791 152.356C-152.426 168.43 -137.12 179.932 -120.238 183.965C-117.11 184.699 -114.972 182.444 -115.521 179.248L-116.744 172.463C-117.307 169.277 -116.542 169.017 -115.042 171.886L-110.597 180.348C-109.097 183.217 -105.47 185.597 -102.531 185.351C-100.737 185.219 -98.9519 184.981 -97.1855 184.639L-81.6243 182.493C-80.8657 182.394 -80.1345 182.143 -79.4738 181.756C-78.8131 181.369 -78.2364 180.853 -77.7776 180.239C-77.3188 179.626 -76.9874 178.926 -76.8027 178.182C-76.6181 177.438 -76.5841 176.664 -76.7027 175.907L-79.3536 158.678C-79.7842 155.476 -79.168 155.292 -77.8846 158.245L-70.4741 175.264C-69.7523 176.768 -68.5871 178.014 -67.1358 178.832C-65.6844 179.651 -64.0169 180.003 -62.3583 179.841L-52.3243 178.462C-51.5782 178.375 -50.8588 178.13 -50.2143 177.743C-49.5698 177.356 -49.015 176.836 -48.587 176.217C-48.1589 175.598 -47.8675 174.895 -47.7322 174.155C-47.5968 173.414 -47.6207 172.654 -47.8021 171.924L-51.4609 155.522C-52.1914 152.382 -51.7421 152.244 -50.5133 155.208L-43.7038 171.537C-42.9901 173.058 -41.8415 174.333 -40.4035 175.198C-38.9655 176.064 -37.3028 176.483 -35.6262 176.4L-24.775 175.433C-23.153 175.233 -21.6435 174.497 -20.4861 173.34C-19.3286 172.183 -18.5896 170.672 -18.3863 169.047L-17.5573 160.086C-17.2356 156.866 -16.4769 156.824 -15.8587 159.999L-14.2281 168.34C-13.9137 169.875 -13.022 171.228 -11.7377 172.121C-10.4534 173.013 -8.87508 173.376 -7.32992 173.133L19.2981 168.734C20.0197 168.649 20.7122 168.398 21.3222 168.002C21.9323 167.606 22.4435 167.075 22.8165 166.45C23.1894 165.825 23.4142 165.122 23.4734 164.396C23.5325 163.671 23.4246 162.941 23.1578 162.265L14.9432 138.339C13.8734 135.263 14.281 135.088 15.7955 137.948L28.6227 161.779C29.5004 163.237 30.7681 164.42 32.2825 165.193C33.7969 165.966 35.4974 166.299 37.1919 166.154L51.5363 164.173C54.7326 163.738 58.2655 163.393 59.4893 163.346C60.713 163.299 60.8885 160.673 60.0336 157.564L53.4776 133.941C52.6139 130.816 53.0729 130.642 54.4991 133.543L66.0537 156.929C66.8008 158.395 68.0208 159.563 69.5154 160.245C71.01 160.927 72.6914 161.082 74.2864 160.685C85.3239 156.853 95.4016 150.665 103.822 142.548C104.926 141.407 105.547 139.884 105.557 138.296C105.567 136.708 104.965 135.178 103.877 134.026L97.8643 127.61C95.665 125.238 96.083 124.64 98.926 126.293L106.449 130.724C107.812 131.504 109.418 131.74 110.947 131.383C112.477 131.026 113.816 130.104 114.696 128.801C120.301 119.57 124.276 108.726 127.431 98.1542C127.827 96.4103 127.84 94.6011 127.467 92.8527C127.094 91.1044 126.345 89.459 125.272 88.0312C118.145 79.5731 110.613 71.4716 101.88 65.2053C101.251 64.7717 100.54 64.4719 99.791 64.3245C99.0417 64.1771 98.2699 64.1852 97.5235 64.3483C96.777 64.5114 96.0717 64.826 95.4509 65.2727C94.8302 65.7194 94.3073 66.2888 93.9145 66.9456L88.1711 76.1655C86.4598 78.8971 85.7402 78.601 86.5765 75.4799L89.5342 64.4416C89.9409 62.8658 89.7777 61.1973 89.0735 59.7319C88.3693 58.2666 87.1697 57.099 85.6874 56.4364C75.2235 52.3056 63.9572 50.6117 52.7387 51.4825C51.1254 51.7504 49.6438 52.5413 48.5213 53.7337C47.3987 54.9261 46.6972 56.4542 46.5244 58.0834L44.4094 81.7983C44.1391 85.0193 43.5473 85.0158 43.2314 81.8184L40.7251 59.9134C40.6608 59.1793 40.4349 58.4687 40.0638 57.8328C39.6926 57.1968 39.1853 56.6514 38.5784 56.2356C37.9715 55.8198 37.2801 55.544 36.5538 55.4281C35.8275 55.3121 35.0844 55.3589 34.3779 55.565L19.301 59.5587C17.7269 60.0273 16.3465 60.9951 15.3673 62.3165C14.3882 63.6379 13.8632 65.2416 13.8712 66.8865L15.0039 94.6876C15.1441 97.9153 14.8353 97.9617 14.3021 94.7578L9.86218 68.0467C9.76243 67.3063 9.50576 66.5961 9.10938 65.9637C8.71303 65.3312 8.18614 64.7912 7.5641 64.3799C6.94204 63.9686 6.23922 63.6954 5.50281 63.5788C4.7664 63.4622 4.01342 63.5048 3.29443 63.7037L-16.5447 68.9271C-18.1264 69.4014 -19.5169 70.3681 -20.5144 71.687C-21.5119 73.0059 -22.0646 74.6083 -22.0923 76.262L-21.3089 112.868C-21.2472 116.101 -21.6226 116.155 -22.1711 112.96L-28.1787 78.1055C-28.2714 77.3774 -28.5274 76.6798 -28.9275 76.0653C-29.3276 75.4507 -29.8615 74.935 -30.4891 74.5569C-31.1167 74.1787 -31.8217 73.9479 -32.5514 73.8817C-33.281 73.8156 -34.0163 73.9158 -34.7022 74.1748L-41.069 76.3435C-42.6601 76.9685 -44.0522 78.0149 -45.0964 79.3709C-46.1407 80.7268 -46.7977 82.3412 -46.9974 84.0414L-47.7459 94.6255C-47.9802 97.8562 -48.6177 97.8791 -49.1181 94.6969L-50.649 85.3103C-50.7444 84.5499 -50.9974 83.8181 -51.3917 83.1617C-51.7861 82.5054 -52.313 81.939 -52.9388 81.4989C-53.5646 81.0589 -54.2754 80.7548 -55.0257 80.6062C-55.776 80.4577 -56.5491 80.4679 -57.2956 80.6362L-91.6457 88.2226C-93.2389 88.6434 -94.6575 89.5615 -95.6961 90.8437C-96.7347 92.1259 -97.3393 93.7056 -97.4224 95.3541L-97.8719 115.498C-97.9249 118.726 -98.3211 118.762 -98.7364 115.551L-101.281 96.5288C-101.341 95.802 -101.568 95.0992 -101.944 94.4753C-102.32 93.8514 -102.835 93.3233 -103.449 92.9324C-104.063 92.5415 -104.759 92.2983 -105.483 92.222C-106.207 92.1456 -106.939 92.238 -107.621 92.4921L-109.364 93.0326C-112.434 94.0054 -117.114 95.2182 -119.74 96.0257C-122.366 96.8332 -124.501 100.329 -124.645 103.559L-125.442 120.962C-125.577 124.206 -126.221 124.253 -126.897 121.102L-129.813 106.785C-130.483 103.609 -133.311 102.334 -135.932 104.228C-149.772 114.236 -159.445 130.282 -157.876 146.498ZM-77.5187 130.574L-74.0562 104.379L-70.9554 104.396L-75.4075 130.197L-45.9921 124.388L-44.5562 99.2644L-42.3513 99.4032L-43.2799 123.836L-5.49874 116.381L-3.73853 92.4037L-2.97987 92.3615L-1.70206 115.629L55.3668 104.624L63.6326 80.22L64.7546 80.1203L58.9897 104.136L89.0791 98.1201L89.8536 101.337L26.2989 113.368L40.4744 139.717L38.9605 140.125L22.4946 114.389L-14.5805 122.046L0.631994 149.19L-0.732327 150.723L-16.9237 122.568L-107.506 141.835L-90.3677 167.803L-91.3351 168.913L-110.437 142.483L-143.128 149.455L-145.032 143.96L-77.5187 130.574Z" fill="#00615C"/>
</g>
<defs>
<clipPath id="clip0_815_1251">
<rect width="265.487" height="176.992" fill="white" transform="translate(-121.191 0.5) rotate(15)"/>
</clipPath>
</defs>
</svg>
