<svg xmlns="http://www.w3.org/2000/svg" width="244" height="244" viewBox="0 0 244 244">
  <g id="scent02" transform="translate(0.234)">
    <circle id="Ellipse_368" data-name="Ellipse 368" cx="122" cy="122" r="122" transform="translate(-0.234)" fill="#d886cb"/>
    <g id="Group_7643" data-name="Group 7643" transform="translate(33.571 29.152)">
      <path id="Path_9329" data-name="Path 9329" d="M351.078,365.641a2.5,2.5,0,0,0,2.5-2.783,78.186,78.186,0,0,0-8.348-28.477,2.782,2.782,0,0,0-2.412-1.391,2.877,2.877,0,0,0-2.411,1.392,82.463,82.463,0,0,0-8.349,28.477,2.753,2.753,0,0,0,5.472.463,84.3,84.3,0,0,1,5.287-21.613,91.528,91.528,0,0,1,5.38,21.613,2.6,2.6,0,0,0,2.691,2.319Z" transform="translate(-285.188 -280.477)" fill="#001b71"/>
      <path id="Path_9339" data-name="Path 9339" d="M336.182,337.138a2.783,2.783,0,0,0-2.69-.649,2.6,2.6,0,0,0-1.948,1.855,82.459,82.459,0,0,0,0,29.59,2.689,2.689,0,0,0,2.689,2.133h.464a2.6,2.6,0,0,0,2.226-3.061,86.773,86.773,0,0,1-.742-22.17A90.7,90.7,0,0,1,346.85,364.41a2.783,2.783,0,0,0,3.525,1.577,2.505,2.505,0,0,0,1.577-3.339A83.475,83.475,0,0,0,336.182,337.138Z" transform="translate(-299.74 -254.012)" fill="#001b71"/>
      <path id="Path_9330" data-name="Path 9330" d="M348.453,343.26a2.783,2.783,0,0,0-5.473,0v1.576a2.783,2.783,0,0,0,5.473,0Z" transform="translate(-200.089 -217.062)" fill="#001b71"/>
      <path id="Path_9331" data-name="Path 9331" d="M346.25,342.291a2.691,2.691,0,0,0-2.69,2.6v1.576a2.783,2.783,0,0,0,5.473,0v-1.577a2.691,2.691,0,0,0-2.783-2.6Z" transform="translate(-195.289 -206.782)" fill="#001b71"/>
      <path id="Path_9332" data-name="Path 9332" d="M347.281,340.482a2.689,2.689,0,0,0-2.69,2.6v1.577a2.783,2.783,0,0,0,5.473,0v-1.577a2.688,2.688,0,0,0-2.782-2.6Z" transform="translate(-186.765 -221.05)" fill="#001b71"/>
      <path id="Path_9333" data-name="Path 9333" d="M343.693,339.186a2.6,2.6,0,0,0-2.783,2.6v1.577a2.741,2.741,0,0,0,5.473,0v-1.577a2.6,2.6,0,0,0-2.69-2.6Z" transform="translate(-215.203 -231.31)" fill="#001b71"/>
      <path id="Path_9334" data-name="Path 9334" d="M346.12,345.69a2.688,2.688,0,0,0,2.782-2.5v-1.67a2.689,2.689,0,0,0-2.782-2.5,2.6,2.6,0,0,0-2.691,2.5v1.67a2.6,2.6,0,0,0,2.691,2.5Z" transform="translate(-196.366 -232.645)" fill="#001b71"/>
      <path id="Path_9335" data-name="Path 9335" d="M338.543,344.411a2.691,2.691,0,0,0-2.783,2.6v1.577a2.691,2.691,0,0,0,2.783,2.5,2.6,2.6,0,0,0,2.69-2.5v-1.577a2.6,2.6,0,0,0-2.69-2.6Z" transform="translate(-255.81 -191.159)" fill="#001b71"/>
      <path id="Path_9328" data-name="Path 9328" d="M340.4,345a2.69,2.69,0,0,0-2.69,2.6v1.577a2.69,2.69,0,0,0,5.381,0V347.6A2.69,2.69,0,0,0,340.4,345Z" transform="translate(-240.432 -186.276)" fill="#001b71"/>
      <path id="Path_9336" data-name="Path 9336" d="M341.4,344.081a2.691,2.691,0,0,0-2.69,2.6v1.577a2.783,2.783,0,0,0,5.473,0v-1.577a2.691,2.691,0,0,0-2.783-2.6Z" transform="translate(-232.549 -193.89)" fill="#001b71"/>
      <path id="Path_9325" data-name="Path 9325" d="M502.1,448.421a6.316,6.316,0,0,1-.89-4.181,7.473,7.473,0,0,0-3.38-7.918,6.4,6.4,0,0,1-2.581-3.559,7.74,7.74,0,0,0-6.4-6.049,7.205,7.205,0,0,1-3.737-2.4,8.186,8.186,0,0,0-8.363-3.292,7.119,7.119,0,0,1-4.448-.889,8.9,8.9,0,0,0-8.9,0,6.935,6.935,0,0,1-4.448.889,8.274,8.274,0,0,0-8.363,3.292,7.208,7.208,0,0,1-3.737,2.4,7.827,7.827,0,0,0-4.448,2.4,32.645,32.645,0,0,0-4.093-17.793,2.581,2.581,0,0,0-2.935-1.246,2.491,2.491,0,0,0-1.957,2.4,25.348,25.348,0,0,1-2.313,10.5,73.628,73.628,0,0,0-2.758-14.59,30.071,30.071,0,0,0-7.383-37.453,2.67,2.67,0,0,0-3.114-.444,2.4,2.4,0,0,0-1.246,2.668,46.725,46.725,0,0,1,1.335,11.743l-2.4-3.914h0c-9.608-14.146-22.152-34.873-19.75-50.976a2.49,2.49,0,0,0-1.334-2.58,2.758,2.758,0,0,0-2.846,0,26.689,26.689,0,0,0-8.185,25.622,23.394,23.394,0,0,0-8.9-13.522,2.846,2.846,0,0,0-2.936,0,2.492,2.492,0,0,0-1.245,2.491c2.047,13.611-4.715,22.774-11.832,32.383-1.6,2.135-3.291,4.359-4.8,6.583h0l-2.491,3.914a52.513,52.513,0,0,1,1.423-11.743,2.312,2.312,0,0,0-1.334-2.668,2.67,2.67,0,0,0-3.114.444,30.337,30.337,0,0,0-7.384,37.453,73.313,73.313,0,0,0-2.668,14.59,25.347,25.347,0,0,1-2.313-10.5,2.58,2.58,0,0,0-2.046-2.4,2.669,2.669,0,0,0-2.936,1.245,35.584,35.584,0,0,0,2.58,37.275,62.276,62.276,0,0,0,51.331,27.312H386.8a6.5,6.5,0,0,1,.712,4,7.383,7.383,0,0,0,3.47,7.918,5.96,5.96,0,0,1,2.491,3.558,8.008,8.008,0,0,0,6.405,6.05,6.227,6.227,0,0,1,3.737,2.4,8.893,8.893,0,0,0,8.362,3.291,6.943,6.943,0,0,1,4.448.8,8.36,8.36,0,0,0,8.9,0,7.033,7.033,0,0,1,4.448-.8,8.9,8.9,0,0,0,6.05-1.156,45.277,45.277,0,0,0,29,10.5h0a2.578,2.578,0,0,0,1.868-.8,2.67,2.67,0,0,0,.712-1.78,38.976,38.976,0,0,0-2.491-11.12h2.135a49.2,49.2,0,0,0,21.617-5.516,2.134,2.134,0,0,0,1.247-1.512,2.581,2.581,0,0,0,0-1.958,37.379,37.379,0,0,0-6.05-6.939,7.491,7.491,0,0,0,1.868-1.868,6.669,6.669,0,0,1,3.736-2.4,7.916,7.916,0,0,0,6.4-6.05,6.85,6.85,0,0,1,2.58-3.558,7.474,7.474,0,0,0,3.381-7.918,6.31,6.31,0,0,1,.891-4.181A7.385,7.385,0,0,0,502.1,448.421Zm-79.177-66.633a23.929,23.929,0,0,1,2.758,19.394c-1.157-2.936-2.4-5.872-3.825-8.9a26.7,26.7,0,0,0,1.067-10.5Zm-77.4,0a25.967,25.967,0,0,0,1.156,10.676,91.283,91.283,0,0,0-3.825,8.9,25.661,25.661,0,0,1-.8-4.093,24.376,24.376,0,0,1,3.47-15.48Zm42.7,86.471a5.165,5.165,0,0,0-2.046,1.6,3.475,3.475,0,0,0-.712,1.245H384.22a56.221,56.221,0,0,1-46.794-24.91,33.714,33.714,0,0,1-5.6-23.4,35.585,35.585,0,0,0,10.052,14.679,2.669,2.669,0,0,0,3.648,0,2.4,2.4,0,0,0,0-3.47,14.363,14.363,0,0,1-2.58-2.58v-3.292a66,66,0,0,1,3.025-18.771h0a93.867,93.867,0,0,1,11.92-24.91c1.424-2.136,3.025-4.36,4.627-6.406a51.6,51.6,0,0,0,13.078-28.912,17.173,17.173,0,0,1,3.2,10.587v.445a18.754,18.754,0,0,1-1.69,7.65,2.4,2.4,0,0,0,1.334,3.292,2.759,2.759,0,0,0,3.47-1.246,28.008,28.008,0,0,0,1.957-7.829h.89a65.138,65.138,0,0,0,2.313,7.651,2.758,2.758,0,0,0,3.381,1.512,2.491,2.491,0,0,0,1.512-3.2s-6.94-18.593-1.6-30.069c1.246,16.013,12.188,33.806,20.817,46.527,2.046,3.2,4,6.405,5.694,9.7h0a98.606,98.606,0,0,1,6.227,15.124h0a65.7,65.7,0,0,1,2.936,18.771v3.292a22.513,22.513,0,0,1-2.491,2.58,2.4,2.4,0,0,0,0,3.47,2.757,2.757,0,0,0,3.737,0,35.589,35.589,0,0,0,10.053-14.679,32.74,32.74,0,0,1-3.737,20.017,29.276,29.276,0,0,0-12.544-3.292,25.355,25.355,0,0,0-8.1,1.512,65.3,65.3,0,0,0-1.334-19.3,2.314,2.314,0,0,0-1.868-1.78,2.759,2.759,0,0,0-2.58.623,81.837,81.837,0,0,0-16.013,24.554,2.491,2.491,0,0,0,1.6,3.2h.89a2.491,2.491,0,0,0,2.4-1.691,88.947,88.947,0,0,1,10.587-18.771,74.323,74.323,0,0,1,0,15.39,34.161,34.161,0,0,0-18.415,25.088Zm45.1,29a2.846,2.846,0,0,1-2.758,1.068,12.721,12.721,0,0,0-8.9,1.69,3.559,3.559,0,0,1-3.025,0,12.718,12.718,0,0,0-8.9-1.69,3.024,3.024,0,0,1-2.758-1.068,11.835,11.835,0,0,0-7.384-4.626,3.025,3.025,0,0,1-2.046-1.957,11.566,11.566,0,0,0-4.892-7.028,2.669,2.669,0,0,1-1.157-2.58,10.4,10.4,0,0,0-1.779-8.185h0a50.061,50.061,0,0,0,6.316,1.6,2.668,2.668,0,0,0,3.114-1.867,2.491,2.491,0,0,0-2.047-2.936l-4.447-1.068a27.133,27.133,0,0,1,53.911,0,107.273,107.273,0,0,1-26.689,3.025H408.329a2.463,2.463,0,1,0-.445,4.893c3.825,0,7.917.534,12.01.534a105.873,105.873,0,0,0,29.981-3.737h0a10.406,10.406,0,0,0-1.779,6.227h0a10.878,10.878,0,0,0,0,1.691,2.579,2.579,0,0,1-1.157,2.491,11.566,11.566,0,0,0-4.893,7.028A3.023,3.023,0,0,1,440,492.725a11.835,11.835,0,0,0-6.672,4.537ZM439.2,498.6a5.433,5.433,0,0,1,2.314-1.067,8,8,0,0,0,6.4-6.049h0a21.891,21.891,0,0,0,10.409,6.583,32.826,32.826,0,0,1,3.025,9.519A35.582,35.582,0,0,1,439.2,498.6Zm12.1-11.3a7.65,7.65,0,0,0,2.758-6.583,22.241,22.241,0,0,1,22.063,3.114h.712a40.764,40.764,0,0,1,6.227,6.05c-6.4,3.113-23.041,8.451-31.759-2.581Zm46.617-33.183a10.945,10.945,0,0,0-1.779,8.274,2.845,2.845,0,0,1-1.157,2.579,11.121,11.121,0,0,0-4.892,6.94,2.67,2.67,0,0,1-2.046,1.957,11.918,11.918,0,0,0-7.384,4.715,2.668,2.668,0,0,1-1.69.978,28.022,28.022,0,0,0-23.753-4.448,4.716,4.716,0,0,0-.534-5.248,5.158,5.158,0,0,0-2.046-1.6,32.739,32.739,0,0,0-13.167-21.44,10.435,10.435,0,0,0,0-3.737,2.757,2.757,0,0,1,1.157-2.58,11.122,11.122,0,0,0,4.893-6.939,2.668,2.668,0,0,1,2.134-1.958,12.013,12.013,0,0,0,7.3-4.714,3.2,3.2,0,0,1,2.759-1.067,12.545,12.545,0,0,0,8.9-1.6,2.848,2.848,0,0,1,2.936,0,12.19,12.19,0,0,0,8.9,1.6,3.114,3.114,0,0,1,2.758,1.067,11.921,11.921,0,0,0,7.384,4.715,2.669,2.669,0,0,1,2.046,1.957,11.122,11.122,0,0,0,4.892,6.939,2.757,2.757,0,0,1,1.157,2.58,10.94,10.94,0,0,0,1.779,8.273A2.581,2.581,0,0,1,497.914,454.115Z" transform="translate(-326.761 -327.035)" fill="#001b71"/>
    </g>
  </g>
</svg>
