<?xml version="1.0" encoding="utf-8"?>
<!-- Generator: Adobe Illustrator 25.3.1, SVG Export Plug-In . SVG Version: 6.00 Build 0)  -->
<svg version="1.1" id="Layer_1" xmlns="http://www.w3.org/2000/svg" xmlns:xlink="http://www.w3.org/1999/xlink" x="0px" y="0px"
	 viewBox="0 0 165.19 164.48" style="enable-background:new 0 0 165.19 164.48;" xml:space="preserve">
<style type="text/css">
	.st0{fill:#FFF5DC;}
	.st1{fill:#CC6C62;}
	.st2{fill:#00615C;}
	.st3{fill:#FFD112;}
	.st4{fill:#FFFEF5;}
</style>
<path class="st0" d="M159.36,82.24c0,42.4-34.37,76.76-76.76,76.76S5.83,124.64,5.83,82.24C5.83,39.85,40.2,5.48,82.6,5.48
	C124.99,5.48,159.36,39.84,159.36,82.24"/>
<path class="st1" d="M88.66,53.04c-1.69-9.78-2.13-11.11-2.57-12.68c-1.18-3.91-3.8-9.86-3.8-9.86c-0.54-1.06-1.83-1.47-2.89-0.93
	c-1.07,0.54-1.47,1.85-0.93,2.9c2.38,4.63,3.66,9.18,4.39,12.98c-2.72,0.53,2.87,15.54,0.4,16.55"/>
<path class="st2" d="M114.88,28.51c-4.92,5.95-16.75,17.11-31.61,9.7C90.71,25.21,107.21,26.9,114.88,28.51"/>
<path class="st3" d="M117.12,55C110,47.22,99.66,43.79,88.78,44.56c-0.4,0.03-0.7,0.08-0.93,0.15c-0.3,0.03-0.58,0.06-0.71,0.07
	c0.79,4.67,1.18,6.21,1.16,6.44c-0.06,1.26-1.15,2.22-2.45,2.22h-0.11c-1.37-0.06-2.42-1.15-2.36-2.42c0-0.05-0.17-2.45-0.53-5.6
	c-8.52,1.63-15.9,5.68-21.1,11.13C52.17,66.6,50,80.38,47.89,93.72c-1.43,9.08-2.78,17.64-6.33,24.96c-1.31,2.9-0.4,5.73,1.78,7.14
	c3.27,1.93,5.4,2.22,6.99,2.56c13.33,2.89,39.44,0.18,55.64-12.95c0.99-0.75,1.97-1.53,2.95-2.36
	C127.99,96.9,131.03,70.18,117.12,55z"/>
<path class="st4" d="M114.23,70.52c-0.26-1.15-1.41-1.89-2.58-1.63c-1.16,0.26-1.89,1.41-1.63,2.58c0.48,2.14,0.7,4.44,0.64,6.83
	c-0.16,6.97-2.5,13.71-6.77,19.5c-0.71,0.95-0.5,2.3,0.45,3.01c0.39,0.29,0.84,0.43,1.27,0.43c0.67,0,1.32-0.31,1.74-0.87
	c4.8-6.5,7.42-14.1,7.61-21.95C115.02,75.65,114.77,72.99,114.23,70.52"/>
</svg>
