<svg id="scent01" xmlns="http://www.w3.org/2000/svg" width="244" height="244" viewBox="0 0 244 244">
  <circle id="Ellipse_367" data-name="Ellipse 367" cx="122" cy="122" r="122" fill="#ffde85"/>
  <g id="Group_7639" data-name="Group 7639" transform="translate(43.009 34.963)">
    <g id="Group_7626" data-name="Group 7626" transform="translate(11.236 36.417)">
      <path id="Path_9282" data-name="Path 9282" d="M337.089,747.6c0-19.082,16.262-41.679,23.143-47.746l.369.2a2.58,2.58,0,0,0,2.467-4.531,10.422,10.422,0,0,0-2.618-1.15,2.546,2.546,0,0,0-2.123.4c-8.064,5.773-26.39,31.711-26.39,52.823,0,9.977,3.44,18.762,9.951,25.426a2.561,2.561,0,0,0,1.847.78,2.58,2.58,0,0,0,1.837-4.388C340.026,763.746,337.089,756.2,337.089,747.6Z" transform="translate(-331.937 -694.296)" fill="#00155f"/>
    </g>
    <g id="Group_7627" data-name="Group 7627" transform="translate(38.129 58.955)">
      <path id="Path_9283" data-name="Path 9283" d="M336.435,697.329a2.569,2.569,0,0,0-.948,3.515l2.778,4.817a2.582,2.582,0,0,0,2.24,1.292,2.547,2.547,0,0,0,1.284-.344,2.581,2.581,0,0,0,.948-3.524l-2.786-4.817A2.568,2.568,0,0,0,336.435,697.329Z" transform="translate(-335.142 -696.981)" fill="#00155f"/>
    </g>
    <g id="Group_7628" data-name="Group 7628" transform="translate(30.753 69.033)">
      <path id="Path_9284" data-name="Path 9284" d="M338.133,698.53a2.579,2.579,0,0,0-2.585,4.463l4.271,2.459a2.54,2.54,0,0,0,1.284.344,2.577,2.577,0,0,0,1.292-4.809Z" transform="translate(-334.263 -698.183)" fill="#00155f"/>
    </g>
    <g id="Group_7629" data-name="Group 7629" transform="translate(25.677 82.043)">
      <path id="Path_9285" data-name="Path 9285" d="M346,702.309a2.578,2.578,0,0,0-2.584-2.576h-7.183a2.58,2.58,0,0,0,0,5.161h7.183A2.586,2.586,0,0,0,346,702.309Z" transform="translate(-333.658 -699.733)" fill="#00155f"/>
    </g>
    <g id="Group_7630" data-name="Group 7630" transform="translate(29.836 92.59)">
      <path id="Path_9286" data-name="Path 9286" d="M344.143,702.283a2.569,2.569,0,0,0-3.515-.948l-5.186,3a2.579,2.579,0,0,0,2.584,4.464l5.178-2.987A2.58,2.58,0,0,0,344.143,702.283Z" transform="translate(-334.154 -700.99)" fill="#00155f"/>
    </g>
    <g id="Group_7631" data-name="Group 7631" transform="translate(38.129 100.316)">
      <path id="Path_9287" data-name="Path 9287" d="M341.789,702.258a2.578,2.578,0,0,0-3.525.939l-2.778,4.817a2.581,2.581,0,0,0,.948,3.524,2.573,2.573,0,0,0,3.516-.948l2.786-4.808A2.581,2.581,0,0,0,341.789,702.258Z" transform="translate(-335.142 -701.911)" fill="#00155f"/>
    </g>
    <g id="Group_7632" data-name="Group 7632" transform="translate(57.026 58.955)">
      <path id="Path_9288" data-name="Path 9288" d="M338.687,706.61a2.573,2.573,0,0,0,3.516-.949l2.786-4.817a2.581,2.581,0,0,0-4.473-2.575l-2.777,4.817A2.581,2.581,0,0,0,338.687,706.61Z" transform="translate(-337.394 -696.981)" fill="#00155f"/>
    </g>
    <g id="Group_7633" data-name="Group 7633" transform="translate(62.921 69.031)">
      <path id="Path_9289" data-name="Path 9289" d="M338.438,704.515a2.593,2.593,0,0,0,2.24,1.284,2.536,2.536,0,0,0,1.284-.345L346.225,703a2.581,2.581,0,1,0-2.576-4.473l-4.262,2.467A2.588,2.588,0,0,0,338.438,704.515Z" transform="translate(-338.096 -698.182)" fill="#00155f"/>
    </g>
    <g id="Group_7634" data-name="Group 7634" transform="translate(65.075 82.043)">
      <path id="Path_9290" data-name="Path 9290" d="M338.353,702.309a2.586,2.586,0,0,0,2.585,2.585h7.183a2.58,2.58,0,0,0,0-5.161h-7.183A2.578,2.578,0,0,0,338.353,702.309Z" transform="translate(-338.353 -699.733)" fill="#00155f"/>
    </g>
    <g id="Group_7635" data-name="Group 7635" transform="translate(62.921 92.59)">
      <path id="Path_9291" data-name="Path 9291" d="M347.148,704.331l-5.186-3a2.581,2.581,0,1,0-2.576,4.473l5.177,2.987a2.579,2.579,0,0,0,2.585-4.464Z" transform="translate(-338.096 -700.99)" fill="#00155f"/>
    </g>
    <g id="Group_7636" data-name="Group 7636" transform="translate(57.026 100.316)">
      <path id="Path_9292" data-name="Path 9292" d="M340.517,710.591a2.584,2.584,0,0,0,2.241,1.292,2.542,2.542,0,0,0,1.283-.344,2.581,2.581,0,0,0,.949-3.524l-2.778-4.817a2.583,2.583,0,0,0-4.472,2.585Z" transform="translate(-337.394 -701.911)" fill="#00155f"/>
    </g>
    <g id="Group_7637" data-name="Group 7637" transform="translate(0 0)">
      <path id="Path_9293" data-name="Path 9293" d="M479.553,773.342c-7.552-6.805-19.048-10.178-31.526-9.247-.429.033-.831.109-1.259.151-.319-1.687-.722-3.466-1.25-5.354a23.8,23.8,0,0,0,7.83,1.417c11.982,0,21.6-9.423,25.837-16.077a2.584,2.584,0,0,0-1.368-3.835c-9.146-2.988-27.214-4.557-36.268,7.98-.2-.42-.353-.839-.579-1.267a2.576,2.576,0,1,0-4.582,2.357,57.859,57.859,0,0,1,5.262,15.541,51.089,51.089,0,0,0-9.34,2.769C426.83,742.312,405.416,715,396.16,715a19,19,0,0,0-10.2,2.735c-.512.286-.932.479-1.36.679-.629-17.983-6.1-26.893-6.352-27.279a2.578,2.578,0,0,0-4.339,2.786,29.178,29.178,0,0,1,2,4.447,18.7,18.7,0,0,0-6.025-2.492c-11.2-2.291-22.531,5.664-23.009,6a2.583,2.583,0,0,0-.252,3.994c.135.119,9.2,8.324,20.879,8.324a24.354,24.354,0,0,0,11.4-2.861c.269,2.114.445,4.448.546,6.956-.361-.176-.7-.318-1.116-.554a19,19,0,0,0-10.2-2.735c-10.321,0-37.535,35.94-37.535,64.68,0,31.627,26.559,48.686,51.548,48.686a57.372,57.372,0,0,0,17.865-2.887c-1.309,8.694-2.719,16.893-5.815,23.664a10.734,10.734,0,0,0,7.367,14.944,88.7,88.7,0,0,0,19.921,2.316c16.724,0,37.367-5.068,54.888-24.535A57.676,57.676,0,0,0,491.309,804.7C491.611,791.761,487.323,780.332,479.553,773.342Zm-6.9-28.958c-4.371,5.278-14.853,15.155-28.01,8.6C451.232,741.463,465.859,742.957,472.655,744.384Zm-119.71-40.136c3.651-1.93,9.994-4.539,15.935-3.314a13.981,13.981,0,0,1,8.408,5.429C367.227,712.128,357.569,707.369,352.945,704.248Zm-17.185,75.43c0-28.212,27.02-59.52,32.374-59.52a13.957,13.957,0,0,1,7.728,2.107,11.108,11.108,0,0,0,12.562,0,14.008,14.008,0,0,1,7.737-2.107c4.967,0,26.433,24.486,31.35,49.878a43.818,43.818,0,0,0-5.539,3.516c-2.912-20.4-19.082-41.815-25.9-46.7a2.55,2.55,0,0,0-2.123-.4,10.576,10.576,0,0,0-2.618,1.149,2.58,2.58,0,0,0,2.467,4.531l.378-.2c7.334,6.335,22.035,28.036,23.009,45.876-.31.319-.646.6-.94.932-7.065,7.854-10.589,17.252-12.83,27.071a39.122,39.122,0,0,1-21.264,6.167,41.048,41.048,0,0,1-11.891-1.746,2.582,2.582,0,0,0-1.493,4.943,46.261,46.261,0,0,0,13.384,1.964,45.091,45.091,0,0,0,19.921-4.615q-.629,3.575-1.166,7.149a51.811,51.811,0,0,1-18.755,3.541C359.658,823.211,335.759,807.948,335.759,779.678Zm136.778,58.739c-23.823,26.483-53.965,24.3-69.816,20.651a5.586,5.586,0,0,1-3.835-7.779c3.726-8.149,5.144-17.681,6.646-27.767,2.207-14.827,4.49-30.158,14.542-41.335,5.446-6.05,13.426-10.17,22.363-11.975a46.416,46.416,0,0,1,.319,5.841,2.588,2.588,0,0,0,2.475,2.685h.109a2.569,2.569,0,0,0,2.568-2.459,52.456,52.456,0,0,0-.353-6.9c.286-.024.562-.118.856-.143,1.192-.083,2.366-.126,3.542-.126,9.583,0,18.427,2.913,24.15,8.065,6.554,5.891,10.313,16.137,10.053,27.406A52.532,52.532,0,0,1,472.538,838.417Z" transform="translate(-330.598 -689.956)" fill="#00155f"/>
    </g>
    <g id="Group_7638" data-name="Group 7638" transform="translate(135.726 103.06)">
      <path id="Path_9294" data-name="Path 9294" d="M359.649,704.255a2.579,2.579,0,0,0-5.035,1.116,34.106,34.106,0,0,1,.764,8.181,40.756,40.756,0,0,1-8.106,23.336,2.592,2.592,0,0,0,.546,3.608,2.58,2.58,0,0,0,3.609-.545,45.914,45.914,0,0,0,9.113-26.281A39.191,39.191,0,0,0,359.649,704.255Z" transform="translate(-346.773 -702.237)" fill="#00155f"/>
    </g>
  </g>
</svg>
