<?xml version="1.0" encoding="utf-8"?>
<!-- Generator: Adobe Illustrator 25.3.1, SVG Export Plug-In . SVG Version: 6.00 Build 0)  -->
<svg version="1.1" id="Layer_1" xmlns="http://www.w3.org/2000/svg" xmlns:xlink="http://www.w3.org/1999/xlink" x="0px" y="0px"
	 viewBox="0 0 165.19 164.48" style="enable-background:new 0 0 165.19 164.48;" xml:space="preserve">
<style type="text/css">
	.st0{fill:#FFDEF9;}
	.st1{fill:#A8C257;}
	.st2{fill:#879F3C;}
	.st3{fill:#91AE3C;}
	.st4{fill:#86A53E;}
	.st5{fill:#BC2BB5;}
	.st6{fill:#FFF8FB;}
	.st7{fill:#582B7A;}
</style>
<path class="st0" d="M157.41,82.24c0,41.32-33.5,74.82-74.82,74.82S7.77,123.56,7.77,82.24S41.27,7.42,82.59,7.42
	S157.41,40.92,157.41,82.24"/>
<path class="st1" d="M63.59,55.41c-0.65,1.49-1.5,2.93-2.53,4.35c-2.13,2.89-4.62,5.7-6.69,8.61c-2.05,2.93-4.03,6.14-3.95,9.24
	s2,5.75,5.19,7.73c2.47-0.84,3.04-4.15,3.38-5.51c0.66-2.7,0.91-5.38,1.24-8.06c0.32-2.58,1.13-4.86,2.33-7.41
	c1.92-4.07,4.05-8.45,2.04-12.25C64.21,53.23,64.07,54.32,63.59,55.41z"/>
<path class="st1" d="M44.12,95.17c-0.15-2.78,1.04-5.67,0.25-8.41c-3.33,1.8-4.58,6.16-5.32,9c-1.15,4.52-0.63,9.09,2.03,13.24
	c1.95,3.04,4.52,5.45,7.9,7.46c0.92,0.55,7.67,4.62,7.96,2.56c0.05-0.26,0.21-0.43,0.46-0.52c0.05-0.16,0.08-0.31,0.12-0.47
	c0.02-0.22,0.21-0.34,0.41-0.38c-0.68-5.41-7.91-8.53-10.96-13.06C45.04,101.73,44.3,98.4,44.12,95.17z"/>
<path class="st1" d="M114.79,71.87c-0.72-2.23-1.05-4.6-2.25-6.66c-2.43,2.07-2.76,5.81-2.88,8.67c-0.12,2.98,0.32,6.03-0.08,9
	c-0.02,0.15-0.08,0.26-0.18,0.33c0.2,1.98,0.38,4.04,0.99,5.92c0.35,1.03,0.87,2.23,1.94,2.83c1.13,0.63,2.22,0.48,3.45,0.62
	c0.17-0.07,0.3-0.19,0.36-0.38s0.3-0.19,0.41-0.1c4.02-2.95,4.5-9.37,2.33-13.38C117.57,76.35,115.62,74.44,114.79,71.87z"/>
<g>
	<path class="st2" d="M92.5,39.55c1.43-1.23,3.08-2.53,4.94-3.7c-0.41-2.15,0-4.55,0.93-6.62c1.06-2.32,3.11-4.5,3.54-6.94
		c0.04-0.25,0.14-0.48,0.2-0.72c-0.25,0.11-0.5,0.22-0.75,0.33c-1.61,0.7-3.18,1.44-4.6,2.3c-2.75,1.67-5.2,3.64-6.56,5.94
		c0.34,3.92-0.73,7.92-0.07,11.83C90.8,41.13,91.61,40.32,92.5,39.55z"/>
	<path class="st2" d="M76.51,37.82c0,0.01-0.02,0.01-0.02,0.02c0.75,1.09,1.54,2.17,2.31,3.26c0.63-2.85,1.23-5.65,2.54-8.43
		c0.07-0.15,0.14-0.29,0.21-0.44c-2.56-4.48-3.68-9.76-8.94-13.26c0.23,1.39,1.48,2.95,1.95,4.2c0.63,1.68,1.22,3.37,1.61,5.09
		C76.92,31.39,77.48,34.67,76.51,37.82z"/>
	<path class="st3" d="M92.56,41.15c-3.08,3.02-6.37,7.73-8.51,11.44c0.48,3.98,1.48,7.12,1.66,10.89c1.31,1.41,3.42,1.45,2.49,3.03
		c1.9-0.19,3.97-0.46,5.4-1.27c1.36-0.77,2.7-1.93,2.43-3.1c0-0.02-0.86-2.53-0.88-2.56c-2.04-5.11-1.22-7.95,0.73-13.06
		c0.93-2.46,1.99-5.03,3.72-7.33c1.36-1.8,3.04-3.49,4.42-5.27c-2.15,0.72-4.04,1.83-5.69,2.93C96.29,38.17,94.18,39.57,92.56,41.15
		z"/>
	<path class="st3" d="M86.44,61.25c-0.7-4.81-2.34-9.37-5.03-13.9c-2.15-3.63-4.63-7.14-7.1-10.69c0.47,3.3,0.05,6.7-0.27,9.97
		c-0.45,4.34-3.08,10.97-4.79,15.18c1.34,3.08,2.02,5.57,7.05,7.29c3.22,1.11,6.83,0.61,8.8-1.41c1.56-1.6,2.92-4.06,1.18-5.82
		C86.03,61.63,86.17,61.39,86.44,61.25z"/>
	<path class="st4" d="M82.77,33.14c-0.16,0.3-0.29,0.61-0.43,0.91c-1.14,2.59-2.2,5.29-2.9,7.95c1.81,2.61,3.54,5.26,4.99,7.96
		c1.59-2.19,2.92-4.48,4.58-6.65c-1.38-5.45,1.34-11.45-1.23-16.76c-2.16,1.73-3.58,3.8-4.65,5.93L82.77,33.14z"/>
</g>
<path class="st5" d="M59.99,71.01c-11.17,8.21-13.51,26.75-13.19,29.67c0.83,7.39-1.64,10.6,10.2,27.08c0,0-8.74-1.17-7.41-0.04
	c16.29,13.91,28.57,9.78,28.57,9.78c-0.16,2.09-7.29,2.72-4.87,2.93c9.12,0.79,13.13-2.4,13.13-2.4c3.55,2.36,8.28,7.52,28.71-9.96
	c0.72-0.61-4.7-0.77-4.7-0.77s4.54-3.93,6.68-16.86c0.45-2.71,7.46-7.11,6.8-12.8c0,0-5.92,3.81-5.58,2.18
	c1.38-6.42-0.57-10.09-2.73-15.19c-4.19-9.9-9.55-12.87-16.53-19.48c-5.21-4.93-7.2-10.16-11.61-10.06
	c-3.36,0.08-3.46,5.66-5.03,5.86c-3.68,0.46-2.9-5.91-7.81-5.05C70.51,56.63,72.64,61.74,59.99,71.01z"/>
<g>
	<g>
		
			<ellipse transform="matrix(0.0133 -0.9999 0.9999 0.0133 -19.6832 181.9249)" class="st6" cx="82.33" cy="100.94" rx="31.25" ry="27.07"/>
		<g>
			<g>
				<ellipse class="st7" cx="71.78" cy="78.42" rx="0.6" ry="0.74"/>
				<ellipse class="st7" cx="77.9" cy="83.31" rx="0.6" ry="0.74"/>
				<ellipse class="st7" cx="68.93" cy="84.05" rx="0.6" ry="0.74"/>
				<ellipse class="st7" cx="65.79" cy="89.19" rx="0.6" ry="0.74"/>
				<ellipse class="st7" cx="72.38" cy="92.57" rx="0.6" ry="0.74"/>
				<ellipse class="st7" cx="73.33" cy="86.76" rx="0.6" ry="0.74"/>
				<ellipse class="st7" cx="79.09" cy="91.11" rx="0.6" ry="0.74"/>
				<ellipse class="st7" cx="80.19" cy="77.12" rx="0.6" ry="0.74"/>
				<ellipse class="st7" cx="85.25" cy="85.23" rx="0.6" ry="0.74"/>
				<ellipse class="st7" cx="87.23" cy="77.52" rx="0.6" ry="0.74"/>
				<ellipse class="st7" cx="94.76" cy="81.68" rx="0.6" ry="0.74"/>
				<ellipse class="st7" cx="89.08" cy="89.33" rx="0.6" ry="0.74"/>
				<ellipse class="st7" cx="97.39" cy="88.11" rx="0.6" ry="0.74"/>
				<ellipse class="st7" cx="96.8" cy="94.84" rx="0.6" ry="0.74"/>
				<ellipse class="st7" cx="89.08" cy="94.84" rx="0.6" ry="0.74"/>
				<ellipse class="st7" cx="82.32" cy="97.94" rx="0.6" ry="0.74"/>
				<ellipse class="st7" cx="71.78" cy="103.91" rx="0.6" ry="0.74"/>
				<ellipse class="st7" cx="77.9" cy="108.8" rx="0.6" ry="0.74"/>
				<ellipse class="st7" cx="68.93" cy="109.53" rx="0.6" ry="0.74"/>
				<ellipse class="st7" cx="65.79" cy="114.68" rx="0.6" ry="0.74"/>
				<ellipse class="st7" cx="72.38" cy="118.06" rx="0.6" ry="0.74"/>
				<ellipse class="st7" cx="73.33" cy="112.25" rx="0.6" ry="0.74"/>
				<ellipse class="st7" cx="79.09" cy="116.59" rx="0.6" ry="0.74"/>
				<ellipse class="st7" cx="74.5" cy="98.67" rx="0.6" ry="0.74"/>
				<ellipse class="st7" cx="79.02" cy="103.18" rx="0.6" ry="0.74"/>
				<ellipse class="st7" cx="66.38" cy="96.29" rx="0.6" ry="0.74"/>
				<ellipse class="st7" cx="65.79" cy="102.43" rx="0.6" ry="0.74"/>
				<ellipse class="st7" cx="60.73" cy="97.57" rx="0.6" ry="0.74"/>
				<ellipse class="st7" cx="62.95" cy="107.17" rx="0.6" ry="0.74"/>
				<ellipse class="st7" cx="95.36" cy="100.5" rx="0.6" ry="0.74"/>
				<ellipse class="st7" cx="103.65" cy="93.3" rx="0.6" ry="0.74"/>
				<ellipse class="st7" cx="103.08" cy="101.24" rx="0.6" ry="0.74"/>
				<ellipse class="st7" cx="98.73" cy="111.52" rx="0.6" ry="0.74"/>
				<ellipse class="st7" cx="103.65" cy="108.02" rx="0.6" ry="0.74"/>
				<ellipse class="st7" cx="85.25" cy="110.72" rx="0.6" ry="0.74"/>
				<ellipse class="st7" cx="87.23" cy="103.01" rx="0.6" ry="0.74"/>
				<ellipse class="st7" cx="94.76" cy="107.17" rx="0.6" ry="0.74"/>
				<ellipse class="st7" cx="89.08" cy="114.82" rx="0.6" ry="0.74"/>
				<ellipse class="st7" cx="96.8" cy="120.34" rx="0.6" ry="0.74"/>
				<ellipse class="st7" cx="89.08" cy="120.34" rx="0.6" ry="0.74"/>
				<ellipse class="st7" cx="82.32" cy="123.43" rx="0.6" ry="0.74"/>
			</g>
		</g>
	</g>
</g>
</svg>
