<svg xmlns="http://www.w3.org/2000/svg" width="114" height="34"><path fill="#fff" d="M6 0h102c2.762 0 5 1.586 5 3.542v26.916c0 1.956-2.238 3.542-5 3.542H6c-2.761 0-5-1.586-5-3.542V3.542C1 1.586 3.239 0 6 0"/><path fill="none" stroke="#d2d0cc" d="M5.54 0h102.92c2.507 0 4.54 1.458 4.54 3.255v27.49c0 1.797-2.033 3.255-4.54 3.255H5.54C3.034 34 1 32.542 1 30.745V3.255C1 1.458 3.033 0 5.54 0z"/><path d="M62.262 12.39a2.08 2.08 0 011.289 1.686c0 1.407-1.16 2.186-2.778 2.186A3.45 3.45 0 0159 15.828l.443-1.254c.456.234.959.366 1.474.387.508 0 .782-.268.782-.602 0-.319-.196-.534-.743-.843a1.962 1.962 0 01-1.187-1.624c0-1.24 1.089-2.124 2.66-2.124a2.689 2.689 0 011.517.295l-.418 1.254a3.035 3.035 0 00-1.122-.244c-.508 0-.834.231-.834.588 0 .282.234.486.69.73zm6.44-2.635c.94 0 1.476.603 1.476 1.602a6.428 6.428 0 01-.13 1.152l-.705 3.65h-1.8l.678-3.534c.052-.257.08-.518.08-.781 0-.385-.155-.654-.559-.654-.574 0-1.187.72-1.421 1.882l-.6 3.087h-1.799l1.747-9.03h1.796l-.69 3.549.026.013a2.453 2.453 0 011.904-.935zm5.548.001a2.4 2.4 0 01.289.007c1.293.105 2.253 1.21 2.144 2.464 0 2.19-1.435 4.06-3.56 4.06-.1.005-.202.003-.304-.004-1.3-.1-2.274-1.204-2.17-2.467 0-2.14 1.434-4.06 3.598-4.06zm-.887 5.174c.953 0 1.487-1.661 1.484-2.753 0-.521-.208-1.063-.847-1.063-.979 0-1.513 1.652-1.513 2.663 0 .64.26 1.153.874 1.153zm7.928-5.17c1.317 0 1.852 1.062 1.852 2.253 0 2.151-1.382 4.276-3.495 4.276a2.12 2.12 0 01-1.056-.232h-.039l-.496 2.612h-1.799l1.253-6.466c.147-.778.269-1.56.364-2.345h1.588l-.104.948h.026a2.48 2.48 0 011.905-1.05zm-1.723 5.195c1.006 0 1.696-1.626 1.696-2.766 0-.474-.17-.973-.718-.973-.623 0-1.212.731-1.421 1.832l-.3 1.651c.208.17.471.26.743.256zm6.14-7.735l.09.001a.843.843 0 01.805.883v.066c-.018.548-.489.977-1.051.959h-.026a.816.816 0 01-.843-.884v-.01a1.02 1.02 0 011.024-1.015zm-1.303 2.676h1.807L84.99 16.16h-1.793zm6.394-.01v-.003zm0 0l-.247 1.33h-1.24l-.951 4.943h-1.8l.952-4.942h-.834l.259-1.333h.836l.052-.294a3.329 3.329 0 011.043-1.998 2.702 2.702 0 011.76-.59c.335-.015.667.038.979.156l-.352 1.383a1.921 1.921 0 00-.574-.09c-.6 0-.965.538-1.069 1.14l-.065.294zm4.33.008H97l-2.204 4.637a11.88 11.88 0 01-2.36 3.508A4.131 4.131 0 0190.68 19l-.49-1.499a3.878 3.878 0 001.015-.5 3.03 3.03 0 00.98-1.062.37.37 0 00.038-.294l-1.083-5.75h1.892s.408 3.813.442 4.303h.024c.506-1.518 1.63-4.299 1.63-4.299zM67.89 25.238a2 2 0 01-.014.171c-.114.993-.959 1.697-1.886 1.574-.982.103-1.863-.646-1.99-1.694l.976-.138.001.058c.036.563.491.99 1.017.95a.749.749 0 00.078.007c.44.012.805-.359.817-.83 0-.528-.264-.74-1.045-.944-1.133-.284-1.681-.741-1.681-1.759 0-.952.698-1.62 1.787-1.62.886-.114 1.694.546 1.826 1.49l-.947.138c-.05-.476-.44-.826-.886-.798-.533 0-.818.274-.818.71 0 .447.194.658 1.007.87 1.096.284 1.757.683 1.757 1.815zm1.289 1.675v-5.83h3.209v.872h-2.195V23.5h1.773v.827h-1.773v1.717h2.313v.872h-3.328zm8.674-1.821v-.001zm0 0c-.143 1.113-1.048 1.932-2.096 1.896-1.457 0-2.298-1.026-2.298-2.687v-.61a2.503 2.503 0 01-.01-.247c.01-1.353 1.043-2.443 2.308-2.431 1.03-.096 1.944.712 2.05 1.815l-1.022.146c-.002-.607-.465-1.097-1.031-1.094-.752 0-1.233.642-1.233 1.79v.632c0 1.156.451 1.79 1.24 1.79.6-.016 1.09-.514 1.138-1.154zm5.195-4.01v3.705c.018.16.02.32 0 .48-.122 1.08-1.038 1.85-2.045 1.718a1.69 1.69 0 01-.42 0c-.986-.127-1.692-1.088-1.573-2.148v-3.755h1.026v3.693c0 .929.277 1.327.981 1.327.674 0 1.011-.358 1.011-1.376v-3.64zm1.487.002h1.827c1.183 0 1.92.514 1.92 1.664v.122c.042.708-.41 1.34-1.059 1.483l1.336 2.565H87.46l-1.222-2.39h-.687v2.39h-1.016zm1.81 2.669c.608 0 .924-.276.924-.871v-.114c0-.611-.338-.83-.916-.83h-.804v1.819zm3.327-2.67h3.208v.87h-2.195v1.544h1.773v.825h-1.773v1.71H93v.871h-3.328z"/><path fill="#95bf47" d="M31.768 10.043C31.78 10.15 34 25.608 34 25.608L28.556 27 16 24.764s1.498-11.929 1.553-12.348c.075-.557.093-.574.666-.76l1.945-.62a8.339 8.339 0 011.11-2.964c.799-1.305 1.782-2.04 2.77-2.07a1.58 1.58 0 011.344.612c.054-.004.106-.01.16-.01a2.059 2.059 0 011.833 1.298c.118.236.216.484.291.738l.61-.194a.488.488 0 01.446.058l1.334 1.338s1.452.022 1.525.029a.2.2 0 01.18.17zM27.034 8.84c-.158-.521-.522-1.394-1.265-1.54.2.595.3 1.22.298 1.85l.967-.31zm-1.622.52a4.999 4.999 0 00-.326-1.98 2.116 2.116 0 00-.712.534 5.16 5.16 0 00-1.058 2.115zm-1.346-2.687c-1.522.048-2.856 2.506-3.196 4.144l1.722-.55a6.014 6.014 0 011.3-2.812c.22-.249.48-.457.768-.616a.99.99 0 00-.594-.162z"/><path fill="#5e8e3e" d="M31.782 9.403a139.15 139.15 0 00-1.401-.028c-.701-.01-1.116-1.179-1.226-1.296A.27.27 0 0029 8v18l5-1.348s-2.04-14.98-2.05-15.086a.189.189 0 00-.165-.167z"/><path fill="#fff" d="M26 12.24l-.611 2.466a3.246 3.246 0 00-1.492-.28c-1.188.083-1.2.89-1.188 1.09.064 1.105 2.76 1.346 2.91 3.933.12 2.034-1.003 3.426-2.615 3.535a3.755 3.755 0 01-3.004-1.1l.41-1.882a3.567 3.567 0 001.93.814c.423-.012.756-.388.744-.839l-.002-.04c-.085-1.44-2.278-1.355-2.417-3.72-.117-1.992 1.096-4.01 3.773-4.193a3.064 3.064 0 011.559.212z"/><path fill="#d2d0cc" d="M45 29h1V6h-1z"/></svg>
