<svg width="581" height="456" viewBox="0 0 581 456" fill="none" xmlns="http://www.w3.org/2000/svg">
<g clip-path="url(#clip0)">
<path d="M325.154 286.674C325.54 286.836 325.955 286.919 326.374 286.917C326.863 286.917 327.438 286.81 328.091 286.513C329.816 285.727 331.329 283.985 332.294 282.661C333.673 280.751 334.755 278.641 335.504 276.403C336.272 274.08 336.046 271.921 334.898 270.622C334.192 269.827 333.209 269.469 332.26 269.669C331.115 269.912 330.448 270.854 329.602 272.046C328.777 273.209 327.751 274.656 326.077 275.877C323.911 277.456 322.811 280.118 323.138 282.998C323.238 283.888 323.636 286.028 325.154 286.674ZM326.614 281.534C326.696 280.703 327.026 279.544 328.131 278.738C330.253 277.191 331.566 275.354 332.434 274.127C332.392 274.522 332.306 274.911 332.178 275.286C331.479 277.397 330.32 279.549 328.993 281.191C328.027 282.386 327.219 283.006 326.745 283.252C326.599 282.692 326.554 282.11 326.614 281.534Z" fill="#00635B"/>
<path d="M352.751 225.48C346.505 210.638 334.777 198.822 320.045 192.53C312.466 189.3 304.417 187.663 296.12 187.663C285.258 187.647 274.588 190.545 265.205 196.059C264.803 196.295 264.511 196.682 264.393 197.135C264.275 197.588 264.34 198.069 264.574 198.474C264.808 198.878 265.192 199.173 265.642 199.292C266.091 199.411 266.569 199.345 266.971 199.11C275.783 193.933 285.863 191.196 296.123 191.196C297.37 191.196 298.606 191.236 299.832 191.315C298.193 192.484 296.895 193.971 295.634 195.418C294.317 196.928 292.956 198.489 291.176 199.734C289.723 200.749 287.671 201.48 285.687 202.188C283.915 202.819 282.242 203.416 280.873 204.23C279.882 204.821 278.667 205.835 277.703 206.875C276.332 208.354 275.563 209.749 275.425 211.022C275.301 212.146 275.67 213.178 276.465 213.936C277.816 215.22 279.843 214.658 280.511 214.473C281.685 214.148 283.003 213.579 284.396 212.978C286.254 212.175 288.178 211.346 289.625 211.163C291.314 210.945 293.551 211.881 295.917 212.872C298.902 214.123 302.284 215.538 305.944 215.296C309.785 215.041 312.195 217.123 313.092 218.984C313.608 220.055 313.479 220.719 313.398 220.81C312.765 221.331 312.166 221.194 310.287 220.413C308.469 219.658 306.206 218.719 303.466 219.569L303.297 219.622C302.21 219.96 300.721 220.422 299.335 220.565C298.128 220.69 297.278 220.536 296.941 220.133C296.411 219.498 296.354 219.111 296.257 218.465C296.136 217.665 295.972 216.57 294.925 215.35C293.498 213.687 290.573 213.399 286.231 214.494C282.743 215.373 278.828 217.07 275.753 219.033C272.862 220.82 270.381 222.943 268.376 225.344C266.273 227.863 264.731 230.647 263.794 233.617C262.814 236.724 262.683 240.507 263.444 243.739C263.887 245.623 264.612 247.261 265.597 248.606C266.746 250.172 268.214 251.298 269.961 251.953C272.192 252.789 274.344 252.19 276.243 251.663C277.347 251.356 278.389 251.066 279.34 251.072C285.472 251.112 288.632 256.133 289.972 259.122C291.824 263.261 292.195 267.604 292.587 272.202C292.768 274.323 292.955 276.514 293.299 278.71C293.875 282.393 295.05 287.552 298.592 289.83C299.733 290.567 301.006 290.933 302.397 290.933C303.275 290.924 304.146 290.794 304.988 290.545C308.13 289.645 310.44 287.866 312.05 285.104C312.437 284.441 312.782 283.766 313.12 283.113C313.751 281.88 314.348 280.716 315.142 279.76C315.846 278.913 316.742 278.185 317.692 277.414C318.368 276.867 319.061 276.302 319.719 275.666C322.153 273.319 322.679 270.722 322.873 268.492C322.937 267.745 322.94 266.977 322.942 266.234C322.946 264.714 322.95 263.278 323.449 262.206C324.451 260.051 326.711 257.646 328.896 255.319C330.824 253.265 332.645 251.326 333.752 249.44C335.696 246.125 334.678 243.993 333.482 242.787C331.971 241.265 330.08 241.384 328.414 241.49C327.115 241.572 325.772 241.657 324.208 241.171C321.4 240.299 319.912 237.583 319.275 236.041C318.543 234.269 318.292 232.631 318.261 231.502C318.433 231.805 318.602 232.119 318.745 232.385C319.456 233.705 320.34 235.348 321.661 236.722C323.289 238.415 325.279 239.363 327.574 239.54C331.295 239.827 333.926 238.553 335.34 237.868C337.221 236.957 338.359 235.816 338.818 234.379C339.486 232.288 338.434 230.347 337.666 228.933C337.524 228.671 337.339 228.329 337.205 228.045C337.585 228.049 338.166 228.301 339.104 229.276C340.529 230.757 342.095 233.252 343.752 235.892C346.639 240.492 349.886 245.666 354.062 248.362C354.07 248.77 354.075 249.178 354.075 249.588C354.075 281.784 328.076 307.977 296.119 307.977C283.327 307.977 271.349 303.791 261.636 296.562C259.783 292.483 259.358 287.868 258.909 282.99C258.544 279.019 258.166 274.91 256.964 270.957C255.576 266.394 253.259 262.686 249.881 259.623C249.711 259.464 249.511 259.342 249.293 259.262C249.075 259.182 248.843 259.146 248.611 259.157C248.38 259.168 248.152 259.225 247.943 259.325C247.733 259.425 247.545 259.566 247.39 259.74C247.235 259.914 247.115 260.117 247.039 260.337C246.962 260.558 246.929 260.792 246.943 261.025C246.957 261.258 247.016 261.487 247.118 261.697C247.22 261.907 247.362 262.094 247.536 262.248C254.021 268.128 254.7 275.506 255.42 283.316C255.697 286.323 255.979 289.392 256.628 292.374C246.435 282.819 240.001 269.883 238.503 255.937C238.278 253.828 238.165 251.708 238.166 249.586C238.166 248.6 238.19 247.6 238.239 246.619C238.323 244.914 238.48 243.224 238.708 241.55C242.228 240.9 245.353 239.478 248.01 237.314C250.83 235.017 252.986 232.006 254.419 228.365C256.39 223.352 256.82 217.546 255.658 211.575C254.446 205.343 251.535 199.28 247.242 194.044C247.056 193.818 246.816 193.641 246.545 193.531C246.274 193.421 245.98 193.381 245.689 193.415C245.399 193.449 245.122 193.556 244.883 193.725C244.644 193.894 244.45 194.121 244.321 194.385C243.104 196.853 240.74 199.726 238.239 202.768C235.163 206.505 231.676 210.742 229.232 215.479C228.068 217.744 227.34 220.209 227.087 222.746C226.809 225.441 227.045 228.165 227.781 230.771C227.84 230.998 227.944 231.21 228.086 231.396C228.228 231.582 228.405 231.738 228.607 231.854C228.809 231.971 229.032 232.045 229.263 232.074C229.494 232.102 229.728 232.084 229.952 232.02C230.176 231.957 230.385 231.849 230.568 231.703C230.75 231.557 230.901 231.376 231.013 231.17C231.125 230.965 231.195 230.739 231.22 230.505C231.244 230.272 231.222 230.036 231.155 229.812C229.954 225.528 230.387 220.897 232.342 217.108C234.614 212.706 237.974 208.623 240.937 205.024C242.852 202.695 244.694 200.459 246.093 198.322C252.563 207.367 254.568 218.411 251.161 227.069C248.965 232.651 244.818 236.392 239.344 237.803C240.381 232.695 242.1 227.752 244.455 223.109C244.56 222.902 244.623 222.677 244.642 222.445C244.66 222.214 244.633 221.981 244.562 221.76C244.491 221.54 244.378 221.335 244.228 221.158C244.079 220.982 243.896 220.836 243.691 220.731C243.486 220.625 243.262 220.561 243.033 220.543C242.803 220.524 242.572 220.552 242.353 220.623C242.134 220.695 241.931 220.809 241.755 220.959C241.58 221.11 241.436 221.294 241.331 221.5C237.408 229.251 235.161 237.752 234.737 246.442C234.685 247.482 234.659 248.541 234.659 249.586C234.659 251.016 234.709 252.453 234.806 253.882C233.366 251.849 231.72 249.973 229.894 248.282C229.698 248.102 229.502 247.926 229.306 247.753C229.117 240.151 225.716 234.341 219.679 231.346C217.596 230.314 215.261 229.651 212.733 229.375C210.272 229.107 207.679 229.211 205.025 229.684C199.579 230.655 194.195 233.11 189.456 236.783C189.224 236.963 189.041 237.198 188.922 237.467C188.804 237.736 188.754 238.031 188.777 238.324C188.801 238.618 188.897 238.901 189.057 239.147C189.216 239.394 189.435 239.596 189.692 239.736C191.715 240.837 194.062 242.94 196.547 245.165C199.624 247.922 203.113 251.047 207.068 253.296C208.975 254.377 211.069 255.085 213.237 255.381C214.067 255.498 214.904 255.557 215.742 255.557C217.222 255.556 218.697 255.374 220.134 255.017C220.58 254.9 220.961 254.611 221.196 254.212C221.432 253.814 221.502 253.338 221.393 252.888C221.283 252.438 221.002 252.049 220.61 251.806C220.219 251.562 219.748 251.484 219.299 251.587C215.708 252.475 211.877 251.977 208.79 250.221C205.16 248.157 201.821 245.165 198.874 242.526C197.064 240.905 195.324 239.346 193.641 238.107C201.819 232.649 211.406 231.18 218.129 234.515C222.202 236.535 224.718 240.08 225.524 244.872C224.973 244.516 224.413 244.179 223.844 243.863C221.324 242.473 218.616 241.46 215.806 240.856C215.581 240.807 215.348 240.803 215.122 240.844C214.895 240.886 214.679 240.972 214.486 241.097C214.292 241.223 214.125 241.386 213.994 241.576C213.863 241.767 213.771 241.982 213.722 242.208C213.673 242.435 213.669 242.669 213.71 242.897C213.751 243.125 213.837 243.343 213.961 243.538C214.086 243.733 214.248 243.901 214.437 244.033C214.626 244.165 214.839 244.259 215.064 244.308C219.818 245.345 223.778 247.437 227.527 250.889C230.944 254.037 233.201 257.624 234.493 260.079C235.856 262.669 236.464 264.584 236.512 264.737C238.159 271.341 240.885 277.624 244.576 283.328C250.15 291.986 257.786 299.101 266.789 304.023C275.792 308.945 285.875 311.518 296.119 311.507C304.415 311.507 312.464 309.87 320.043 306.64C334.775 300.347 346.503 288.532 352.75 273.689C355.957 266.051 357.582 257.942 357.582 249.583C357.582 241.225 355.957 233.115 352.751 225.48ZM346.713 234C344.957 231.201 343.298 228.553 341.62 226.813C340.59 225.742 339.602 225.062 338.601 224.732C337.316 224.309 336.011 224.474 334.828 225.209C334.797 225.228 334.767 225.249 334.737 225.27C333.728 225.989 333.321 227.134 333.62 228.411C333.796 229.164 334.183 229.872 334.586 230.624C335.101 231.573 335.684 232.65 335.478 233.297C335.335 233.743 334.745 234.236 333.817 234.686C332.622 235.264 330.621 236.233 327.838 236.019C324.546 235.765 323.099 233.075 321.822 230.701C321.315 229.76 320.836 228.869 320.261 228.198C319.082 226.823 317.833 226.78 316.995 226.986C316.196 227.182 314.842 227.96 314.752 230.977C314.682 233.316 315.344 236.119 316.523 238.476C318.076 241.581 320.375 243.681 323.168 244.546C325.344 245.222 327.166 245.106 328.624 245.015C330.062 244.924 330.639 244.923 330.997 245.285C331.259 245.548 331.697 245.99 330.728 247.643C329.822 249.187 328.132 250.987 326.343 252.892C323.967 255.422 321.51 258.038 320.269 260.708C319.44 262.488 319.434 264.474 319.429 266.227C319.429 266.927 319.425 267.588 319.373 268.187C319.171 270.509 318.606 271.845 317.289 273.117C316.737 273.649 316.128 274.143 315.483 274.666C314.447 275.51 313.377 276.383 312.45 277.496C311.406 278.751 310.692 280.147 310 281.496C309.673 282.136 309.363 282.739 309.025 283.319C307.863 285.312 306.322 286.496 304.028 287.151C302.585 287.564 301.423 287.468 300.475 286.858C298.736 285.738 297.485 282.811 296.758 278.161C296.435 276.09 296.252 273.963 296.077 271.9C295.677 267.209 295.263 262.358 293.164 257.671C291.855 254.748 290.024 252.293 287.871 250.573C285.377 248.581 282.514 247.562 279.362 247.541C277.926 247.532 276.597 247.901 275.311 248.259C273.724 248.7 272.352 249.081 271.183 248.643C266.317 246.821 265.701 239.235 267.135 234.687C268.721 229.659 272.34 225.284 277.599 222.035L277.622 222.021C280.346 220.28 283.827 218.76 286.934 217.956C290.639 216.997 292.092 217.479 292.275 217.657C292.659 218.105 292.701 218.382 292.792 218.991C292.92 219.842 293.095 221.007 294.26 222.404C296.727 225.358 301.674 223.822 304.332 222.994L304.501 222.942C306.039 222.465 307.455 223.055 308.956 223.676C309.913 224.073 310.904 224.485 311.949 224.612C313.32 224.778 314.554 224.418 315.62 223.542C317.04 222.372 317.378 220.255 316.501 218.014C315.809 216.247 314.479 214.65 312.756 213.52C310.745 212.201 308.311 211.595 305.717 211.767C302.877 211.957 300.026 210.762 297.267 209.607C294.459 208.43 291.805 207.318 289.186 207.655C287.252 207.903 285.101 208.831 283.02 209.729C281.951 210.192 280.937 210.629 280.078 210.915C279.714 211.044 279.34 211.141 278.959 211.204C279.066 210.882 279.369 210.292 280.102 209.466C280.972 208.485 282.038 207.639 282.661 207.268C283.736 206.627 285.252 206.086 286.859 205.514C289.061 204.728 291.338 203.917 293.177 202.632C295.309 201.141 296.883 199.337 298.27 197.745C301.199 194.385 303.32 191.953 309.351 192.727C333.091 198.331 351.26 218.678 353.782 243.62C351.165 241.088 348.835 237.377 346.713 234Z" fill="#00635B"/>
</g>
<g clip-path="url(#clip1)">
<path d="M199.796 385.094C198.851 384.349 197.639 384.081 196.468 384.359L184.729 387.154C186.253 384.389 184.265 380.906 181.031 380.906C176.228 380.906 175.581 381.011 174.111 380.531C169.506 379.027 170.628 379.219 164.987 379.219C164.882 378.271 164.077 377.531 163.101 377.531C161.798 377.531 150.013 377.531 148.125 377.531C147.659 377.531 147.281 377.909 147.281 378.375C147.281 378.841 147.659 379.219 148.125 379.219H158.25V395.25H148.125C147.659 395.25 147.281 395.628 147.281 396.094C147.281 396.56 147.659 396.938 148.125 396.938H163.101C164.077 396.938 164.882 396.198 164.987 395.25C168.918 395.25 167.606 395.023 175.046 397.759C178.38 398.985 182.091 398.921 185.432 397.498L198.905 391.758C201.634 390.595 202.121 386.931 199.796 385.094ZM163.312 395.039C163.312 395.156 163.218 395.25 163.101 395.25H159.937V379.219H163.101C163.218 379.219 163.312 379.313 163.312 379.43V395.039ZM198.244 390.205L184.77 395.945C181.836 397.196 178.568 397.257 175.628 396.175C168.088 393.402 169.226 393.563 165 393.563V380.906C170.458 380.906 169.222 380.71 173.587 382.135C175.386 382.723 176.27 382.594 181.031 382.594C182.427 382.594 183.563 383.729 183.563 385.125C183.563 386.521 182.427 387.656 181.031 387.656H175.125C174.659 387.656 174.281 388.034 174.281 388.5C174.281 388.966 174.659 389.344 175.125 389.344H182.1C183.122 389.344 182.545 389.409 196.858 386.001C198.254 385.669 199.594 386.726 199.594 388.162C199.594 389.054 199.064 389.856 198.244 390.205Z" fill="black"/>
<path d="M185.25 351.374C177.806 351.374 171.75 357.431 171.75 364.875C171.75 372.319 177.806 378.375 185.25 378.375C192.694 378.375 198.75 372.319 198.75 364.875C198.75 357.431 192.694 351.374 185.25 351.374ZM197.063 364.875H195.96C195.439 364.875 194.978 364.562 194.785 364.079L194.222 362.672C193.984 362.078 193.468 361.646 192.841 361.517C192.214 361.388 191.569 361.581 191.117 362.034L190.098 363.052C189.807 363.343 189.407 363.472 189.001 363.407C188.594 363.341 188.255 363.092 188.071 362.723L186.588 359.757C186.085 358.75 185.072 358.124 183.947 358.124H182.137C180.969 358.124 179.98 357.251 179.835 356.092L179.634 354.484C181.306 353.577 183.219 353.062 185.25 353.062C191.764 353.062 197.063 358.361 197.063 364.875ZM173.949 361.433L174.963 361.94C175.206 362.061 175.407 362.262 175.528 362.506L176.553 364.554C176.688 364.824 176.722 365.134 176.648 365.427L176.284 366.886C176.033 367.887 176.331 368.962 177.06 369.691L177.48 370.11C177.55 370.181 177.549 370.259 177.535 370.312C177.521 370.365 177.484 370.435 177.389 370.462L175.207 371.086C174.086 369.28 173.438 367.152 173.438 364.875C173.438 363.678 173.617 362.522 173.949 361.433ZM176.268 372.537L177.852 372.085C178.506 371.898 178.998 371.394 179.168 370.736C179.339 370.077 179.154 369.398 178.673 368.917L178.254 368.498C177.941 368.185 177.814 367.724 177.921 367.296L178.286 365.836C178.457 365.153 178.377 364.429 178.062 363.799L177.038 361.751C176.754 361.183 176.285 360.714 175.718 360.43L174.56 359.851C175.368 358.139 176.576 356.651 178.062 355.508L178.161 356.301C178.41 358.302 180.119 359.812 182.137 359.812H183.947C184.429 359.812 184.863 360.08 185.079 360.512L186.562 363.478C186.992 364.337 187.782 364.919 188.731 365.072C189.679 365.226 190.612 364.925 191.291 364.246L192.31 363.227C192.376 363.161 192.45 363.159 192.501 363.17C192.552 363.18 192.62 363.211 192.654 363.298L193.218 364.706C193.669 365.834 194.745 366.562 195.96 366.562H196.942C196.859 367.139 196.734 367.703 196.571 368.25H190.524C189.599 368.25 188.716 368.691 188.161 369.431L186.896 371.118C186.658 371.435 186.279 371.625 185.883 371.625H183.266C182.083 371.625 181.018 372.327 180.552 373.414L179.736 375.318C178.411 374.616 177.235 373.669 176.268 372.537ZM185.25 376.687C183.858 376.687 182.521 376.445 181.28 376L182.103 374.079C182.303 373.613 182.759 373.312 183.266 373.312H185.883C186.808 373.312 187.691 372.871 188.246 372.131L189.511 370.443C189.749 370.127 190.128 369.937 190.524 369.937H195.922C194.022 373.925 189.953 376.687 185.25 376.687Z" fill="black"/>
</g>
<path d="M144.351 432.816C144.111 432.816 143.103 432.816 142.863 432.816C142.863 434.544 144.463 436.16 146.719 436.16C148.879 436.16 150.207 434.864 150.399 433.28C150.623 431.52 149.519 430.352 147.455 429.824L146.015 429.472C144.623 429.136 144.447 428.416 144.447 427.936C144.447 426.928 145.439 426.272 146.511 426.272C147.711 426.272 148.591 426.976 148.591 428.08C148.847 428.08 149.823 428.08 150.079 428.08C150.079 426.096 148.543 424.848 146.527 424.848C144.655 424.848 142.959 426.096 142.959 427.952C142.959 428.912 143.311 430.24 145.647 430.832L147.071 431.184C148.063 431.408 149.039 431.968 148.943 433.152C148.815 433.984 148.127 434.768 146.719 434.768C145.327 434.768 144.367 433.776 144.351 432.816ZM153.875 431.968C153.875 430.368 155.123 429.792 156.147 429.792C157.171 429.792 157.907 430.544 157.907 431.776V436C158.147 436 159.123 436 159.363 436V431.68C159.379 429.584 158.211 428.368 156.339 428.368C155.523 428.368 154.323 428.752 153.875 429.648V424.464H152.419V436H153.875V431.968ZM163.14 436H161.7V428.528H163.14V436ZM161.412 425.776C161.412 426.32 161.876 426.72 162.42 426.72C162.98 426.72 163.428 426.32 163.428 425.776C163.428 425.232 162.98 424.832 162.42 424.832C161.876 424.832 161.412 425.232 161.412 425.776ZM167.031 428.528H165.575V439.632H167.031V434.88C167.527 435.744 168.599 436.16 169.639 436.16C171.687 436.16 173.383 434.656 173.383 432.288C173.383 429.92 171.687 428.368 169.639 428.368C168.599 428.368 167.527 428.848 167.031 429.696V428.528ZM167.047 432.304C167.047 430.72 168.183 429.792 169.495 429.792C170.839 429.792 171.911 430.816 171.911 432.304C171.911 433.792 170.839 434.736 169.495 434.736C168.295 434.736 167.047 433.904 167.047 432.304ZM176.781 428.528H175.325V439.632H176.781V434.88C177.277 435.744 178.349 436.16 179.389 436.16C181.437 436.16 183.133 434.656 183.133 432.288C183.133 429.92 181.437 428.368 179.389 428.368C178.349 428.368 177.277 428.848 176.781 429.696V428.528ZM176.797 432.304C176.797 430.72 177.933 429.792 179.245 429.792C180.589 429.792 181.661 430.816 181.661 432.304C181.661 433.792 180.589 434.736 179.245 434.736C178.045 434.736 176.797 433.904 176.797 432.304ZM186.515 436H185.075V428.528H186.515V436ZM184.787 425.776C184.787 426.32 185.251 426.72 185.795 426.72C186.355 426.72 186.803 426.32 186.803 425.776C186.803 425.232 186.355 424.832 185.795 424.832C185.251 424.832 184.787 425.232 184.787 425.776ZM190.406 431.968C190.406 430.384 191.462 429.792 192.518 429.792C193.542 429.792 194.166 430.528 194.166 431.776V436C194.39 436 195.382 436 195.622 436V431.68C195.622 429.584 194.598 428.368 192.742 428.368C191.926 428.368 190.854 428.752 190.406 429.648V428.528H188.95V436H190.406V431.968ZM199.086 437.072C198.894 437.168 198.062 437.632 197.87 437.712C198.59 439.024 199.87 439.728 201.246 439.728C203.71 439.728 205.326 438.384 205.326 434.864V428.528H203.886V429.696C203.39 428.832 202.302 428.368 201.262 428.368C199.214 428.368 197.47 429.904 197.47 432.288C197.47 434.656 199.214 436.16 201.262 436.16C202.302 436.16 203.438 435.664 203.886 434.784C203.886 434.848 203.902 434.896 203.902 434.96C203.902 437.44 202.862 438.352 201.246 438.352C200.414 438.352 199.534 437.904 199.086 437.072ZM203.87 432.272C203.87 433.856 202.59 434.736 201.39 434.736C200.046 434.736 198.958 433.792 198.958 432.272C198.958 430.816 200.046 429.792 201.39 429.792C202.718 429.792 203.87 430.672 203.87 432.272Z" fill="#151515"/>
<g clip-path="url(#clip2)">
<path d="M137.684 196.56L125.161 179.616C124.735 179.04 124.5 178.327 124.5 177.61V171.394C125.448 171.288 126.188 170.483 126.188 169.508V166.555C126.188 165.508 125.336 164.656 124.289 164.656H120.281V162.125H123.235C127.189 162.125 130.406 158.908 130.406 154.953V152.844C130.406 152.378 130.029 152 129.563 152H125.766C123.029 152 120.646 153.541 119.438 155.801C118.229 153.541 115.846 152 113.11 152H109.313C108.847 152 108.469 152.378 108.469 152.844V154.953C108.469 158.908 111.686 162.125 115.641 162.125H118.594V164.656H114.586C113.539 164.656 112.688 165.508 112.688 166.555V169.508C112.688 170.483 113.427 171.288 114.375 171.394V177.61C114.375 178.327 114.14 179.04 113.714 179.616L101.191 196.56C98.3205 200.443 101.091 206 105.952 206H132.923C137.79 206 140.551 200.438 137.684 196.56ZM125.766 153.688H128.719V154.953C128.719 157.977 126.259 160.438 123.235 160.438H121.768L125.04 157.711C125.398 157.412 125.447 156.88 125.148 156.522C124.85 156.164 124.318 156.116 123.96 156.414L120.281 159.48V159.172C120.281 156.148 122.742 153.688 125.766 153.688ZM110.156 154.953V153.688H113.11C116.134 153.688 118.594 156.148 118.594 159.172V159.48L114.915 156.414C114.557 156.116 114.025 156.164 113.727 156.522C113.429 156.88 113.477 157.412 113.835 157.711L117.107 160.438H115.641C112.617 160.438 110.156 157.977 110.156 154.953ZM125.721 183.213C123.986 182.657 121.795 182.691 120.282 183.101V171.406H122.813V177.61C122.813 178.686 123.165 179.754 123.804 180.619L125.721 183.213ZM114.375 166.555C114.375 166.438 114.47 166.344 114.586 166.344H124.289C124.406 166.344 124.5 166.438 124.5 166.555V169.508C124.5 169.624 124.406 169.719 124.289 169.719C122.018 169.719 116.71 169.719 114.586 169.719C114.47 169.719 114.375 169.624 114.375 169.508V166.555ZM115.071 180.619C115.711 179.754 116.063 178.686 116.063 177.61V171.406H118.594V183.682C117.963 183.895 117.247 184.062 116.063 184.062C114.528 184.062 113.778 183.781 112.984 183.483C112.949 183.47 112.796 183.698 115.071 180.619ZM132.923 204.312H105.952C102.467 204.312 100.503 200.329 102.548 197.563L111.915 184.889C112.945 185.248 113.893 185.75 116.063 185.75C119.584 185.75 119.679 184.484 122.813 184.484C125.212 184.484 125.697 185.171 127.446 185.547L136.328 197.563C138.376 200.333 136.405 204.312 132.923 204.312Z" fill="black"/>
<path d="M109.312 196.719C107.917 196.719 106.781 197.854 106.781 199.25C106.781 200.646 107.917 201.781 109.312 201.781C110.708 201.781 111.844 200.646 111.844 199.25C111.844 197.854 110.708 196.719 109.312 196.719ZM109.312 200.094C108.847 200.094 108.469 199.715 108.469 199.25C108.469 198.785 108.847 198.406 109.312 198.406C109.777 198.406 110.156 198.785 110.156 199.25C110.156 199.715 109.777 200.094 109.312 200.094Z" fill="black"/>
<path d="M116.906 190.812C115.51 190.812 114.375 191.948 114.375 193.344C114.375 194.74 115.51 195.875 116.906 195.875C118.302 195.875 119.437 194.74 119.437 193.344C119.437 191.948 118.302 190.812 116.906 190.812ZM116.906 194.188C116.441 194.188 116.062 193.809 116.062 193.344C116.062 192.879 116.441 192.5 116.906 192.5C117.371 192.5 117.75 192.879 117.75 193.344C117.75 193.809 117.371 194.188 116.906 194.188Z" fill="black"/>
<path d="M123.657 195.031C122.261 195.031 121.125 196.167 121.125 197.562C121.125 198.958 122.261 200.094 123.657 200.094C125.052 200.094 126.188 198.958 126.188 197.562C126.188 196.167 125.053 195.031 123.657 195.031ZM123.657 198.406C123.192 198.406 122.813 198.028 122.813 197.562C122.813 197.097 123.192 196.719 123.657 196.719C124.122 196.719 124.5 197.097 124.5 197.562C124.5 198.028 124.122 198.406 123.657 198.406Z" fill="black"/>
<path d="M116.842 199.771C116.634 199.272 116.028 199.101 115.595 199.392C115.205 199.649 115.105 200.181 115.362 200.562C115.618 200.951 116.15 201.052 116.531 200.795C116.863 200.576 116.997 200.142 116.842 199.771Z" fill="black"/>
<path d="M122.877 191.135C123.062 191.578 123.563 191.766 123.979 191.592C124.418 191.41 124.612 190.91 124.436 190.49C124.229 189.994 123.625 189.817 123.188 190.111C122.852 190.333 122.725 190.768 122.877 191.135Z" fill="black"/>
<path d="M132.03 198.084C131.823 197.588 131.219 197.411 130.782 197.705C130.235 198.066 130.291 198.92 130.928 199.186C131.605 199.468 132.325 198.79 132.03 198.084Z" fill="black"/>
<path d="M128.654 201.458C128.446 200.96 127.841 200.788 127.407 201.08C126.859 201.442 126.917 202.296 127.552 202.561C128.231 202.844 128.948 202.162 128.654 201.458Z" fill="black"/>
<path d="M111.78 193.865C111.573 193.369 110.969 193.192 110.532 193.486C109.984 193.848 110.042 194.702 110.678 194.967C111.368 195.255 112.069 194.557 111.78 193.865Z" fill="black"/>
</g>
<path d="M79.8557 228.976V240H81.3437V228.976H79.8557ZM85.5237 235.968C85.5237 234.384 86.5797 233.792 87.6357 233.792C88.6597 233.792 89.2837 234.528 89.2837 235.776V240C89.5077 240 90.4997 240 90.7397 240V235.68C90.7397 233.584 89.7157 232.368 87.8597 232.368C87.0437 232.368 85.9717 232.752 85.5237 233.648V232.528H84.0677V240H85.5237V235.968ZM94.2033 241.072C94.0113 241.168 93.1793 241.632 92.9873 241.712C93.7073 243.024 94.9873 243.728 96.3633 243.728C98.8273 243.728 100.443 242.384 100.443 238.864V232.528H99.0033V233.696C98.5073 232.832 97.4193 232.368 96.3793 232.368C94.3313 232.368 92.5873 233.904 92.5873 236.288C92.5873 238.656 94.3313 240.16 96.3793 240.16C97.4193 240.16 98.5553 239.664 99.0033 238.784C99.0033 238.848 99.0193 238.896 99.0193 238.96C99.0193 241.44 97.9793 242.352 96.3633 242.352C95.5313 242.352 94.6513 241.904 94.2033 241.072ZM98.9873 236.272C98.9873 237.856 97.7073 238.736 96.5073 238.736C95.1633 238.736 94.0753 237.792 94.0753 236.272C94.0753 234.816 95.1633 233.792 96.5073 233.792C97.8353 233.792 98.9873 234.672 98.9873 236.272ZM104.321 237.28C104.321 235.296 104.929 233.76 106.369 233.76C106.673 233.76 107.073 233.824 107.473 234.016L107.697 232.656C107.489 232.512 106.929 232.368 106.401 232.368C105.425 232.368 104.705 232.896 104.321 234.208V232.528H102.865V240H104.321V237.28ZM109.95 235.68C110.126 234.432 111.086 233.68 112.318 233.68C113.518 233.68 114.414 234.432 114.59 235.68H109.95ZM116.03 236.24C116.03 233.872 114.446 232.368 112.318 232.368C110.19 232.368 108.494 233.872 108.494 236.24C108.494 238.608 110.19 240.16 112.318 240.16C113.758 240.16 115.118 239.488 115.758 238.176C115.358 238.016 114.894 237.856 114.51 237.696C114.094 238.432 113.262 238.848 112.366 238.848C111.102 238.848 110.126 238.064 109.95 236.816H116.014C116.03 236.656 116.03 236.416 116.03 236.24ZM123.784 240H125.24V228.464H123.784V233.648C123.288 232.8 122.248 232.368 121.144 232.368C119.096 232.368 117.384 233.872 117.384 236.256C117.384 238.624 119.112 240.16 121.16 240.16C122.2 240.16 123.288 239.696 123.784 238.848V240ZM123.768 236.24C123.768 237.824 122.6 238.736 121.288 238.736C119.944 238.736 118.872 237.712 118.872 236.24C118.872 234.752 119.944 233.792 121.288 233.792C122.488 233.792 123.768 234.64 123.768 236.24ZM129.117 240H127.677V232.528H129.117V240ZM127.389 229.776C127.389 230.32 127.853 230.72 128.397 230.72C128.957 230.72 129.405 230.32 129.405 229.776C129.405 229.232 128.957 228.832 128.397 228.832C127.853 228.832 127.389 229.232 127.389 229.776ZM132.512 235.68C132.688 234.432 133.648 233.68 134.88 233.68C136.08 233.68 136.976 234.432 137.152 235.68H132.512ZM138.592 236.24C138.592 233.872 137.008 232.368 134.88 232.368C132.752 232.368 131.056 233.872 131.056 236.24C131.056 238.608 132.752 240.16 134.88 240.16C136.32 240.16 137.68 239.488 138.32 238.176C137.92 238.016 137.456 237.856 137.072 237.696C136.656 238.432 135.824 238.848 134.928 238.848C133.664 238.848 132.688 238.064 132.512 236.816H138.576C138.592 236.656 138.592 236.416 138.592 236.24ZM141.899 235.968C141.899 234.384 142.955 233.792 144.011 233.792C145.035 233.792 145.659 234.528 145.659 235.776V240C145.883 240 146.875 240 147.115 240V235.68C147.115 233.584 146.091 232.368 144.235 232.368C143.419 232.368 142.347 232.752 141.899 233.648V232.528H140.443V240H141.899V235.968ZM151.474 232.528V229.712H150.018V232.528H148.674V233.76H150.018V240H151.474V233.76H153.058V232.528H151.474ZM156.404 236.704L157.428 236.944C157.972 237.072 158.436 237.344 158.42 237.888C158.404 238.432 157.956 238.816 157.284 238.864C156.804 238.896 156.42 238.8 156.1 238.608C155.748 238.432 155.54 238.08 155.492 237.76H154.164C154.212 239.296 155.604 240.16 156.948 240.16C158.5 240.16 159.844 239.312 159.844 237.92C159.844 237.072 159.46 236.128 157.908 235.744L156.804 235.472C156.42 235.36 156.068 235.2 155.924 234.896C155.844 234.72 155.844 234.544 155.908 234.304C156.02 233.904 156.484 233.632 157.028 233.632C157.604 233.632 158.116 233.92 158.196 234.48H159.588C159.46 232.96 158.26 232.368 156.996 232.368C155.668 232.368 154.516 233.184 154.404 234.272C154.276 235.648 155.044 236.336 156.404 236.704Z" fill="#151515"/>
<g clip-path="url(#clip3)">
<path d="M301.128 67.7338L299.632 34.8283C299.56 33.2476 298.264 32.0093 296.682 32.0093H295.323V21.8519C295.323 21.0787 294.976 20.3583 294.373 19.8754C290.528 16.7997 290.702 16.8725 290.368 16.8299C290.275 16.8177 275.06 16.819 274.981 16.8276C274.632 16.8665 274.769 16.8289 270.961 19.8755C270.357 20.3584 270.011 21.0788 270.011 21.852V32.0094H268.651C267.069 32.0094 265.773 33.2477 265.701 34.8284L264.206 67.7339C264.129 69.4144 265.467 70.821 267.156 70.821H298.178C299.86 70.821 301.204 69.4205 301.128 67.7338ZM293.635 21.852V32.0094H291.104C291.104 30.5866 291.104 20.6567 291.104 19.4215L293.318 21.1932C293.52 21.3541 293.635 21.5942 293.635 21.852ZM275.917 32.0094V22.7284H289.416V32.0094H275.917ZM289.416 21.041H275.917V18.5098H289.416V21.041ZM271.698 21.852C271.698 21.5943 271.814 21.3542 272.015 21.1932L274.229 19.4215V32.0094H271.698V21.852ZM298.178 69.1335H267.156C266.436 69.1335 265.859 68.5348 265.891 67.8104L267.387 34.905C267.418 34.2276 267.973 33.6969 268.651 33.6969H296.682C297.36 33.6969 297.915 34.2276 297.946 34.905L299.442 67.8104C299.475 68.5307 298.901 69.1335 298.178 69.1335Z" fill="black"/>
<path d="M294.479 43.8217H291.104C287.364 43.8217 284.135 46.0447 282.666 49.2384C281.198 46.0448 277.968 43.8217 274.229 43.8217H270.854C270.388 43.8217 270.01 44.1994 270.01 44.6654V47.1966C270.01 52.3141 274.174 56.4776 279.292 56.4776H281.823V59.8525C281.823 60.3184 282.2 60.6962 282.666 60.6962C283.132 60.6962 283.51 60.3184 283.51 59.8525V56.4776H286.041C291.159 56.4776 295.322 52.3141 295.322 47.1966V44.6654C295.322 44.1993 294.945 43.8217 294.479 43.8217ZM271.698 47.1966V45.5091H274.229C278.416 45.5091 281.823 48.9156 281.823 53.1027V53.7745L276.472 49.0929C276.121 48.7858 275.588 48.8215 275.282 49.1722C274.975 49.5228 275.01 50.0559 275.361 50.3628L280.421 54.7901H279.292C275.104 54.7901 271.698 51.3837 271.698 47.1966ZM293.635 47.1966C293.635 51.3837 290.228 54.7901 286.041 54.7901H284.912L289.972 50.3628C290.323 50.056 290.358 49.5229 290.051 49.1722C289.744 48.8215 289.211 48.7858 288.861 49.0929L283.51 53.7745V53.1027C283.51 48.9156 286.917 45.5091 291.104 45.5091H293.635V47.1966Z" fill="black"/>
</g>
<path d="M247.639 93.797V104.821H249.143V100.693H252.039C254.375 100.693 255.319 98.997 255.319 97.253C255.319 95.525 254.375 93.797 252.039 93.797H247.639ZM252.023 95.189C253.303 95.189 253.831 96.245 253.831 97.253C253.831 98.277 253.287 99.301 251.943 99.301H249.143V95.189H252.023ZM262.693 104.821H264.133V97.349H262.693V98.469C262.197 97.621 261.109 97.189 260.069 97.189C258.021 97.189 256.277 98.693 256.277 101.077C256.277 103.445 258.021 104.981 260.069 104.981C261.109 104.981 262.197 104.517 262.693 103.669V104.821ZM262.677 101.061C262.677 102.645 261.525 103.557 260.197 103.557C258.853 103.557 257.765 102.533 257.765 101.061C257.765 99.573 258.853 98.613 260.197 98.613C261.397 98.613 262.677 99.461 262.677 101.061ZM266.074 101.061C266.074 103.429 267.898 104.981 270.026 104.981C271.178 104.981 272.218 104.533 272.922 103.765L271.802 102.837C271.354 103.301 270.714 103.573 270.026 103.573C268.682 103.573 267.514 102.565 267.514 101.061C267.514 99.557 268.682 98.613 270.026 98.613C270.714 98.613 271.354 98.869 271.802 99.317L272.906 98.389C272.202 97.621 271.162 97.189 270.026 97.189C267.898 97.189 266.074 98.693 266.074 101.061ZM276.198 101.173L279.606 104.821H281.526L277.558 100.581L280.758 97.349H278.774L276.198 99.957V93.285H274.758V104.821H276.198V101.173ZM288.24 104.821H289.68V97.349H288.24V98.469C287.744 97.621 286.656 97.189 285.616 97.189C283.568 97.189 281.824 98.693 281.824 101.077C281.824 103.445 283.568 104.981 285.616 104.981C286.656 104.981 287.744 104.517 288.24 103.669V104.821ZM288.224 101.061C288.224 102.645 287.072 103.557 285.744 103.557C284.4 103.557 283.312 102.533 283.312 101.061C283.312 99.573 284.4 98.613 285.744 98.613C286.944 98.613 288.224 99.461 288.224 101.061ZM293.237 105.893C293.045 105.989 292.213 106.453 292.021 106.533C292.741 107.845 294.021 108.549 295.397 108.549C297.861 108.549 299.477 107.205 299.477 103.685V97.349H298.037V98.517C297.541 97.653 296.453 97.189 295.413 97.189C293.365 97.189 291.621 98.725 291.621 101.109C291.621 103.477 293.365 104.981 295.413 104.981C296.453 104.981 297.589 104.485 298.037 103.605C298.037 103.669 298.053 103.717 298.053 103.781C298.053 106.261 297.013 107.173 295.397 107.173C294.565 107.173 293.685 106.725 293.237 105.893ZM298.021 101.093C298.021 102.677 296.741 103.557 295.541 103.557C294.197 103.557 293.109 102.613 293.109 101.093C293.109 99.637 294.197 98.613 295.541 98.613C296.869 98.613 298.021 99.493 298.021 101.093ZM303.338 104.821H301.898V97.349H303.338V104.821ZM301.61 94.597C301.61 95.141 302.074 95.541 302.618 95.541C303.178 95.541 303.626 95.141 303.626 94.597C303.626 94.053 303.178 93.653 302.618 93.653C302.074 93.653 301.61 94.053 301.61 94.597ZM307.229 100.789C307.229 99.205 308.285 98.613 309.341 98.613C310.365 98.613 310.989 99.349 310.989 100.597V104.821C311.213 104.821 312.205 104.821 312.445 104.821V100.501C312.445 98.405 311.421 97.189 309.565 97.189C308.749 97.189 307.677 97.573 307.229 98.469V97.349H305.773V104.821H307.229V100.789ZM315.909 105.893C315.717 105.989 314.885 106.453 314.693 106.533C315.413 107.845 316.693 108.549 318.069 108.549C320.533 108.549 322.149 107.205 322.149 103.685V97.349H320.709V98.517C320.213 97.653 319.125 97.189 318.085 97.189C316.037 97.189 314.293 98.725 314.293 101.109C314.293 103.477 316.037 104.981 318.085 104.981C319.125 104.981 320.261 104.485 320.709 103.605C320.709 103.669 320.725 103.717 320.725 103.781C320.725 106.261 319.685 107.173 318.069 107.173C317.237 107.173 316.357 106.725 315.909 105.893ZM320.693 101.093C320.693 102.677 319.413 103.557 318.213 103.557C316.869 103.557 315.781 102.613 315.781 101.093C315.781 99.637 316.869 98.613 318.213 98.613C319.541 98.613 320.693 99.493 320.693 101.093Z" fill="#151515"/>
<path d="M478.65 167.218V167.188C478.65 158.813 471.837 152 463.463 152C455.088 152 448.275 158.813 448.275 167.188V167.218C446.846 167.423 445.744 168.656 445.744 170.141V172.672C445.744 173.868 446.459 174.899 447.484 175.363L449.782 199.113C449.859 199.908 450.241 200.6 450.807 201.08V203.047C450.807 204.675 452.131 206 453.76 206H473.166C474.794 206 476.119 204.675 476.119 203.047V201.08C476.684 200.6 477.066 199.908 477.143 199.113L479.442 175.363C480.466 174.899 481.181 173.868 481.181 172.672V170.141C481.181 168.656 480.079 167.424 478.65 167.218ZM471.292 156.196L470.48 161.882C470.391 162.502 469.853 162.969 469.227 162.969H457.698C457.073 162.969 456.534 162.502 456.445 161.882L455.633 156.196C457.843 154.617 460.546 153.688 463.463 153.688C466.379 153.688 469.082 154.617 471.292 156.196ZM454.109 157.462L454.775 162.121C454.981 163.566 456.238 164.656 457.698 164.656H469.227C470.687 164.656 471.944 163.566 472.15 162.121L472.816 157.462C475.37 159.92 476.963 163.371 476.963 167.188H449.963C449.963 163.371 451.555 159.92 454.109 157.462ZM474.431 203.047C474.431 203.745 473.864 204.312 473.166 204.312H453.76C453.062 204.312 452.494 203.745 452.494 203.047V201.772C452.569 201.778 452.645 201.781 452.721 201.781H474.204C474.281 201.781 474.356 201.778 474.432 201.772V203.047H474.431ZM475.464 198.95C475.4 199.602 474.859 200.094 474.204 200.094H452.721C452.066 200.094 451.525 199.602 451.462 198.95L449.205 175.625H477.721L475.464 198.95ZM479.494 172.672C479.494 173.37 478.926 173.938 478.228 173.938H448.697C447.999 173.938 447.431 173.37 447.431 172.672V170.141C447.431 169.443 447.999 168.875 448.697 168.875H449.119H477.806H478.228C478.926 168.875 479.494 169.443 479.494 170.141V172.672Z" fill="black"/>
<path d="M459.492 187.337C459.903 187.558 460.414 187.404 460.635 186.994L462.98 182.64C463.068 182.477 463.238 182.375 463.424 182.375H463.502C463.687 182.375 463.857 182.477 463.945 182.64L466.29 186.994C466.442 187.277 466.733 187.438 467.033 187.438C467.169 187.438 467.306 187.405 467.433 187.337C467.843 187.116 467.997 186.604 467.776 186.194L465.431 181.84C465.048 181.129 464.309 180.688 463.502 180.688H463.424C462.616 180.688 461.877 181.129 461.494 181.84L459.15 186.194C458.929 186.604 459.082 187.116 459.492 187.337Z" fill="black"/>
<path d="M458.061 195.031H461.775C462.241 195.031 462.619 194.653 462.619 194.187C462.619 193.721 462.241 193.344 461.775 193.344H458.061C457.783 193.344 457.556 193.118 457.556 192.84C457.556 192.756 457.577 192.674 457.617 192.6L458.818 190.369C459.039 189.958 458.886 189.447 458.475 189.226C458.065 189.005 457.553 189.158 457.332 189.569L456.132 191.799C455.96 192.118 455.869 192.477 455.869 192.84C455.869 194.048 456.852 195.031 458.061 195.031Z" fill="black"/>
<path d="M469.309 192.601C469.348 192.674 469.369 192.756 469.369 192.84C469.369 193.118 469.143 193.344 468.865 193.344H465.15C464.684 193.344 464.306 193.721 464.306 194.187C464.306 194.653 464.684 195.031 465.15 195.031H468.865C470.073 195.031 471.056 194.048 471.056 192.84C471.056 192.477 470.966 192.118 470.794 191.8L469.593 189.569C469.372 189.158 468.86 189.005 468.45 189.226C468.04 189.447 467.886 189.958 468.107 190.369L469.309 192.601Z" fill="black"/>
<path d="M414.052 237.072L410.164 228.976H408.804L407.46 240H408.932L409.94 231.712L413.412 238.784H414.724L418.164 231.712L419.172 240H420.644L419.3 228.976H417.94L414.052 237.072ZM424.173 240H422.733V232.528H424.173V240ZM422.445 229.776C422.445 230.32 422.909 230.72 423.453 230.72C424.013 230.72 424.461 230.32 424.461 229.776C424.461 229.232 424.013 228.832 423.453 228.832C422.909 228.832 422.445 229.232 422.445 229.776ZM428.064 235.968C428.064 234.384 429.12 233.792 430.176 233.792C431.2 233.792 431.824 234.528 431.824 235.776V240C432.048 240 433.04 240 433.28 240V235.68C433.28 233.584 432.256 232.368 430.4 232.368C429.584 232.368 428.512 232.752 428.064 233.648V232.528H426.608V240H428.064V235.968ZM437.064 240H435.624V232.528H437.064V240ZM435.336 229.776C435.336 230.32 435.8 230.72 436.344 230.72C436.904 230.72 437.352 230.32 437.352 229.776C437.352 229.232 436.904 228.832 436.344 228.832C435.8 228.832 435.336 229.232 435.336 229.776ZM448.091 233.792C449.163 233.792 449.803 234.544 449.803 235.776V240H451.259V235.68C451.259 233.584 450.251 232.368 448.379 232.368C447.643 232.368 446.475 232.576 445.787 233.904C445.435 233.088 444.779 232.592 443.835 232.448C443.579 232.4 443.307 232.384 443.019 232.4C442.411 232.448 441.355 232.816 440.955 233.648V232.528H439.499V240H440.955V235.968C440.955 234.4 441.995 233.792 443.035 233.792C444.011 233.792 444.651 234.528 444.651 235.76V240C444.891 240 445.883 240 446.107 240V235.968C446.107 234.72 446.859 233.776 448.091 233.792ZM455.033 240H453.593V232.528H455.033V240ZM453.305 229.776C453.305 230.32 453.769 230.72 454.313 230.72C454.873 230.72 455.321 230.32 455.321 229.776C455.321 229.232 454.873 228.832 454.313 228.832C453.769 228.832 453.305 229.232 453.305 229.776ZM459.164 236.704L460.188 236.944C460.732 237.072 461.196 237.344 461.18 237.888C461.164 238.432 460.716 238.816 460.044 238.864C459.564 238.896 459.18 238.8 458.86 238.608C458.508 238.432 458.3 238.08 458.252 237.76H456.924C456.972 239.296 458.364 240.16 459.708 240.16C461.26 240.16 462.604 239.312 462.604 237.92C462.604 237.072 462.22 236.128 460.668 235.744L459.564 235.472C459.18 235.36 458.828 235.2 458.684 234.896C458.604 234.72 458.604 234.544 458.668 234.304C458.78 233.904 459.244 233.632 459.788 233.632C460.364 233.632 460.876 233.92 460.956 234.48H462.348C462.22 232.96 461.02 232.368 459.756 232.368C458.428 232.368 457.276 233.184 457.164 234.272C457.036 235.648 457.804 236.336 459.164 236.704ZM465.459 235.68C465.635 234.432 466.595 233.68 467.827 233.68C469.027 233.68 469.923 234.432 470.099 235.68H465.459ZM471.539 236.24C471.539 233.872 469.955 232.368 467.827 232.368C465.699 232.368 464.003 233.872 464.003 236.24C464.003 238.608 465.699 240.16 467.827 240.16C469.267 240.16 470.627 239.488 471.267 238.176C470.867 238.016 470.403 237.856 470.019 237.696C469.603 238.432 468.771 238.848 467.875 238.848C466.611 238.848 465.635 238.064 465.459 236.816H471.523C471.539 236.656 471.539 236.416 471.539 236.24ZM488.39 228.976L485.622 237.6L483.59 230.464H482.454L480.422 237.6L477.654 228.976H476.054L479.782 240H481.078L483.014 233.12L484.966 240H486.262L489.99 228.976H488.39ZM496.622 240H498.062V232.528H496.622V233.648C496.126 232.8 495.038 232.368 493.998 232.368C491.95 232.368 490.206 233.872 490.206 236.256C490.206 238.624 491.95 240.16 493.998 240.16C495.038 240.16 496.126 239.696 496.622 238.848V240ZM496.606 236.24C496.606 237.824 495.454 238.736 494.126 238.736C492.782 238.736 491.694 237.712 491.694 236.24C491.694 234.752 492.782 233.792 494.126 233.792C495.326 233.792 496.606 234.64 496.606 236.24ZM502.195 236.704L503.219 236.944C503.763 237.072 504.227 237.344 504.211 237.888C504.195 238.432 503.747 238.816 503.075 238.864C502.595 238.896 502.211 238.8 501.891 238.608C501.539 238.432 501.331 238.08 501.283 237.76H499.955C500.003 239.296 501.395 240.16 502.739 240.16C504.291 240.16 505.635 239.312 505.635 237.92C505.635 237.072 505.251 236.128 503.699 235.744L502.595 235.472C502.211 235.36 501.859 235.2 501.715 234.896C501.635 234.72 501.635 234.544 501.699 234.304C501.811 233.904 502.275 233.632 502.819 233.632C503.395 233.632 503.907 233.92 503.987 234.48H505.379C505.251 232.96 504.051 232.368 502.787 232.368C501.459 232.368 500.307 233.184 500.195 234.272C500.067 235.648 500.835 236.336 502.195 236.704ZM509.546 232.528V229.712H508.09V232.528H506.746V233.76H508.09V240H509.546V233.76H511.13V232.528H509.546ZM513.631 235.68C513.807 234.432 514.767 233.68 515.999 233.68C517.199 233.68 518.095 234.432 518.271 235.68H513.631ZM519.711 236.24C519.711 233.872 518.127 232.368 515.999 232.368C513.871 232.368 512.175 233.872 512.175 236.24C512.175 238.608 513.871 240.16 515.999 240.16C517.439 240.16 518.799 239.488 519.439 238.176C519.039 238.016 518.575 237.856 518.191 237.696C517.775 238.432 516.943 238.848 516.047 238.848C514.783 238.848 513.807 238.064 513.631 236.816H519.695C519.711 236.656 519.711 236.416 519.711 236.24Z" fill="#151515"/>
<g clip-path="url(#clip4)">
<path d="M414.864 350.531C410.973 350.531 407.315 352.046 404.564 354.798L402.43 356.932L400.295 354.798C397.544 352.046 393.887 350.531 389.996 350.531C381.964 350.531 375.43 357.066 375.43 365.097V366.785C375.43 370.675 376.945 374.333 379.696 377.084L401.833 399.222C402.163 399.551 402.697 399.551 403.026 399.222L425.163 377.084C427.915 374.333 429.43 370.676 429.43 366.785V365.097C429.43 357.066 422.895 350.531 414.864 350.531ZM427.742 366.785C427.742 370.225 426.403 373.459 423.97 375.891L402.43 397.432L380.889 375.891C378.457 373.459 377.117 370.225 377.117 366.785V365.097C377.117 357.996 382.894 352.219 389.996 352.219C393.436 352.219 396.67 353.558 399.102 355.991L401.833 358.722C402.162 359.051 402.697 359.051 403.026 358.722L405.757 355.991C408.19 353.558 411.424 352.219 414.864 352.219C421.965 352.219 427.742 357.996 427.742 365.097V366.785Z" fill="black"/>
<path d="M414.242 365.719H410.867C407.128 365.719 403.898 367.942 402.43 371.136C400.961 367.942 397.732 365.719 393.992 365.719H390.617C390.151 365.719 389.773 366.097 389.773 366.562V369.094C389.773 374.211 393.937 378.375 399.055 378.375H401.586V381.75C401.586 382.216 401.964 382.594 402.43 382.594C402.896 382.594 403.273 382.216 403.273 381.75V378.375H405.805C410.922 378.375 415.086 374.211 415.086 369.094V366.562C415.086 366.097 414.708 365.719 414.242 365.719ZM391.461 369.094V367.406H393.992C398.179 367.406 401.586 370.813 401.586 375V375.672L396.235 370.99C395.885 370.683 395.352 370.719 395.045 371.069C394.738 371.42 394.773 371.953 395.124 372.26L400.184 376.688H399.055C394.867 376.688 391.461 373.281 391.461 369.094ZM413.398 369.094C413.398 373.281 409.992 376.688 405.805 376.688H404.675L409.735 372.26C410.086 371.953 410.122 371.42 409.815 371.069C409.508 370.719 408.975 370.683 408.624 370.99L403.273 375.672V375C403.273 370.813 406.68 367.406 410.867 367.406H413.398V369.094Z" fill="black"/>
</g>
<path d="M360.059 424.976V436H361.563V431.872H364.459C366.795 431.872 367.739 430.176 367.739 428.432C367.739 426.704 366.795 424.976 364.459 424.976H360.059ZM364.443 426.368C365.723 426.368 366.251 427.424 366.251 428.432C366.251 429.456 365.707 430.48 364.363 430.48H361.563V426.368H364.443ZM375.113 436H376.553V428.528H375.113V429.648C374.617 428.8 373.529 428.368 372.489 428.368C370.441 428.368 368.697 429.872 368.697 432.256C368.697 434.624 370.441 436.16 372.489 436.16C373.529 436.16 374.617 435.696 375.113 434.848V436ZM375.097 432.24C375.097 433.824 373.945 434.736 372.617 434.736C371.273 434.736 370.185 433.712 370.185 432.24C370.185 430.752 371.273 429.792 372.617 429.792C373.817 429.792 375.097 430.64 375.097 432.24ZM380.446 433.28C380.446 431.296 381.054 429.76 382.494 429.76C382.798 429.76 383.198 429.824 383.598 430.016L383.822 428.656C383.614 428.512 383.054 428.368 382.526 428.368C381.55 428.368 380.83 428.896 380.446 430.208V428.528H378.99V436H380.446V433.28ZM387.318 428.528V425.712H385.862V428.528H384.518V429.76H385.862V436H387.318V429.76H388.902V428.528H387.318ZM392.008 431.968C392.008 430.384 393.064 429.792 394.12 429.792C395.144 429.792 395.768 430.528 395.768 431.776V436C395.992 436 396.984 436 397.224 436V431.68C397.224 429.584 396.2 428.368 394.344 428.368C393.528 428.368 392.456 428.752 392.008 429.648V428.528H390.552V436H392.008V431.968ZM400.528 431.68C400.704 430.432 401.664 429.68 402.896 429.68C404.096 429.68 404.992 430.432 405.168 431.68H400.528ZM406.608 432.24C406.608 429.872 405.024 428.368 402.896 428.368C400.768 428.368 399.072 429.872 399.072 432.24C399.072 434.608 400.768 436.16 402.896 436.16C404.336 436.16 405.696 435.488 406.336 434.176C405.936 434.016 405.472 433.856 405.088 433.696C404.672 434.432 403.84 434.848 402.944 434.848C401.68 434.848 400.704 434.064 400.528 432.816H406.592C406.608 432.656 406.608 432.416 406.608 432.24ZM409.914 433.28C409.914 431.296 410.522 429.76 411.962 429.76C412.266 429.76 412.666 429.824 413.066 430.016L413.29 428.656C413.082 428.512 412.522 428.368 411.994 428.368C411.018 428.368 410.298 428.896 409.914 430.208V428.528H408.458V436H409.914V433.28ZM416.404 432.704L417.428 432.944C417.972 433.072 418.436 433.344 418.42 433.888C418.404 434.432 417.956 434.816 417.284 434.864C416.804 434.896 416.42 434.8 416.1 434.608C415.748 434.432 415.54 434.08 415.492 433.76H414.164C414.212 435.296 415.604 436.16 416.948 436.16C418.5 436.16 419.844 435.312 419.844 433.92C419.844 433.072 419.46 432.128 417.908 431.744L416.804 431.472C416.42 431.36 416.068 431.2 415.924 430.896C415.844 430.72 415.844 430.544 415.908 430.304C416.02 429.904 416.484 429.632 417.028 429.632C417.604 429.632 418.116 429.92 418.196 430.48H419.588C419.46 428.96 418.26 428.368 416.996 428.368C415.668 428.368 414.516 429.184 414.404 430.272C414.276 431.648 415.044 432.336 416.404 432.704ZM423.196 431.968C423.196 430.368 424.444 429.792 425.468 429.792C426.492 429.792 427.228 430.544 427.228 431.776V436C427.468 436 428.444 436 428.684 436V431.68C428.7 429.584 427.532 428.368 425.66 428.368C424.844 428.368 423.644 428.752 423.196 429.648V424.464H421.74V436H423.196V431.968ZM432.461 436H431.021V428.528H432.461V436ZM430.733 425.776C430.733 426.32 431.197 426.72 431.741 426.72C432.301 426.72 432.749 426.32 432.749 425.776C432.749 425.232 432.301 424.832 431.741 424.832C431.197 424.832 430.733 425.232 430.733 425.776ZM436.352 428.528H434.896V439.632H436.352V434.88C436.848 435.744 437.92 436.16 438.96 436.16C441.008 436.16 442.704 434.656 442.704 432.288C442.704 429.92 441.008 428.368 438.96 428.368C437.92 428.368 436.848 428.848 436.352 429.696V428.528ZM436.368 432.304C436.368 430.72 437.504 429.792 438.816 429.792C440.16 429.792 441.232 430.816 441.232 432.304C441.232 433.792 440.16 434.736 438.816 434.736C437.616 434.736 436.368 433.904 436.368 432.304ZM446.342 432.704L447.366 432.944C447.91 433.072 448.374 433.344 448.358 433.888C448.342 434.432 447.894 434.816 447.222 434.864C446.742 434.896 446.358 434.8 446.038 434.608C445.686 434.432 445.478 434.08 445.43 433.76H444.102C444.15 435.296 445.542 436.16 446.886 436.16C448.438 436.16 449.782 435.312 449.782 433.92C449.782 433.072 449.398 432.128 447.846 431.744L446.742 431.472C446.358 431.36 446.006 431.2 445.862 430.896C445.782 430.72 445.782 430.544 445.846 430.304C445.958 429.904 446.422 429.632 446.966 429.632C447.542 429.632 448.054 429.92 448.134 430.48H449.526C449.398 428.96 448.198 428.368 446.934 428.368C445.606 428.368 444.454 429.184 444.342 430.272C444.214 431.648 444.982 432.336 446.342 432.704Z" fill="#151515"/>
<path d="M116.097 286.362C115.744 285.937 115.114 285.878 114.689 286.23L107.761 291.976C107.336 292.328 107.277 292.959 107.63 293.384C107.982 293.809 108.613 293.868 109.038 293.515L115.196 288.408L120.303 294.566C120.655 294.991 121.286 295.05 121.711 294.697C122.136 294.345 122.195 293.714 121.842 293.289L116.097 286.362ZM123.24 326.626C120.359 319.494 114.968 301.612 116.323 287.093L114.331 286.907C112.933 301.9 118.462 320.136 121.385 327.374L123.24 326.626Z" fill="#00635B"/>
<path d="M189.128 80.3985C189.348 79.8919 189.116 79.3029 188.609 79.0828L180.355 75.4967C179.848 75.2766 179.259 75.5088 179.039 76.0154C178.819 76.5219 179.051 77.111 179.558 77.331L186.895 80.5187L183.708 87.8562C183.488 88.3628 183.72 88.9518 184.226 89.1719C184.733 89.3919 185.322 89.1597 185.542 88.6531L189.128 80.3985ZM152.318 111.161C155.079 107.426 160.23 101.402 166.665 95.5362C173.108 89.6636 180.779 84.0053 188.578 80.9303L187.844 79.0697C179.723 82.2718 171.844 88.11 165.318 94.0581C158.785 100.013 153.547 106.134 150.71 109.972L152.318 111.161Z" fill="#00635B"/>
<path d="M412.63 109.904C413.16 110.058 413.716 109.754 413.871 109.224L416.393 100.585C416.548 100.055 416.244 99.4995 415.714 99.3447C415.184 99.1898 414.628 99.4941 414.474 100.024L412.231 107.703L404.552 105.461C404.022 105.306 403.466 105.61 403.312 106.141C403.157 106.671 403.461 107.226 403.991 107.381L412.63 109.904ZM377.495 77.2409C381.547 79.5123 388.169 83.867 394.796 89.5161C401.43 95.1719 408.005 102.072 412.034 109.424L413.788 108.463C409.593 100.807 402.813 93.7226 396.093 87.9941C389.366 82.2589 382.637 77.83 378.473 75.4963L377.495 77.2409Z" fill="#00635B"/>
<path d="M436.37 325.074C436.437 325.622 436.936 326.012 437.484 325.945L446.418 324.851C446.966 324.784 447.356 324.285 447.289 323.737C447.221 323.188 446.723 322.798 446.174 322.866L438.234 323.838L437.261 315.897C437.194 315.349 436.695 314.959 436.147 315.026C435.599 315.094 435.209 315.592 435.276 316.141L436.37 325.074ZM452.502 279.895C452.015 284.515 450.63 292.319 448.057 300.637C445.481 308.966 441.738 317.732 436.575 324.336L438.151 325.568C443.527 318.691 447.359 309.664 449.968 301.228C452.58 292.783 453.991 284.851 454.491 280.105L452.502 279.895Z" fill="#00635B"/>
<path d="M261.616 422.606C261.103 422.809 260.851 423.39 261.055 423.904L264.367 432.272C264.57 432.785 265.151 433.037 265.665 432.834C266.178 432.63 266.43 432.049 266.227 431.536L263.282 424.097L270.721 421.153C271.234 420.95 271.486 420.369 271.282 419.855C271.079 419.342 270.498 419.09 269.985 419.293L261.616 422.606ZM309.403 426.818C304.81 427.513 296.909 428.141 288.211 427.75C279.502 427.358 270.075 425.948 262.382 422.618L261.587 424.453C269.599 427.921 279.3 429.351 288.121 429.748C296.952 430.145 304.983 429.509 309.702 428.795L309.403 426.818Z" fill="#00635B"/>
<defs>
<clipPath id="clip0">
<rect width="168.81" height="123.841" fill="white" transform="translate(188.772 187.663)"/>
</clipPath>
<clipPath id="clip1">
<rect width="54" height="54" fill="white" transform="translate(147.281 348)"/>
</clipPath>
<clipPath id="clip2">
<rect width="54" height="54" fill="white" transform="translate(92.4377 152)"/>
</clipPath>
<clipPath id="clip3">
<rect width="54" height="54" fill="white" transform="translate(255.667 16.821)"/>
</clipPath>
<clipPath id="clip4">
<rect width="54" height="54" fill="white" transform="translate(375.43 348)"/>
</clipPath>
</defs>
</svg>
